<svg width="20" height="21" viewBox="0 0 20 21" fill="none" xmlns="http://www.w3.org/2000/svg">
<g clip-path="url(#clip0_1907_206)">
<path d="M13.3156 3.89111C13.8104 3.89111 14.2712 3.98389 14.698 4.16943C15.1247 4.35498 15.4989 4.60856 15.8205 4.93018C16.204 4.85596 16.5782 4.75081 16.9431 4.61475C17.308 4.47868 17.6512 4.31787 17.9729 4.13232C17.8492 4.51579 17.6574 4.86523 17.3977 5.18066C17.1379 5.49609 16.8348 5.75277 16.4885 5.95068C16.8225 5.91357 17.1534 5.85173 17.4812 5.76514C17.809 5.67855 18.1275 5.56722 18.4367 5.43115C18.2141 5.76514 17.9574 6.07747 17.6667 6.36816C17.376 6.65885 17.0637 6.92171 16.7297 7.15674C16.7421 7.21859 16.7482 7.28662 16.7482 7.36084C16.7482 7.43506 16.7482 7.50928 16.7482 7.5835C16.7482 8.67204 16.538 9.77604 16.1174 10.8955C15.6968 12.015 15.0752 13.0262 14.2526 13.9292C13.4301 14.8322 12.4126 15.5682 11.2004 16.1372C9.98816 16.7062 8.60274 16.9907 7.04415 16.9907C6.0793 16.9907 5.15466 16.8608 4.27022 16.6011C3.38578 16.3413 2.56628 15.9764 1.81173 15.5063C1.94779 15.5187 2.08077 15.5311 2.21065 15.5435C2.34053 15.5558 2.47969 15.562 2.62813 15.562C3.4198 15.562 4.17745 15.4352 4.90108 15.1816C5.62471 14.9281 6.27722 14.5786 6.8586 14.1333C6.11641 14.1209 5.45463 13.8983 4.87325 13.4653C4.29187 13.0324 3.88985 12.4881 3.66719 11.8325C3.77852 11.8573 3.88676 11.8758 3.9919 11.8882C4.09704 11.9006 4.20528 11.9067 4.31661 11.9067C4.46505 11.9067 4.61658 11.8944 4.7712 11.8696C4.92582 11.8449 5.07117 11.814 5.20723 11.7769C4.42794 11.6284 3.77852 11.2511 3.25899 10.645C2.73946 10.0389 2.47969 9.33382 2.47969 8.52979C2.47969 8.52979 2.47969 8.52669 2.47969 8.52051C2.47969 8.51432 2.47969 8.50505 2.47969 8.49268C2.70235 8.61637 2.94356 8.71533 3.20333 8.78955C3.46309 8.86377 3.73523 8.90088 4.01973 8.90088C3.56205 8.604 3.19405 8.21436 2.91573 7.73193C2.63741 7.24951 2.49825 6.7238 2.49825 6.15479C2.49825 5.84554 2.53845 5.55176 2.61885 5.27344C2.69926 4.99512 2.81368 4.73226 2.96212 4.48486C3.38269 4.99202 3.85274 5.44971 4.37227 5.85791C4.8918 6.26611 5.45154 6.61865 6.05147 6.91553C6.65141 7.2124 7.28227 7.45052 7.94405 7.62988C8.60583 7.80924 9.28926 7.91748 9.99434 7.95459C9.9696 7.83089 9.94796 7.7041 9.9294 7.57422C9.91085 7.44434 9.90157 7.31755 9.90157 7.19385C9.90157 6.27848 10.2356 5.49919 10.9035 4.85596C11.5715 4.21273 12.3755 3.89111 13.3156 3.89111ZM13.3156 2.70361C12.7343 2.70361 12.1838 2.80257 11.6643 3.00049C11.1447 3.1984 10.684 3.47363 10.2819 3.82617C9.87992 4.17871 9.54594 4.5931 9.27999 5.06934C9.01404 5.54557 8.84395 6.05583 8.76973 6.6001C7.80489 6.41455 6.90189 6.07438 6.06075 5.57959C5.2196 5.0848 4.48979 4.46631 3.8713 3.72412C3.75997 3.58805 3.6239 3.48291 3.46309 3.40869C3.30229 3.33447 3.13529 3.29736 2.96212 3.29736C2.94975 3.29736 2.93428 3.29736 2.91573 3.29736C2.89717 3.29736 2.88171 3.30355 2.86934 3.31592C2.6838 3.32829 2.50753 3.38395 2.34053 3.48291C2.17354 3.58187 2.04057 3.71175 1.94161 3.87256C1.74369 4.21891 1.58907 4.58691 1.47774 4.97656C1.36641 5.36621 1.31075 5.75895 1.31075 6.15479C1.31075 6.42692 1.33549 6.69287 1.38497 6.95264C1.43445 7.2124 1.50248 7.4598 1.58907 7.69482C1.49011 7.80615 1.41589 7.92985 1.36641 8.06592C1.31693 8.20199 1.29219 8.34424 1.29219 8.49268V8.52979C1.29219 9.11117 1.40043 9.66471 1.6169 10.1904C1.83337 10.7161 2.13334 11.1831 2.5168 11.5913C2.49206 11.6903 2.48279 11.7923 2.48897 11.8975C2.49516 12.0026 2.51062 12.1047 2.53536 12.2036C2.67143 12.6118 2.85697 12.986 3.092 13.3262C3.32702 13.6663 3.59916 13.9663 3.90841 14.2261C3.69812 14.2756 3.48474 14.3127 3.26827 14.3374C3.0518 14.3621 2.83842 14.3745 2.62813 14.3745C2.50443 14.3745 2.38692 14.3714 2.27559 14.3652C2.16426 14.359 2.05294 14.3498 1.94161 14.3374C1.91687 14.325 1.89522 14.3188 1.87667 14.3188C1.85811 14.3188 1.83647 14.3188 1.81173 14.3188C1.56433 14.3188 1.33549 14.3931 1.1252 14.5415C0.914916 14.6899 0.766478 14.8817 0.67989 15.1167C0.593301 15.3765 0.596393 15.6393 0.689167 15.9053C0.78194 16.1712 0.94584 16.3722 1.18087 16.5083C1.61381 16.7928 2.06531 17.0371 2.53536 17.2412C3.00541 17.4453 3.48783 17.6185 3.98262 17.7607C4.47742 17.903 4.98148 18.0081 5.49483 18.0762C6.00818 18.1442 6.52462 18.1782 7.04415 18.1782C8.72644 18.1782 10.2386 17.8783 11.5808 17.2783C12.9229 16.6784 14.0609 15.8867 14.9948 14.9033C15.9288 13.9199 16.6462 12.8005 17.1472 11.5449C17.6482 10.2894 17.911 9.01839 17.9357 7.73193C18.2079 7.49691 18.4677 7.24951 18.715 6.98975C18.9624 6.72998 19.1851 6.45166 19.383 6.15479C19.4572 6.05583 19.516 5.9445 19.5593 5.8208C19.6026 5.6971 19.6242 5.56722 19.6242 5.43115C19.6242 5.23324 19.5778 5.04769 19.4851 4.87451C19.3923 4.70133 19.2717 4.56527 19.1232 4.46631C19.1851 4.23128 19.182 3.99935 19.114 3.77051C19.0459 3.54167 18.9191 3.35303 18.7336 3.20459C18.6223 3.118 18.5017 3.05306 18.3718 3.00977C18.2419 2.96647 18.1089 2.94482 17.9729 2.94482C17.8739 2.94482 17.7749 2.95719 17.676 2.98193C17.577 3.00667 17.4781 3.04378 17.3791 3.09326C17.1936 3.21696 16.9956 3.3221 16.7854 3.40869C16.5751 3.49528 16.3586 3.5695 16.1359 3.63135C15.7277 3.33447 15.2855 3.10563 14.8093 2.94482C14.333 2.78402 13.8352 2.70361 13.3156 2.70361Z" fill="white"/>
</g>
<defs>
<clipPath id="clip0_1907_206">
<rect width="19" height="20.89" fill="white" transform="matrix(1 0 0 -1 0.625 20.8857)"/>
</clipPath>
</defs>
</svg>
