<svg width="20" height="21" viewBox="0 0 20 21" fill="none" xmlns="http://www.w3.org/2000/svg">
<path d="M11.6729 2.42529C11.71 2.42529 11.7378 2.42839 11.7563 2.43457C11.7749 2.44076 11.7842 2.44385 11.7842 2.44385H13.3242V4.2251H11.7842C11.3636 4.2251 11.1193 4.3457 11.0513 4.58691C10.9832 4.82812 10.9492 4.94873 10.9492 4.94873V7.76904H13.9551L13.5283 9.55029H10.9492V18.4565H9.16797V9.55029H6.79297V7.76904H9.16797C9.16797 7.76904 9.16797 7.38249 9.16797 6.60938C9.16797 5.83626 9.16797 5.30127 9.16797 5.00439C9.16797 3.79215 9.5236 3.05924 10.2349 2.80566C10.9461 2.55208 11.4255 2.42529 11.6729 2.42529ZM11.6729 1.23779C11.4626 1.23779 11.1657 1.27181 10.7822 1.33984C10.3988 1.40788 10.0091 1.55941 9.61328 1.79443C9.24219 2.01709 8.87728 2.37891 8.51855 2.87988C8.15983 3.38086 7.98047 4.08903 7.98047 5.00439V6.58154H6.79297C6.63216 6.58154 6.48063 6.61247 6.33838 6.67432C6.19613 6.73617 6.06934 6.82275 5.95801 6.93408C5.84668 7.04541 5.76009 7.1722 5.69824 7.31445C5.63639 7.45671 5.60547 7.60824 5.60547 7.76904V9.55029C5.60547 9.87191 5.72298 10.1502 5.95801 10.3853C6.19303 10.6203 6.47135 10.7378 6.79297 10.7378H7.98047V18.438C7.98047 18.772 8.09489 19.0534 8.32373 19.2822C8.55257 19.5111 8.83398 19.6255 9.16797 19.6255H10.9492C11.2708 19.6255 11.5492 19.5111 11.7842 19.2822C12.0192 19.0534 12.1367 18.772 12.1367 18.438V10.7378H13.5283C13.8005 10.7378 14.0417 10.6574 14.252 10.4966C14.4622 10.3358 14.6045 10.1317 14.6787 9.88428L15.0869 8.10303C15.1488 7.91748 15.1611 7.73503 15.124 7.55566C15.0869 7.3763 15.0127 7.2124 14.9014 7.06396C14.79 6.90316 14.6509 6.78255 14.4839 6.70215C14.3169 6.62174 14.1406 6.58154 13.9551 6.58154H12.1367V5.4126H13.3242C13.6458 5.4126 13.9242 5.29508 14.1592 5.06006C14.3942 4.82503 14.5117 4.54671 14.5117 4.2251V2.49951C14.5117 2.48714 14.5117 2.47786 14.5117 2.47168C14.5117 2.46549 14.5117 2.45622 14.5117 2.44385C14.5117 2.10986 14.3973 1.82845 14.1685 1.59961C13.9396 1.37077 13.6644 1.25635 13.3428 1.25635H11.8213C11.7965 1.25635 11.7718 1.25326 11.7471 1.24707C11.7223 1.24089 11.6976 1.23779 11.6729 1.23779Z" fill="white"/>
</svg>
