<svg width="21" height="20" viewBox="0 0 21 20" fill="none" xmlns="http://www.w3.org/2000/svg">
<g clip-path="url(#clip0_1907_578)">
<path d="M20.0108 4.72015C20.0232 4.6583 20.0263 4.59955 20.0201 4.54388C20.0139 4.48822 19.9985 4.43565 19.9737 4.38617C19.8995 4.05219 19.7417 3.8017 19.5003 3.6347C19.259 3.46771 18.9403 3.38422 18.5443 3.38422H3.09874C2.73983 3.38422 2.3902 3.44916 2.04985 3.57904C1.70951 3.70892 1.44651 3.89756 1.26087 4.14496C1.23612 4.15733 1.21755 4.17279 1.20517 4.19135C1.1928 4.2099 1.18042 4.22536 1.16805 4.23773C1.10616 4.31195 1.06285 4.38926 1.0381 4.46967C1.01334 4.55007 1.01334 4.63357 1.0381 4.72015C1.02572 4.74489 1.01953 4.76963 1.01953 4.79437C1.01953 4.81911 1.01953 4.84385 1.01953 4.86859V14.3686C1.01953 14.8634 1.2423 15.3334 1.68785 15.7787C2.13339 16.2241 2.60369 16.4467 3.09874 16.4467H18.5443C19.0393 16.4467 19.4106 16.2241 19.6581 15.7787C19.9056 15.3334 20.0294 14.8634 20.0294 14.3686V4.86859C20.0294 4.84385 20.0294 4.81911 20.0294 4.79437C20.0294 4.76963 20.0232 4.74489 20.0108 4.72015ZM3.09874 4.57172H18.5443L10.5245 10.9731L2.52324 4.59027C2.62225 4.5779 2.72126 4.57172 2.82027 4.57172C2.91928 4.57172 3.0121 4.57172 3.09874 4.57172ZM18.5443 15.2592H3.09874C2.93785 15.2592 2.74911 15.151 2.53252 14.9345C2.31594 14.718 2.20765 14.5294 2.20765 14.3686V5.87054L10.1346 12.1977C10.1965 12.2472 10.2584 12.2843 10.3203 12.309C10.3821 12.3338 10.4502 12.3461 10.5245 12.3461C10.5987 12.3461 10.6668 12.3338 10.7287 12.309C10.7906 12.2843 10.8524 12.2472 10.9143 12.1977L18.8413 5.87054V14.3686C18.8413 14.5294 18.832 14.718 18.8134 14.9345C18.7949 15.151 18.7052 15.2592 18.5443 15.2592Z" fill="white"/>
</g>
<defs>
<clipPath id="clip0_1907_578">
<rect width="19.24" height="19" fill="white" transform="matrix(1 0 0 -1 0.904297 19.4155)"/>
</clipPath>
</defs>
</svg>
