<svg width="20" height="20" viewBox="0 0 20 20" fill="none" xmlns="http://www.w3.org/2000/svg">
<g clip-path="url(#clip0_1907_574)">
<path d="M19.2947 14.7397C19.2205 14.6778 18.9978 14.5232 18.6267 14.2758C18.2556 14.0284 17.8505 13.7594 17.4114 13.4687C16.9723 13.178 16.5579 12.9059 16.1682 12.6523C15.7786 12.3987 15.5343 12.241 15.4353 12.1791C15.3487 12.1297 15.256 12.0895 15.157 12.0585C15.058 12.0276 14.9529 12.0121 14.8416 12.0121C14.6931 12.0121 14.5416 12.0338 14.387 12.0771C14.2324 12.1204 14.0747 12.1853 13.9138 12.2719C13.7654 12.3461 13.5025 12.4915 13.1253 12.7079C12.748 12.9244 12.448 13.0945 12.2254 13.2182C12.0275 13.0821 11.6935 12.8193 11.2234 12.4296C10.7534 12.04 10.1472 11.4741 9.40505 10.7319C8.67524 10.0021 8.1155 9.40212 7.72585 8.93207C7.33621 8.46202 7.07335 8.12803 6.93728 7.93011C7.06098 7.69509 7.22797 7.39203 7.43826 7.02094C7.64854 6.64984 7.79698 6.39008 7.88357 6.24164C8.03201 5.94476 8.11241 5.66026 8.12478 5.38812C8.13715 5.11599 8.08767 4.88715 7.97634 4.7016C7.91449 4.60264 7.75678 4.36143 7.5032 3.97797C7.24962 3.5945 6.97748 3.18321 6.68679 2.74408C6.3961 2.30495 6.12397 1.89675 5.87039 1.51947C5.61681 1.14219 5.46528 0.916443 5.4158 0.842224C5.31684 0.693787 5.18077 0.582458 5.00759 0.50824C4.83442 0.434021 4.64887 0.396912 4.45095 0.396912C4.29015 0.396912 4.12934 0.421651 3.96853 0.47113C3.80772 0.52061 3.6531 0.594828 3.50466 0.693787C3.49229 0.706156 3.34076 0.823669 3.05007 1.04633C2.75938 1.26898 2.44086 1.54421 2.09451 1.87201C1.74815 2.19981 1.42963 2.54616 1.13894 2.91107C0.848251 3.27598 0.709091 3.60687 0.72146 3.90375C0.7462 4.70778 0.944117 5.53965 1.31521 6.39935C1.6863 7.25905 2.15326 8.10948 2.71609 8.95062C3.27891 9.79177 3.9005 10.6051 4.58084 11.3906C5.26117 12.176 5.92914 12.8966 6.58474 13.5522C7.24034 14.2078 7.96088 14.8788 8.74636 15.5654C9.53184 16.2519 10.3452 16.8766 11.1863 17.4394C12.0275 18.0022 12.881 18.4692 13.7469 18.8403C14.6127 19.2114 15.4539 19.4093 16.2703 19.434H16.2888C16.5733 19.434 16.8981 19.2887 17.263 18.998C17.6279 18.7073 17.9711 18.3888 18.2927 18.0424C18.6144 17.6961 18.8865 17.3775 19.1092 17.0869C19.3318 16.7962 19.4431 16.6508 19.4431 16.6508C19.7029 16.2674 19.805 15.8932 19.7493 15.5283C19.6936 15.1634 19.5421 14.9005 19.2947 14.7397ZM18.4783 15.9457C18.1072 16.4653 17.6928 16.957 17.2351 17.4208C16.7775 17.8847 16.4435 18.1599 16.2332 18.2465C15.6765 18.2094 15.0673 18.0641 14.4055 17.8105C13.7438 17.5569 13.0418 17.1982 12.2996 16.7343C11.5574 16.2704 10.775 15.7014 9.95242 15.0273C9.12983 14.3531 8.28559 13.5831 7.4197 12.7172C6.56619 11.8513 5.80235 11.0102 5.1282 10.1938C4.45405 9.37738 3.88194 8.59808 3.41189 7.8559C2.94184 7.11371 2.58002 6.41172 2.32644 5.74994C2.07286 5.08816 1.9337 4.47894 1.90896 3.9223C1.98318 3.71202 2.25222 3.37803 2.71609 2.92035C3.17996 2.46267 3.67166 2.04828 4.19119 1.67719C4.2283 1.65245 4.2685 1.6308 4.31179 1.61224C4.35509 1.59369 4.40147 1.58441 4.45095 1.58441C4.45095 1.58441 4.45714 1.58441 4.46951 1.58441C4.48188 1.58441 4.48806 1.5906 4.48806 1.60297C4.57465 1.71429 4.73546 1.94932 4.97048 2.30804C5.20551 2.66677 5.456 3.04405 5.72195 3.43988C5.9879 3.83571 6.23839 4.21299 6.47341 4.57172C6.70844 4.93044 6.86306 5.17165 6.93728 5.29535C6.93728 5.32009 6.9311 5.36648 6.91873 5.43451C6.90636 5.50254 6.87543 5.58604 6.82595 5.685C6.77647 5.78396 6.66824 5.97878 6.50125 6.26947C6.33425 6.56016 6.13324 6.91579 5.89822 7.33636L5.52712 7.98578L5.95388 8.59808C6.11469 8.83311 6.40229 9.19802 6.81668 9.69281C7.23106 10.1876 7.81554 10.8185 8.57009 11.5854C9.32465 12.3399 9.95242 12.9213 10.4534 13.3295C10.9544 13.7377 11.3162 14.0222 11.5388 14.183L12.1511 14.6284L12.8191 14.2573C13.1284 14.0717 13.45 13.8862 13.784 13.7006C14.1179 13.5151 14.3468 13.3914 14.4705 13.3295C14.5694 13.2677 14.6498 13.2306 14.7117 13.2182C14.7735 13.2058 14.8168 13.1996 14.8416 13.1996C14.8416 13.1996 14.8478 13.1996 14.8601 13.1996C14.9715 13.2739 15.2034 13.4285 15.5559 13.6635C15.9085 13.8985 16.2888 14.1521 16.697 14.4243C17.1052 14.6964 17.4887 14.95 17.8474 15.185C18.2062 15.42 18.4474 15.5808 18.5711 15.6674C18.5711 15.6922 18.568 15.7293 18.5618 15.7787C18.5556 15.8282 18.5278 15.8839 18.4783 15.9457ZM12.6892 7.41058C12.7263 7.44769 12.7696 7.47552 12.8191 7.49408C12.8686 7.51263 12.9243 7.52191 12.9861 7.52191H13.2088C13.2088 7.52191 13.215 7.52191 13.2273 7.52191L17.4763 7.54047C17.6 7.5281 17.7052 7.47862 17.7918 7.39203C17.8784 7.30544 17.9217 7.20648 17.9217 7.09515V6.77972C17.9093 6.64366 17.8536 6.53542 17.7547 6.45502C17.6557 6.37461 17.5444 6.33441 17.4207 6.33441H14.6189L19.4802 1.47308C19.5916 1.36176 19.6472 1.22569 19.6472 1.06488C19.6472 0.904073 19.5916 0.76182 19.4802 0.638123C19.3566 0.526794 19.2143 0.47113 19.0535 0.47113C18.8927 0.47113 18.7504 0.526794 18.6267 0.638123L13.7654 5.51801L13.784 2.64203C13.784 2.51833 13.7407 2.41319 13.6541 2.3266C13.5675 2.24001 13.4685 2.19672 13.3572 2.19672H13.0418C12.9304 2.19672 12.8315 2.23073 12.7449 2.29877C12.6583 2.3668 12.6088 2.46267 12.5965 2.58636V6.8725C12.5965 6.8725 12.5996 6.8725 12.6057 6.8725C12.6119 6.8725 12.615 6.8725 12.615 6.8725L12.5779 7.09515C12.5779 7.157 12.5872 7.21267 12.6057 7.26215C12.6243 7.31163 12.6521 7.3611 12.6892 7.41058Z" fill="white"/>
</g>
<defs>
<clipPath id="clip0_1907_574">
<rect width="19.23" height="19" fill="white" transform="matrix(1 0 0 -1 0.625 19.4155)"/>
</clipPath>
</defs>
</svg>
