<svg width="18" height="25" viewBox="0 0 18 25" fill="none" xmlns="http://www.w3.org/2000/svg">
<path d="M7.50123 17.5525C7.4916 17.5449 7.48097 17.5429 7.47367 17.5356L3.58259 13.7498C3.28078 13.4715 3.26285 13.0007 3.54109 12.6989C3.82066 12.3971 4.29015 12.3791 4.59197 12.6587L7.82629 15.8047L13.6744 6.43246C13.8995 6.08814 14.3597 5.99152 14.704 6.21664C15.048 6.44175 15.1449 6.90295 14.9195 7.24627L8.58797 17.3941C8.58797 17.3951 8.58597 17.3961 8.58498 17.3975C8.56373 17.4293 8.55211 17.4665 8.52554 17.4951C8.48836 17.5356 8.44154 17.5578 8.39804 17.5874C8.38609 17.595 8.37679 17.6033 8.36484 17.611C8.2981 17.6511 8.23004 17.68 8.15666 17.6979C8.13242 17.7043 8.10884 17.7109 8.08461 17.7149C8.02484 17.7235 7.9664 17.7235 7.90597 17.7172C7.86347 17.7139 7.82297 17.7086 7.78179 17.6979C7.73929 17.6863 7.69978 17.6684 7.65961 17.6491C7.62541 17.6342 7.58922 17.6299 7.55734 17.6086C7.53509 17.5927 7.52248 17.5695 7.50123 17.5525Z" fill="white"/>
</svg>
