<svg width="19" height="19" viewBox="0 0 19 19" fill="none" xmlns="http://www.w3.org/2000/svg">
<path d="M8.38369 14.4707C8.37351 14.4626 8.36228 14.4605 8.35457 14.4528L4.24264 10.4521C3.92369 10.158 3.90474 9.66047 4.19878 9.34153C4.49421 9.02258 4.99036 9.00363 5.3093 9.29907L8.7272 12.6236L14.9072 2.71942C15.1451 2.35556 15.6314 2.25346 15.9953 2.49135C16.3588 2.72925 16.4612 3.21661 16.223 3.57942L9.53211 14.3033C9.53211 14.3043 9.53 14.3054 9.52895 14.3068C9.5065 14.3405 9.49421 14.3798 9.46614 14.4099C9.42685 14.4528 9.37737 14.4763 9.33141 14.5075C9.31878 14.5156 9.30895 14.5243 9.29632 14.5324C9.22579 14.5749 9.15386 14.6054 9.07632 14.6243C9.05071 14.631 9.02579 14.638 9.00018 14.6422C8.93702 14.6514 8.87527 14.6514 8.81141 14.6447C8.7665 14.6412 8.72369 14.6356 8.68018 14.6243C8.63527 14.6121 8.59351 14.5931 8.55106 14.5728C8.51492 14.557 8.47667 14.5524 8.44299 14.5299C8.41948 14.5131 8.40614 14.4885 8.38369 14.4707Z" fill="white"/>
</svg>
