<svg width="20" height="21" viewBox="0 0 20 21" fill="none" xmlns="http://www.w3.org/2000/svg">
<g clip-path="url(#clip0_1907_225)">
<path d="M9.75586 0.940918C9.11263 0.940918 8.48177 1.00586 7.86328 1.13574C7.24479 1.26562 6.65723 1.44808 6.10059 1.68311C6.07585 1.68311 6.0542 1.68929 6.03564 1.70166C6.01709 1.71403 6.00163 1.7264 5.98926 1.73877C5.14811 2.09749 4.375 2.57064 3.66992 3.1582C2.96484 3.74577 2.36182 4.41683 1.86084 5.17139C1.35986 5.92594 0.967122 6.74854 0.682617 7.63916C0.398112 8.52979 0.255859 9.4637 0.255859 10.4409C0.255859 11.7521 0.506348 12.9829 1.00732 14.1333C1.5083 15.2837 2.18864 16.2887 3.04834 17.1484C3.90804 18.0081 4.91309 18.6885 6.06348 19.1895C7.21387 19.6904 8.44466 19.9409 9.75586 19.9409C11.0671 19.9409 12.2979 19.6904 13.4482 19.1895C14.5986 18.6885 15.6037 18.0081 16.4634 17.1484C17.3231 16.2887 18.0034 15.2837 18.5044 14.1333C19.0054 12.9829 19.2559 11.7521 19.2559 10.4409C19.2559 9.12972 19.0054 7.89893 18.5044 6.74854C18.0034 5.59814 17.3231 4.5931 16.4634 3.7334C15.6037 2.8737 14.5986 2.19336 13.4482 1.69238C12.2979 1.19141 11.0671 0.940918 9.75586 0.940918ZM18.0684 10.4409C18.0684 10.478 18.0684 10.512 18.0684 10.543C18.0684 10.5739 18.0622 10.6079 18.0498 10.645C17.8271 10.5832 17.5179 10.5151 17.1221 10.4409C16.7262 10.3667 16.2686 10.3141 15.749 10.2832C15.2295 10.2523 14.6512 10.2523 14.0142 10.2832C13.3771 10.3141 12.7061 10.41 12.001 10.5708C11.8773 10.2863 11.7443 9.99561 11.6021 9.69873C11.4598 9.40186 11.3083 9.10498 11.1475 8.80811C11.1351 8.78337 11.1227 8.75863 11.1104 8.73389C11.098 8.70915 11.0856 8.68441 11.0732 8.65967C11.8402 8.36279 12.4989 8.04736 13.0493 7.71338C13.5998 7.37939 14.0667 7.04541 14.4502 6.71143C14.8337 6.37744 15.146 6.05583 15.3872 5.74658C15.6284 5.43734 15.8171 5.15902 15.9531 4.91162C16.2747 5.28271 16.5685 5.67855 16.8345 6.09912C17.1004 6.51969 17.3231 6.96501 17.5024 7.43506C17.6818 7.90511 17.821 8.39062 17.9199 8.8916C18.0189 9.39258 18.0684 9.90902 18.0684 10.4409ZM15.0625 4.03955C14.9141 4.37354 14.5275 4.89925 13.9028 5.6167C13.2782 6.33415 12.1494 6.99593 10.5166 7.60205C10.1455 6.93408 9.79915 6.33105 9.47754 5.79297C9.15592 5.25488 8.85905 4.77865 8.58691 4.36426C8.31478 3.94987 8.06738 3.58805 7.84473 3.27881C7.62207 2.96956 7.43034 2.71598 7.26953 2.51807C7.66536 2.39437 8.07048 2.2985 8.48486 2.23047C8.89925 2.16243 9.32292 2.12842 9.75586 2.12842C10.7578 2.12842 11.7103 2.2985 12.6133 2.63867C13.5163 2.97884 14.3327 3.4458 15.0625 4.03955ZM6.11914 2.98193C6.36654 3.27881 6.77474 3.83236 7.34375 4.64258C7.91276 5.4528 8.58691 6.56917 9.36621 7.9917C8.43848 8.2762 7.56022 8.48649 6.73145 8.62256C5.90267 8.75863 5.1512 8.84831 4.47705 8.8916C3.8029 8.9349 3.21842 8.95036 2.72363 8.93799C2.22884 8.92562 1.85156 8.90706 1.5918 8.88232C1.71549 8.22673 1.91341 7.60514 2.18555 7.01758C2.45768 6.43001 2.78857 5.88265 3.17822 5.37549C3.56787 4.86833 4.01009 4.41064 4.50488 4.00244C4.99967 3.59424 5.53776 3.25407 6.11914 2.98193ZM1.44336 10.4409C1.44336 10.3791 1.44645 10.3172 1.45264 10.2554C1.45882 10.1935 1.46191 10.1255 1.46191 10.0513C1.63509 10.076 1.86084 10.0977 2.13916 10.1162C2.41748 10.1348 2.736 10.144 3.09473 10.144C3.50293 10.144 3.95752 10.1286 4.4585 10.0977C4.95947 10.0667 5.49756 10.0111 6.07275 9.93066C6.64795 9.85026 7.26025 9.73893 7.90967 9.59668C8.55908 9.45443 9.23633 9.27197 9.94141 9.04932C9.96615 9.0988 9.99089 9.14827 10.0156 9.19775C10.0404 9.24723 10.0713 9.3029 10.1084 9.36475C10.2321 9.61214 10.3558 9.86572 10.4795 10.1255C10.6032 10.3853 10.7207 10.6388 10.832 10.8862C10.5846 10.9604 10.3311 11.047 10.0713 11.146C9.81152 11.245 9.54557 11.3563 9.27344 11.48C8.43229 11.8634 7.69629 12.2778 7.06543 12.7231C6.43457 13.1685 5.89648 13.6045 5.45117 14.0312C5.00586 14.458 4.64404 14.86 4.36572 15.2373C4.0874 15.6146 3.88021 15.9207 3.74414 16.1558C3.38542 15.7847 3.0638 15.3826 2.7793 14.9497C2.49479 14.5168 2.25358 14.0591 2.05566 13.5767C1.85775 13.0942 1.70622 12.5902 1.60107 12.0645C1.49593 11.5387 1.44336 10.9976 1.44336 10.4409ZM4.63477 16.9722C4.70898 16.8361 4.85742 16.6011 5.08008 16.2671C5.30273 15.9331 5.61816 15.5558 6.02637 15.1353C6.43457 14.7147 6.94482 14.2786 7.55713 13.8271C8.16943 13.3757 8.90853 12.952 9.77441 12.5562C10.0342 12.4325 10.2909 12.3242 10.5444 12.2314C10.798 12.1387 11.0485 12.0552 11.2959 11.981C11.5804 12.6984 11.8185 13.3787 12.0103 14.022C12.202 14.6652 12.3628 15.2528 12.4927 15.7847C12.6226 16.3166 12.7215 16.7804 12.7896 17.1763C12.8576 17.5721 12.904 17.8875 12.9287 18.1226C12.4463 18.3205 11.936 18.4751 11.3979 18.5864C10.8599 18.6978 10.3125 18.7534 9.75586 18.7534C8.79102 18.7534 7.87256 18.5957 7.00049 18.2803C6.12842 17.9648 5.33984 17.5288 4.63477 16.9722ZM14.0605 17.5474C14.0111 17.2629 13.9492 16.9165 13.875 16.5083C13.8008 16.1001 13.6987 15.6486 13.5688 15.1538C13.439 14.659 13.2843 14.1178 13.105 13.5303C12.9256 12.9427 12.7122 12.3273 12.4648 11.6841C13.1452 11.548 13.7884 11.4738 14.3945 11.4614C15.0007 11.4491 15.5449 11.4645 16.0273 11.5078C16.5098 11.5511 16.9149 11.6068 17.2427 11.6748C17.5705 11.7428 17.8024 11.7954 17.9385 11.8325C17.8395 12.4386 17.6756 13.02 17.4468 13.5767C17.2179 14.1333 16.9365 14.6559 16.6025 15.1445C16.2686 15.6331 15.8851 16.0785 15.4521 16.4805C15.0192 16.8825 14.5553 17.2381 14.0605 17.5474Z" fill="white"/>
</g>
<defs>
<clipPath id="clip0_1907_225">
<rect width="19" height="20.89" fill="white" transform="matrix(1 0 0 -1 0.255859 20.8857)"/>
</clipPath>
</defs>
</svg>
