<svg width="18" height="25" viewBox="0 0 18 25" fill="none" xmlns="http://www.w3.org/2000/svg">
<path d="M7.95045 17.8726C7.94082 17.8649 7.93019 17.863 7.92289 17.8557L4.03181 14.0698C3.73 13.7916 3.71207 13.3208 3.99031 13.019C4.26988 12.7171 4.73937 12.6992 5.04119 12.9788L8.2755 16.1248L14.1236 6.75253C14.3487 6.40821 14.8089 6.31159 15.1532 6.53671C15.4972 6.76182 15.5941 7.22302 15.3687 7.56634L9.03718 17.7142C9.03718 17.7152 9.03519 17.7162 9.0342 17.7175C9.01295 17.7494 9.00133 17.7866 8.97476 17.8151C8.93758 17.8557 8.89076 17.8779 8.84726 17.9074C8.83531 17.9151 8.82601 17.9234 8.81406 17.931C8.74732 17.9712 8.67926 18.0001 8.60588 18.018C8.58164 18.0243 8.55806 18.031 8.53382 18.0349C8.47406 18.0436 8.41562 18.0436 8.35519 18.0373C8.31269 18.034 8.27218 18.0286 8.23101 18.018C8.18851 18.0064 8.149 17.9885 8.10883 17.9692C8.07463 17.9543 8.03843 17.9499 8.00656 17.9287C7.98431 17.9128 7.9717 17.8895 7.95045 17.8726Z" fill="white"/>
</svg>
