<svg width="20" height="20" viewBox="0 0 20 20" fill="none" xmlns="http://www.w3.org/2000/svg">
<g clip-path="url(#clip0_1907_582)">
<path d="M9.62109 0.415466C8.3099 0.415466 7.07601 0.662862 5.91943 1.15765C4.76286 1.65245 3.75472 2.32969 2.89502 3.18939C2.03532 4.04909 1.35807 5.05723 0.863281 6.21381C0.36849 7.37038 0.121094 8.60427 0.121094 9.91547C0.121094 11.2267 0.36849 12.4606 0.863281 13.6171C1.35807 14.7737 2.03532 15.7818 2.89502 16.6415C3.75472 17.5012 4.76286 18.1785 5.91943 18.6733C7.07601 19.1681 8.3099 19.4155 9.62109 19.4155C10.9323 19.4155 12.1662 19.1681 13.3228 18.6733C14.4793 18.1785 15.4875 17.5012 16.3472 16.6415C17.2069 15.7818 17.8841 14.7737 18.3789 13.6171C18.8737 12.4606 19.1211 11.2267 19.1211 9.91547C19.1211 8.60427 18.8737 7.37038 18.3789 6.21381C17.8841 5.05723 17.2069 4.04909 16.3472 3.18939C15.4875 2.32969 14.4793 1.65245 13.3228 1.15765C12.1662 0.662862 10.9323 0.415466 9.62109 0.415466ZM9.62109 18.2465C8.4707 18.2465 7.39144 18.027 6.3833 17.5878C5.37516 17.1487 4.49691 16.5519 3.74854 15.7973C3.00016 15.0427 2.40641 14.1614 1.96729 13.1533C1.52816 12.1451 1.30859 11.0659 1.30859 9.91547C1.30859 8.76508 1.52816 7.68581 1.96729 6.67767C2.40641 5.66954 3.00016 4.79128 3.74854 4.04291C4.49691 3.29454 5.37516 2.70079 6.3833 2.26166C7.39144 1.82253 8.4707 1.60297 9.62109 1.60297C10.7715 1.60297 11.8507 1.82253 12.8589 2.26166C13.867 2.70079 14.7453 3.29454 15.4937 4.04291C16.242 4.79128 16.8358 5.66954 17.2749 6.67767C17.714 7.68581 17.9336 8.76508 17.9336 9.91547C17.9336 11.0659 17.714 12.1451 17.2749 13.1533C16.8358 14.1614 16.242 15.0427 15.4937 15.7973C14.7453 16.5519 13.867 17.1487 12.8589 17.5878C11.8507 18.027 10.7715 18.2465 9.62109 18.2465ZM10.2148 9.67426V3.97797C10.2148 3.81716 10.1561 3.678 10.0386 3.56049C9.92106 3.44297 9.7819 3.38422 9.62109 3.38422C9.46029 3.38422 9.32113 3.44297 9.20361 3.56049C9.0861 3.678 9.02734 3.81716 9.02734 3.97797V9.91547C9.02734 10.0021 9.04281 10.0825 9.07373 10.1567C9.10465 10.2309 9.15104 10.2927 9.21289 10.3422C9.21289 10.3422 9.21598 10.3453 9.22217 10.3515C9.22835 10.3577 9.23145 10.367 9.23145 10.3793L12.1816 13.311C12.293 13.4347 12.4321 13.4965 12.5991 13.4965C12.7661 13.4965 12.9053 13.4347 13.0166 13.311C13.1279 13.1996 13.1836 13.0605 13.1836 12.8935C13.1836 12.7265 13.1279 12.5873 13.0166 12.476L10.2148 9.67426Z" fill="white"/>
</g>
<defs>
<clipPath id="clip0_1907_582">
<rect width="19.23" height="19" fill="white" transform="matrix(1 0 0 -1 0.00585938 19.4155)"/>
</clipPath>
</defs>
</svg>
