<svg width="20" height="20" viewBox="0 0 20 20" fill="none" xmlns="http://www.w3.org/2000/svg">
<g clip-path="url(#clip0_1907_590)">
<path d="M19.2606 4.59027C19.2606 4.49131 19.2358 4.40163 19.1863 4.32123C19.1368 4.24082 19.0688 4.17588 18.9821 4.1264L13.6913 0.823669C13.5923 0.749451 13.4778 0.718526 13.3479 0.730896C13.2179 0.743266 13.1034 0.78656 13.0044 0.860779L9.77422 3.47699L6.54403 0.860779C6.44502 0.78656 6.33054 0.743266 6.20059 0.730896C6.07064 0.718526 5.95616 0.749451 5.85715 0.823669L0.566309 4.1264C0.479676 4.17588 0.411606 4.24082 0.362102 4.32123C0.312597 4.40163 0.287844 4.49131 0.287844 4.59027C0.275468 4.67686 0.287844 4.76654 0.324973 4.85931C0.362102 4.95209 0.417795 5.0294 0.492052 5.09125L3.55517 7.65179L0.937596 9.72992C0.850962 9.7794 0.789081 9.84743 0.751953 9.93402C0.714824 10.0206 0.69626 10.1134 0.69626 10.2123C0.708636 10.3113 0.736482 10.401 0.779799 10.4814C0.823116 10.5618 0.888091 10.6267 0.974725 10.6762L3.40665 12.309C3.34477 12.3585 3.29527 12.4203 3.25814 12.4946C3.22101 12.5688 3.20245 12.6492 3.20245 12.7358V15.1293C3.20245 15.2283 3.2272 15.3211 3.2767 15.4077C3.32621 15.4942 3.39428 15.5685 3.48091 15.6303L9.45863 19.0073C9.50813 19.0444 9.56073 19.0691 9.61642 19.0815C9.67212 19.0939 9.72472 19.1 9.77422 19.1C9.82373 19.1 9.87632 19.0939 9.93202 19.0815C9.98771 19.0691 10.0403 19.0444 10.0898 19.0073L15.9933 15.6303C16.0799 15.5685 16.148 15.4942 16.1975 15.4077C16.247 15.3211 16.2717 15.2283 16.2717 15.1293V12.3276C16.2717 12.3028 16.2717 12.2812 16.2717 12.2626C16.2717 12.2441 16.2717 12.2286 16.2717 12.2162L18.5737 10.6762C18.648 10.6267 18.7099 10.5618 18.7594 10.4814C18.8089 10.401 18.8336 10.3113 18.8336 10.2123C18.8336 10.1134 18.8151 10.0206 18.7779 9.93402C18.7408 9.84743 18.6851 9.7794 18.6108 9.72992L15.9933 7.65179L19.0564 5.09125C19.1306 5.0294 19.1863 4.95209 19.2235 4.85931C19.2606 4.76654 19.273 4.67686 19.2606 4.59027ZM13.9512 7.67035L9.77422 10.268L5.59724 7.67035L9.77422 4.94281L13.9512 7.67035ZM1.88438 4.7016L6.11705 2.04828L8.77175 4.18207L4.53908 6.92816L1.88438 4.7016ZM4.53908 8.39398L8.73462 11.0287L6.35838 12.8471L2.31136 10.1567L4.53908 8.39398ZM4.39056 12.9584L6.04279 14.0717C6.15417 14.1336 6.27175 14.1645 6.39551 14.1645C6.51927 14.1645 6.63685 14.1274 6.74823 14.0532L9.14303 12.2162V17.4487L4.39056 14.7953V12.9584ZM15.0836 14.7953L10.3312 17.4858V12.1606L12.8002 14.0532C12.8497 14.0903 12.9054 14.1181 12.9673 14.1367C13.0292 14.1552 13.091 14.1645 13.1529 14.1645C13.2148 14.1645 13.2736 14.1552 13.3293 14.1367C13.385 14.1181 13.4376 14.0965 13.4871 14.0717L15.0836 12.9955V14.7953ZM17.2185 10.1381L13.1715 12.8471L10.8138 11.0287L15.0094 8.39398L17.2185 10.1381ZM15.0094 6.92816L10.7767 4.18207L13.4314 2.04828L17.6641 4.7016L15.0094 6.92816Z" fill="white"/>
</g>
<defs>
<clipPath id="clip0_1907_590">
<rect width="19.24" height="19" fill="white" transform="matrix(1 0 0 -1 0.154297 19.4155)"/>
</clipPath>
</defs>
</svg>
