<svg width="59" height="59" viewBox="0 0 59 59" fill="none" xmlns="http://www.w3.org/2000/svg">
<g clip-path="url(#clip0_1907_604)">
<path d="M37.4738 37.0155L33.0738 32.6155C34.0738 31.4155 34.6738 29.9155 34.6738 28.4155C34.6738 26.7155 33.9738 25.0155 32.7738 23.8155C31.5738 22.6155 29.8738 21.9155 28.1738 21.9155C26.4738 21.9155 24.7738 22.6155 23.5738 23.8155C22.3738 25.0155 21.6738 26.7155 21.6738 28.4155C21.6738 30.1155 22.3738 31.8155 23.5738 33.0155C24.7738 34.2155 26.4738 34.9155 28.1738 34.9155C29.7738 34.9155 31.2738 34.3155 32.3738 33.3155L36.7738 37.7155C36.8738 37.8155 36.9738 37.8155 37.1738 37.8155C37.3738 37.8155 37.4738 37.8155 37.5738 37.7155C37.5738 37.6155 37.5738 37.2155 37.4738 37.0155ZM24.1738 32.3155C23.1738 31.3155 22.5738 29.9155 22.5738 28.4155C22.5738 26.9155 23.1738 25.5155 24.1738 24.5155C25.1738 23.5155 26.5738 22.9155 28.0738 22.9155C29.5738 22.9155 30.9738 23.5155 31.9738 24.5155C32.9738 25.5155 33.5738 26.9155 33.5738 28.4155C33.5738 29.9155 32.9738 31.3155 31.9738 32.3155C30.9738 33.3155 29.5738 33.9155 28.0738 33.9155C26.5738 33.9155 25.2738 33.4155 24.1738 32.3155Z" fill="white"/>
<path d="M29.5742 2.91547C44.4742 2.91547 56.5742 15.0155 56.5742 29.9155C56.5742 44.8155 44.4742 56.9155 29.5742 56.9155C14.6742 56.9155 2.57422 44.8155 2.57422 29.9155C2.57422 15.0155 14.6742 2.91547 29.5742 2.91547ZM29.5742 0.915466C13.5742 0.915466 0.574219 13.9155 0.574219 29.9155C0.574219 45.9155 13.5742 58.9155 29.5742 58.9155C45.5742 58.9155 58.5742 45.9155 58.5742 29.9155C58.5742 13.9155 45.5742 0.915466 29.5742 0.915466Z" fill="#C9CFFF"/>
</g>
<defs>
<clipPath id="clip0_1907_604">
<rect width="58" height="58" fill="white" transform="translate(0.574219 0.915466)"/>
</clipPath>
</defs>
</svg>
