<svg width="20" height="20" viewBox="0 0 20 20" fill="none" xmlns="http://www.w3.org/2000/svg">
<g clip-path="url(#clip0_1907_586)">
<path d="M13.498 3.36566C13.9931 3.36566 14.4541 3.45844 14.8811 3.64398C15.308 3.82953 15.6824 4.08311 16.0042 4.40472C16.3879 4.33051 16.7622 4.22536 17.1273 4.08929C17.4924 3.95323 17.8359 3.79242 18.1577 3.60687C18.0339 3.99034 17.8421 4.33978 17.5822 4.65521C17.3223 4.97064 17.0191 5.22732 16.6725 5.42523C17.0067 5.38812 17.3377 5.32627 17.6657 5.23969C17.9937 5.1531 18.3124 5.04177 18.6218 4.9057C18.399 5.23969 18.1422 5.55202 17.8514 5.84271C17.5605 6.1334 17.248 6.39626 16.9139 6.63129C16.9262 6.69314 16.9324 6.76117 16.9324 6.83539C16.9324 6.90961 16.9324 6.98383 16.9324 7.05804C16.9324 8.14659 16.722 9.25059 16.3012 10.3701C15.8804 11.4895 15.2585 12.5008 14.4355 13.4037C13.6125 14.3067 12.5946 15.0427 11.3817 15.6118C10.1688 16.1808 8.78268 16.4653 7.22327 16.4653C6.25793 16.4653 5.3328 16.3354 4.4479 16.0756C3.563 15.8159 2.74308 15.4509 1.98813 14.9809C2.12427 14.9933 2.25731 15.0056 2.38726 15.018C2.51721 15.0304 2.65644 15.0366 2.80496 15.0366C3.59704 15.0366 4.35508 14.9098 5.07909 14.6562C5.8031 14.4026 6.45595 14.0532 7.03763 13.6078C6.29505 13.5955 5.63293 13.3728 5.05124 12.9399C4.46956 12.5069 4.06733 11.9627 3.84456 11.3071C3.95595 11.3318 4.06424 11.3504 4.16944 11.3627C4.27464 11.3751 4.38293 11.3813 4.49431 11.3813C4.64283 11.3813 4.79444 11.3689 4.94914 11.3442C5.10384 11.3194 5.24926 11.2885 5.3854 11.2514C4.6057 11.103 3.95595 10.7257 3.43615 10.1196C2.91634 9.51345 2.65644 8.80837 2.65644 8.00433C2.65644 8.00433 2.65644 8.00124 2.65644 7.99506C2.65644 7.98887 2.65644 7.97959 2.65644 7.96722C2.87922 8.09092 3.12055 8.18988 3.38045 8.2641C3.64035 8.33832 3.91263 8.37543 4.19728 8.37543C3.73936 8.07855 3.37117 7.6889 3.09271 7.20648C2.81424 6.72406 2.67501 6.19834 2.67501 5.62933C2.67501 5.32009 2.71523 5.02631 2.79568 4.74799C2.87612 4.46967 2.9906 4.20681 3.13912 3.95941C3.55991 4.46657 4.03021 4.92426 4.55001 5.33246C5.06981 5.74066 5.62983 6.0932 6.23008 6.39008C6.83033 6.68695 7.46151 6.92507 8.12364 7.10443C8.78577 7.28379 9.46956 7.39203 10.175 7.42914C10.1502 7.30544 10.1286 7.17865 10.11 7.04877C10.0915 6.91888 10.0822 6.79209 10.0822 6.6684C10.0822 5.75303 10.4163 4.97373 11.0847 4.33051C11.753 3.68728 12.5574 3.36566 13.498 3.36566ZM13.498 2.17816C12.9163 2.17816 12.3656 2.27712 11.8458 2.47504C11.326 2.67295 10.865 2.94818 10.4627 3.30072C10.0605 3.65326 9.72636 4.06765 9.46027 4.54388C9.19419 5.02012 9.02401 5.53038 8.94975 6.07465C7.98441 5.8891 7.08094 5.54893 6.23936 5.05414C5.39778 4.55935 4.66758 3.94086 4.04877 3.19867C3.93738 3.0626 3.80124 2.95746 3.64035 2.88324C3.47946 2.80902 3.31238 2.77191 3.13912 2.77191C3.12674 2.77191 3.11127 2.77191 3.09271 2.77191C3.07414 2.77191 3.05867 2.7781 3.0463 2.79047C2.86065 2.80284 2.68429 2.8585 2.51721 2.95746C2.35013 3.05642 2.21709 3.1863 2.11808 3.34711C1.92006 3.69346 1.76536 4.06146 1.65397 4.45111C1.54258 4.84076 1.48689 5.2335 1.48689 5.62933C1.48689 5.90147 1.51164 6.16742 1.56115 6.42719C1.61065 6.68695 1.67872 6.93435 1.76536 7.16937C1.66635 7.2807 1.59209 7.4044 1.54258 7.54047C1.49308 7.67653 1.46833 7.81879 1.46833 7.96722V8.00433C1.46833 8.58571 1.57662 9.13926 1.7932 9.66498C2.00979 10.1907 2.30991 10.6577 2.69357 11.0659C2.66882 11.1648 2.65954 11.2669 2.66573 11.372C2.67191 11.4772 2.68738 11.5792 2.71214 11.6782C2.84828 12.0864 3.03392 12.4606 3.26907 12.8007C3.50422 13.1409 3.77649 13.4409 4.0859 13.7006C3.8755 13.7501 3.66201 13.7872 3.44543 13.812C3.22884 13.8367 3.01535 13.8491 2.80496 13.8491C2.6812 13.8491 2.56362 13.846 2.45224 13.8398C2.34085 13.8336 2.22946 13.8243 2.11808 13.812C2.09333 13.7996 2.07167 13.7934 2.0531 13.7934C2.03454 13.7934 2.01288 13.7934 1.98813 13.7934C1.7406 13.7934 1.51164 13.8676 1.30125 14.0161C1.09085 14.1645 0.942337 14.3562 0.855703 14.5912C0.76907 14.851 0.772164 15.1139 0.864986 15.3798C0.957807 15.6458 1.12179 15.8468 1.35694 15.9828C1.79011 16.2674 2.24184 16.5117 2.71214 16.7158C3.18243 16.9199 3.66511 17.093 4.16016 17.2353C4.6552 17.3775 5.15954 17.4827 5.67315 17.5507C6.18676 17.6188 6.70347 17.6528 7.22327 17.6528C8.90644 17.6528 10.4194 17.3528 11.7623 16.7529C13.1051 16.1529 14.2437 15.3613 15.1781 14.3779C16.1125 13.3945 16.8303 12.275 17.3316 11.0195C17.8328 9.76394 18.0958 8.49294 18.1205 7.20648C18.3928 6.97146 18.6527 6.72406 18.9002 6.46429C19.1478 6.20453 19.3705 5.92621 19.5686 5.62933C19.6428 5.53038 19.7016 5.41905 19.7449 5.29535C19.7882 5.17165 19.8099 5.04177 19.8099 4.9057C19.8099 4.70778 19.7635 4.52224 19.6707 4.34906C19.5778 4.17588 19.4572 4.03982 19.3087 3.94086C19.3705 3.70583 19.3674 3.4739 19.2994 3.24506C19.2313 3.01622 19.1044 2.82758 18.9188 2.67914C18.8074 2.59255 18.6868 2.52761 18.5568 2.48431C18.4268 2.44102 18.2938 2.41937 18.1577 2.41937C18.0587 2.41937 17.9596 2.43174 17.8606 2.45648C17.7616 2.48122 17.6626 2.51833 17.5636 2.56781C17.378 2.69151 17.1799 2.79665 16.9695 2.88324C16.7592 2.96983 16.5426 3.04405 16.3198 3.1059C15.9114 2.80902 15.4689 2.58018 14.9924 2.41937C14.516 2.25857 14.0178 2.17816 13.498 2.17816Z" fill="white"/>
</g>
<defs>
<clipPath id="clip0_1907_586">
<rect width="19.24" height="19" fill="white" transform="matrix(1 0 0 -1 0.685547 19.4155)"/>
</clipPath>
</defs>
</svg>
