<svg width="20" height="20" viewBox="0 0 20 20" fill="none" xmlns="http://www.w3.org/2000/svg">
<g clip-path="url(#clip0_1907_592)">
<path d="M17.9688 3.94086C17.8327 3.8419 17.6255 3.74294 17.3472 3.64398C17.0688 3.54502 16.6359 3.45225 16.0483 3.36566C15.4608 3.27907 14.6815 3.20795 13.7104 3.15228C12.7394 3.09662 11.5055 3.06879 10.0088 3.06879C6.78027 3.06879 4.72689 3.17084 3.84863 3.37494C2.97038 3.57904 2.45703 3.73057 2.30859 3.82953C1.90039 4.06455 1.57568 4.48204 1.33447 5.08197C1.09326 5.68191 0.910807 6.30967 0.787109 6.96527C0.663411 7.62087 0.5861 8.23936 0.555176 8.82074C0.524251 9.40212 0.502604 9.80414 0.490234 10.0268C0.502604 10.3113 0.527344 10.7411 0.564453 11.3163C0.601562 11.8915 0.681966 12.4853 0.805664 13.0976C0.929362 13.7099 1.10872 14.2882 1.34375 14.8325C1.57878 15.3767 1.89421 15.7726 2.29004 16.02C2.45085 16.1065 2.97038 16.2519 3.84863 16.456C4.72689 16.6601 6.78027 16.7621 10.0088 16.7621C11.5055 16.7621 12.7394 16.7343 13.7104 16.6786C14.6815 16.623 15.4608 16.5519 16.0483 16.4653C16.6359 16.3787 17.0688 16.2859 17.3472 16.187C17.6255 16.088 17.8327 15.9952 17.9688 15.9086C18.3151 15.6489 18.5903 15.2654 18.7944 14.7582C18.9985 14.2511 19.1532 13.7068 19.2583 13.1254C19.3634 12.544 19.4315 11.9689 19.4624 11.3998C19.4933 10.8308 19.515 10.367 19.5273 10.0082C19.515 9.72373 19.4964 9.29388 19.4717 8.71869C19.4469 8.14349 19.382 7.54356 19.2769 6.91888C19.1717 6.29421 19.0171 5.70664 18.813 5.15619C18.6089 4.60573 18.3275 4.20062 17.9688 3.94086ZM17.2637 14.9438C17.1647 15.018 16.6637 15.1417 15.7607 15.3149C14.8577 15.4881 12.9404 15.5746 10.0088 15.5746C7.16374 15.5746 5.29899 15.4942 4.41455 15.3334C3.53011 15.1726 3.02604 15.0613 2.90234 14.9995C2.61784 14.8263 2.3488 14.3036 2.09521 13.4316C1.84163 12.5595 1.70247 11.4246 1.67773 10.0268C1.70247 8.62901 1.84473 7.45697 2.10449 6.51068C2.36426 5.56439 2.63639 5.00466 2.9209 4.83148C3.03223 4.76963 3.5332 4.6583 4.42383 4.4975C5.31445 4.33669 7.17611 4.25629 10.0088 4.25629C12.9404 4.25629 14.8577 4.34597 15.7607 4.52533C16.6637 4.70469 17.1647 4.83148 17.2637 4.9057C17.5234 5.07888 17.7646 5.62006 17.9873 6.52924C18.21 7.43842 18.3275 8.59808 18.3398 10.0082C18.3275 11.4431 18.21 12.5781 17.9873 13.413C17.7646 14.248 17.5234 14.7582 17.2637 14.9438ZM13.8682 9.4516L8.52441 6.16742C8.43783 6.11794 8.34196 6.09011 8.23682 6.08392C8.13167 6.07774 8.02962 6.10557 7.93066 6.16742C7.84408 6.2169 7.77295 6.28802 7.71729 6.3808C7.66162 6.47357 7.63379 6.57562 7.63379 6.68695V13.2368C7.63379 13.3481 7.66162 13.4501 7.71729 13.5429C7.77295 13.6357 7.84408 13.7068 7.93066 13.7563C7.98014 13.781 8.02962 13.7996 8.0791 13.812C8.12858 13.8243 8.17806 13.8305 8.22754 13.8305C8.27702 13.8305 8.32959 13.8243 8.38525 13.812C8.44092 13.7996 8.4873 13.7748 8.52441 13.7377L13.8682 10.4721C13.9671 10.4103 14.0413 10.336 14.0908 10.2495C14.1403 10.1629 14.165 10.0639 14.165 9.95258C14.165 9.85362 14.1403 9.75775 14.0908 9.66498C14.0413 9.5722 13.9671 9.50108 13.8682 9.4516ZM8.82129 12.1791V7.72601L12.4209 9.95258L8.82129 12.1791Z" fill="white"/>
</g>
<defs>
<clipPath id="clip0_1907_592">
<rect width="19.23" height="19" fill="white" transform="matrix(1 0 0 -1 0.394531 19.4155)"/>
</clipPath>
</defs>
</svg>
