<svg width="50" height="50" viewBox="0 0 50 50" fill="none" xmlns="http://www.w3.org/2000/svg">
<g opacity="0.999987">
<rect x="0.625" y="0.105469" width="49" height="49" rx="24.5" fill="#FF4B36"/>
<g clip-path="url(#clip0_1907_629)">
<path d="M24.8242 11.6055C24.7242 11.6055 24.5242 11.6055 24.4242 11.6055C24.3242 11.6055 24.3242 11.7055 24.2242 11.7055L20.7242 15.3055C20.5242 15.5055 20.5242 15.8055 20.7242 16.0055C20.9242 16.2055 21.2242 16.2055 21.4242 16.0055L24.1242 13.3055V37.1055C24.1242 37.4055 24.3242 37.6055 24.6242 37.6055C24.9242 37.6055 25.1242 37.4055 25.1242 37.1055V13.3055L27.8242 16.0055C28.0242 16.2055 28.3242 16.2055 28.5242 16.0055C28.6242 15.9055 28.6242 15.8055 28.6242 15.6055C28.6242 15.5055 28.6242 15.3055 28.5242 15.2055L25.0242 11.7055C24.9242 11.7055 24.9242 11.7055 24.8242 11.6055Z" fill="white"/>
</g>
</g>
<defs>
<clipPath id="clip0_1907_629">
<rect width="9" height="26" fill="white" transform="translate(20.125 11.6055)"/>
</clipPath>
</defs>
</svg>
