<svg width="21" height="20" viewBox="0 0 21 20" fill="none" xmlns="http://www.w3.org/2000/svg">
<g clip-path="url(#clip0_1907_588)">
<path d="M11.8389 1.89984C11.876 1.89984 11.9038 1.90293 11.9224 1.90912C11.9409 1.9153 11.9502 1.9184 11.9502 1.9184H13.4902V3.69965H11.9502C11.5296 3.69965 11.2853 3.82025 11.2173 4.06146C11.1493 4.30267 11.1152 4.42328 11.1152 4.42328V7.24359H14.1211L13.6943 9.02484H11.1152V17.9311H9.33398V9.02484H6.95898V7.24359H9.33398C9.33398 7.24359 9.33398 6.85704 9.33398 6.08392C9.33398 5.31081 9.33398 4.77582 9.33398 4.47894C9.33398 3.2667 9.68962 2.53379 10.4009 2.28021C11.1121 2.02663 11.5915 1.89984 11.8389 1.89984ZM11.8389 0.712341C11.6286 0.712341 11.3317 0.746358 10.9482 0.814392C10.5648 0.882426 10.1751 1.03396 9.7793 1.26898C9.4082 1.49164 9.04329 1.85345 8.68457 2.35443C8.32585 2.85541 8.14648 3.56358 8.14648 4.47894V6.05609H6.95898C6.79818 6.05609 6.64665 6.08702 6.50439 6.14886C6.36214 6.21071 6.23535 6.2973 6.12402 6.40863C6.0127 6.51996 5.92611 6.64675 5.86426 6.789C5.80241 6.93125 5.77148 7.08278 5.77148 7.24359V9.02484C5.77148 9.34646 5.889 9.62478 6.12402 9.8598C6.35905 10.0948 6.63737 10.2123 6.95898 10.2123H8.14648V17.9125C8.14648 18.2465 8.2609 18.5279 8.48975 18.7568C8.71859 18.9856 9 19.1 9.33398 19.1H11.1152C11.4368 19.1 11.7152 18.9856 11.9502 18.7568C12.1852 18.5279 12.3027 18.2465 12.3027 17.9125V10.2123H13.6943C13.9665 10.2123 14.2077 10.1319 14.418 9.97113C14.6283 9.81032 14.7705 9.60622 14.8447 9.35883L15.2529 7.57758C15.3148 7.39203 15.3271 7.20957 15.29 7.03021C15.2529 6.85085 15.1787 6.68695 15.0674 6.53851C14.9561 6.37771 14.8169 6.2571 14.6499 6.1767C14.4829 6.09629 14.3066 6.05609 14.1211 6.05609H12.3027V4.88715H13.4902C13.8118 4.88715 14.0902 4.76963 14.3252 4.53461C14.5602 4.29958 14.6777 4.02126 14.6777 3.69965V1.97406C14.6777 1.96169 14.6777 1.95241 14.6777 1.94623C14.6777 1.94004 14.6777 1.93077 14.6777 1.9184C14.6777 1.58441 14.5633 1.303 14.3345 1.07416C14.1056 0.845317 13.8304 0.730896 13.5088 0.730896H11.9873C11.9626 0.730896 11.9378 0.727804 11.9131 0.721619C11.8883 0.715434 11.8636 0.712341 11.8389 0.712341Z" fill="white"/>
</g>
<defs>
<clipPath id="clip0_1907_588">
<rect width="19.23" height="19" fill="white" transform="matrix(1 0 0 -1 0.925781 19.4155)"/>
</clipPath>
</defs>
</svg>
