<svg width="27" height="10" viewBox="0 0 27 10" fill="none" xmlns="http://www.w3.org/2000/svg">
<g clip-path="url(#clip0_1907_512)">
<path d="M26.5059 4.80566C26.5059 4.70566 26.5059 4.50566 26.5059 4.40566C26.5059 4.30566 26.4059 4.30566 26.4059 4.20566L22.9059 0.705664C22.7059 0.505664 22.4059 0.505664 22.2059 0.705664C22.0059 0.905664 22.0059 1.20566 22.2059 1.40566L24.8059 4.10566H1.00586C0.705859 4.10566 0.505859 4.30566 0.505859 4.60566C0.505859 4.90566 0.705859 5.10566 1.00586 5.10566H24.8059L22.1059 7.80566C21.9059 8.00566 21.9059 8.30566 22.1059 8.50566C22.2059 8.60566 22.3059 8.60566 22.5059 8.60566C22.7059 8.60566 22.8059 8.60566 22.9059 8.50566L26.4059 5.00566C26.4059 4.90566 26.4059 4.90566 26.5059 4.80566Z" fill="#08104D"/>
</g>
<defs>
<clipPath id="clip0_1907_512">
<rect width="26" height="9" fill="white" transform="translate(0.505859 0.105469)"/>
</clipPath>
</defs>
</svg>
