<svg width="21" height="21" viewBox="0 0 21 21" fill="none" xmlns="http://www.w3.org/2000/svg">
<g clip-path="url(#clip0_1907_635)">
<path d="M3.20345 20.0659C2.32933 20.0659 1.82983 19.6913 1.70495 19.0669C1.33033 18.0679 2.32933 17.4436 2.70395 17.1938C3.4532 16.6943 3.82783 16.3197 3.9527 15.9451C3.9527 15.6953 3.82783 15.4456 3.57808 15.0709C3.57808 15.0709 3.57808 14.9461 3.4532 14.9461C2.20445 13.3227 1.58008 11.3247 1.58008 9.32669C1.58008 4.20681 5.82583 0.0859375 10.9457 0.0859375C16.0656 0.0859375 20.3113 4.20681 20.3113 9.32669C20.3113 14.4466 16.0656 18.5674 10.9457 18.5674C10.3213 18.5674 9.69695 18.4426 9.07258 18.3177C5.82583 19.9411 3.4532 20.0659 3.4532 20.0659C3.32833 20.0659 3.32833 20.0659 3.20345 20.0659ZM5.70095 13.6973C6.32533 14.5714 6.57508 15.5704 6.4502 16.4446C6.4502 16.5694 6.32533 16.8192 6.32533 16.9441C6.9497 16.6943 7.57408 16.4446 8.32333 16.0699C8.57308 15.9451 8.82283 15.8202 9.07258 15.9451H9.19745C9.69695 16.0699 10.3213 16.1948 10.9457 16.1948C14.692 16.1948 17.8138 13.1978 17.8138 9.45156C17.8138 5.70531 14.692 2.58344 10.9457 2.58344C7.19945 2.58344 4.07758 5.58044 4.07758 9.32669C4.07758 10.8252 4.57708 12.3237 5.57608 13.4476C5.57608 13.5724 5.70095 13.5724 5.70095 13.6973Z" fill="white"/>
</g>
<defs>
<clipPath id="clip0_1907_635">
<rect width="19.98" height="19.98" fill="white" transform="translate(0.955078 0.0859375)"/>
</clipPath>
</defs>
</svg>
