<svg width="27" height="10" viewBox="0 0 27 10" fill="none" xmlns="http://www.w3.org/2000/svg">
<g clip-path="url(#clip0_1907_141)">
<path d="M26.9844 5.49536C26.9844 5.39536 26.9844 5.19536 26.9844 5.09536C26.9844 4.99536 26.8844 4.99536 26.8844 4.89536L23.3844 1.39536C23.1844 1.19536 22.8844 1.19536 22.6844 1.39536C22.4844 1.59536 22.4844 1.89536 22.6844 2.09536L25.2844 4.79536H1.48438C1.18437 4.79536 0.984375 4.99536 0.984375 5.29536C0.984375 5.59536 1.18437 5.79536 1.48438 5.79536H25.2844L22.5844 8.49536C22.3844 8.69536 22.3844 8.99536 22.5844 9.19536C22.6844 9.29536 22.7844 9.29536 22.9844 9.29536C23.1844 9.29536 23.2844 9.29536 23.3844 9.19536L26.8844 5.69536C26.8844 5.59536 26.8844 5.59536 26.9844 5.49536Z" fill="#08104D"/>
</g>
<defs>
<clipPath id="clip0_1907_141">
<rect width="26" height="9" fill="white" transform="translate(0.984375 0.79541)"/>
</clipPath>
</defs>
</svg>
