<svg width="27" height="10" viewBox="0 0 27 10" fill="none" xmlns="http://www.w3.org/2000/svg">
<g clip-path="url(#clip0_1907_449)">
<path d="M26.7656 4.80566C26.7656 4.70566 26.7656 4.50566 26.7656 4.40566C26.7656 4.30566 26.6656 4.30566 26.6656 4.20566L23.1656 0.705664C22.9656 0.505664 22.6656 0.505664 22.4656 0.705664C22.2656 0.905664 22.2656 1.20566 22.4656 1.40566L25.0656 4.10566H1.26562C0.965625 4.10566 0.765625 4.30566 0.765625 4.60566C0.765625 4.90566 0.965625 5.10566 1.26562 5.10566H25.0656L22.3656 7.80566C22.1656 8.00566 22.1656 8.30566 22.3656 8.50566C22.4656 8.60566 22.5656 8.60566 22.7656 8.60566C22.9656 8.60566 23.0656 8.60566 23.1656 8.50566L26.6656 5.00566C26.6656 4.90566 26.6656 4.90566 26.7656 4.80566Z" fill="white"/>
</g>
<defs>
<clipPath id="clip0_1907_449">
<rect width="26" height="9" fill="white" transform="translate(0.765625 0.105469)"/>
</clipPath>
</defs>
</svg>
