<svg width="37" height="10" viewBox="0 0 27 10" fill="none" xmlns="http://www.w3.org/2000/svg">
<g clip-path="url(#clip0_1907_100)">
<path d="M26.7656 5.16553C26.7656 5.06553 26.7656 4.86553 26.7656 4.76553C26.7656 4.66553 26.6656 4.66553 26.6656 4.56553L23.1656 1.06553C22.9656 0.865527 22.6656 0.865527 22.4656 1.06553C22.2656 1.26553 22.2656 1.56553 22.4656 1.76553L25.0656 4.46553H1.26562C0.965625 4.46553 0.765625 4.66553 0.765625 4.96553C0.765625 5.26553 0.965625 5.46553 1.26562 5.46553H25.0656L22.3656 8.16553C22.1656 8.36553 22.1656 8.66553 22.3656 8.86553C22.4656 8.96553 22.5656 8.96553 22.7656 8.96553C22.9656 8.96553 23.0656 8.96553 23.1656 8.86553L26.6656 5.36553C26.6656 5.26553 26.6656 5.26553 26.7656 5.16553Z" fill="#FF4B36"/>
</g>
<defs>
<clipPath id="clip0_1907_100">
<rect width="26" height="9" fill="white" transform="translate(0.765625 0.465576)"/>
</clipPath>
</defs>
</svg>
