<svg width="27" height="10" viewBox="0 0 27 10" fill="none" xmlns="http://www.w3.org/2000/svg">
<g clip-path="url(#clip0_1907_21)">
<path d="M26.9844 5.61548C26.9844 5.51548 26.9844 5.31548 26.9844 5.21548C26.9844 5.11548 26.8844 5.11548 26.8844 5.01548L23.3844 1.51548C23.1844 1.31548 22.8844 1.31548 22.6844 1.51548C22.4844 1.71548 22.4844 2.01548 22.6844 2.21548L25.2844 4.91548H1.48438C1.18437 4.91548 0.984375 5.11548 0.984375 5.41548C0.984375 5.71548 1.18437 5.91548 1.48438 5.91548H25.2844L22.5844 8.61548C22.3844 8.81548 22.3844 9.11548 22.5844 9.31548C22.6844 9.41548 22.7844 9.41548 22.9844 9.41548C23.1844 9.41548 23.2844 9.41548 23.3844 9.31548L26.8844 5.81548C26.8844 5.71548 26.8844 5.71548 26.9844 5.61548Z" fill="white"/>
</g>
<defs>
<clipPath id="clip0_1907_21">
<rect width="26" height="9" fill="white" transform="translate(0.984375 0.915527)"/>
</clipPath>
</defs>
</svg>
