<svg xmlns="http://www.w3.org/2000/svg" xmlns:xlink="http://www.w3.org/1999/xlink" width="220" zoomAndPan="magnify"
    viewBox="0 0 375 374.999991" height="200" preserveAspectRatio="xMidYMid meet" version="1.0">
    <defs>
        <filter x="0%" y="0%" width="100%" height="100%" id="35e730a55d">
            <feColorMatrix values="0 0 0 0 1 0 0 0 0 1 0 0 0 0 1 0 0 0 1 0" color-interpolation-filters="sRGB" />
        </filter>
        <g />
        <mask id="f8661d5beb">
            <g filter="url(#35e730a55d)">
                <rect x="-37.5" width="450" fill="#000000" y="-37.499999" height="449.999989" fill-opacity="0.87" />
            </g>
        </mask>
        <clipPath id="7a5750be58">
            <path d="M 4 4 L 93 4 L 93 55 L 4 55 Z M 4 4 " clip-rule="nonzero" />
        </clipPath>
        <clipPath id="52b669c398">
            <path
                d="M 0.417969 29.921875 L 86.90625 0.882812 L 96.523438 29.527344 L 10.035156 58.566406 Z M 0.417969 29.921875 "
                clip-rule="nonzero" />
        </clipPath>
        <clipPath id="94d76ab196">
            <path
                d="M 72.582031 5.691406 C 80.492188 3.035156 89.058594 7.292969 91.714844 15.203125 C 94.371094 23.113281 90.109375 31.679688 82.199219 34.335938 L 24.359375 53.757812 C 16.449219 56.414062 7.882812 52.152344 5.226562 44.242188 C 2.570312 36.332031 6.828125 27.769531 14.738281 25.113281 Z M 72.582031 5.691406 "
                clip-rule="nonzero" />
        </clipPath>
        <clipPath id="8a94766584">
            <rect x="0" width="97" y="0" height="59" />
        </clipPath>
        <mask id="105680df70">
            <g filter="url(#35e730a55d)">
                <rect x="-37.5" width="450" fill="#000000" y="-37.499999" height="449.999989" fill-opacity="0.87" />
            </g>
        </mask>
        <clipPath id="ee684d4f72">
            <path d="M 5 6 L 91 6 L 91 64 L 5 64 Z M 5 6 " clip-rule="nonzero" />
        </clipPath>
        <clipPath id="28bc921a11">
            <path d="M 13.816406 1 L 95.640625 41.347656 L 82.277344 68.449219 L 0.453125 28.101562 Z M 13.816406 1 "
                clip-rule="nonzero" />
        </clipPath>
        <clipPath id="404d302be9">
            <path
                d="M 82.089844 34.667969 C 89.574219 38.355469 92.648438 47.414062 88.957031 54.898438 C 85.269531 62.382812 76.210938 65.457031 68.726562 61.769531 L 14.003906 34.785156 C 6.519531 31.09375 3.441406 22.035156 7.132812 14.550781 C 10.824219 7.066406 19.882812 3.992188 27.367188 7.683594 Z M 82.089844 34.667969 "
                clip-rule="nonzero" />
        </clipPath>
        <clipPath id="b6354010f4">
            <rect x="0" width="96" y="0" height="69" />
        </clipPath>
        <mask id="656e492622">
            <g filter="url(#35e730a55d)">
                <rect x="-37.5" width="450" fill="#000000" y="-37.499999" height="449.999989" fill-opacity="0.87" />
            </g>
        </mask>
        <clipPath id="cfc3e5524a">
            <path d="M 4 4 L 93 4 L 93 55 L 4 55 Z M 4 4 " clip-rule="nonzero" />
        </clipPath>
        <clipPath id="b23cd26a96">
            <path
                d="M 0.355469 29.757812 L 86.84375 0.71875 L 96.460938 29.363281 L 9.972656 58.402344 Z M 0.355469 29.757812 "
                clip-rule="nonzero" />
        </clipPath>
        <clipPath id="e3586b0d6b">
            <path
                d="M 72.519531 5.527344 C 80.429688 2.871094 88.996094 7.132812 91.652344 15.042969 C 94.308594 22.953125 90.046875 31.515625 82.136719 34.171875 L 24.296875 53.59375 C 16.386719 56.25 7.820312 51.992188 5.164062 44.082031 C 2.507812 36.171875 6.765625 27.605469 14.675781 24.949219 Z M 72.519531 5.527344 "
                clip-rule="nonzero" />
        </clipPath>
        <clipPath id="fc4b9d359c">
            <rect x="0" width="97" y="0" height="59" />
        </clipPath>
        <mask id="7ffe2f3672">
            <g filter="url(#35e730a55d)">
                <rect x="-37.5" width="450" fill="#000000" y="-37.499999" height="449.999989" fill-opacity="0.89" />
            </g>
        </mask>
        <clipPath id="acbc50b52e">
            <path d="M 6 6 L 104 6 L 104 72 L 6 72 Z M 6 6 " clip-rule="nonzero" />
        </clipPath>
        <clipPath id="747b3d403c">
            <path
                d="M 15.582031 0.660156 L 108.882812 46.667969 L 93.644531 77.570312 L 0.34375 31.5625 Z M 15.582031 0.660156 "
                clip-rule="nonzero" />
        </clipPath>
        <clipPath id="20cff5d4d1">
            <path
                d="M 93.429688 39.046875 C 101.964844 43.253906 105.46875 53.585938 101.261719 62.117188 C 97.054688 70.652344 86.726562 74.15625 78.191406 69.949219 L 15.792969 39.179688 C 7.261719 34.972656 3.753906 24.644531 7.960938 16.113281 C 12.167969 7.578125 22.5 4.070312 31.03125 8.277344 Z M 93.429688 39.046875 "
                clip-rule="nonzero" />
        </clipPath>
        <clipPath id="40dfd23d81">
            <rect x="0" width="109" y="0" height="78" />
        </clipPath>
        <mask id="85d440388e">
            <g filter="url(#35e730a55d)">
                <rect x="-37.5" width="450" fill="#000000" y="-37.499999" height="449.999989" fill-opacity="0.89" />
            </g>
        </mask>
        <clipPath id="d592b49616">
            <path d="M 6 6 L 94 6 L 94 68 L 6 68 Z M 6 6 " clip-rule="nonzero" />
        </clipPath>
        <clipPath id="93fb9ff5d2">
            <path
                d="M 15.582031 0.660156 L 99.359375 41.972656 L 84.125 72.875 L 0.34375 31.5625 Z M 15.582031 0.660156 "
                clip-rule="nonzero" />
        </clipPath>
        <clipPath id="7eb53397f1">
            <path
                d="M 83.910156 34.355469 C 92.445312 38.5625 95.949219 48.890625 91.742188 57.425781 C 87.535156 65.957031 77.207031 69.464844 68.671875 65.257812 L 15.792969 39.183594 C 7.261719 34.976562 3.753906 24.644531 7.960938 16.113281 C 12.167969 7.578125 22.5 4.074219 31.03125 8.28125 Z M 83.910156 34.355469 "
                clip-rule="nonzero" />
        </clipPath>
        <clipPath id="c95aa0ec08">
            <rect x="0" width="100" y="0" height="74" />
        </clipPath>
        <mask id="fe12264150">
            <g filter="url(#35e730a55d)">
                <rect x="-37.5" width="450" fill="#000000" y="-37.499999" height="449.999989" fill-opacity="0.89" />
            </g>
        </mask>
        <clipPath id="286372219d">
            <path d="M 6 6 L 84 6 L 84 62 L 6 62 Z M 6 6 " clip-rule="nonzero" />
        </clipPath>
        <clipPath id="a64501120c">
            <path
                d="M 15.582031 0.660156 L 89.011719 36.867188 L 73.773438 67.769531 L 0.34375 31.5625 Z M 15.582031 0.660156 "
                clip-rule="nonzero" />
        </clipPath>
        <clipPath id="59fcd7e08b">
            <path
                d="M 73.558594 29.25 C 82.09375 33.457031 85.597656 43.785156 81.390625 52.320312 C 77.183594 60.851562 66.855469 64.359375 58.320312 60.152344 L 15.792969 39.179688 C 7.261719 34.972656 3.753906 24.644531 7.960938 16.113281 C 12.167969 7.578125 22.5 4.070312 31.03125 8.277344 Z M 73.558594 29.25 "
                clip-rule="nonzero" />
        </clipPath>
        <clipPath id="5228215cf2">
            <rect x="0" width="90" y="0" height="68" />
        </clipPath>
        <mask id="8b244b9845">
            <g filter="url(#35e730a55d)">
                <rect x="-37.5" width="450" fill="#000000" y="-37.499999" height="449.999989" fill-opacity="0.89" />
            </g>
        </mask>
        <clipPath id="bd41c9cc4b">
            <path d="M 5 6 L 74 6 L 74 58 L 5 58 Z M 5 6 " clip-rule="nonzero" />
        </clipPath>
        <clipPath id="af55be7250">
            <path
                d="M 15.398438 0.433594 L 79.410156 31.996094 L 64.011719 63.226562 L 0 31.664062 Z M 15.398438 0.433594 "
                clip-rule="nonzero" />
        </clipPath>
        <clipPath id="af289150f7">
            <path
                d="M 63.957031 24.378906 C 72.492188 28.585938 75.960938 38.988281 71.710938 47.609375 C 67.457031 56.234375 57.09375 59.816406 48.558594 55.605469 L 15.449219 39.28125 C 6.917969 35.074219 3.445312 24.671875 7.699219 16.046875 C 11.953125 7.421875 22.316406 3.84375 30.851562 8.050781 Z M 63.957031 24.378906 "
                clip-rule="nonzero" />
        </clipPath>
        <clipPath id="280aafd219">
            <rect x="0" width="80" y="0" height="64" />
        </clipPath>
    </defs>
    <g mask="url(#f8661d5beb)">
        <g transform="matrix(1, 0, 0, 1, 7, 199)">
            <g clip-path="url(#8a94766584)">
                <g clip-path="url(#7a5750be58)">
                    <g clip-path="url(#52b669c398)">
                        <g clip-path="url(#94d76ab196)">
                            <path fill="#000000"
                                d="M 0.417969 29.921875 L 86.90625 0.882812 L 96.523438 29.527344 L 10.035156 58.566406 Z M 0.417969 29.921875 "
                                fill-opacity="1" fill-rule="nonzero" />
                        </g>
                    </g>
                </g>
            </g>
        </g>
    </g>
    <g mask="url(#105680df70)">
        <g transform="matrix(1, 0, 0, 1, 9, 171)">
            <g clip-path="url(#b6354010f4)">
                <g clip-path="url(#ee684d4f72)">
                    <g clip-path="url(#28bc921a11)">
                        <g clip-path="url(#404d302be9)">
                            <path fill="#000000"
                                d="M 13.816406 1 L 95.640625 41.347656 L 82.277344 68.449219 L 0.453125 28.101562 Z M 13.816406 1 "
                                fill-opacity="1" fill-rule="nonzero" />
                        </g>
                    </g>
                </g>
            </g>
        </g>
    </g>
    <g mask="url(#656e492622)">
        <g transform="matrix(1, 0, 0, 1, 10, 153)">
            <g clip-path="url(#fc4b9d359c)">
                <g clip-path="url(#cfc3e5524a)">
                    <g clip-path="url(#b23cd26a96)">
                        <g clip-path="url(#e3586b0d6b)">
                            <path fill="#000000"
                                d="M 0.355469 29.757812 L 86.84375 0.71875 L 96.460938 29.363281 L 9.972656 58.402344 Z M 0.355469 29.757812 "
                                fill-opacity="1" fill-rule="nonzero" />
                        </g>
                    </g>
                </g>
            </g>
        </g>
    </g>
    <g mask="url(#7ffe2f3672)">
        <g transform="matrix(1, 0, 0, 1, 0, 117)">
            <g clip-path="url(#40dfd23d81)">
                <g clip-path="url(#acbc50b52e)">
                    <g clip-path="url(#747b3d403c)">
                        <g clip-path="url(#20cff5d4d1)">
                            <path fill="#7ed957"
                                d="M 15.582031 0.660156 L 108.882812 46.667969 L 93.644531 77.570312 L 0.34375 31.5625 Z M 15.582031 0.660156 "
                                fill-opacity="1" fill-rule="nonzero" />
                        </g>
                    </g>
                </g>
            </g>
        </g>
    </g>
    <g mask="url(#85d440388e)">
        <g transform="matrix(1, 0, 0, 1, 0, 117)">
            <g clip-path="url(#c95aa0ec08)">
                <g clip-path="url(#d592b49616)">
                    <g clip-path="url(#93fb9ff5d2)">
                        <g clip-path="url(#7eb53397f1)">
                            <path fill="#ffffff"
                                d="M 15.582031 0.660156 L 99.359375 41.972656 L 84.125 72.875 L 0.34375 31.5625 Z M 15.582031 0.660156 "
                                fill-opacity="1" fill-rule="nonzero" />
                        </g>
                    </g>
                </g>
            </g>
        </g>
    </g>
    <g mask="url(#fe12264150)">
        <g transform="matrix(1, 0, 0, 1, 0, 117)">
            <g clip-path="url(#5228215cf2)">
                <g clip-path="url(#286372219d)">
                    <g clip-path="url(#a64501120c)">
                        <g clip-path="url(#59fcd7e08b)">
                            <path fill="#1b187c"
                                d="M 15.582031 0.660156 L 89.011719 36.867188 L 73.773438 67.769531 L 0.34375 31.5625 Z M 15.582031 0.660156 "
                                fill-opacity="1" fill-rule="nonzero" />
                        </g>
                    </g>
                </g>
            </g>
        </g>
    </g>
    <g mask="url(#8b244b9845)">
        <g transform="matrix(1, 0, 0, 1, 0, 117)">
            <g clip-path="url(#280aafd219)">
                <g clip-path="url(#bd41c9cc4b)">
                    <g clip-path="url(#af55be7250)">
                        <g clip-path="url(#af289150f7)">
                            <path fill="#ff6100"
                                d="M 15.398438 0.433594 L 79.410156 31.996094 L 64.011719 63.226562 L 0 31.664062 Z M 15.398438 0.433594 "
                                fill-opacity="1" fill-rule="nonzero" />
                        </g>
                    </g>
                </g>
            </g>
        </g>
    </g>
    <g fill="#000000" fill-opacity="1">
        <g transform="translate(101.830042, 236.713105)">
            <g>
                <path
                    d="M 12.375 0 L 5.515625 0 L 5.515625 -55.59375 L 12.375 -55.59375 L 12.375 -37.953125 C 14.882812 -39.347656 17.378906 -40.394531 19.859375 -41.09375 C 22.335938 -41.789062 24.800781 -42.140625 27.25 -42.140625 C 31.820312 -42.140625 35.265625 -40.992188 37.578125 -38.703125 C 39.890625 -36.421875 41.046875 -33.050781 41.046875 -28.59375 L 41.046875 0 L 34.203125 0 L 34.203125 -27.765625 C 34.203125 -30.597656 33.460938 -32.671875 31.984375 -33.984375 C 30.503906 -35.296875 28.203125 -35.953125 25.078125 -35.953125 C 23.015625 -35.953125 20.882812 -35.671875 18.6875 -35.109375 C 16.488281 -34.554688 14.382812 -33.78125 12.375 -32.78125 Z M 12.375 0 " />
            </g>
        </g>
    </g>
    <g fill="#000000" fill-opacity="1">
        <g transform="translate(148.062262, 236.713105)">
            <g>
                <path
                    d="M 14.875 0.671875 C 10.644531 0.671875 7.539062 -0.34375 5.5625 -2.375 C 3.582031 -4.414062 2.59375 -7.640625 2.59375 -12.046875 C 2.59375 -16.503906 3.789062 -19.664062 6.1875 -21.53125 C 8.582031 -23.394531 12.648438 -24.328125 18.390625 -24.328125 C 20.285156 -24.328125 22.148438 -24.242188 23.984375 -24.078125 C 25.828125 -23.910156 27.554688 -23.660156 29.171875 -23.328125 L 29.171875 -27.34375 C 29.171875 -30.40625 28.390625 -32.601562 26.828125 -33.9375 C 25.273438 -35.28125 22.769531 -35.953125 19.3125 -35.953125 C 16.75 -35.953125 14.488281 -35.851562 12.53125 -35.65625 C 10.582031 -35.457031 8.632812 -35.140625 6.6875 -34.703125 L 6.6875 -40.640625 C 8.914062 -41.191406 11.1875 -41.578125 13.5 -41.796875 C 15.8125 -42.023438 18.445312 -42.140625 21.40625 -42.140625 C 26.363281 -42.140625 30.039062 -40.984375 32.4375 -38.671875 C 34.832031 -36.359375 36.03125 -32.773438 36.03125 -27.921875 L 36.03125 0 L 29.765625 0 L 29.4375 -3.84375 L 29.265625 -3.84375 C 27.585938 -2.507812 25.425781 -1.421875 22.78125 -0.578125 C 20.132812 0.253906 17.5 0.671875 14.875 0.671875 Z M 19.140625 -18.734375 C 15.359375 -18.734375 12.726562 -18.269531 11.25 -17.34375 C 9.769531 -16.425781 9.03125 -14.796875 9.03125 -12.453125 C 9.03125 -10.003906 9.640625 -8.234375 10.859375 -7.140625 C 12.085938 -6.054688 14.097656 -5.515625 16.890625 -5.515625 C 19.066406 -5.515625 21.296875 -5.847656 23.578125 -6.515625 C 25.859375 -7.191406 27.722656 -8.03125 29.171875 -9.03125 L 29.171875 -17.890625 C 27.335938 -18.171875 25.625 -18.378906 24.03125 -18.515625 C 22.445312 -18.660156 20.816406 -18.734375 19.140625 -18.734375 Z M 19.140625 -18.734375 " />
            </g>
        </g>
    </g>
    <g fill="#000000" fill-opacity="1">
        <g transform="translate(189.278331, 236.713105)">
            <g>
                <path
                    d="M 12.375 0 L 5.515625 0 L 5.515625 -41.296875 L 11.78125 -41.296875 L 12.125 -37.796875 L 12.453125 -37.796875 C 14.628906 -39.078125 16.800781 -40.035156 18.96875 -40.671875 C 21.144531 -41.316406 23.296875 -41.640625 25.421875 -41.640625 C 26.304688 -41.640625 26.898438 -41.640625 27.203125 -41.640625 C 27.515625 -41.640625 27.753906 -41.609375 27.921875 -41.546875 L 27.921875 -34.953125 C 27.535156 -35.054688 27.046875 -35.125 26.453125 -35.15625 C 25.867188 -35.1875 24.96875 -35.203125 23.75 -35.203125 C 21.738281 -35.203125 19.769531 -34.960938 17.84375 -34.484375 C 15.925781 -34.015625 14.101562 -33.304688 12.375 -32.359375 Z M 12.375 0 " />
            </g>
        </g>
    </g>
    <g fill="#000000" fill-opacity="1">
        <g transform="translate(218.79004, 236.713105)">
            <g>
                <path
                    d="M 14.875 0.671875 C 10.644531 0.671875 7.539062 -0.34375 5.5625 -2.375 C 3.582031 -4.414062 2.59375 -7.640625 2.59375 -12.046875 C 2.59375 -16.503906 3.789062 -19.664062 6.1875 -21.53125 C 8.582031 -23.394531 12.648438 -24.328125 18.390625 -24.328125 C 20.285156 -24.328125 22.148438 -24.242188 23.984375 -24.078125 C 25.828125 -23.910156 27.554688 -23.660156 29.171875 -23.328125 L 29.171875 -27.34375 C 29.171875 -30.40625 28.390625 -32.601562 26.828125 -33.9375 C 25.273438 -35.28125 22.769531 -35.953125 19.3125 -35.953125 C 16.75 -35.953125 14.488281 -35.851562 12.53125 -35.65625 C 10.582031 -35.457031 8.632812 -35.140625 6.6875 -34.703125 L 6.6875 -40.640625 C 8.914062 -41.191406 11.1875 -41.578125 13.5 -41.796875 C 15.8125 -42.023438 18.445312 -42.140625 21.40625 -42.140625 C 26.363281 -42.140625 30.039062 -40.984375 32.4375 -38.671875 C 34.832031 -36.359375 36.03125 -32.773438 36.03125 -27.921875 L 36.03125 0 L 29.765625 0 L 29.4375 -3.84375 L 29.265625 -3.84375 C 27.585938 -2.507812 25.425781 -1.421875 22.78125 -0.578125 C 20.132812 0.253906 17.5 0.671875 14.875 0.671875 Z M 19.140625 -18.734375 C 15.359375 -18.734375 12.726562 -18.269531 11.25 -17.34375 C 9.769531 -16.425781 9.03125 -14.796875 9.03125 -12.453125 C 9.03125 -10.003906 9.640625 -8.234375 10.859375 -7.140625 C 12.085938 -6.054688 14.097656 -5.515625 16.890625 -5.515625 C 19.066406 -5.515625 21.296875 -5.847656 23.578125 -6.515625 C 25.859375 -7.191406 27.722656 -8.03125 29.171875 -9.03125 L 29.171875 -17.890625 C 27.335938 -18.171875 25.625 -18.378906 24.03125 -18.515625 C 22.445312 -18.660156 20.816406 -18.734375 19.140625 -18.734375 Z M 19.140625 -18.734375 " />
            </g>
        </g>
    </g>
    <g fill="#000000" fill-opacity="1">
        <g transform="translate(260.00611, 236.713105)">
            <g>
                <path
                    d="M 29.765625 -6.4375 L 29.765625 -0.671875 C 28.867188 -0.273438 27.65625 0.046875 26.125 0.296875 C 24.59375 0.546875 23.128906 0.671875 21.734375 0.671875 C 16.722656 0.671875 13.144531 -0.441406 11 -2.671875 C 8.851562 -4.898438 7.78125 -8.75 7.78125 -14.21875 L 7.78125 -35.453125 L 1.59375 -35.453125 L 1.59375 -41.296875 L 7.859375 -41.296875 L 8.953125 -51.34375 L 14.625 -51.34375 L 14.625 -41.296875 L 29.34375 -41.296875 L 29.34375 -35.453125 L 14.625 -35.453125 L 14.625 -14.46875 C 14.625 -11.0625 15.25 -8.742188 16.5 -7.515625 C 17.757812 -6.296875 19.976562 -5.6875 23.15625 -5.6875 C 24.164062 -5.6875 25.320312 -5.769531 26.625 -5.9375 C 27.9375 -6.101562 28.984375 -6.269531 29.765625 -6.4375 Z M 29.765625 -6.4375 " />
            </g>
        </g>
    </g>
    <g fill="#000000" fill-opacity="1">
        <g transform="translate(291.022671, 236.713105)">
            <g>
                <path
                    d="M 8.1875 0 L 0.671875 0 L 21.40625 -52.421875 L 28.765625 -52.421875 L 49.25 0 L 41.71875 0 L 36.953125 -12.625 L 12.953125 -12.625 Z M 24.921875 -45.90625 C 24.359375 -43.945312 23.703125 -41.878906 22.953125 -39.703125 C 22.203125 -37.535156 21.4375 -35.363281 20.65625 -33.1875 L 15.296875 -18.890625 L 34.609375 -18.890625 L 29.265625 -33.1875 C 28.148438 -36.257812 27.269531 -38.742188 26.625 -40.640625 C 25.988281 -42.535156 25.421875 -44.289062 24.921875 -45.90625 Z M 24.921875 -45.90625 " />
            </g>
        </g>
    </g>
    <g fill="#000000" fill-opacity="1">
        <g transform="translate(341.017006, 236.713105)">
            <g>
                <path
                    d="M 12.625 -48.5 L 5.265625 -48.5 L 5.265625 -55.59375 L 12.625 -55.59375 Z M 12.375 0 L 5.515625 0 L 5.515625 -41.296875 L 12.375 -41.296875 Z M 12.375 0 " />
            </g>
        </g>
    </g>
</svg>