<svg width="296" height="108" viewBox="0 0 296 108" fill="none" xmlns="http://www.w3.org/2000/svg">
<g clip-path="url(#clip0_564_18469)">
<g style="mix-blend-mode:multiply">
<path d="M140.175 60.9851L65.4982 9.05987C55.0777 6.14955 43.8617 8.92012 36.0828 16.3789L-20.8292 71.1656C-28.6081 78.6243 -31.6669 89.5762 -28.8785 99.9863L-8.5908 176.334C-5.80245 186.744 2.35483 194.925 12.7753 197.836L95.5018 220.94C105.922 223.851 117.138 221.08 124.917 213.621L175.39 181.891C183.169 174.432 186.227 163.48 183.439 153.07L161.542 82.4868C158.753 72.0768 150.596 63.8955 140.175 60.9851Z" fill="#FAE041"/>
</g>
<g style="mix-blend-mode:multiply">
<path d="M279.667 23.3039L138.056 60.9273C106.487 69.288 95.997 109.243 119.294 132.786C173.054 181.939 218.016 201.703 254.18 192.079C290.344 182.455 316.237 143.777 331.859 76.0466C340.282 44.2961 311.236 14.9436 279.667 23.3039Z" fill="#20BEFF"/>
</g>
<circle cx="56" cy="54" r="30.5" fill="white" stroke="#202124" stroke-width="3"/>
<path d="M62.6667 63.6266H46.6667V47.3333H56V44.6666H46.6667C45.2 44.6666 44 45.8666 44 47.3333V63.3333C44 64.8 45.2 66 46.6667 66H62.6667C64.1333 66 65.3333 64.8 65.3333 63.3333V54H62.6667V63.6266Z" fill="#202124"/>
<path d="M65.3333 40.6666H62.6667V44.6666H58.6667C58.68 44.68 58.6667 47.3333 58.6667 47.3333H62.6667V51.32C62.68 51.3333 65.3333 51.32 65.3333 51.32V47.3333H69.3333V44.6666H65.3333V40.6666Z" fill="#202124"/>
<path d="M60 50H49.3333V52.6666H60V50Z" fill="#202124"/>
<path d="M49.3333 54V56.6666H60V54H49.3333Z" fill="#202124"/>
<path d="M60 58H49.3333V60.6666H60V58Z" fill="#202124"/>
</g>
<defs>
<clipPath id="clip0_564_18469">
<rect width="296" height="108" fill="white"/>
</clipPath>
</defs>
</svg>
