<svg width="296" height="108" viewBox="0 0 296 108" fill="none" xmlns="http://www.w3.org/2000/svg">
<g clip-path="url(#clip0_564_18278)">
<g style="mix-blend-mode:multiply">
<path d="M177.353 120.613C148.557 103.988 123.862 58.5598 140.47 29.7937C157.078 1.02758 208.767 -0.300259 237.563 16.3252C266.359 32.9506 276.264 69.8398 259.656 98.6059C243.048 127.372 206.149 137.239 177.353 120.613Z" fill="#20BEFF"/>
</g>
<g style="mix-blend-mode:multiply">
<path d="M-23.662 -75.1745L-14.0498 -83.7559C-1.22186 -95.4777 44.6007 -148.32 107.65 -152.38C166.318 -153.373 230.832 -80.3278 236.245 -74.6975L245.199 -65.391C275.396 -33.4568 256.447 19.2991 212.883 24.1296L200.147 25.5933C182.888 27.5328 167.706 37.722 159.553 53.3487L153.491 64.7766C132.782 103.661 77.0846 101.486 59.0698 61.3342L53.8034 49.5808C46.7931 33.6297 32.3354 22.3169 15.2128 18.963L2.54326 16.8127C-40.6432 8.53759 -56.0752 -45.6326 -23.662 -75.1745Z" fill="#FAE041"/>
</g>
<circle cx="56" cy="54" r="30.5" fill="white" stroke="#202124" stroke-width="3"/>
<path fill-rule="evenodd" clip-rule="evenodd" d="M56 56.6666C58.2133 56.6666 60 54.88 60 52.6666V44.6666C60 42.4533 58.2133 40.6666 56 40.6666C53.7867 40.6666 52 42.4533 52 44.6666V52.6666C52 54.88 53.7867 56.6666 56 56.6666ZM54.6667 44.6666C54.6667 43.9333 55.2667 43.3333 56 43.3333C56.7333 43.3333 57.3333 43.9333 57.3333 44.6666V52.6666C57.3333 53.4 56.7333 54 56 54C55.2667 54 54.6667 53.4 54.6667 52.6666V44.6666ZM56 59.3333C59.68 59.3333 62.6667 56.3466 62.6667 52.6666H65.3333C65.3333 57.3733 61.8533 61.24 57.3333 61.8933V66H54.6667V61.8933C50.1467 61.24 46.6667 57.3733 46.6667 52.6666H49.3333C49.3333 56.3466 52.32 59.3333 56 59.3333Z" fill="#202124"/>
</g>
<defs>
<clipPath id="clip0_564_18278">
<rect width="296" height="108" fill="white"/>
</clipPath>
</defs>
</svg>
