<svg width="296" height="108" viewBox="0 0 296 108" fill="none" xmlns="http://www.w3.org/2000/svg">
<g clip-path="url(#clip0_564_18594)">
<g style="mix-blend-mode:multiply">
<path d="M289.526 49.6784L160.159 16.7864C131.331 9.43225 105.663 36.4812 114.079 65.48L162.115 230.999C170.531 259.998 206.692 269.103 227.104 247.459L308.38 114.643C328.847 93.1869 318.355 57.0325 289.526 49.6784Z" fill="#FAE041"/>
</g>
<g style="mix-blend-mode:multiply">
<path d="M14.0108 72.5658C-56.6624 95.7267 -39.8213 199 34.6289 199H92.706C111.391 199 129.186 191.114 141.628 177.324L166.002 150.303C210.694 100.757 160.177 24.6638 96.458 45.5447L14.0108 72.5658Z" fill="#20BEFF"/>
</g>
<circle cx="56" cy="54" r="30.5" fill="white" stroke="#202124" stroke-width="3"/>
<path d="M65.3333 58C63.6 58 62.1333 59.12 61.5733 60.6667H54.6666C53.2 60.6667 52 59.4667 52 58C52 56.5333 53.2 55.3333 54.6666 55.3333H57.3333C60.28 55.3333 62.6666 52.9467 62.6666 50C62.6666 47.0533 60.28 44.6667 57.3333 44.6667H50.4266C49.8666 43.12 48.4 42 46.6666 42C44.4533 42 42.6666 43.7867 42.6666 46C42.6666 48.2133 44.4533 50 46.6666 50C48.4 50 49.8666 48.88 50.4266 47.3333H57.3333C58.8 47.3333 60 48.5333 60 50C60 51.4667 58.8 52.6667 57.3333 52.6667H54.6666C51.72 52.6667 49.3333 55.0533 49.3333 58C49.3333 60.9467 51.72 63.3333 54.6666 63.3333H61.5733C62.12 64.88 63.5866 66 65.3333 66C67.5466 66 69.3333 64.2133 69.3333 62C69.3333 59.7867 67.5466 58 65.3333 58ZM46.6666 47.3333C45.9333 47.3333 45.3333 46.7333 45.3333 46C45.3333 45.2667 45.9333 44.6667 46.6666 44.6667C47.4 44.6667 48 45.2667 48 46C48 46.7333 47.4 47.3333 46.6666 47.3333Z" fill="#202124"/>
</g>
<defs>
<clipPath id="clip0_564_18594">
<rect width="296" height="108" fill="white"/>
</clipPath>
</defs>
</svg>
