<svg width="296" height="108" viewBox="0 0 296 108" fill="none" xmlns="http://www.w3.org/2000/svg">
<g clip-path="url(#clip0_564_18624)">
<g style="mix-blend-mode:multiply">
<path d="M196.161 -1.78706L135.752 101.232C122.269 124.182 139.079 153 166.044 153H319.956C346.921 153 363.731 124.182 350.248 101.232L256.57 -1.78706C243.263 -24.7376 209.644 -24.7376 196.161 -1.78706Z" fill="#FAE041"/>
</g>
<g style="mix-blend-mode:multiply">
<path d="M23.6343 35.6011C-60.579 63.3352 -40.5114 187 48.2026 187H117.407C139.671 187 160.876 177.556 175.702 161.044L204.745 128.687C257.999 69.3586 197.805 -21.7592 121.878 3.24464L23.6343 35.6011Z" fill="#20BEFF"/>
</g>
<circle cx="56" cy="54" r="30.5" fill="white" stroke="#202124" stroke-width="3"/>
<path fill-rule="evenodd" clip-rule="evenodd" d="M60.6534 42.64C60.6534 44.1067 59.4534 45.3067 57.9867 45.3067C56.5201 45.3067 55.3201 44.1067 55.3201 42.64C55.3201 41.1733 56.5201 39.9733 57.9867 39.9733C59.4534 39.9733 60.6534 41.1733 60.6534 42.64ZM54.5201 57.9733L53.1867 63.84L43.8534 61.9733L44.3867 59.3067L50.9201 60.64L53.0534 49.84L50.6534 50.7733V55.3067H47.9867V49.04L54.9201 46.1067C55.1201 46.1067 55.2867 46.0733 55.4534 46.04C55.6201 46.0067 55.7867 45.9733 55.9867 45.9733C56.9201 45.9733 57.7201 46.5067 58.2534 47.3067L59.5867 49.44C60.6534 51.3067 62.7867 52.64 65.3201 52.64V55.3067C62.3867 55.3067 59.7201 53.9733 57.9867 51.9733L57.1867 55.9733L59.9867 58.64V68.64H57.3201V60.64L54.5201 57.9733Z" fill="#202124"/>
</g>
<defs>
<clipPath id="clip0_564_18624">
<rect width="296" height="108" fill="white"/>
</clipPath>
</defs>
</svg>
