<svg width="296" height="108" viewBox="0 0 296 108" fill="none" xmlns="http://www.w3.org/2000/svg">
<g clip-path="url(#clip0_564_18555)">
<g style="mix-blend-mode:multiply">
<path d="M231.478 85.833C187.632 103.395 115.221 91.0906 97.677 47.2895C80.1333 3.48843 124.029 -55.4004 167.876 -72.9624C211.722 -90.5244 261.614 -69.2002 279.157 -25.3992C296.701 18.4019 275.325 68.271 231.478 85.833Z" fill="#FAE041"/>
</g>
<g style="mix-blend-mode:multiply">
<path d="M69.7492 -170.982L81.7817 -166.372C98.0792 -160.343 166.046 -143.835 198.552 -89.6583C226.323 -37.97 190.969 52.8472 188.446 60.2391L184.278 72.4624C169.735 113.937 114.162 121.274 89.9025 84.7697L82.7644 74.121C73.1305 59.6705 57.116 50.8462 39.4904 50.7617L26.5555 50.6123C-17.4956 50.0278 -41.0898 -0.472638 -13.6603 -34.8861L-5.62777 -44.9537C5.33637 -58.4951 8.76484 -76.5297 3.89806 -93.2853L0.00259817 -105.531C-12.4359 -147.708 28.6371 -186.251 69.7492 -170.982Z" fill="#20BEFF"/>
</g>
<circle cx="56" cy="54" r="30.5" fill="white" stroke="#202124" stroke-width="3"/>
<path fill-rule="evenodd" clip-rule="evenodd" d="M42.6666 54C42.6666 46.64 48.64 40.6666 56 40.6666C63.36 40.6666 69.3333 46.64 69.3333 54C69.3333 61.36 63.36 67.3333 56 67.3333C48.64 67.3333 42.6666 61.36 42.6666 54ZM66.6666 54C66.6666 48.12 61.88 43.3333 56 43.3333C50.12 43.3333 45.3333 48.12 45.3333 54C45.3333 59.88 50.12 64.6666 56 64.6666C61.88 64.6666 66.6666 59.88 66.6666 54Z" fill="#202124"/>
</g>
<defs>
<clipPath id="clip0_564_18555">
<rect width="296" height="108" fill="white"/>
</clipPath>
</defs>
</svg>
