<svg width="296" height="108" viewBox="0 0 296 108" fill="none" xmlns="http://www.w3.org/2000/svg">
<g clip-path="url(#clip0_564_18504)">
<g style="mix-blend-mode:multiply">
<path d="M123.786 -63.4495L47.4728 -85C37.8927 -85 28.9873 -79.9527 24.1298 -71.7176L-11.3569 -11.2824C-16.2144 -3.04733 -16.2144 7.04733 -11.3569 15.2824L24.1298 75.7175C28.9873 83.9527 37.8927 89 47.4728 89H123.527C133.107 89 142.013 83.9527 146.87 75.7175L182.357 36.5344C187.214 28.2992 187.214 18.2046 182.357 9.96947L146.87 -45.1527C142.013 -53.3878 132.958 -61.8532 123.786 -63.4495Z" fill="#20BEFF"/>
</g>
<g style="mix-blend-mode:multiply">
<path d="M283.358 24.4559C262.982 16.3856 236.688 29.3467 216.304 21.2917C195.884 13.2227 181.357 -15.832 160.946 -23.9162C133.67 -34.7189 104.946 -12.2753 109.36 16.5034C109.36 16.5034 128.744 110.681 175.649 129.194C222.554 147.707 293.248 88.9277 293.248 88.9277C316.138 71.1385 310.634 35.2586 283.358 24.4559Z" fill="#FAE041"/>
</g>
<circle cx="56" cy="54" r="30.5" fill="white" stroke="#202124" stroke-width="3"/>
<path d="M57.0534 63.3333L47.2667 64.5333L45.48 49.9733L46.6667 49.8266V47.1466L43.84 47.4933C43.1067 47.5866 42.5867 48.2533 42.68 48.9733L44.7867 66.1733C44.8667 66.8533 45.44 67.3466 46.1067 67.3466C46.16 67.3466 46.2134 67.3466 46.2667 67.3333L63.4667 65.2266C64.2 65.1333 64.72 64.4666 64.6267 63.7466L64.5867 63.3333H57.0534Z" fill="#202124"/>
<path d="M68 40.6666H50.6667C49.9334 40.6666 49.3334 41.2666 49.3334 42V59.3333C49.3334 60.0666 49.9334 60.6666 50.6667 60.6666H68C68.7334 60.6666 69.3334 60.0666 69.3334 59.3333V42C69.3334 41.2666 68.7334 40.6666 68 40.6666ZM66.6667 58H52V43.3333H66.6667V58Z" fill="#202124"/>
<path d="M59.2934 56.6666C59.12 53.7066 56.6934 51.36 53.6934 51.3466C53.88 54.2933 56.3067 56.64 59.2934 56.6666Z" fill="#202124"/>
<path d="M59.3734 56.6666C62.3734 56.6533 64.8 54.2933 64.9734 51.3466C61.9734 51.36 59.5467 53.7066 59.3734 56.6666Z" fill="#202124"/>
<path d="M55.8667 50.6666C56.24 51.3066 57.0534 51.52 57.6934 51.16L58 50.9866V51.3333C58 52.0666 58.6 52.6666 59.3334 52.6666C60.0667 52.6666 60.6667 52.0666 60.6667 51.3333V50.9733L60.9734 51.1466C61.6134 51.52 62.4267 51.2933 62.8 50.6533C63.1734 50.0133 62.9467 49.2 62.3067 48.8266L62 48.6666L62.3067 48.4933C62.9467 48.12 63.16 47.3066 62.8 46.6666C62.4267 46.0266 61.6134 45.8133 60.9734 46.1733L60.6667 46.36V46C60.6667 45.2666 60.0667 44.6666 59.3334 44.6666C58.6 44.6666 58 45.2666 58 46V46.36L57.6934 46.1866C57.0534 45.8133 56.24 46.04 55.8667 46.68C55.4934 47.32 55.72 48.1333 56.36 48.5066L56.6667 48.6666L56.36 48.84C55.72 49.2133 55.5067 50.0266 55.8667 50.6666ZM59.3334 47.3333C60.0667 47.3333 60.6667 47.9333 60.6667 48.6666C60.6667 49.4 60.0667 50 59.3334 50C58.6 50 58 49.4 58 48.6666C58 47.9333 58.6 47.3333 59.3334 47.3333Z" fill="#202124"/>
</g>
<defs>
<clipPath id="clip0_564_18504">
<rect width="296" height="108" fill="white"/>
</clipPath>
</defs>
</svg>
