<svg width="296" height="108" viewBox="0 0 296 108" fill="none" xmlns="http://www.w3.org/2000/svg">
<g clip-path="url(#clip0_564_18519)">
<g style="mix-blend-mode:multiply">
<path d="M242.786 -63.4495L166.473 -85C156.893 -85 147.987 -79.9527 143.13 -71.7176L107.643 -11.2824C102.786 -3.04733 102.786 7.04733 107.643 15.2824L143.13 75.7175C147.987 83.9527 156.893 89 166.473 89H242.527C252.107 89 261.013 83.9527 265.87 75.7175L301.357 36.5344C306.214 28.2992 306.214 18.2046 301.357 9.96947L265.87 -45.1527C261.013 -53.3878 251.958 -61.8532 242.786 -63.4495Z" fill="#20BEFF"/>
</g>
<g style="mix-blend-mode:multiply">
<path d="M37.8459 108.404C56.728 119.53 84.7107 110.794 103.603 121.906C122.528 133.038 132.384 163.99 151.299 175.136C176.574 190.029 208.425 172.301 208.517 143.186C208.517 143.186 203.941 47.1434 160.466 21.5951C116.991 -3.95318 38.0521 43.178 38.0521 43.178C12.6856 57.2109 12.5708 93.5103 37.8459 108.404Z" fill="#FAE041"/>
</g>
<circle cx="56" cy="54" r="30.5" fill="white" stroke="#202124" stroke-width="3"/>
<path fill-rule="evenodd" clip-rule="evenodd" d="M46.6667 42C45.3333 42 44 43.3333 44 44.6667H46.6667V42ZM44 63.3333C44 64.8 45.2 66 46.6667 66H57.3333V52.6667H44V63.3333ZM49.8267 62.3067L48.16 60.1333L45.6667 63.3333H55.6667L52.3333 59.3333L49.8267 62.3067ZM44 47.3333H46.6667V50H44V47.3333ZM65.3333 44.6667V42C66.6667 42 68 43.3333 68 44.6667H65.3333ZM49.3333 42H52V44.6667H49.3333V42ZM57.3333 42H54.6667V44.6667H57.3333V42ZM65.3333 58H68V60.6667H65.3333V58ZM68 47.3333H65.3333V50H68V47.3333ZM65.3333 52.6667H68V55.3333H65.3333V52.6667ZM68 63.3333C68 64.6667 66.6667 66 65.3333 66V63.3333H68ZM60 63.3333H62.6667V66H60V63.3333ZM62.6667 42H60V44.6667H62.6667V42Z" fill="#202124"/>
</g>
<defs>
<clipPath id="clip0_564_18519">
<rect width="296" height="108" fill="white"/>
</clipPath>
</defs>
</svg>
