<svg width="514" height="418" viewBox="0 0 514 418" fill="none" xmlns="http://www.w3.org/2000/svg">
<g clip-path="url(#clip0_225_78154)">
<path fill-rule="evenodd" clip-rule="evenodd" d="M104.448 186.251C109.539 187.718 114.798 188.258 120.102 188.261C120.732 188.057 121.384 188.028 122.035 187.998C122.532 187.976 123.029 187.953 123.513 187.853C128.103 186.959 132.516 185.522 136.686 183.368C147.339 177.863 154.47 169.19 159.117 158.33C160.644 154.766 161.742 151.052 161.787 147.11C161.802 145.997 161.25 144.371 160.503 143.546C159.914 142.897 159.553 142.134 159.152 141.286C159.112 141.202 159.071 141.116 159.03 141.029C158.868 140.693 159.291 140.381 159.561 140.636C160.653 141.677 161.322 142.328 162.354 143.669C162.4 143.741 162.447 143.822 162.495 143.906C162.79 144.42 163.143 145.034 163.827 144.332C164.406 143.738 164.205 142.994 163.629 142.295C162.687 141.152 161.763 139.964 161.022 138.686C160.814 138.326 160.6 137.968 160.386 137.61C158.973 135.243 157.556 132.87 157.83 129.866C158.034 127.616 159.243 125.855 161.037 125.474C162.501 125.165 164.355 126.287 165.333 128.153C165.858 129.158 166.323 130.199 166.728 131.258C167.081 132.184 167.39 133.125 167.701 134.068L167.701 134.069C167.839 134.489 167.978 134.91 168.12 135.329C168.715 135.084 168.728 134.697 168.741 134.314C168.744 134.219 168.747 134.125 168.759 134.033C168.983 132.258 168.473 130.587 167.97 128.941L167.967 128.93L167.954 128.888C167.805 128.398 167.765 128.265 168.258 127.982C170.037 126.96 171.747 125.826 173.458 124.693L173.458 124.693C175.802 123.139 178.147 121.585 180.669 120.317L180.759 120.271C181.316 119.987 181.701 119.791 182.103 120.665C182.419 121.35 182.878 121.968 183.337 122.586C183.563 122.889 183.788 123.192 183.996 123.503C189.528 131.759 197.067 137.276 206.655 139.886L206.845 139.938L207.243 140.047C210.371 140.903 213.508 141.762 216.879 141.05C222.624 139.838 223.605 136.559 222.138 132.995C221.001 130.223 218.349 128.42 215.358 127.472C215.253 127.439 215.144 127.416 215.035 127.392L215.034 127.392C214.663 127.311 214.293 127.23 214.119 126.803C214.065 126.674 214.149 126.524 214.29 126.512C215.979 126.371 217.563 126.557 218.967 127.451C219.945 128.072 220.35 127.694 220.575 126.788C221.043 124.901 221.046 123.023 220.476 121.142C219.528 118.004 217.614 115.589 215.007 113.672C213.516 113.297 212.822 113.188 212.18 113.087C211.795 113.027 211.429 112.969 210.921 112.859C207.585 112.139 204.243 112.493 200.928 112.877C193.392 113.753 186.117 115.631 179.316 119.084C175.347 121.1 171.726 123.668 168.171 126.329C167.451 126.869 165.678 125.657 165.375 125.42C164.562 124.787 164.442 124.244 165.171 123.323C169.308 118.109 174.096 113.606 179.577 109.847C185.316 105.911 191.424 102.725 198.204 100.964C199.038 100.748 199.695 100.316 200.211 99.6412C200.211 99.4352 200.214 99.2699 200.217 99.128V99.1277V99.1274V99.1271V99.1269C200.228 98.5795 200.232 98.3807 200.013 97.5352C199.955 97.3113 199.899 97.0874 199.844 96.8645C199.568 95.7468 199.298 94.6537 198.678 93.6982C196.449 90.2632 193.137 88.1962 189.567 86.4832C187.956 85.7092 186.261 85.1332 184.419 85.1632C184.036 85.1701 183.655 85.1734 183.274 85.1766C181.655 85.1905 180.044 85.2043 178.407 85.4932C175.893 85.9372 173.502 86.6362 171.27 87.8002C167.232 89.9092 164.469 93.4342 161.889 97.0072C159.788 99.9148 158.803 103.369 157.824 106.799L157.824 106.799L157.824 106.8L157.824 106.8L157.824 106.801L157.823 106.802L157.823 106.803C157.722 107.158 157.62 107.513 157.518 107.867C157.47 108.031 157.429 108.218 157.386 108.413C157.194 109.283 156.967 110.308 155.982 110.063C155.188 109.865 155.43 108.801 155.634 107.902L155.634 107.902L155.634 107.902C155.672 107.738 155.708 107.579 155.736 107.432C156.105 105.515 156.678 103.655 157.416 101.861C157.773 100.991 157.53 100.739 156.756 100.502C154.479 99.8062 152.271 99.5662 149.817 99.9532C144.465 100.796 140.409 103.712 137.235 107.681C134.385 111.245 132.774 115.622 131.415 120.008C131.373 120.143 131.369 120.293 131.365 120.445C131.355 120.832 131.345 121.224 130.689 121.355C130.765 120.886 130.766 120.425 130.766 119.964V119.964C130.767 119.447 130.767 118.93 130.875 118.403C131.589 114.896 132.768 111.563 134.415 108.398C134.766 107.726 134.85 107.153 134.088 107.003C130.404 106.283 126.669 106.007 123.06 107.219C115.692 109.694 111.807 115.652 109.056 122.321C106.785 127.832 105.459 133.685 104.907 139.667C104.877 139.985 104.814 140.501 104.583 140.576C104.219 140.696 104.063 140.254 103.93 139.876C103.92 139.846 103.909 139.816 103.899 139.787C103.215 137.879 102.777 135.935 102.909 133.898C102.96 133.094 102.738 132.557 101.868 132.377C99.4379 131.87 96.9779 131.816 94.6859 132.746C85.6049 136.433 78.9389 142.355 76.8869 152.444C75.9599 157.007 76.8779 161.36 78.1019 165.725C78.3305 166.539 78.6985 167.293 79.0655 168.044C79.522 168.979 79.977 169.91 80.1599 170.951C80.4124 171.001 80.5532 171.176 80.6952 171.353C80.7574 171.43 80.8198 171.508 80.8919 171.575C81.8966 172.517 82.7665 173.578 83.6377 174.64L83.6377 174.64C84.8865 176.163 86.1378 177.689 87.7919 178.871C92.8559 182.492 98.5799 184.559 104.448 186.251ZM151.929 150.494C149.61 150.644 148.173 149.27 148.215 146.948C148.263 144.359 150.414 141.368 152.877 140.504C154.119 140.066 155.424 139.898 156.429 140.912C157.524 142.016 158.343 143.33 158.034 145.028C157.56 147.623 154.536 150.326 151.929 150.494ZM181.791 88.0523C178.305 88.5593 174.891 89.3183 171.837 91.1723C171.021 91.6673 170.25 92.4083 170.925 93.4703C171.466 94.3219 172.113 93.9717 172.752 93.6253L172.752 93.6252C172.86 93.5665 172.969 93.5079 173.076 93.4553C176.088 91.9823 179.13 90.6023 182.547 90.3293C183.282 90.2723 184.293 90.1523 184.203 89.1233C184.11 88.0733 183.144 88.0343 182.286 88.0493C182.162 88.0538 182.038 88.0533 181.915 88.0527L181.889 88.0526L181.791 88.0523ZM143.082 108.338C143.535 108.536 143.745 108.89 143.754 109.565C143.721 109.635 143.688 109.706 143.655 109.776L143.601 109.89L143.597 109.9L143.596 109.9C142.969 111.238 142.283 112.699 141.273 113.966C140.982 114.332 140.484 114.251 140.064 113.981C139.56 113.657 139.446 113.171 139.632 112.688C140.191 111.236 141.085 109.969 141.975 108.707L142.041 108.614C142.263 108.302 142.662 108.155 143.082 108.338ZM211.908 137.699C212.02 137.679 212.145 137.666 212.274 137.653C212.892 137.588 213.626 137.511 213.705 136.64C213.794 135.66 212.901 135.605 212.192 135.562C212.137 135.558 212.083 135.555 212.031 135.551C210.942 135.473 209.868 135.38 208.797 135.131C208.224 134.996 207.468 134.954 207.306 135.719C207.185 136.279 207.658 136.497 208.126 136.713L208.127 136.713C208.183 136.738 208.238 136.764 208.293 136.79C209.132 137.2 210.026 137.358 210.988 137.528L210.989 137.528C211.288 137.582 211.595 137.636 211.908 137.699ZM170.1 95.9963C170.157 96.8153 168.63 98.3483 167.406 98.4143C167.031 98.4113 166.812 97.9913 166.8 97.3673C166.773 96.2693 167.955 94.7063 168.849 94.7513C169.587 94.7873 170.046 95.2313 170.1 95.9963ZM138.114 120.11C139.164 119.867 139.716 119.057 139.935 118.073C140.097 117.338 139.473 116.933 138.849 116.912C137.728 116.875 137.5 117.728 137.291 118.509C137.251 118.66 137.211 118.808 137.166 118.946C136.986 119.501 137.439 119.957 138.114 120.11ZM218.868 136.934C218.832 137.831 218.121 138.191 217.26 138.338C217.161 138.31 217.056 138.285 216.948 138.26C216.366 138.123 215.725 137.973 215.733 137.213C215.748 136.112 216.747 135.887 217.602 135.77C218.376 135.665 218.895 136.199 218.868 136.934Z" fill="#202124"/>
<path d="M434.814 386.285L434.652 386.483C433.497 387.887 431.937 387.944 430.56 387.995L430.425 388.001C426.357 388.148 422.481 386.942 418.731 385.775L417.96 385.535C416.898 385.205 415.842 384.809 414.819 384.431C412.782 383.669 410.673 382.886 408.468 382.595C405.018 382.139 401.517 382.562 398.544 383.033C389.886 384.413 381.213 385.034 371.244 385.019C368.811 385.016 360.48 384.212 358.719 383.933C351.42 382.769 343.779 380.915 335.361 378.257C332.067 377.219 328.797 375.938 325.632 374.699C323.613 373.907 321.528 373.091 319.458 372.344C318.546 372.017 317.637 371.684 316.728 371.348C312.957 369.965 309.057 368.534 305.124 367.541C299.136 366.029 293.058 366.956 288.432 367.931C283.101 369.056 278.349 371.402 274.407 373.55C268.875 376.562 263.079 378.812 256.62 381.239C247.47 384.671 237.852 387.326 228.024 389.129C220.269 390.551 212.013 391.133 202.779 390.911C201.459 390.878 200.115 390.869 198.816 390.863C198.21 390.86 197.604 390.857 196.998 390.851H196.962L196.929 390.833C196.617 390.689 192.255 390.479 190.059 390.512H190.041L189.027 390.296C183.966 389.999 179.865 389.642 176.142 389.177C175.941 389.153 175.743 389.117 175.545 389.078C175.197 389.015 174.87 388.955 174.54 388.955C174.105 388.955 173.487 388.778 172.776 388.574C171.174 388.115 169.182 387.542 168.537 388.865C168.351 389.246 167.187 391.571 166.482 392.702C164.985 395.111 162.498 396.179 160.074 397.07C152.364 399.902 144.309 400.556 138.156 400.808C137.79 400.823 137.418 400.877 137.058 400.928C136.884 400.952 136.71 400.976 136.536 400.997L136.488 401.003L136.443 400.979C136.263 400.877 136.092 400.889 135.906 401.015L135.87 401.042H135.825C135.078 401.057 134.334 401.06 133.587 401.063C131.733 401.072 129.813 401.081 127.938 401.291L121.608 401.498C118.905 401.642 116.202 401.783 113.496 401.924C107.679 402.23 101.661 402.545 95.745 402.884C91.062 403.151 86.304 403.457 81.702 403.754C68.172 404.627 54.186 405.53 40.38 405.53H39.954C32.691 405.521 26.607 405.197 20.529 403.646C19.593 403.406 18.654 403.067 17.664 402.605C14.637 401.195 11.538 400.046 7.81499 398.756C3.12299 397.127 0.623994 393.8 0.170994 388.586C-0.321006 382.88 0.965993 377.399 3.99599 372.299L4.01999 372.26C4.18199 371.987 4.34999 371.705 4.52999 371.462C4.87799 370.997 5.20499 370.712 5.46899 370.484C6.07499 369.959 6.35099 369.719 5.97899 368.078C5.66399 366.68 5.54699 363.245 5.47199 360.974C5.44799 360.317 5.42999 359.744 5.40899 359.333C4.76699 346.226 4.68899 336.185 5.15099 326.771C5.47199 320.225 6.43799 313.328 8.10299 305.684C9.13499 300.938 10.293 295.958 11.637 290.456C12.279 287.84 13.014 285.2 13.728 282.647C14.562 279.659 15.426 276.572 16.137 273.503C17.583 267.263 19.302 261.842 21.39 256.931C27 243.731 34.239 231.89 40.581 222.047C42.417 219.197 44.691 215.924 47.631 213.26C48.429 212.537 48.438 211.607 48.45 210.707C48.453 210.359 48.456 210.029 48.504 209.708C49.308 204.227 51.285 199.166 54.546 194.237C58.515 188.237 63.633 183.158 68.574 178.562C69.312 177.878 70.02 177.137 70.704 176.42C71.958 175.106 73.254 173.747 74.787 172.67C75.675 172.049 76.41 171.809 77.037 171.935C77.535 172.037 77.949 172.364 78.303 172.931L78.33 172.973L78.327 173.024C78.255 173.828 77.739 174.311 77.238 174.776C77.127 174.881 77.016 174.983 76.908 175.091C75.789 176.222 74.664 177.347 73.536 178.472C68.478 183.518 63.246 188.741 58.836 194.555C53.148 202.061 50.769 210.632 51.768 220.037C52.023 222.431 52.29 224.825 52.56 227.219C52.824 229.598 53.1 232.055 53.358 234.476C53.445 235.316 53.448 236.156 53.361 236.975C53.304 237.527 52.968 238.187 52.203 238.241C51.54 238.289 51.18 237.773 50.937 237.317C50.484 236.471 50.337 235.535 50.196 234.629L50.136 234.248C49.404 229.757 48.84 224.924 48.405 219.476C48.399 219.401 48.399 219.329 48.399 219.251C48.399 218.99 48.399 218.759 48.171 218.546C48.15 218.57 48.126 218.594 48.102 218.618C47.991 218.738 47.871 218.861 47.778 218.993C36.045 235.145 28.218 249.146 23.145 263.051C20.019 271.61 17.949 280.655 15.945 289.4C15.534 291.185 15.126 292.97 14.709 294.752L14.496 295.658C12.762 303.05 10.971 310.694 10.044 318.365C8.87999 328.013 8.62199 338.387 9.23099 351.017C9.40199 354.518 9.58199 358.019 9.75899 361.52C9.86099 363.521 9.96599 365.522 10.065 367.523C10.095 368.111 10.128 368.702 10.158 369.29C10.251 370.976 10.344 372.719 10.38 374.438C10.398 375.197 10.305 375.968 10.218 376.709C10.182 377 10.149 377.288 10.119 377.576C10.071 378.065 10.005 378.734 9.21599 378.803C8.51399 378.866 8.14799 378.329 7.93799 377.918C7.78199 377.618 7.63799 377.306 7.49999 377.003C7.47299 376.94 7.44299 376.877 7.41299 376.814C5.00699 380.441 3.97499 387.233 5.25299 391.259C5.54399 392.171 5.97299 393.167 6.96899 393.632C8.28599 394.244 9.60899 394.91 10.887 395.555C14.526 397.388 18.288 399.287 22.389 400.142C30.06 401.741 36.834 402.737 43.095 403.19C48.06 403.55 53.097 402.989 57.966 402.452C58.824 402.356 59.679 402.26 60.534 402.17C67.506 401.438 74.733 400.97 82.629 400.745C90.981 400.505 99.468 400.034 107.676 399.578C111.363 399.374 115.176 399.161 118.926 398.972C119.775 398.93 120.624 398.888 121.473 398.849C126.147 398.621 130.98 398.387 135.729 397.931C142.065 397.328 148.575 396.173 155.631 394.403C155.994 394.313 156.357 394.223 156.72 394.133C157.935 393.836 159.192 393.53 160.401 393.149C164.196 391.958 166.287 388.367 165.48 384.413C162.288 368.777 154.395 354.887 142.014 343.13C135.204 336.659 126.627 332.444 116.523 330.596C106.878 328.832 96.858 328.973 85.887 331.025C83.784 331.418 82.038 331.763 80.391 332.111C79.629 332.27 78.72 332.324 78.432 331.331C78.153 330.356 79.137 329.924 79.611 329.717C82.551 328.427 85.644 327.806 88.551 327.329C97.41 325.868 106.683 325.925 116.895 327.5C117.849 327.647 118.2 327.467 118.461 326.699C118.659 326.12 118.998 325.577 119.325 325.067C119.55 324.719 119.814 324.389 120.096 324.041C120.183 323.93 120.276 323.816 120.372 323.696C119.943 323.576 119.517 323.459 119.091 323.342C116.583 322.652 114.213 322.001 111.924 320.927C102.561 316.544 95.898 309.878 91.56 300.548C85.713 287.975 83.244 275.024 84.216 262.049C84.633 256.481 85.899 250.694 88.194 243.836C89.193 240.848 90.135 237.782 91.047 234.818C92.769 229.211 94.551 223.412 96.81 217.877C100.599 208.586 104.436 202.001 109.254 196.523C112.023 193.376 115.326 191.294 119.964 189.767C121.206 189.356 122.43 189.572 123.615 189.779C123.99 189.842 124.377 189.911 124.758 189.956C124.95 189.98 125.424 190.07 125.673 190.4C125.805 190.574 125.85 190.784 125.811 191.024C125.73 191.54 125.25 191.525 124.965 191.513L124.857 191.51C119.376 191.459 115.206 193.556 111.771 198.137C107.193 204.245 103.368 211.478 99.732 220.898C96.291 229.814 92.811 239.432 90.636 249.356C89.925 252.611 89.418 256.133 89.091 260.126C88.806 263.633 88.539 267.395 88.527 271.133C88.506 277.895 89.37 283.643 91.173 288.71C93.123 294.194 96.42 299.039 99.609 303.725C99.924 304.19 100.233 304.658 100.539 305.129C101.661 306.842 102.822 308.612 104.325 310.013C108.072 313.508 112.317 316.592 117.195 318.287C122.655 320.183 128.358 321.35 134.109 321.899C139.83 322.445 145.509 322.145 151.239 321.707C162.927 320.81 174.54 318.962 185.928 316.184C189.801 315.239 193.644 314.189 197.46 313.031C198.06 312.848 198.681 312.653 199.146 312.23C200.235 311.24 200.034 309.509 199.779 308.063C198.018 298.103 197.751 287.879 198.99 277.838C192.498 278.234 186.012 277.202 179.622 275.987C163.353 272.894 147.318 268.574 131.694 263.081C128.394 261.92 124.824 260.462 123.21 257.357C127.794 258.266 132.375 259.172 136.959 260.081C134.646 247.154 132.807 234.143 131.451 221.084C131.4 220.583 131.364 220.025 131.679 219.632C132.612 218.468 134.163 220.376 134.394 221.849C136.335 234.191 138.273 246.536 140.214 258.878C140.322 259.568 140.448 260.294 140.901 260.822C141.348 261.344 142.035 261.578 142.689 261.791C161.118 267.743 180.156 271.805 199.41 273.896C200.181 273.98 201.03 274.1 201.54 274.685C202.011 275.228 202.05 276.011 202.065 276.728C202.107 278.66 202.146 280.589 202.188 282.521C202.197 283.01 202.227 283.547 202.563 283.904C202.809 284.168 203.175 284.279 203.526 284.369C210.753 286.226 218.943 283.586 223.722 277.853C224.91 276.428 225.927 274.808 227.451 273.746C228.972 272.684 231.237 272.363 232.593 273.632C234.156 275.096 233.67 277.685 232.752 279.62C231.834 281.555 230.562 283.547 230.931 285.656C231.039 286.271 231.315 286.895 231.84 287.234C232.935 287.945 234.351 287.102 235.362 286.277C241.365 281.372 246.915 275.915 251.916 269.993C253.152 268.529 254.733 266.882 256.626 267.185C256.497 271.118 253.83 274.466 251.13 277.328C247.329 281.354 243.192 285.065 238.779 288.41C236.091 290.447 232.224 292.346 229.605 290.219C227.766 288.728 227.634 285.947 228.186 283.643C228.735 281.339 229.809 279.125 229.839 276.758C226.524 280.184 223.158 283.649 219.06 286.085C214.962 288.518 209.976 289.838 205.371 288.605C204.561 288.389 203.607 288.122 202.959 288.653C202.434 289.082 202.362 289.844 202.338 290.522C202.11 296.894 202.428 303.287 203.289 309.608C203.34 309.977 203.406 310.379 203.679 310.634C204.111 311.042 204.807 310.88 205.368 310.691C220.92 305.489 235.863 298.46 249.789 289.796C251.217 288.908 253.707 288.404 254.037 290.054C239.13 299.93 223.083 308.084 206.313 314.297C205.59 314.564 204.804 314.879 204.426 315.551C204.003 316.304 204.228 317.24 204.462 318.068C206.052 323.666 207.645 329.264 209.235 334.862C205.674 330.077 203.232 324.467 202.158 318.599C202.068 318.11 201.954 317.564 201.54 317.285C201.138 317.015 200.607 317.102 200.133 317.198C188.232 319.637 176.346 322.436 164.379 324.53C163.614 324.665 162.963 324.524 162.204 324.542C161.046 324.569 159.855 324.824 158.703 324.953C156.396 325.211 154.086 325.427 151.773 325.595C147.12 325.937 142.452 326.09 137.787 326.015L135.84 325.982L135.807 325.967C135.477 325.79 135.195 325.76 134.913 325.877L134.877 325.895L134.835 325.889C133.773 325.754 132.69 325.652 131.64 325.553C129.096 325.31 126.468 325.061 123.939 324.35C123.609 324.257 123.318 324.383 123.123 324.704C122.958 324.974 122.787 325.241 122.616 325.508C122.265 326.054 121.902 326.618 121.611 327.2C121.44 327.539 121.398 327.788 121.479 327.962C121.572 328.166 121.848 328.319 122.325 328.436C128.589 329.96 135.84 332.129 142.122 336.632C144.132 338.075 145.905 339.803 147.618 341.477C148.056 341.906 148.494 342.332 148.935 342.755C154.326 347.918 158.19 354.314 161.388 359.906C163.995 364.46 166.119 368.714 167.883 372.911C169.059 375.704 169.485 378.788 169.899 381.77L169.956 382.175C170.082 383.09 170.301 383.513 171.333 383.759C173.13 384.188 174.972 384.368 176.754 384.545C180.792 384.941 207.828 386.429 208.536 386.285L208.566 386.276L208.578 386.279C211.182 386.294 213.816 386.051 216.36 385.823L216.891 385.775C220.569 385.442 224.505 385.034 228.339 384.299C232.947 383.42 238.986 382.169 244.866 380.327C257.265 376.436 267.078 372.416 275.742 367.673C279.63 365.546 283.698 364.058 287.829 363.248C292.476 362.342 297.222 362.429 301.812 362.51C306.204 362.591 310.266 364.064 314.193 365.486C315.306 365.891 316.455 366.308 317.592 366.686C321.237 367.895 324.9 369.239 328.443 370.538C332.649 372.08 336.996 373.673 341.331 375.053C346.125 376.577 350.865 377.711 355.416 378.419C356.514 378.59 357.615 378.83 358.68 379.064C360.402 379.439 362.184 379.826 363.978 379.928L364.674 380.003C366.705 380.336 373.272 380.63 374.46 380.666C377.394 380.753 380.448 380.39 383.4 380.042C384.696 379.889 386.037 379.73 387.333 379.613C390.036 379.373 392.781 379.112 395.436 378.86C397.422 378.671 399.411 378.485 401.397 378.302C405.303 377.942 409.824 377.708 414.033 379.472C416.943 380.69 419.595 381.731 422.136 382.652L422.691 382.853C425.541 383.885 428.484 384.956 431.451 385.721C432.03 385.868 432.684 385.964 433.377 386.063C433.755 386.117 434.151 386.174 434.559 386.243L434.814 386.285Z" fill="#202124"/>
<path fill-rule="evenodd" clip-rule="evenodd" d="M328.314 269.627L328.206 269.324L328.044 269.6L328.04 269.606C320.274 282.705 312.244 296.251 299.445 306.719L299.1 307.001L299.544 306.986C308.81 306.69 318.097 307.166 327.082 307.627L327.162 307.631C334.224 307.994 341.526 308.369 348.801 308.372H349.116L348.918 308.126C340.389 297.611 333.84 285.38 328.314 269.627ZM506.334 333.206C506.934 332.147 507.654 331.748 508.602 331.952C509.484 332.138 509.415 333.32 509.358 334.268C509.346 334.436 509.337 334.595 509.334 334.742C509.256 337.799 509.274 340.913 509.292 343.925C509.328 350.069 509.364 356.42 508.599 362.648C508.368 364.544 507.81 366.071 506.895 367.325C504.348 370.814 501.723 373.385 498.873 375.188C496.629 376.604 494.004 376.946 491.655 376.946C490.965 376.946 490.302 376.916 489.675 376.877C487.17 376.715 484.692 376.133 482.298 375.569L482.196 375.546C481.196 375.31 480.166 375.067 479.148 374.861C471.882 373.385 465.276 373.652 458.952 375.668L458.637 375.77L458.769 375.467C462.482 366.974 463.297 358.046 464.085 349.41L464.088 349.385C464.307 346.961 464.535 344.453 464.826 341.999L464.841 341.867H464.973C465.027 341.867 465.081 341.861 465.132 341.855L465.146 341.854C465.276 341.842 465.409 341.83 465.531 341.888C474.513 346.202 483.999 348.545 492.942 350.573L493.149 350.618L493.166 350.622C494.423 350.908 494.994 351.037 495.18 351.443C495.369 351.857 495.078 352.403 494.436 353.603L494.361 353.741C493.974 354.461 493.776 354.932 494.31 355.379C494.925 355.895 495.459 355.577 496.116 354.902C496.791 354.209 497.556 353.423 498.084 352.514C500.487 348.374 501.504 344.822 502.401 341.687L502.402 341.681L502.402 341.681C503.344 338.396 504.157 335.557 506.334 333.206ZM509.142 343.935C509.124 340.868 509.107 337.801 509.184 334.736C509.187 334.591 509.197 334.432 509.207 334.265L509.207 334.264C509.261 333.366 509.328 332.259 508.572 332.099C507.594 331.889 506.955 332.405 506.457 333.293C504.293 335.624 503.498 338.402 502.544 341.73C501.653 344.841 500.624 348.433 498.213 352.589C497.691 353.492 496.95 354.26 496.224 355.007C495.699 355.547 495.009 356.159 494.214 355.493C493.549 354.936 493.899 354.285 494.228 353.672L494.283 353.57L494.306 353.526C494.906 352.403 495.203 351.847 495.043 351.503C494.887 351.166 494.293 351.032 493.115 350.767L492.909 350.72C483.519 348.59 474.204 346.22 465.465 342.023C465.378 341.983 465.268 341.994 465.15 342.006C465.092 342.011 465.032 342.017 464.973 342.017C464.684 344.47 464.46 346.933 464.235 349.399C463.435 358.183 462.631 367.003 458.907 375.527C465.861 373.307 472.533 373.364 479.178 374.714C480.229 374.928 481.275 375.174 482.32 375.421C484.754 375.994 487.187 376.568 489.687 376.727C492.831 376.928 496.104 376.76 498.792 375.059C501.954 373.061 504.546 370.286 506.775 367.235C507.774 365.87 508.248 364.286 508.452 362.63C509.214 356.413 509.178 350.175 509.142 343.935ZM328.173 269.675C320.166 283.178 312.126 296.543 299.538 306.836C308.835 306.54 317.991 307.01 327.162 307.482C334.34 307.85 341.527 308.22 348.801 308.222C339.303 296.513 333.03 283.52 328.173 269.675Z" fill="#202124"/>
<path fill-rule="evenodd" clip-rule="evenodd" d="M513.303 334.539C513.195 333.276 513.021 331.788 512.55 330.309C512.088 328.857 511.263 327.873 510.168 327.468C509.073 327.066 507.81 327.279 506.511 328.083C503.556 329.916 502.143 332.793 500.727 336.087C499.95 337.896 499.44 339.816 498.948 341.67L498.942 341.692C498.539 343.206 498.123 344.767 497.565 346.257C497.238 347.127 496.998 347.649 496.149 347.454C495.339 347.268 494.523 347.091 493.707 346.914L493.649 346.901C491.309 346.389 488.894 345.861 486.594 345.114C484.604 344.469 482.562 343.882 480.582 343.313L480.581 343.312L480.504 343.29L480.464 343.279L480.464 343.279C476.27 342.076 471.935 340.833 467.895 338.961C467.655 338.847 467.382 338.754 467.115 338.664C466.155 338.34 465.246 338.031 465.408 336.834C465.69 334.77 465.861 332.544 465.969 329.619C466.152 324.588 466.158 319.362 465.99 314.085C465.888 310.803 465.531 307.341 463.641 304.257C462.504 302.4 461.328 301.404 460.05 301.209C458.79 301.02 457.41 301.602 455.838 302.985C454.812 303.888 453.963 305.01 453.246 306.417C452.919 307.056 452.592 307.407 451.818 307.407H451.764C445.494 307.275 438.75 307.374 431.145 307.707L431.094 307.71L431.055 307.74C430.893 307.875 430.743 307.884 430.566 307.77L430.521 307.74L430.464 307.746C428.139 308.043 425.79 308.025 423.579 307.977C423.372 307.923 423.336 307.872 423.333 307.872C423.336 307.834 423.42 307.742 423.476 307.68L423.495 307.659C423.537 307.614 423.576 307.572 423.612 307.527L423.633 307.5L423.642 307.464C423.663 307.365 423.681 307.263 423.699 307.161C423.741 306.948 423.783 306.729 423.84 306.522C424.425 304.47 424.848 302.103 423.543 300.096C421.725 297.306 419.484 296.583 416.268 297.756C415.446 298.056 414.654 298.446 413.889 298.824L413.867 298.835C412.866 299.326 411.832 299.834 410.721 300.138C410.181 300.288 409.956 300.348 409.638 299.88C408.321 297.942 406.713 296.205 405.159 294.528L405.117 294.483C403.675 292.925 402.186 291.316 400.935 289.545C399.357 287.31 397.704 285.075 396.102 282.912L396.051 282.843L396.05 282.842C393.66 279.612 391.19 276.272 388.929 272.868C385.437 267.609 382.233 262.05 379.137 256.674L379.087 256.588C376.259 251.68 373.337 246.611 370.197 241.776C368.024 238.435 365.974 234.939 363.989 231.556L363.966 231.516L363.959 231.504C360.829 226.17 357.594 220.658 353.817 215.613C351.45 212.451 348.6 208.872 344.751 206.457C337.017 201.603 329.61 199.551 322.107 200.184L322.071 200.19L322.038 200.208C321.762 200.388 321.465 200.43 321.138 200.34L321.111 200.331L321.081 200.334C318.603 200.595 315.978 200.928 313.533 201.831C306.123 204.576 300.657 209.973 295.857 215.397C295.155 216.189 294.516 216.792 293.25 216.759C290.373 216.681 287.451 216.681 284.622 216.681C282.801 216.681 280.917 216.681 279.066 216.66C277.83 216.648 277.194 216.813 276.87 217.239C276.468 217.767 276.609 218.646 276.966 219.897L276.987 219.966L277.053 219.993C278.361 220.557 279.753 220.632 280.818 220.632C281.943 220.632 283.084 220.661 284.196 220.69L284.409 220.695L284.465 220.696H284.465C287.55 220.774 290.74 220.854 293.874 220.401C294.039 220.377 294.21 220.383 294.411 220.392C294.436 220.392 294.461 220.393 294.487 220.393H294.487C294.513 220.394 294.539 220.395 294.567 220.395C294.465 221.385 294.063 222.249 293.313 223.107C292.944 223.527 292.578 223.95 292.212 224.376L292.171 224.423C291.131 225.633 290.055 226.884 288.894 227.997C282.238 234.386 276.016 241.379 269.998 248.143L269.998 248.143L269.97 248.175C267.462 250.995 264.867 253.908 262.278 256.74C261.072 258.06 260.949 259.239 261.888 260.451L261.93 260.508L262.002 260.511C263.412 260.529 264.489 259.971 265.401 258.72C266.343 257.421 267.477 256.068 268.971 254.454C272.856 250.251 276.678 245.865 280.377 241.62L280.379 241.618C285.01 236.302 289.804 230.801 294.765 225.618C296.199 224.115 297.711 222.3 297.444 219.747C297.396 219.285 297.669 219.042 297.987 218.76C298.071 218.685 298.152 218.61 298.23 218.532C300.429 216.282 302.91 214.038 306.276 211.254C308.451 209.457 311.802 206.937 315.777 205.818C322.062 204.045 328.158 204.267 333.897 206.472C338.043 208.068 342.363 209.91 345.588 213.324C349.701 217.677 353.364 222.831 357.462 230.043C360.445 235.293 363.645 240.531 366.741 245.599L366.742 245.6L366.858 245.79L366.899 245.857L366.899 245.857C370.543 251.821 374.311 257.987 377.754 264.21C383.103 273.882 389.442 282.63 395.493 290.643L395.91 291.195C399.021 295.32 402.24 299.586 406.374 302.943C406.449 303.003 406.524 303.066 406.599 303.129C407.265 303.684 408.018 304.311 408.927 304.104C409.602 303.948 410.295 303.816 410.964 303.69L410.989 303.685C412.766 303.348 414.602 302.999 416.319 302.166C417.489 301.599 418.476 301.488 419.256 301.842C420.045 302.202 420.624 303.036 420.975 304.32C421.125 304.881 421.11 305.481 421.089 306.12C421.08 306.432 421.071 306.756 421.083 307.071C421.101 307.437 421.041 307.677 420.897 307.827C420.744 307.983 420.477 308.055 420.06 308.052C415.747 308.022 411.363 308.016 407.116 308.01H407.115L407.007 308.01L402.711 308.007V308.157L397.752 308.199L397.749 308.049C388.18 308.242 378.45 308.229 369.033 308.217L368.685 308.217C364.131 308.208 359.421 308.202 354.789 308.217H354.78C354.177 308.217 353.859 307.971 353.418 307.458C351.498 305.217 349.776 302.766 348.111 300.396C347.724 299.844 347.337 299.292 346.944 298.743C343.746 294.237 340.8 288.981 337.677 282.201L336.777 280.257L336.767 280.235L336.766 280.235C334.673 275.721 332.505 271.048 331.011 266.19C330.738 265.302 330.783 264.669 331.164 264.006C333.025 260.783 334.607 257.354 336.137 254.037L336.156 253.995C337.02 252.12 337.917 250.179 338.85 248.298L338.994 248.013L339.006 247.988L339.006 247.988C339.623 246.748 340.262 245.465 340.521 244.029L340.521 244.027C340.623 243.466 340.835 242.301 340.056 241.992C339.474 241.761 338.574 241.869 337.872 242.631C336.246 244.407 335.196 246.546 334.182 248.613L333.888 249.207C328.68 259.74 322.467 271.917 314.625 283.101C310.371 289.164 306.684 293.994 303.021 298.293C301.551 300.018 299.751 301.428 298.011 302.79L297.973 302.82C296.425 304.034 294.826 305.289 293.46 306.768C293.298 306.942 293.094 306.933 292.86 306.918C292.788 306.912 292.713 306.909 292.641 306.909C285.594 307.026 278.433 307.326 271.509 307.617L270.676 307.652C266.661 307.818 262.53 307.989 258.465 308.121C255.541 308.216 252.572 308.375 249.696 308.529L249.579 308.535C241.77 308.958 233.691 309.393 225.738 308.58L225.657 308.571C225.129 308.514 224.406 308.436 224.133 309.366C223.824 310.408 224.554 310.721 225.141 310.973L225.144 310.974C227.601 312.021 230.169 312.201 232.575 312.24C243.658 312.414 254.911 312.002 265.799 311.604L265.884 311.601L266.178 311.59L266.178 311.59C270.167 311.444 274.284 311.292 278.334 311.175C281.042 311.096 283.792 311.06 286.46 311.025L286.668 311.022L286.828 311.02H286.828C290.328 310.976 293.943 310.93 297.501 310.785C309.3 310.302 321.264 311.025 332.836 311.724L332.844 311.724C335.691 311.898 338.637 312.075 341.535 312.231L341.583 312.234L341.625 312.207C341.799 312.096 341.946 312.105 342.102 312.24L342.144 312.276L358.395 312.558C358.956 312.579 361.246 312.57 362.794 312.563H362.794L363.306 312.561L363.51 312.56C363.847 312.557 364.089 312.555 364.182 312.558C368.529 312.567 372.876 312.577 377.223 312.587C381.57 312.596 385.917 312.606 390.264 312.615L398.106 312.633C399.201 312.516 401.811 312.492 402.6 312.486C409.839 312.438 417.078 312.396 424.317 312.354L428.841 312.327L428.88 312.321C429.27 312.21 433.11 311.964 436.821 311.73C439.224 311.577 441.705 311.418 443.325 311.292C443.515 311.278 444.606 311.239 445.806 311.197L446.004 311.19C447.378 311.145 448.935 311.091 449.664 311.055L449.712 311.043C449.791 311.011 450.065 311.027 450.353 311.045L450.369 311.046L450.371 311.046C451.873 311.136 455.38 311.347 457.491 307.245C457.701 306.84 458.043 306.495 458.388 306.147C458.751 305.781 459.036 305.625 459.288 305.649C459.543 305.676 459.801 305.898 460.074 306.324C461.34 308.301 462.117 312.75 461.841 313.122L461.802 313.173L461.814 313.233C462.258 315.954 461.088 339.516 460.959 341.352C460.539 347.373 459.846 353.79 458.775 361.551C458.235 365.445 457.173 369.324 455.619 373.083C453.918 377.187 451.347 380.931 447.975 384.216C447.915 384.276 447.83 384.339 447.741 384.405L447.729 384.414C447.552 384.543 447.369 384.678 447.261 384.849C447.12 385.071 447.135 385.308 447.306 385.539C447.429 385.707 447.6 385.764 447.792 385.764C448.062 385.764 448.371 385.647 448.644 385.542C448.671 385.532 448.697 385.522 448.723 385.512L448.724 385.512C448.749 385.502 448.775 385.492 448.8 385.482C448.812 385.478 448.824 385.474 448.836 385.47C450.183 384.981 451.179 384.486 452.064 383.862C454.095 382.428 456.198 380.946 458.349 379.497C459.987 378.393 461.856 378.024 463.467 377.811C469.872 376.956 476.682 377.64 484.893 379.971C487.605 380.742 489.939 380.922 492.021 380.529C493.833 380.186 495.473 379.435 497.06 378.709L497.082 378.699C497.472 378.519 497.862 378.339 498.255 378.168C503.043 376.056 507.057 373.098 510.186 369.372C512.228 366.944 512.858 361.55 513.129 359.225L513.132 359.202C513.183 358.752 513.234 358.329 513.243 358.284L513.276 358.245L513.279 358.194C513.522 352.698 513.393 335.595 513.303 334.539ZM509.292 343.926C509.328 350.07 509.364 356.421 508.599 362.649C508.368 364.545 507.81 366.072 506.895 367.326C504.348 370.815 501.723 373.386 498.873 375.189C496.629 376.605 494.004 376.947 491.655 376.947C490.965 376.947 490.302 376.917 489.675 376.878C487.17 376.716 484.692 376.134 482.298 375.57L482.196 375.546C481.196 375.31 480.166 375.068 479.148 374.862C471.882 373.386 465.276 373.653 458.952 375.669L458.637 375.771L458.769 375.468C462.482 366.974 463.297 358.046 464.086 349.411L464.088 349.386C464.307 346.962 464.535 344.454 464.826 342L464.841 341.868H464.973C465.027 341.868 465.081 341.862 465.132 341.856L465.146 341.855C465.277 341.843 465.409 341.831 465.531 341.889C474.513 346.203 483.999 348.546 492.942 350.574L493.149 350.619L493.167 350.623L493.167 350.623C494.423 350.908 494.995 351.038 495.18 351.444C495.369 351.858 495.078 352.404 494.436 353.604L494.361 353.742C493.974 354.462 493.776 354.933 494.31 355.38C494.925 355.896 495.459 355.578 496.116 354.903C496.791 354.21 497.556 353.424 498.084 352.515C500.487 348.375 501.504 344.823 502.401 341.688L502.403 341.682C503.344 338.397 504.157 335.558 506.334 333.207C506.934 332.148 507.654 331.749 508.602 331.953C509.484 332.139 509.415 333.321 509.358 334.269C509.346 334.437 509.337 334.596 509.334 334.743C509.256 337.8 509.274 340.914 509.292 343.926ZM327.081 307.628L327.162 307.632C334.224 307.995 341.526 308.37 348.801 308.373H349.116L348.918 308.127C340.389 297.612 333.84 285.381 328.314 269.628L328.206 269.325L328.044 269.601L328.04 269.607C320.274 282.706 312.244 296.252 299.445 306.72L299.1 307.002L299.544 306.987C308.81 306.691 318.097 307.167 327.081 307.628Z" fill="#202124"/>
<path fill-rule="evenodd" clip-rule="evenodd" d="M328.314 269.627C333.84 285.38 340.389 297.611 348.918 308.126L349.116 308.372H348.801C341.526 308.369 334.224 307.994 327.162 307.631L327.082 307.627C318.097 307.166 308.81 306.69 299.544 306.986L299.1 307.001L299.445 306.719C312.244 296.251 320.274 282.705 328.04 269.606L328.044 269.6L328.206 269.324L328.314 269.627ZM327.039 307.324L327.177 307.331L327.185 307.332L327.186 307.332C334.14 307.688 341.325 308.057 348.486 308.069C340.086 297.653 333.612 285.548 328.137 270.029C320.478 282.95 312.528 296.282 299.973 306.674C301.83 306.62 303.687 306.593 305.541 306.593C312.789 306.593 320.005 306.963 327.039 307.324ZM508.602 331.952C507.654 331.748 506.934 332.147 506.334 333.206C504.157 335.557 503.344 338.396 502.402 341.681L502.402 341.681L502.401 341.687C501.504 344.822 500.487 348.374 498.084 352.514C497.556 353.423 496.791 354.209 496.116 354.902C495.459 355.577 494.925 355.895 494.31 355.379C493.776 354.932 493.974 354.461 494.361 353.741L494.436 353.603C495.078 352.403 495.369 351.857 495.18 351.443C494.994 351.037 494.423 350.908 493.166 350.622L493.149 350.618L492.942 350.573C483.999 348.545 474.513 346.202 465.531 341.888C465.409 341.83 465.276 341.842 465.146 341.854L465.132 341.855C465.081 341.861 465.027 341.867 464.973 341.867H464.841L464.826 341.999C464.535 344.453 464.307 346.961 464.088 349.385L464.085 349.41C463.297 358.046 462.482 366.974 458.769 375.467L458.637 375.77L458.952 375.668C465.276 373.652 471.882 373.385 479.148 374.861C480.166 375.067 481.196 375.31 482.196 375.546L482.298 375.569C484.692 376.133 487.17 376.715 489.675 376.877C490.302 376.916 490.965 376.946 491.655 376.946C494.004 376.946 496.629 376.604 498.873 375.188C501.723 373.385 504.348 370.814 506.895 367.325C507.81 366.071 508.368 364.544 508.599 362.648C509.364 356.42 509.328 350.069 509.292 343.925C509.274 340.913 509.256 337.799 509.334 334.742C509.337 334.595 509.346 334.436 509.358 334.268C509.415 333.32 509.484 332.138 508.602 331.952ZM482.367 375.275C484.749 375.839 487.212 376.418 489.696 376.577C492.408 376.751 495.882 376.721 498.711 374.933C501.531 373.151 504.129 370.604 506.655 367.148C507.537 365.936 508.077 364.454 508.302 362.612C509.064 356.402 509.028 350.06 508.992 343.925C508.974 340.913 508.956 337.796 509.034 334.733C509.036 334.63 509.042 334.517 509.049 334.4C509.052 334.351 509.055 334.301 509.058 334.25C509.109 333.416 509.169 332.378 508.539 332.243C507.726 332.072 507.123 332.417 506.589 333.368L506.568 333.395C504.429 335.699 503.622 338.513 502.689 341.771L502.688 341.774C501.785 344.923 500.762 348.493 498.342 352.664C497.807 353.592 497.042 354.381 496.362 355.081L496.332 355.112L496.328 355.116C495.915 355.538 495.069 356.403 494.118 355.61C493.357 354.972 493.765 354.215 494.095 353.603L494.097 353.6L494.172 353.459C494.73 352.418 495.036 351.845 494.907 351.569C494.784 351.298 494.189 351.163 493.106 350.917L493.083 350.912L492.876 350.864C483.915 348.833 474.411 346.487 465.399 342.158C465.354 342.136 465.27 342.145 465.184 342.153L465.162 342.155C465.153 342.155 465.144 342.156 465.135 342.157C465.126 342.157 465.117 342.158 465.108 342.158C464.826 344.57 464.601 347.03 464.385 349.412C463.605 357.974 462.798 366.83 459.174 375.284C462.753 374.177 466.422 373.625 470.25 373.625C473.136 373.625 476.112 373.94 479.208 374.567C480.252 374.777 481.305 375.025 482.324 375.265L482.367 375.275Z" fill="#202124"/>
<path d="M272.064 105.197C274.002 102.167 276.804 100.019 279.684 98.0183C283.383 95.4473 287.292 93.2363 291.735 92.1562C291.594 92.7893 291.999 92.9243 292.485 92.9333C293.418 92.9513 294.354 92.9753 295.284 92.9423C300.615 92.7682 305.748 93.4103 310.56 95.9843C318.111 100.025 323.091 106.091 325.773 114.218C327.465 119.339 328.803 124.55 330.216 129.743C331.362 133.961 332.196 138.251 333.042 142.643C329.847 141.923 326.823 141.125 323.691 140.882C322.263 140.771 321.198 141.161 320.703 142.607C319.221 142.49 317.619 142.493 316.137 142.373C316.908 140.912 316.425 139.958 314.379 139.778C303.627 138.833 293.052 139.949 282.687 142.826C276.891 144.434 271.083 146.108 265.752 148.949C265.752 143.171 265.782 137.504 265.743 131.834C265.689 123.959 267.351 116.555 271.482 109.766C272.13 108.701 272.535 107.483 273.006 106.316C273.372 105.416 272.913 105.122 272.064 105.197Z" fill="#FAE041"/>
<path d="M336.759 151.952C335.427 153.263 333.888 154.133 332.262 154.778C330.636 155.423 328.923 155.843 327.237 156.254L327.096 156.29C326.958 156.323 326.817 156.35 326.679 156.377C326.601 156.392 326.523 156.407 326.445 156.422C326.322 156.449 326.196 156.479 326.07 156.506L325.758 156.572C325.404 156.605 324.306 156.749 324.084 156.794C323.622 156.836 322.299 156.983 322.077 157.022C321.927 157.031 321.543 157.061 321.063 157.1C320.001 157.184 318.546 157.298 318.099 157.319L318.057 157.322L318.036 157.313C317.229 157.202 300.408 157.847 299.85 158.009L299.826 158.021L299.802 158.018C299.532 158.024 299.13 158.024 298.689 158.021C297.72 158.018 296.097 158.012 295.881 158.105L295.821 158.117L292.536 158.114C291.783 158.147 290.979 158.159 290.142 158.159C284.469 158.162 277.278 157.517 273.963 157.22C273.444 157.172 273.012 157.133 272.682 157.106L272.643 157.097C272.412 157.013 271.59 156.884 270.72 156.749C269.619 156.575 268.371 156.38 267.78 156.194C263.763 154.916 262.707 153.611 262.401 149.543C261.843 142.094 261.759 135.215 262.146 128.513C262.2 127.628 262.242 126.845 262.278 126.137C262.461 122.633 262.545 121.031 263.556 118.268C263.778 117.719 263.991 117.173 264.204 116.627C265.176 114.137 266.181 111.56 267.702 109.244C268.92 107.393 270.546 106.097 271.977 105.074L272.01 105.05L272.052 105.047C272.598 104.999 272.97 105.101 273.156 105.353C273.33 105.587 273.327 105.932 273.15 106.376C273.039 106.649 272.931 106.922 272.826 107.195C272.478 108.092 272.118 109.019 271.611 109.847C267.705 116.261 265.836 123.455 265.893 131.837C265.92 135.782 265.914 139.814 265.908 143.714C265.905 145.37 265.902 147.032 265.902 148.703C271.017 146.015 276.516 144.386 282.648 142.685C293.256 139.742 303.936 138.713 314.394 139.634C315.573 139.736 316.29 140.051 316.584 140.591C316.827 141.035 316.761 141.617 316.386 142.325L316.347 142.403H316.257C315.24 142.418 314.226 142.427 313.212 142.439C311.073 142.457 308.859 142.481 306.687 142.544C303.093 142.658 299.187 143.063 294.738 143.783C294.453 143.828 294.126 143.882 294.078 143.993C294.06 144.041 294.06 144.173 294.294 144.518C295.446 146.201 297.834 147.509 299.973 147.626C301.479 147.71 302.754 147.203 303.648 146.159C304.35 145.34 305.046 144.914 305.715 144.896C306.231 144.875 306.699 145.106 307.134 145.559C308.295 146.765 307.419 147.917 306.717 148.841C306.654 148.925 306.591 149.009 306.528 149.09C306.477 149.159 306.417 149.225 306.357 149.288L306.297 149.348C304.191 151.64 301.065 152.627 297.933 151.985C294.588 151.304 291.909 148.964 290.763 145.73C290.436 144.8 290.181 144.557 289.119 144.755C282.783 145.958 276.645 148.181 270.9 150.356C269.916 150.728 268.896 151.172 268.101 152.144C268.269 152.192 268.428 152.243 268.581 152.288C269.004 152.42 269.367 152.534 269.739 152.573L271.29 152.732C277.086 153.338 283.086 153.959 289.002 153.947C297.321 153.932 308.274 153.833 319.209 153.194C323.145 152.966 327.69 152.567 331.872 150.701L332.004 150.641C333.063 150.173 334.377 149.591 334.38 148.562C334.38 147.521 333.075 147.074 332.025 146.717L331.785 146.636C329.133 145.724 326.328 145.235 323.931 144.881C322.308 144.641 321.114 144.173 320.559 142.661L320.541 142.61L320.559 142.559C321.03 141.185 322.029 140.606 323.703 140.738C326.301 140.936 328.791 141.512 331.425 142.121C331.896 142.229 332.373 142.34 332.853 142.448C332.052 138.299 331.221 134.012 330.072 129.782C329.826 128.879 329.583 127.976 329.34 127.07C328.203 122.852 327.027 118.493 325.632 114.266C322.923 106.055 317.97 100.121 310.491 96.1164C306.258 93.8544 301.428 92.8944 295.29 93.0924C294.357 93.1224 293.409 93.1014 292.491 93.0804C292.23 93.0774 291.876 93.0414 291.687 92.7984C291.558 92.6364 291.525 92.4084 291.588 92.1234L291.6 92.0754L291.636 92.0424C292.287 91.4544 292.893 91.3374 293.733 91.1724C293.958 91.1304 294.201 91.0824 294.471 91.0224C296.391 90.5874 296.508 84.2004 296.562 81.1284C296.577 80.3214 296.589 79.6824 296.622 79.2954C296.85 76.6194 296.901 62.5074 296.958 47.5644C297.018 30.6144 297.087 11.3994 297.426 4.67638C297.462 3.96238 297.501 3.15237 297.837 2.43237C298.143 1.77237 298.827 1.10938 299.667 1.10938H299.694C300.582 1.12738 301.251 1.86238 301.521 2.58538C301.809 3.35338 301.776 4.19338 301.746 4.93138C301.266 17.3304 301.209 29.9484 301.152 42.1524C301.095 54.7764 301.035 67.8324 300.507 80.6574C300.441 82.3854 300.096 89.9934 300 90.6444C300 90.6714 299.997 90.7344 300 90.7704H300.063L300.081 90.7674L300.099 90.7704C301.071 90.9144 302.07 90.9384 303.036 90.9594C303.957 90.9804 304.911 91.0014 305.85 91.1274C309.435 91.6044 312.684 93.0894 315.447 94.4394C318.468 95.9214 320.988 97.8234 322.944 100.091C324.57 101.975 325.824 104.078 326.775 106.514C327.219 107.657 327.729 108.8 328.218 109.907C329.121 111.938 330.051 114.035 330.642 116.225C330.975 117.452 331.314 118.679 331.653 119.906C333.726 127.406 335.871 135.164 336.6 143.108C336.666 143.822 336.963 144.569 337.509 145.394C339.147 147.869 338.922 149.831 336.759 151.952Z" fill="#202124"/>
<path d="M273 2.24633C273.018 1.03132 274.017 0.0623249 275.229 0.0803249L324.552 0.803325C325.767 0.821325 326.736 1.82032 326.718 3.03232C326.703 4.24732 272.982 3.46132 273 2.24633Z" fill="#202124"/>
<path d="M271.455 119.114C272.049 116.309 272.793 113.681 274.689 111.56C275.253 110.93 276.015 110.498 276.78 111.173C277.452 111.764 277.284 112.553 276.774 113.198C273.759 117.011 273.495 121.517 273.474 126.095C273.471 126.869 273.984 128.075 272.844 128.231C271.728 128.384 271.632 127.121 271.428 126.293C270.831 123.869 271.278 121.439 271.455 119.114Z" fill="#202124"/>
<path d="M279.861 110.662C278.853 110.479 278.301 109.915 278.487 109.006C278.697 107.983 279.54 107.8 280.458 107.998C281.373 108.196 282.081 108.685 281.823 109.72C281.565 110.776 280.626 110.698 279.861 110.662Z" fill="#202124"/>
<path d="M268.803 230.985C269.238 232.494 268.149 233.355 267.306 234.225C262.641 239.046 257.889 243.783 253.239 248.619C246.342 255.798 239.718 263.223 233.199 270.744C232.593 271.443 232.068 272.535 230.829 271.641C230.409 269.724 231.801 268.518 232.674 267.147C233.118 266.448 233.223 266.067 232.698 265.335C231.477 263.628 230.418 261.804 229.293 260.028C228.972 259.05 222.354 266.565 218.766 269.253C214.308 272.595 209.655 273.708 204.3 271.368C199.773 269.391 195.756 266.838 192.576 263.025C191.94 262.263 191.433 261.228 192.132 260.58C192.693 260.061 193.65 260.778 194.238 261.381C196.743 263.952 199.713 265.866 203.004 267.192C206.514 268.608 210.231 269.361 213.735 267.381C217.749 265.113 221.283 262.191 223.968 258.348C224.529 257.544 225.255 256.851 225.918 256.119C226.668 255.297 226.695 254.46 226.251 253.434C223.581 247.23 221.448 240.858 220.578 234.123C220.368 232.506 220.146 232.383 218.772 233.349C214.053 236.67 209.214 239.817 204.672 243.387C204.078 243.852 203.253 244.788 202.593 243.93C202.002 243.159 202.329 242.091 203.151 241.305C204.735 239.784 206.379 238.332 208.176 237.075C209.001 236.499 208.908 236.028 208.296 235.398C204.075 231.072 200.739 226.041 197.163 221.211C191.256 213.234 185.463 205.17 179.616 197.148C178.842 196.086 177.747 195.495 176.484 195.255C175.464 195.063 174.417 194.778 174.771 193.518C175.098 192.354 176.313 192.465 177.294 192.48C181.302 192.54 182.76 195.834 184.599 198.48C190.257 206.628 196.077 214.656 202.065 222.564C204.834 226.224 207.633 229.878 210.141 233.718C211.011 235.05 211.407 234.843 212.391 234.135C216.624 231.102 220.884 228.102 225.159 225.126C225.813 224.67 226.581 224.367 227.316 224.037C228.021 223.722 228.876 223.32 229.395 224.139C229.884 224.916 229.224 225.588 228.696 226.149C227.478 227.439 226.062 228.522 224.544 229.398C223.278 230.127 223.02 230.988 223.287 232.335C224.571 238.755 225.816 245.178 228.48 251.217C228.651 251.607 228.825 251.997 229.005 252.405C229.761 252.252 230.007 251.64 230.367 251.205C234.204 246.585 237.936 241.878 242.136 237.57C243.714 235.95 245.253 234.291 247.077 232.941C248.046 232.224 249.285 231.273 250.308 232.362C251.361 233.484 250.245 234.612 249.45 235.494C247.827 237.294 246.147 239.043 244.464 240.789C239.826 245.601 236.244 251.283 231.72 256.185C231.264 256.68 231.27 257.079 231.588 257.628C232.614 259.389 233.7 261.105 234.891 262.761C235.503 263.613 235.878 263.466 236.49 262.77C238.854 260.079 241.317 257.475 243.654 254.763C249.204 248.328 255.153 242.286 261.312 236.439C262.95 234.885 264.492 233.232 266.064 231.609C266.847 230.802 267.678 230.277 268.803 230.985Z" fill="#202124"/>
<path d="M215.004 113.681C212.862 113.162 212.277 113.159 210.918 112.868C207.582 112.148 204.24 112.502 200.925 112.886C193.389 113.762 186.114 115.64 179.313 119.093C175.344 121.109 171.723 123.677 168.168 126.338C167.448 126.878 165.675 125.663 165.372 125.429C164.559 124.796 164.439 124.253 165.168 123.332C169.302 118.118 174.093 113.612 179.574 109.856C185.313 105.92 191.421 102.734 198.201 100.973C199.035 100.757 199.692 100.325 200.208 99.6498C202.335 98.8488 205.23 99.8658 207.111 100.523C210.924 101.852 212.673 104.597 214.731 107.972C215.823 109.766 216.159 113.003 215.004 113.681Z" stroke="#202124" stroke-width="2.7"/>
<path fill-rule="evenodd" clip-rule="evenodd" d="M163.768 178.867C164.115 180.724 164.471 182.634 164.436 184.737C164.587 185.433 164.451 186.276 164.307 187.171C164.236 187.614 164.163 188.071 164.121 188.529C163.938 190.446 162.363 192.003 160.968 191.631C160.876 191.606 160.783 191.582 160.69 191.557C159.785 191.319 158.86 191.076 157.995 190.611C154.867 188.932 152.233 186.626 149.6 184.321C148.435 183.301 147.271 182.282 146.064 181.317C146.03 181.29 145.997 181.263 145.964 181.236C145.369 180.755 144.86 180.343 144.093 181.005C143.235 181.746 143.571 182.52 144.099 183.162C144.903 184.137 145.812 185.031 146.721 185.913C150.219 189.306 153.807 192.582 158.466 194.358C159.111 194.604 159.156 195.03 159.159 195.633C159.174 198.324 158.856 200.973 158.109 203.547C156.738 208.269 155.436 209.034 151.083 206.331C147.318 203.993 144.607 200.609 141.899 197.227C141.329 196.516 140.76 195.806 140.181 195.105C140.024 194.914 139.867 194.724 139.71 194.533C138.588 193.167 137.468 191.804 136.167 190.596C135.846 190.299 135.489 190.107 135.156 190.326C134.878 190.509 135.011 190.697 135.145 190.887C135.209 190.978 135.274 191.069 135.294 191.16C135.675 192.861 136.344 194.433 137.319 195.885C139.272 198.795 141.48 201.504 143.805 204.114C146.184 206.79 148.854 209.136 152.109 210.717C154.293 211.779 157.098 211.503 158.715 209.688C160.884 207.252 161.658 204.294 162.063 201.183C162.075 201.093 162.082 201 162.089 200.906C162.122 200.484 162.156 200.052 162.573 199.92C163.003 199.781 163.183 200.097 163.364 200.416C163.436 200.544 163.509 200.673 163.599 200.772C165.15 202.491 166.923 203.868 169.239 204.417C171.519 204.957 173.226 204.345 174.009 202.626C174.519 201.507 174.69 200.325 174.468 199.104C173.808 195.495 172.608 192.066 170.994 188.775C170.654 188.08 170.346 187.364 170.038 186.649C169.431 185.24 168.826 183.833 167.976 182.592C167.043 181.23 166.608 179.907 166.341 178.35C166.114 177.016 165.75 175.705 165.387 174.395C165.238 173.857 165.089 173.318 164.949 172.779C164.82 172.272 164.382 171.885 163.974 171.885C163.47 171.885 163.203 172.452 163.164 172.935C163.101 173.745 163.146 174.558 163.224 175.38C163.334 176.545 163.549 177.695 163.768 178.867ZM165.45 198.519C164.352 197.367 163.311 196.161 162.516 194.685C165.111 193.482 166.638 191.46 167.271 188.253C167.457 188.771 167.641 189.282 167.823 189.788C169.085 193.284 170.249 196.511 170.946 199.89C171.183 201.042 170.661 201.372 169.572 201.123C167.886 200.736 166.602 199.731 165.45 198.519Z" fill="#202124"/>
<path d="M197.901 154.359C197.895 153.948 197.877 153.534 197.859 153.123C197.823 152.379 197.571 151.668 197.487 150.93C197.403 150.198 197.544 149.484 197.823 148.806C198.801 146.409 199.911 144.084 201.12 141.798C201.459 141.156 201.924 140.808 202.521 141.015C203.256 141.273 203.1 141.906 202.836 142.518C201.945 144.585 201.102 146.67 200.214 148.737C199.845 149.601 199.707 150.399 200.007 151.374C200.925 154.329 201.216 157.299 200.151 160.344C198.657 164.613 193.971 164.364 191.808 162.261C191.205 161.676 191.016 161.247 190.185 162.255C187.083 166.008 183.63 169.467 179.607 172.236C174.516 175.74 169.44 173.892 166.536 169.431C164.817 166.788 164.175 163.716 162.858 160.92C162.684 160.551 162.786 160.053 162.771 159.615C162.756 159.069 162.672 158.46 163.374 158.265C164.109 158.061 164.709 158.37 164.997 159.036C165.534 160.287 165.936 161.595 166.479 162.843C167.292 164.715 167.958 166.743 169.377 168.213C173.013 171.981 174.468 172.563 179.316 169.263C183.537 166.389 187.308 162.951 190.29 158.733C190.788 158.031 191.343 157.371 191.892 156.705C192.225 156.303 192.63 155.997 193.155 156.384C193.551 156.678 193.725 157.122 193.38 157.527C192.321 158.769 192.756 159.84 193.866 160.659C194.322 160.995 196.044 160.956 196.521 160.365C197.211 159.51 197.52 158.451 197.703 157.389C197.874 156.384 197.916 155.373 197.901 154.359Z" fill="#202124"/>
<path d="M188.532 243.425C188.547 238.88 188.766 234.335 187.242 229.91C186.252 227.033 184.416 224.729 182.508 222.515C180.573 220.271 178.329 218.297 176.202 216.221C175.335 215.375 174.495 214.532 173.979 213.404C173.628 212.636 173.328 211.862 174.147 211.271C174.912 210.719 175.863 210.485 176.661 211.136C182.229 215.672 187.632 220.403 190.779 227.048C191.718 229.028 192.075 231.299 192.162 233.531C192.375 238.856 191.277 244.118 191.328 249.437C191.337 250.403 191.49 251.372 191.442 252.335C191.406 253.067 191.304 253.913 190.359 254.111C189.294 254.333 189.051 253.433 188.859 252.752C187.998 249.677 188.691 246.533 188.532 243.425Z" fill="#202124"/>
<path d="M226.569 222.385C226.101 222.694 225.654 223.807 225.141 222.421C225.228 220.705 225.702 219.064 226.131 217.417C226.452 216.808 226.476 216.442 227.586 216.823C229.401 217.447 231.462 217.636 233.466 217.444C233.97 217.396 233.784 217.015 233.892 216.742C234.504 215.218 235.173 213.721 235.815 212.209C237.552 208.126 240.837 206.872 245.037 206.71C249.777 206.53 253.809 208.363 257.847 210.385C258.615 210.769 259.341 211.255 260.139 211.543C260.592 211.705 260.856 212.023 261.189 212.284C261.762 212.731 261.696 213.433 261.474 213.937C261.177 214.618 260.505 214.189 260.061 214.039C256.227 212.728 252.387 211.441 248.475 210.388C247.539 210.136 246.57 209.971 245.607 209.848C242.772 209.485 240.945 211.087 239.403 213.151C238.296 214.633 237.252 216.16 236.166 217.687C238.071 218.62 240.255 218.224 242.151 219.07C241.902 219.724 241.326 219.502 240.876 219.502C237.363 219.508 233.85 219.574 230.346 219.166C227.079 218.794 227.073 218.848 226.569 222.385Z" fill="#202124"/>
<path d="M249.285 220.394C250.119 219.416 250.968 218.48 251.964 217.631C253.32 216.473 254.832 216.212 256.377 216.17C258.78 216.107 260.925 217.844 261.207 220.232C261.219 220.334 261.228 220.436 261.234 220.538C261.291 221.594 261.366 222.197 262.791 222.185C264.279 222.173 265.785 222.716 267.252 223.133C267.93 223.325 268.782 223.598 268.497 224.672C268.005 224.666 267.51 224.678 267.018 224.648C265.32 224.546 263.634 224.42 261.987 223.901C261.51 223.751 260.655 223.454 260.58 224.405C260.526 225.092 261.243 224.903 261.672 224.984C262.425 225.128 263.202 225.185 263.925 225.41C265.491 225.896 267.384 225.488 268.557 227.066C266.73 227.984 264.948 226.889 263.136 226.91C262.11 226.922 261.078 226.631 260.058 226.433C259.194 226.268 258.726 226.73 258.258 227.942C257.802 229.124 256.809 229.691 256.356 229.421C255.867 229.13 255.951 228.557 256.212 228.092C257.106 226.511 257.631 224.783 258.186 223.073C258.585 221.843 258.495 220.568 257.523 219.692C256.56 218.825 255.399 219.398 254.43 219.875C252.414 220.871 250.989 222.578 249.519 224.216C248.97 224.828 248.415 225.44 247.839 226.028C247.176 226.706 246.264 227.198 245.487 226.628C244.791 226.118 245.808 225.449 245.958 224.81C241.773 224.297 237.663 224.108 233.604 223.436C232.929 223.325 232.35 223.079 231.777 222.752C231.786 221.678 232.653 221.9 233.217 221.909C236.889 221.957 240.546 222.305 244.176 222.836C247.095 223.268 247.773 223.028 249.285 220.394Z" fill="#202124"/>
<path d="M249.285 220.395C247.773 223.032 247.098 223.269 244.176 222.84C240.546 222.309 236.892 221.961 233.217 221.913C232.653 221.907 231.786 221.685 231.777 222.756C230.028 222.807 228.276 222.912 226.569 222.384C227.073 218.847 227.079 218.793 230.355 219.171C233.859 219.576 237.372 219.513 240.885 219.507C241.335 219.507 241.911 219.729 242.16 219.075C244.53 219.552 246.984 219.558 249.285 220.395Z" fill="#202124"/>
<path d="M239.871 292.98C239.199 292.923 238.836 292.524 239.181 291.69C239.463 291.012 240.036 290.562 240.534 290.052C244.158 286.335 248.454 283.344 251.934 279.477C252.537 278.808 253.101 278.1 253.686 277.413C254.259 276.741 254.967 276.855 255.573 277.254C256.239 277.695 255.849 278.319 255.597 278.838C254.253 281.598 252.174 283.776 249.873 285.723C247.29 287.907 244.593 289.956 241.938 292.056C241.38 292.5 240.795 292.917 239.871 292.98Z" fill="#202124"/>
<path d="M221.139 221.88C220.335 221.772 219.525 221.697 218.727 221.55C217.296 221.289 216.414 220.17 216.519 218.793C216.639 217.203 217.788 216.918 219.057 216.867C219.984 216.828 220.914 216.882 221.841 216.897C221.61 218.556 221.373 220.218 221.139 221.88Z" fill="#202124"/>
<path d="M177.111 157.617C177.03 157.395 176.985 155.598 177.882 155.637C179.151 155.628 178.92 157.038 178.932 157.923C178.95 159.366 179.403 160.32 179.952 161.943C180.186 162.507 180.324 162.987 179.559 163.161C178.95 163.299 178.485 163.041 178.224 162.477C177.561 161.052 177.513 160.644 177.111 157.617Z" fill="#202124"/>
<path d="M268.557 227.066C267.384 225.488 265.491 225.896 263.925 225.41C263.199 225.185 262.422 225.128 261.672 224.984C261.243 224.903 260.526 225.092 260.58 224.405C260.655 223.454 261.51 223.751 261.987 223.901C263.634 224.417 265.32 224.546 267.018 224.648C267.51 224.678 268.002 224.666 268.497 224.672C269.079 224.687 271.551 224.912 271.794 225.593C271.29 226.061 270.99 226.769 271.218 227.423C270.912 227.42 268.863 227.066 268.557 227.066Z" fill="#202124"/>
<path d="M221.139 221.88C221.373 220.218 221.61 218.559 221.844 216.897C222.039 215.595 224.037 215.919 223.92 217.212C223.656 218.865 223.392 220.518 223.128 222.168C222.876 223.374 220.983 223.374 221.139 221.88Z" fill="#202124"/>
<path d="M186.255 143.709C186.246 142.488 187.389 141.408 188.688 141.411C189.447 141.411 190.284 141.327 190.23 142.53C190.182 143.631 188.682 144.975 187.443 144.999C186.492 145.02 186.174 144.531 186.255 143.709Z" fill="#202124"/>
<path d="M188.685 135.081C189.114 135.078 189.645 135.129 189.564 135.939C189.489 136.695 187.56 138.324 186.702 138.237C185.967 138.162 185.568 137.682 185.625 136.881C185.685 135.984 187.164 135.051 188.685 135.081Z" fill="#202124"/>
<path d="M160.818 131.417C160.818 131.057 160.818 130.73 160.818 130.4C160.821 129.599 161.349 129.149 162.021 129.137C162.852 129.119 162.81 129.863 162.795 130.469C162.768 131.498 162.297 132.476 162.45 133.532C162.477 133.724 162.477 133.979 162.174 134.033C161.823 134.096 161.52 134.03 161.313 133.715C160.848 133.007 160.707 132.221 160.818 131.417Z" fill="#202124"/>
<path d="M174.384 147.395C174.42 146.294 174.663 145.757 175.605 145.715C176.538 145.673 176.964 146.186 176.883 146.951C176.802 147.686 176.448 148.541 175.557 148.577C174.678 148.613 174.477 147.824 174.384 147.395Z" fill="#202124"/>
<path d="M172.389 141.653C172.554 141.086 172.461 140.03 173.61 140.063C174.114 140.078 174.759 140.522 174.579 141.263C174.381 142.073 174.378 143.168 173.268 143.27C172.365 143.351 172.329 142.547 172.389 141.653Z" fill="#202124"/>
<path d="M269.472 227.073C269.244 226.419 269.397 225.861 269.901 225.393C270.864 224.664 271.647 225.345 272.469 225.723C272.616 226.575 272.055 227.034 271.482 227.484C270.825 227.286 270.072 227.562 269.472 227.073Z" fill="#202124"/>
<path d="M169.173 148.147C168.897 147.001 169.209 146.311 169.917 146.14C170.211 146.068 171.171 146.356 171.009 147.217C170.865 147.994 170.799 148.879 169.707 148.942C168.741 148.999 169.206 148.216 169.173 148.147Z" fill="#202124"/>
<path d="M125.889 401.935C124.569 401.659 123.24 401.794 121.911 401.809C121.809 401.656 121.707 401.503 121.602 401.35C123.708 401.281 125.814 401.212 127.92 401.143C127.47 401.992 126.342 401.092 125.889 401.935Z" fill="#DADCE0"/>
<path d="M135.822 400.892C136.047 400.739 136.278 400.712 136.518 400.847C136.308 401.228 136.08 401.285 135.822 400.892Z" fill="#DADCE0"/>
<path d="M341.541 312.082C341.772 311.935 341.991 311.947 342.198 312.127C341.955 312.469 341.742 312.4 341.541 312.082Z" fill="#DADCE0"/>
<path fill-rule="evenodd" clip-rule="evenodd" d="M152.877 140.501C150.414 141.368 148.263 144.359 148.215 146.948C148.173 149.27 149.61 150.644 151.929 150.491C154.536 150.326 157.56 147.62 158.034 145.025C158.343 143.33 157.524 142.013 156.429 140.909C155.424 139.898 154.119 140.063 152.877 140.501ZM151.236 145.196C151.854 145.199 152.079 145.781 152.139 146.348C152.073 146.512 152.024 146.691 151.976 146.87C151.819 147.454 151.663 148.032 150.894 148.043C150.195 148.055 149.904 147.443 149.955 146.771C150.018 145.964 150.285 145.196 151.236 145.196Z" fill="white"/>
<path d="M131.706 174.744C131.157 174.66 130.74 174.333 130.626 173.721C130.518 173.139 130.677 172.617 131.19 172.278C131.553 172.038 131.943 171.822 132.348 171.663C135.474 170.433 138.456 168.942 141.234 167.031C142.167 166.389 143.505 165.369 144.384 166.698C145.341 168.147 143.532 168.504 142.749 169.176C140.049 171.486 136.905 173.052 133.653 174.411C133.059 174.663 132.453 174.987 131.706 174.744Z" fill="white"/>
<path d="M181.791 88.0529C181.956 88.0529 182.121 88.0559 182.286 88.0529C183.141 88.0379 184.11 88.0769 184.203 89.1269C184.293 90.1559 183.282 90.2759 182.547 90.3329C179.13 90.6059 176.088 91.9829 173.076 93.4589C172.335 93.8219 171.558 94.4669 170.925 93.4739C170.25 92.4119 171.021 91.6709 171.837 91.1759C174.891 89.3189 178.302 88.5599 181.791 88.0529Z" fill="white"/>
<path d="M126.531 174.527C127.404 174.734 127.839 174.98 127.959 175.634C128.073 176.249 127.893 176.756 127.416 177.083C126.201 177.92 124.821 178.214 123.366 178.073C122.844 178.022 122.457 177.656 122.331 177.143C122.193 176.582 122.286 176 122.793 175.664C124.017 174.857 125.427 174.71 126.531 174.527Z" fill="white"/>
<path d="M143.754 109.566C143.082 110.991 142.368 112.593 141.273 113.97C140.982 114.336 140.487 114.255 140.064 113.985C139.56 113.661 139.446 113.175 139.632 112.692C140.205 111.204 141.129 109.908 142.041 108.618C142.26 108.306 142.662 108.159 143.082 108.342C143.535 108.537 143.748 108.891 143.754 109.566Z" fill="white"/>
<path d="M211.908 137.699C210.588 137.432 209.394 137.327 208.29 136.793C207.78 136.547 207.171 136.349 207.303 135.722C207.465 134.957 208.221 134.999 208.794 135.134C209.865 135.383 210.939 135.476 212.028 135.554C212.757 135.605 213.801 135.587 213.702 136.643C213.609 137.693 212.556 137.582 211.908 137.699Z" fill="white"/>
<path d="M167.406 98.4138C167.034 98.4108 166.812 97.9908 166.797 97.3668C166.77 96.2688 167.952 94.7088 168.846 94.7508C169.584 94.7868 170.046 95.2308 170.097 95.9958C170.157 96.8148 168.63 98.3478 167.406 98.4138Z" fill="white"/>
<path d="M138.114 120.111C137.436 119.958 136.986 119.502 137.166 118.947C137.445 118.089 137.511 116.868 138.849 116.913C139.473 116.934 140.097 117.339 139.935 118.074C139.719 119.061 139.167 119.868 138.114 120.111Z" fill="white"/>
<path d="M217.26 138.339C216.624 138.159 215.724 138.114 215.736 137.214C215.748 136.116 216.75 135.888 217.605 135.771C218.379 135.666 218.898 136.2 218.871 136.935C218.835 137.832 218.124 138.192 217.26 138.339Z" fill="white"/>
<path d="M194.052 106.202C193.263 106.253 192.888 106.148 192.711 105.752C192.528 105.341 192.711 104.96 193.068 104.765C195.339 103.532 197.772 102.764 200.334 102.44C200.799 102.38 201.174 102.764 201.291 103.205C201.402 103.631 201.069 103.979 200.715 104.096C198.384 104.861 196.041 105.578 194.052 106.202Z" fill="white"/>
<path d="M189.483 108.567C188.667 108.492 188.073 108.144 188.115 107.367C188.172 106.299 189.036 105.927 189.945 105.822C190.644 105.741 191.151 106.215 191.13 106.89C191.1 107.916 190.326 108.348 189.483 108.567Z" fill="white"/>
<path d="M152.139 146.348C151.857 147.047 151.899 148.028 150.894 148.046C150.195 148.058 149.904 147.446 149.955 146.774C150.018 145.967 150.285 145.199 151.236 145.199C151.857 145.199 152.079 145.781 152.139 146.348Z" fill="white"/>
<path fill-rule="evenodd" clip-rule="evenodd" d="M43.3378 412.481C42.7138 407.957 42.1858 403.427 42.0328 398.855C41.9976 397.828 42.0739 396.818 42.1502 395.808C42.1844 395.355 42.2186 394.902 42.2428 394.448C43.2238 394.178 57.7138 394.379 58.6948 394.433C60.7346 394.544 62.7739 394.675 64.813 394.806C68.9845 395.074 73.1556 395.342 77.3308 395.432C85.7458 395.615 94.1698 395.582 102.588 395.501C104.575 395.482 106.563 395.478 108.553 395.474C116.359 395.458 124.187 395.442 132.084 394.529C132.085 396.014 132.086 397.495 132.087 398.974V398.98V398.987V398.993C132.089 403.087 132.091 407.162 132.111 411.236C132.117 412.328 131.691 412.706 130.578 412.82C125.403 413.339 120.234 413.114 115.08 412.679C101.613 411.539 88.1368 411.836 74.6518 412.232C68.7178 412.4 49.2808 412.637 43.3378 412.481ZM120.366 397.7C120.342 397.702 120.299 397.703 120.241 397.705C120.056 397.711 119.72 397.722 119.388 397.754C113.856 398.27 108.321 398.525 102.762 398.27C102.19 398.244 101.617 398.212 101.045 398.18C98.7076 398.047 96.3668 397.915 94.0318 398.216C93.9078 398.232 93.7761 398.246 93.6406 398.26C92.6845 398.359 91.538 398.478 91.5538 399.584C91.57 400.801 92.7994 400.765 93.7558 400.737C93.8607 400.734 93.9624 400.731 94.0588 400.73C96.223 400.705 98.3797 400.817 100.536 400.929C101.399 400.973 102.262 401.018 103.125 401.054C104.112 401.093 104.589 401.27 104.529 402.452C104.457 403.868 104.598 405.317 104.844 406.718C104.883 406.94 104.911 407.177 104.939 407.418V407.418V407.418V407.418C105.071 408.525 105.213 409.724 106.494 410.027C107.767 410.33 108.487 409.284 109.148 408.324C109.227 408.21 109.305 408.097 109.383 407.987C109.398 407.965 109.414 407.943 109.431 407.921C109.447 407.899 109.464 407.878 109.479 407.855C109.848 407.321 110.133 407.174 110.727 407.732C111.519 408.476 112.464 409.073 113.397 409.643C114.6 410.378 115.392 409.811 115.83 408.65C116.101 407.929 116.049 407.149 115.999 406.38L115.998 406.364C115.962 405.831 115.942 405.296 115.923 404.762L115.923 404.761V404.761V404.761V404.761C115.892 403.922 115.862 403.084 115.767 402.254C115.644 401.186 116.13 400.964 117.042 400.895C118.353 400.799 119.664 400.619 120.96 400.403C121.761 400.271 122.514 399.887 122.406 398.921C122.304 397.985 121.536 397.745 120.366 397.7ZM63.8336 406.09L63.8386 406.09C66.8479 406.134 69.8502 406.177 72.5817 406.217C72.8729 406.242 73.1357 406.255 73.3774 406.267H73.3775C73.8731 406.291 74.2806 406.311 74.6637 406.418C75.3867 406.619 75.9297 407.093 75.8577 407.96C75.7857 408.812 75.2097 409.322 74.4537 409.31C70.7307 409.244 67.0077 409.127 63.2907 408.941C62.4567 408.899 61.5867 408.404 61.6977 407.399C61.7997 406.475 62.5707 406.07 63.5067 406.085L63.8336 406.09ZM85.5352 399.103L85.5352 399.103C85.175 399.121 84.7036 399.145 84.2338 399.182C83.3968 399.245 82.8898 399.755 82.8868 400.544C82.8838 401.444 83.4838 401.936 84.3808 401.93C85.0288 401.927 85.6828 401.852 86.3218 401.735C86.4125 401.719 86.5062 401.704 86.6012 401.689C87.3818 401.566 88.242 401.431 88.1698 400.355C88.0948 399.23 87.0958 399.152 85.8958 399.083C85.7964 399.089 85.6741 399.095 85.5352 399.103ZM81.4765 408.453C81.2989 408.475 81.1221 408.497 80.9548 408.53C80.9172 408.522 80.8791 408.513 80.8408 408.505C80.1757 408.358 79.4273 408.192 79.5238 407.315C79.6486 406.181 80.5889 406.205 81.4163 406.226C81.4639 406.227 81.5111 406.228 81.5578 406.229C82.2568 406.244 83.1838 406.301 83.1118 407.246C83.0338 408.258 82.248 408.357 81.4765 408.453Z" fill="white"/>
<path d="M135.093 411.98C134.781 415.961 134.598 415.451 131.316 416.489C127.281 417.77 123.006 417.443 118.872 417.08C106.185 415.964 93.4799 415.799 80.7689 415.964C72.4049 416.075 64.0469 416.117 55.6859 415.901C52.0049 415.805 48.3329 415.397 44.6549 415.13C44.4359 415.112 44.2169 415.079 44.0039 415.025C43.2029 414.824 42.4529 414.428 42.5579 413.51C42.6629 412.589 43.4579 412.382 44.3069 412.397C47.7179 412.469 51.1289 412.535 54.5369 412.58C55.3049 412.592 56.0699 412.517 56.8379 412.478C62.7809 412.637 68.7179 412.4 74.6549 412.226C88.1399 411.833 101.613 411.536 115.083 412.676C120.237 413.111 125.406 413.336 130.581 412.817C131.694 412.706 132.12 412.325 132.114 411.233C132.087 405.68 132.093 400.127 132.087 394.526C122.178 395.672 112.377 395.405 102.591 395.498C94.1699 395.579 85.7489 395.615 77.3309 395.429C75.1919 395.384 73.0559 395.291 70.9199 395.174C65.2439 395.348 59.5709 395.66 53.9009 396.158C49.7669 396.521 45.4919 396.845 41.4569 395.567C38.1749 394.526 37.9919 395.039 37.6799 391.058C37.2299 385.307 37.6409 379.562 37.8929 373.82C37.9469 372.578 37.3679 371.03 38.7599 370.034C40.0499 369.647 41.3909 369.665 42.7139 369.569C45.0929 369.398 47.4329 369.923 49.7939 369.992C55.1819 370.148 60.5729 370.19 65.9579 370.379C77.2919 370.778 88.6199 370.463 99.9389 370.043C110.325 369.656 120.696 368.711 131.103 369.407C132.12 369.473 132.939 369.863 133.074 370.874C133.227 372.047 132.654 372.923 131.364 373.037C130.437 373.121 129.498 373.097 128.562 373.109C124.716 373.16 120.867 373.181 117.03 373.523C116.046 373.253 115.059 373.454 114.078 373.508C107.865 373.844 101.658 374.369 95.4419 374.507C87.0269 374.69 78.6029 374.657 70.1849 374.576C60.3959 374.483 50.5949 374.747 40.6859 373.604C40.6799 379.205 40.6859 384.758 40.6589 390.311C40.6589 390.392 40.6619 390.47 40.6649 390.545C40.7219 391.457 41.1629 391.79 42.1919 391.892C47.3669 392.411 52.5359 392.189 57.6899 391.751C62.9909 391.304 68.2889 391.076 73.5899 390.992C83.1179 391.343 92.6459 391.607 102.18 391.427C103.725 391.4 105.27 391.358 106.815 391.304C112.203 391.115 117.591 391.073 122.979 390.914C125.34 390.845 127.68 390.32 130.059 390.491C131.385 390.59 132.723 390.569 134.013 390.956C135.405 391.952 134.826 393.5 134.88 394.745C135.132 400.484 135.543 406.229 135.093 411.98Z" fill="#202124"/>
<path d="M73.59 390.993C68.289 391.077 62.991 391.305 57.69 391.752C52.536 392.19 47.367 392.412 42.192 391.893C41.163 391.791 40.722 391.458 40.665 390.546C40.959 390.42 41.301 390.354 41.67 390.33C52.077 389.637 62.448 390.579 72.834 390.966C73.086 390.975 73.338 390.984 73.59 390.993Z" fill="#202124"/>
<path fill-rule="evenodd" clip-rule="evenodd" d="M122.406 398.917C122.301 397.987 121.536 397.744 120.366 397.699C120.357 397.699 120.345 397.7 120.33 397.7C120.184 397.704 119.786 397.715 119.388 397.75C113.856 398.269 108.321 398.521 102.762 398.266C102.206 398.24 101.65 398.209 101.093 398.177C98.7412 398.043 96.3826 397.909 94.0319 398.212C93.9069 398.228 93.7739 398.242 93.6371 398.256C92.6833 398.355 91.5381 398.473 91.5539 399.58C91.5728 400.796 92.8031 400.76 93.7596 400.733C93.8632 400.73 93.9636 400.727 94.0589 400.726C96.1992 400.703 98.332 400.813 100.465 400.923C101.351 400.968 102.238 401.014 103.125 401.05C104.112 401.092 104.589 401.266 104.529 402.448C104.457 403.864 104.595 405.313 104.844 406.714C104.883 406.937 104.911 407.174 104.94 407.416C105.07 408.521 105.212 409.72 106.494 410.023C107.767 410.326 108.487 409.28 109.148 408.32C109.227 408.206 109.305 408.093 109.383 407.983C109.398 407.961 109.414 407.939 109.431 407.917C109.447 407.895 109.464 407.874 109.479 407.851C109.848 407.314 110.133 407.17 110.727 407.728C111.519 408.472 112.464 409.069 113.397 409.639C114.6 410.374 115.392 409.807 115.83 408.646C116.102 407.932 116.051 407.159 116 406.396L115.998 406.36C115.964 405.84 115.945 405.317 115.926 404.795C115.895 403.945 115.864 403.094 115.767 402.25C115.644 401.179 116.13 400.96 117.042 400.891C118.353 400.795 119.661 400.615 120.96 400.399C121.761 400.267 122.514 399.883 122.406 398.917ZM109.206 403.759C108.612 404.02 108.267 404.5 108.048 405.391C107.997 405.091 107.954 404.842 107.916 404.623C107.86 404.3 107.816 404.044 107.775 403.786C107.367 401.299 107.367 401.299 109.95 401.275C110.227 401.273 110.505 401.286 110.782 401.3C111.418 401.331 112.05 401.362 112.665 401.194C112.686 401.243 112.706 401.281 112.722 401.312C112.749 401.363 112.766 401.395 112.764 401.425C112.699 402.212 112.632 403 112.561 403.824C112.533 404.147 112.505 404.476 112.476 404.812C112.076 404.702 111.719 404.465 111.365 404.231C110.715 403.8 110.076 403.377 109.206 403.759Z" fill="#202124"/>
<path d="M72.5821 406.216C73.4701 406.294 74.0941 406.258 74.6641 406.417C75.3901 406.618 75.9331 407.095 75.8581 407.959C75.7861 408.808 75.2071 409.321 74.4541 409.309C70.7311 409.243 67.0081 409.129 63.2911 408.94C62.4571 408.898 61.5871 408.403 61.6981 407.398C61.8001 406.477 62.5711 406.072 63.5071 406.084C66.6301 406.129 69.7501 406.174 72.5821 406.216Z" fill="#202124"/>
<path d="M85.8957 399.082C87.0957 399.151 88.0947 399.226 88.1697 400.354C88.2507 401.56 87.1557 401.584 86.3217 401.734C85.6827 401.848 85.0287 401.926 84.3807 401.929C83.4867 401.935 82.8837 401.443 82.8867 400.543C82.8897 399.754 83.3967 399.247 84.2337 399.181C84.8877 399.133 85.5417 399.103 85.8957 399.082Z" fill="#202124"/>
<path d="M80.9551 408.53C80.2651 408.374 79.4251 408.242 79.5241 407.312C79.6561 406.115 80.7031 406.208 81.5581 406.226C82.2571 406.241 83.1841 406.298 83.1121 407.243C83.0161 408.491 81.8491 408.353 80.9551 408.53Z" fill="#202124"/>
<path d="M108.048 405.392C107.922 404.648 107.844 404.219 107.775 403.787C107.367 401.3 107.367 401.3 109.95 401.276C110.868 401.267 111.783 401.435 112.665 401.195C112.722 401.327 112.767 401.378 112.764 401.426C112.674 402.521 112.578 403.616 112.476 404.813C111.342 404.504 110.55 403.172 109.206 403.76C108.612 404.021 108.267 404.501 108.048 405.392Z" fill="#FAE041"/>
<path fill-rule="evenodd" clip-rule="evenodd" d="M98.1178 391.304C84.6328 390.908 71.1598 390.614 57.6898 391.751C52.5358 392.186 47.3668 392.411 42.1918 391.892C41.0788 391.781 40.6528 391.4 40.6588 390.308C40.6786 386.234 40.6806 382.159 40.6827 378.066C40.6834 376.58 40.6842 375.092 40.6858 373.601C48.589 374.513 56.4235 374.529 64.2364 374.546C66.2193 374.55 68.2009 374.554 70.1818 374.573C78.5998 374.654 87.0238 374.687 95.4388 374.504C99.6139 374.413 103.785 374.145 107.957 373.877C109.996 373.746 112.035 373.615 114.075 373.505C115.056 373.451 131.046 372.95 132.027 373.22C132.049 373.635 132.079 374.074 132.111 374.522C132.19 375.658 132.273 376.86 132.237 377.927C132.177 379.707 132.243 381.482 132.308 383.251V383.251V383.252V383.252V383.252V383.252V383.252C132.411 386.027 132.513 388.791 132.132 391.553C126.192 391.715 104.055 391.478 98.1178 391.304ZM50.3668 377.993C50.2588 378.959 51.0118 379.343 51.8128 379.475C53.1118 379.691 54.4198 379.871 55.7308 379.967C56.6428 380.036 57.1288 380.255 57.0058 381.326C56.9091 382.17 56.8781 383.02 56.8471 383.871C56.8281 384.393 56.809 384.915 56.7748 385.436L56.7724 385.472C56.7221 386.234 56.6711 387.007 56.9428 387.722C57.3808 388.883 58.1728 389.45 59.3758 388.715C60.3088 388.145 61.2538 387.548 62.0458 386.804C62.6398 386.246 62.9248 386.39 63.2938 386.927C63.3088 386.949 63.3253 386.971 63.3418 386.993C63.3583 387.015 63.3748 387.036 63.3898 387.059C63.4677 387.168 63.5455 387.282 63.6242 387.396L63.6243 387.396L63.6243 387.396L63.6243 387.396C64.2854 388.356 65.0054 389.402 66.2788 389.099C67.561 388.796 67.7025 387.597 67.8329 386.492C67.8614 386.25 67.8894 386.012 67.9288 385.79C68.1778 384.389 68.3158 382.94 68.2438 381.524C68.1838 380.342 68.6608 380.168 69.6478 380.126C70.5348 380.09 71.4213 380.044 72.3077 379.998L72.3078 379.998L72.3079 379.998L72.3079 379.998C74.4407 379.889 76.5735 379.779 78.7138 379.802C78.8091 379.803 78.9094 379.806 79.013 379.809C79.9695 379.836 81.1998 379.871 81.2188 378.656C81.2345 377.549 80.0894 377.431 79.1356 377.332C78.9987 377.318 78.8658 377.304 78.7408 377.288C76.39 376.985 74.0315 377.119 71.6793 377.253L71.6792 377.253C71.1226 377.284 70.5664 377.316 70.0108 377.342C64.4518 377.597 58.9168 377.345 53.3848 376.826C53.0501 376.794 52.7155 376.783 52.5307 376.777L52.5307 376.777L52.5307 376.777C52.4736 376.775 52.4308 376.773 52.4068 376.772C51.2338 376.82 50.4688 377.063 50.3668 377.993ZM96.9117 387.035C96.8367 386.171 97.3797 385.694 98.1057 385.493C98.4848 385.388 98.8861 385.368 99.3705 385.344C99.6185 385.332 99.8881 385.318 100.188 385.292C102.917 385.251 105.917 385.208 108.924 385.165L108.935 385.165L109.263 385.16C110.199 385.148 110.97 385.553 111.072 386.474C111.183 387.479 110.313 387.974 109.479 388.016C105.762 388.205 102.039 388.319 98.3157 388.385C97.5627 388.397 96.9837 387.884 96.9117 387.035ZM84.5998 379.433C84.5276 380.508 85.3891 380.644 86.1677 380.767C86.2629 380.782 86.3569 380.797 86.4478 380.813C87.0868 380.927 87.7408 381.005 88.3888 381.008C89.2828 381.014 89.8858 380.522 89.8828 379.622C89.8798 378.833 89.3728 378.326 88.5358 378.26C88.0659 378.223 87.5945 378.199 87.2343 378.18C87.0955 378.173 86.9731 378.167 86.8738 378.161C85.6768 378.23 84.6748 378.305 84.5998 379.433ZM91.3477 385.301C92.1741 385.28 93.1207 385.256 93.2458 386.39C93.3426 387.273 92.5896 387.437 91.9199 387.582C91.8846 387.59 91.8495 387.597 91.8148 387.605C91.6454 387.571 91.4663 387.548 91.2865 387.526C90.5171 387.429 89.7356 387.33 89.6578 386.321C89.5858 385.376 90.5128 385.319 91.2118 385.304C91.2566 385.303 91.302 385.302 91.3477 385.301Z" fill="white"/>
<path d="M102.18 391.428C92.6458 391.608 83.1178 391.344 73.5898 390.993C81.7618 390.861 89.9368 391.065 98.1178 391.305C99.4708 391.344 100.827 391.389 102.18 391.428Z" fill="#202124"/>
<path fill-rule="evenodd" clip-rule="evenodd" d="M70.0079 377.344C64.4489 377.599 58.9139 377.344 53.3819 376.828C52.9995 376.791 52.6125 376.782 52.4552 376.779C52.4335 376.778 52.4162 376.778 52.4039 376.777C51.2339 376.822 50.4659 377.062 50.3639 377.995C50.2559 378.961 51.0089 379.345 51.8099 379.477C53.1059 379.693 54.4169 379.873 55.7279 379.969C56.6399 380.038 57.1259 380.26 57.0029 381.328C56.9076 382.159 56.8772 382.997 56.8468 383.836C56.8275 384.37 56.8081 384.905 56.7719 385.438L56.7708 385.454C56.7202 386.223 56.6687 387.003 56.9399 387.724C57.3779 388.885 58.1699 389.452 59.3729 388.717C60.3059 388.147 61.2509 387.55 62.0429 386.806C62.6369 386.248 62.9219 386.395 63.2909 386.929C63.3059 386.952 63.3224 386.974 63.3389 386.995C63.3554 387.017 63.3719 387.039 63.3869 387.061C63.4648 387.171 63.5427 387.284 63.6214 387.398C64.2825 388.359 65.0025 389.404 66.2759 389.101C67.557 388.798 67.699 387.599 67.8301 386.492C67.8587 386.251 67.8867 386.014 67.9259 385.792C68.1719 384.391 68.3129 382.942 68.2409 381.526C68.1809 380.344 68.6579 380.167 69.6449 380.128C70.508 380.092 71.3707 380.048 72.2333 380.003C74.39 379.891 76.5466 379.779 78.7109 379.804C78.8073 379.806 78.9089 379.808 79.0139 379.812C79.9703 379.839 81.1997 379.875 81.2159 378.658C81.2316 377.552 80.0852 377.433 79.129 377.334C78.9935 377.32 78.8619 377.306 78.7379 377.29C76.4029 376.989 74.0621 377.121 71.7248 377.254C71.1522 377.286 70.5799 377.318 70.0079 377.344ZM65.0383 380.693C65.3023 381.009 65.2003 381.631 64.9979 382.864C64.9605 383.087 64.9223 383.311 64.8766 383.578C64.8343 383.826 64.7855 384.112 64.7249 384.469C64.5059 383.578 64.1609 383.098 63.5669 382.837C62.6979 382.457 62.0597 382.88 61.4106 383.309C61.0558 383.544 60.6977 383.781 60.2969 383.89C60.2647 383.513 60.2331 383.145 60.2021 382.784C60.1349 382.002 60.0705 381.253 60.0089 380.503C60.0071 380.474 60.0228 380.444 60.0482 380.396C60.0647 380.364 60.0854 380.325 60.1079 380.272C60.7221 380.44 61.3524 380.409 61.9885 380.378C62.2658 380.364 62.5442 380.351 62.8229 380.353C64.1245 380.366 64.7702 380.372 65.0383 380.693Z" fill="#202124"/>
<path d="M100.188 385.292C99.2997 385.37 98.6757 385.334 98.1057 385.493C97.3797 385.694 96.8367 386.171 96.9117 387.035C96.9837 387.884 97.5627 388.397 98.3157 388.385C102.039 388.319 105.762 388.205 109.479 388.016C110.313 387.974 111.183 387.479 111.072 386.474C110.97 385.553 110.199 385.148 109.263 385.16C106.143 385.208 103.023 385.253 100.188 385.292Z" fill="#202124"/>
<path d="M86.8739 378.162C85.6769 378.231 84.6749 378.306 84.5999 379.434C84.5189 380.64 85.6139 380.664 86.4479 380.814C87.0869 380.928 87.7409 381.006 88.3889 381.009C89.2829 381.015 89.8859 380.523 89.8829 379.623C89.8799 378.834 89.3729 378.327 88.5359 378.261C87.8849 378.21 87.2309 378.183 86.8739 378.162Z" fill="#202124"/>
<path d="M91.8182 387.608C92.5082 387.452 93.3482 387.32 93.2492 386.39C93.1172 385.193 92.0702 385.286 91.2152 385.304C90.5162 385.319 89.5892 385.376 89.6612 386.321C89.7542 387.569 90.9242 387.428 91.8182 387.608Z" fill="#202124"/>
<path d="M64.7249 384.47C64.8509 383.726 64.9289 383.297 64.9979 382.865C65.4059 380.378 65.4059 380.378 62.8229 380.354C61.9049 380.345 60.9899 380.513 60.1079 380.273C60.0509 380.405 60.0059 380.456 60.0089 380.504C60.0989 381.599 60.1949 382.694 60.2969 383.891C61.4309 383.582 62.2229 382.25 63.5669 382.838C64.1609 383.099 64.5059 383.579 64.7249 384.47Z" fill="#FAE041"/>
<path d="M36.2548 334.27L21.6508 349.729C20.9728 350.446 21.0328 351.55 21.7858 352.195C22.1878 352.543 40.1158 336.13 36.2548 334.27Z" fill="#202124"/>
<path d="M40.6591 338.266L26.0551 353.725C25.3771 354.442 25.4371 355.546 26.1901 356.191C26.5951 356.536 44.5201 340.123 40.6591 338.266Z" fill="#202124"/>
<path d="M43.9052 349.137L27.4982 335.607C26.7392 334.98 25.6412 335.115 25.0472 335.907C24.7292 336.33 42.3092 353.112 43.9052 349.137Z" fill="#202124"/>
<path d="M40.2148 353.8L23.8078 340.27C23.0488 339.643 21.9508 339.778 21.3568 340.57C21.0388 340.996 38.6218 357.778 40.2148 353.8Z" fill="#202124"/>
<path d="M19.9618 295.895C20.5348 295.895 21.0388 295.517 21.1948 294.965C24.1828 284.462 28.9768 268.079 28.2988 267.434C27.7258 266.888 27.2038 266.981 26.7298 267.287C26.2618 267.59 25.9438 268.073 25.7998 268.613C23.7178 276.287 20.9428 285.878 18.7228 294.287C18.5038 295.097 19.1188 295.895 19.9618 295.895Z" fill="#202124"/>
<path d="M30.6029 262.595C30.3329 263.54 29.9879 264.068 29.1569 263.831C28.2449 263.57 27.8939 262.136 28.3559 260.813C28.6799 259.883 29.3669 259.181 30.2489 259.658C31.7309 260.456 30.7229 261.749 30.6029 262.595Z" fill="#202124"/>
<path d="M114.114 334.893C115.737 335.172 117.561 335.643 119.319 336.348C127.698 339.705 135.597 343.857 142.137 350.232C145.698 353.703 148.416 357.819 150.996 362.031C151.473 362.811 151.977 363.72 150.948 364.395C149.982 365.031 149.199 364.371 148.671 363.612C147.426 361.815 146.283 359.943 145.062 358.128C140.343 351.111 133.803 346.245 126.435 342.342C122.52 340.269 118.554 338.316 114.348 336.894C114.021 336.783 113.709 336.627 113.391 336.486C112.935 336.285 112.632 335.958 112.779 335.436C112.932 334.902 113.397 334.854 114.114 334.893Z" fill="#202124"/>
<path d="M151.419 369.585C151.308 368.607 151.428 367.989 152.286 367.893C153.231 367.788 154.098 368.982 154.173 370.38C154.227 371.364 153.858 372.276 152.862 372.171C151.188 371.991 151.629 370.413 151.419 369.585Z" fill="#202124"/>
<path d="M280.179 231.386C279.606 232.067 279.156 232.499 278.844 232.997C278.448 233.63 278.316 234.278 278.808 234.695C279.291 235.106 279.954 234.965 280.467 234.416C283.005 231.698 285.516 228.95 287.988 226.169C288.543 225.545 288.891 224.648 288.3 224.183C287.757 223.757 287.019 224.093 286.38 224.774C284.247 227.048 282.114 229.322 280.179 231.386Z" fill="#202124"/>
<path d="M275.58 238.679C275.976 238.097 276.489 237.419 275.946 236.987C275.244 236.432 274.569 237.236 273.987 237.866C273.513 238.379 272.901 239.078 273.435 239.537C274.137 240.143 274.872 239.225 275.58 238.679Z" fill="#202124"/>
</g>
<defs>
<clipPath id="clip0_225_78154">
<rect width="514" height="418" fill="white"/>
</clipPath>
</defs>
</svg>
