<svg width="386" height="394" viewBox="0 0 386 394" fill="none" xmlns="http://www.w3.org/2000/svg">
<g clip-path="url(#clip0_225_77832)">
<path fill-rule="evenodd" clip-rule="evenodd" d="M35.0283 320.648C34.3335 321.726 33.6138 322.713 32.2692 322.989C31.5145 325.459 30.7597 327.93 30 330.401C30.6986 330.496 31.4006 330.536 32.1035 330.575C33.1354 330.633 34.1695 330.691 35.1982 330.927C40.8363 332.225 42.7706 335.959 40.6414 341.391C40.3839 342.047 39.8889 342.669 39.412 343.268C38.6573 344.217 37.948 345.108 38.2972 345.987C38.5649 346.66 39.5897 346.796 40.7149 346.945C41.5227 347.052 42.3822 347.165 43.0506 347.49C47.2291 349.52 48.4137 352.877 46.1245 357.202C45.2598 358.826 45.1098 359.427 47.1542 360.179C53.7919 362.61 55.5013 368.368 51.5676 374.231C50.6979 375.529 49.5733 376.331 47.9939 375.55C46.5494 374.838 46.3844 373.54 46.7893 372.122C46.8893 371.774 47.0324 371.438 47.1756 371.101C47.2614 370.899 47.3473 370.697 47.4241 370.493C48.6836 367.19 47.8789 365.552 44.3801 364.614C40.3665 363.537 36.6877 364.795 33.0889 366.434C36.1479 371.941 39.7867 377.008 44.4201 381.313C46.1938 380.075 47.6178 381.132 48.9419 382.113L48.9435 382.115C56.0611 387.402 64.2133 389.036 72.7854 388.464C85.0312 387.647 95.9675 382.972 106.114 376.226C106.364 376.059 106.609 375.831 106.859 375.598C107.681 374.83 108.564 374.005 109.933 375.109C110.096 374.923 110.269 374.746 110.441 374.568C110.786 374.214 111.131 373.859 111.402 373.44C140.969 327.669 97.3221 298.693 94.7579 297.906C93.9627 298.496 93.1395 298.335 92.2481 298.161C92.2151 298.154 92.182 298.148 92.1488 298.142C91.1594 297.948 90.1709 297.736 89.1818 297.524C85.0495 296.638 80.907 295.75 76.6441 296.187C59.0801 297.986 44.8 305.483 35.0283 320.648ZM71.5663 325.962C71.5943 324.889 71.6233 323.776 70.931 322.578C68.3646 324.763 66.8204 327.439 65.2732 330.12C65.2415 330.175 65.2097 330.23 65.178 330.285C65.0815 330.453 64.9865 330.621 64.8916 330.789C64.3319 331.781 63.7719 332.773 62.9088 333.553C62.289 334.109 61.5942 334.29 60.8545 333.884C60.0847 333.458 59.8748 332.686 60.1447 331.934C62.0391 326.622 64.4133 321.58 69.1366 318.157C71.7458 316.268 74.4098 317.331 75.2546 320.498C75.8793 322.833 76.0993 325.244 76.1043 327.669C76.1193 338.509 76.6391 349.319 77.9436 360.089C78.1536 361.838 78.6884 362.098 80.2279 361.602C81.2275 361.277 82.3122 360.951 83.4118 361.191C84.7313 361.482 85.781 362.159 85.8659 363.622C85.9409 364.92 85.2412 365.942 83.9966 366.273C78.6284 367.686 73.2452 369.07 67.8421 370.342C66.6425 370.628 65.4829 370.067 65.118 368.719C64.7681 367.416 65.3529 366.358 66.5125 365.822C67.9853 365.144 69.5232 364.606 71.0574 364.069C71.1686 364.031 71.2798 363.992 71.3909 363.953C72.8754 363.432 73.4002 362.539 73.1853 360.911C71.6908 349.484 71.4359 337.988 71.5558 326.482C71.5572 326.309 71.5617 326.136 71.5663 325.962Z" fill="#FAE041"/>
<path d="M13.0319 338.093C13.9449 336.997 23.4237 335.484 27.2584 334.936C29.8149 334.571 32.3713 334.754 34.7452 335.667C36.5713 336.214 37.3017 337.858 36.2061 339.501C34.5626 342.058 32.1912 344.832 29.9999 346.84C28.1739 348.484 25.0671 348.084 22.328 348.997C20.6846 349.545 16.4847 352.455 15.7542 351.725C8.20229 348.997 13.0319 339.737 13.0319 338.093Z" fill="#DADCE0"/>
<path d="M209.976 85.038C206.464 84.3386 204.724 83.9199 201.75 83.9199C193.325 84.1063 183.35 81.9036 174.614 79.4813C169.78 78.177 164.533 75.3486 159.329 73.2989C162.117 72.1809 164.99 72.7399 166.849 73.2989C174.843 75.1623 182.836 77.5846 191.015 77.2119C195.29 77.0256 199.38 75.9076 203.469 75.5349C207.001 75.1623 210.719 74.7896 214.251 74.7896C217.68 74.7896 220.906 77.0005 221.798 80.0946C222.115 81.1943 221.696 82.5121 221.501 83.7336C221.129 85.9696 221.315 88.2056 221.315 90.4416C221.315 91.187 220.973 92.3986 222.46 92.2122C223.389 92.2122 223.781 91.3733 223.781 90.4416C223.781 88.5783 224.103 86.715 224.475 84.8516C225.033 82.6156 225.962 80.7523 227.635 79.2616C229.866 77.3983 232.84 77.7709 233.769 80.5659C235.256 84.6653 234.699 88.951 233.955 93.2366C233.769 93.7956 233.583 94.3546 232.84 94.3546C232.413 94.3546 231.867 94.5965 231.725 94.3546C231.556 94.0694 231.825 93.2673 231.725 92.864C231.539 91.9323 231.725 90.069 230.423 90.4416C229.122 90.8143 228.193 92.4913 229.122 94.1683C229.574 95.0739 230.772 95.4348 231.317 96.2475C231.893 97.1069 231.81 98.4227 232.096 99.572C233.583 107.584 236 115.597 236 123.982C236 129.572 234.885 134.603 232.84 139.634C229.122 149.251 227.449 158.081 225.404 167.397C224.289 171.869 223.731 176.341 223.917 180.813C224.103 185.472 225.404 190.106 226.52 194.602C227.821 197.211 226.52 198.701 225.404 200.565C225.218 200.937 224.847 201.31 224.475 200.937C222.802 199.26 221.501 200.937 220.571 201.869C214.809 207.086 208.303 211.558 201.425 215.471C194.919 219.012 187.855 221.248 180.419 221.061C175.958 221.061 171.868 218.639 169.08 215.471C167.221 213.422 166.236 210.74 168.095 207.572C172.37 199.933 173.644 190.979 173.83 182.594C173.83 178.867 174.016 173.918 173.83 170.191C173.644 167.769 173.126 167.655 174.614 168.401C178.703 170.264 183.756 172.241 188.218 172.986C190.448 173.359 192.865 173.545 195.281 173.732C196.211 173.732 197.071 174.105 197.521 173.919C197.893 172.987 196.963 172.428 196.22 171.869C195.104 170.938 194.673 170.005 193 170.191C182.962 170.937 170.873 163.786 163.252 157.637C147.451 145.153 141.197 131.994 137.107 112.429C136.735 110.566 136.364 108.702 136.549 106.653C136.549 104.603 137.107 102.926 138.408 101.249C142.126 96.218 143.799 90.2553 144.729 83.9199C145.286 79.6343 145.1 75.3486 144.357 71.2493C144.171 70.1313 144.729 69.5723 145.844 69.5723C146.959 69.5723 147.889 69.9449 148.632 70.5039C159.042 77.9573 170.939 81.8703 183.022 84.8516C188.598 86.156 194.361 87.0876 200.123 87.4603C203.841 87.4603 206.63 86.5286 209.976 85.038Z" fill="#DADCE0"/>
<path d="M208.923 377.572C216.39 376.452 223.461 373.541 230.74 371.487C231.674 371.114 233.727 371.114 233.354 369.807C233.167 368.314 231.3 369.061 230.367 369.061C225.7 369.247 221.034 370.367 216.554 371.487C213.381 372.234 210.394 373.354 207.221 373.354C204.234 373.541 201.061 373.167 198.634 370.741C198.261 370.367 197.701 370.367 197.887 369.621C198.074 369.061 198.634 369.061 199.194 369.061C202.921 368.574 211.384 366.981 211.925 366.809C217.712 364.942 223.647 364.021 229.06 361.407C229.807 361.034 230.74 360.661 231.3 359.727C227.38 357.861 223.647 359.167 219.914 360.101C214.132 361.693 201.994 364.207 201.807 364.394C196.431 365.769 195.647 364.767 193.034 362.527C192.478 361.972 191.108 361.041 191.102 360.577C191.095 360.106 192.465 360.104 193.594 359.727C197.327 358.794 200.874 357.487 204.421 356.367C205.541 355.994 206.661 355.807 207.781 354.687C204.607 353.567 201.621 354.501 198.821 354.874C190.607 356.181 183.408 357.861 174.367 358.421C171.567 358.607 165.034 359.354 164.847 359.354C163.541 359.354 161.674 359.354 161.301 357.861C160.927 356.554 162.794 356.181 163.727 355.807C169.141 353.567 174.741 351.887 180.714 350.954C189.114 349.647 196.954 346.847 205.354 345.541C212.074 344.421 218.981 343.487 225.7 341.621C229.247 340.687 232.607 339.381 235.967 338.074C239.7 336.581 243.62 336.581 247.54 336.021C252.02 335.461 256.5 335.274 260.794 334.527C266.58 333.781 271.994 336.021 273.674 339.941C275.727 344.794 272.154 345.541 272.714 350.954C273.274 356.554 267.279 364.839 263.359 368.572C258.506 373.426 260.356 374.946 258.863 374.572C255.503 373.452 245.3 375.594 242.314 376.527C238.02 378.021 233.54 378.767 229.06 378.767C228.402 378.97 228.84 378.811 226.804 379.245C220.457 382.045 209.859 377.897 208.923 377.572Z" fill="#DADCE0"/>
<path d="M32.3765 383.028C27.0263 383.028 22.3895 378.599 22.0328 373.816C21.8544 372.221 22.3895 370.627 23.9945 370.096C28.8097 368.324 33.4466 365.844 38.6185 364.427C41.2936 363.718 43.7903 364.072 46.1088 365.49C48.4272 366.907 49.1405 368.855 47.8922 371.159C44.8604 376.828 39.6885 380.016 34.1599 382.851C33.4466 383.205 32.7332 383.028 32.3765 383.028Z" fill="#DADCE0"/>
<path d="M15 360.047C15 356.212 15.913 355.664 20.4782 353.838C25.9563 351.647 31.4345 350.917 37.0953 351.099C38.9213 351.099 41.2952 351.099 41.843 352.925C42.3908 354.751 41.1434 357.271 39.5 358.55C37.8566 359.828 36.1822 360.595 34.1736 361.325C29.9736 362.603 26.6868 365.342 22.852 367.534C22.3042 367.716 22.1216 368.264 21.3912 368.264C18.2869 367.534 15 363.516 15 360.047Z" fill="#DADCE0"/>
<path fill-rule="evenodd" clip-rule="evenodd" d="M70.9664 322.41C71.7762 323.798 71.6052 325.071 71.5951 326.299C71.4744 337.764 71.7309 349.218 73.2347 360.603C73.451 362.226 72.9229 363.114 71.4292 363.634C69.7745 364.208 68.1097 364.772 66.5204 365.496C65.3536 366.03 64.7651 367.084 65.1172 368.382C65.4843 369.725 66.6512 370.285 67.8582 370C73.2951 368.732 78.7118 367.354 84.1135 365.945C85.3658 365.616 86.0699 364.597 85.9945 363.304C85.909 361.846 84.8528 361.172 83.525 360.882C82.4185 360.643 81.3272 360.967 80.3213 361.292C78.7722 361.786 78.234 361.527 78.0228 359.784C76.7101 349.053 76.187 338.283 76.1719 327.483C76.1669 325.066 75.9456 322.664 75.3169 320.338C74.467 317.182 71.7862 316.123 69.1609 318.006C64.408 321.416 62.019 326.439 60.1128 331.732C59.8413 332.481 60.0525 333.25 60.827 333.674C61.5714 334.079 62.2705 333.899 62.8941 333.345C63.9101 332.436 64.5086 331.238 65.1775 330.089C66.7668 327.363 68.331 324.632 70.9664 322.41Z" fill="#202124"/>
<path d="M257.415 211.202C257.286 211.738 257.136 212.273 257.016 212.788C253.111 229.373 246.59 244.957 239.219 260.246C230.171 279.027 216.984 294.201 200.211 306.414C192.401 312.097 183.263 314.658 174.39 317.865C171.289 318.986 168.103 319.877 165.012 321.012C164.288 321.277 163.04 321.122 163 322.458C165.397 322.818 167.729 322.243 170.056 321.888C182.469 320.002 194.359 316.67 204.605 308.95C215.985 300.375 226.192 290.579 233.807 278.477C246.924 257.635 256.557 235.292 261.5 211.072C260.137 211.147 258.779 211.192 257.415 211.202Z" fill="#202124"/>
<path fill-rule="evenodd" clip-rule="evenodd" d="M384.191 209.376C380.503 192.686 371.352 179.28 359.004 167.872C345.21 155.13 328.814 146.91 311.208 140.889C307.267 139.542 303.271 138.358 299.275 137.175C292.853 135.273 286.432 133.372 280.243 130.79C261.767 123.08 243.951 114.456 234.306 95.2826L234.306 95.2816C233.951 94.5772 233.501 93.6839 232.442 94.2533C231.462 94.7779 231.118 95.7124 231.333 96.7767C231.878 99.4769 232.308 102.18 232.735 104.868C233.203 107.815 233.668 110.744 234.281 113.631C236.872 125.836 234.159 134.697 231.213 144.316L231.213 144.316C230.153 147.778 229.063 151.339 228.179 155.19C227.83 156.713 227.489 158.168 227.163 159.564L227.163 159.564C224.37 171.5 222.592 179.101 224.793 187.736C228.027 200.413 230.318 207.272 243.471 210.37C245.252 210.789 244.928 211.791 244.63 212.709C244.579 212.866 244.53 213.02 244.491 213.168C240.223 229.418 234.796 245.233 226.49 259.924C220.953 269.713 214.116 278.412 204.616 284.693C199.364 288.171 193.961 291.419 188.429 294.442C188.259 294.535 188.079 294.615 187.899 294.695L187.898 294.695H187.898C187.332 294.946 186.765 295.197 186.5 295.856C188.172 296.402 189.652 295.81 191.112 295.225C191.551 295.05 191.987 294.875 192.427 294.732C208.379 289.52 219.793 278.832 228.179 264.656C237.984 248.086 244.501 230.218 248.639 211.454C250.423 203.365 260.548 199.387 268.054 203.989C270.333 205.383 272.472 207.062 274.206 209.636C268.764 209.636 263.726 209.636 258.694 209.631C258.503 209.631 258.311 209.606 258.121 209.582L258.12 209.582C257.898 209.553 257.675 209.525 257.454 209.536C256.495 209.586 255.49 209.846 255.331 210.895C255.176 211.909 255.99 212.444 256.875 212.889C257.929 213.413 265.246 213.228 265.72 213.208C267.361 213.143 269.001 213.056 270.641 212.968H270.641C275.561 212.705 280.482 212.441 285.41 212.794C289.433 213.078 293.386 213.778 297.255 214.952H297.26C300.603 215.382 303.267 217.531 305.635 219.899C316.695 227.974 326.46 237.443 335.53 247.667L336.371 248.614C342.542 255.569 348.714 262.524 354.991 269.383C357.829 272.486 362.082 272.356 365.056 269.348C365.93 268.464 366.755 267.524 367.524 266.545C373.626 258.775 378.114 250.08 381.692 240.941C385.68 230.717 386.575 220.149 384.191 209.376ZM366.615 200.996C365.006 202.055 363.701 200.956 362.822 199.692C361.645 197.994 360.524 196.257 359.402 194.519C358.546 193.192 357.69 191.866 356.81 190.558C348.949 178.87 338.054 170.765 325.78 164.264C319.258 160.811 312.652 157.558 305.645 155.19C305.24 155.052 304.848 154.873 304.455 154.693L304.455 154.693C304.321 154.632 304.186 154.57 304.051 154.51C303.291 154.176 302.787 153.631 303.032 152.761C303.286 151.867 304.056 151.792 305.256 151.857C307.959 152.322 310.998 153.106 313.926 154.28C327.884 159.872 341.043 166.788 351.937 177.406C357.869 183.187 362.397 190.043 366.695 197.059C367.489 198.358 368.329 199.872 366.615 200.996ZM367.528 210.796C367.599 212.144 367.683 213.714 369.803 213.938C371.462 214.113 372.077 212.599 371.987 210.96C371.862 208.631 370.418 206.642 368.844 206.817C367.414 206.977 367.214 208.007 367.399 209.635C367.483 209.967 367.505 210.371 367.528 210.796Z" fill="#202124"/>
<path fill-rule="evenodd" clip-rule="evenodd" d="M31.8065 319.897C31.0931 321.038 30.4118 322.128 31.8994 323.072C33.2438 322.797 34.4583 321.811 35.158 320.735C44.9287 305.59 59.2074 298.098 76.7697 296.306C81.0395 295.874 85.1823 296.76 89.3164 297.644L89.3166 297.644C90.3019 297.855 91.2869 298.065 92.2729 298.258L92.387 298.28C93.2726 298.453 94.0909 298.613 94.8817 298.023C95.124 296.482 94.0614 296.157 93.0802 295.858L93.0797 295.857L93.0793 295.857C92.9071 295.805 92.7374 295.753 92.5777 295.695C88.2446 294.124 83.7566 293.198 79.1986 292.597C69.9127 292.587 61.1665 294.79 52.8552 299.509C52.3204 289.489 52.5153 279.995 55.2541 270.691C56.0159 268.097 57.9455 266.585 59.8573 265.088L59.8574 265.088L59.8574 265.088C60.1405 264.866 60.4232 264.644 60.7017 264.42C68.2734 258.319 77.2145 255.546 86.6403 254.035C87.6899 253.864 88.4895 254.25 89.3991 254.785C99.6196 260.781 108.111 268.854 116.472 277.112C125.138 285.671 134.989 292.527 146.159 297.442C152.791 300.36 159.648 301.466 166.83 300.17C166.947 300.148 167.068 300.136 167.186 300.123C167.725 300.067 168.217 300.016 168.05 299.139C166.411 298.76 164.757 298.434 163.101 298.107L163.101 298.107L163.1 298.107C158.286 297.157 153.45 296.204 148.888 293.929C149.005 293.802 149.118 293.679 149.228 293.559C149.604 293.152 149.945 292.781 150.277 292.402C154.401 287.718 157.974 282.728 160.738 277.032C166.795 264.54 166.11 251.387 165.296 238.174L165.294 238.149C165.115 235.204 164.934 232.235 164.231 229.34C162.74 230.191 162.719 231.558 162.699 232.896C162.692 233.36 162.685 233.821 162.617 234.255C161.93 238.646 161.805 243.076 161.681 247.505C161.588 250.812 161.494 254.118 161.168 257.408C160.158 267.558 156.61 276.752 150.517 284.945C149.581 286.199 148.616 287.43 147.651 288.662L147.646 288.669C147.33 289.072 147.014 289.475 146.699 289.88C144.9 292.187 143.74 292.277 141.356 290.445C140.742 289.975 140.792 289.639 141.061 289.019C143.213 284.088 143.896 278.844 144.579 273.601C144.754 272.255 144.93 270.91 145.13 269.57C146.401 261.054 146.561 252.477 146.722 243.9V243.9V243.9C146.801 239.663 146.881 235.427 147.094 231.197C147.489 223.379 148.123 215.597 149.193 207.844C149.898 202.709 152.756 199.226 157.354 197.029C160 195.762 162.817 195.141 165.759 194.493L165.759 194.493L165.759 194.493C166.864 194.25 167.986 194.002 169.124 193.715C168.909 194.755 168.728 195.783 168.55 196.799L168.55 196.799L168.55 196.8C168.154 199.059 167.768 201.258 167.03 203.395C166.951 203.625 166.861 203.855 166.771 204.086C166.325 205.231 165.875 206.386 166.645 207.644C167.52 207.784 168.374 207.759 168.719 206.768C169.128 205.596 169.64 204.469 170.153 203.341L170.153 203.341L170.153 203.341L170.153 203.341C171 201.478 171.849 199.611 172.238 197.529C174.047 187.835 174.362 178.075 173.922 168.095C174.126 168.179 174.314 168.251 174.491 168.319C174.823 168.446 175.115 168.557 175.391 168.701C182.048 172.109 186.636 173.831 194.083 174.066C194.359 174.075 194.654 174.101 194.955 174.128C196.521 174.268 198.267 174.424 198.481 172.229C198.709 169.893 196.825 169.841 195.278 169.799C194.989 169.791 194.712 169.784 194.463 169.762C194.057 169.726 193.697 169.695 193.371 169.667C191.306 169.489 190.573 169.426 188.066 168.856C175.956 166.093 165.671 160.117 157.249 150.953C156.981 150.807 156.723 149.891 156.467 148.981C156.178 147.956 155.891 146.939 155.595 147.034C148.878 149.217 143.196 147.6 138.453 142.395C138.207 142.125 137.881 141.665 137.51 141.142C136.646 139.921 135.54 138.36 134.644 138.072C134.534 154.153 130.286 174.051 119.371 185.878C110.04 195.988 98.5751 202.879 85.7507 207.569C82.2878 208.835 78.7677 209.932 75.2469 211.03C70.3734 212.55 65.4984 214.07 60.7717 216.037C49.6716 220.657 39.9009 227.143 32.5641 236.763C24.2278 247.693 23.3431 259.99 27.1865 272.783C30.8249 284.88 36.6623 295.455 48.5071 301.501C48.5744 301.538 48.6077 301.643 48.6452 301.761C48.6633 301.819 48.6825 301.879 48.707 301.937C48.4224 302.133 48.1389 302.331 47.8555 302.528L47.8548 302.529C47.2527 302.948 46.6514 303.367 46.0432 303.778C40.0758 307.832 35.7377 313.338 32.0793 319.454C31.9909 319.602 31.8984 319.75 31.8065 319.897ZM140.002 219.721L140.002 219.721L140.002 219.721C141.126 218.961 142.27 218.187 143.45 217.403C142.711 227.839 142.141 237.718 142.096 247.633C142.036 260.225 140.752 272.698 138.108 285.015C137.428 288.173 137.353 288.133 134.644 286.356C126.813 281.216 120.096 274.76 113.404 268.278C109.815 264.8 106.047 261.527 101.829 258.839C100.629 258.073 100.499 257.503 101.319 256.341C110.06 243.969 119.661 232.473 132.795 224.44C135.209 222.962 137.557 221.374 140.002 219.721ZM34.1834 261.066C34.1834 261.381 34.1779 261.696 34.1725 262.01C34.1607 262.696 34.1488 263.381 34.1934 264.064C34.4433 268.003 35.3729 271.772 37.1671 275.3C37.5569 276.061 38.1166 276.797 39.0912 276.541C40.1508 276.261 40.0358 275.325 39.9259 274.484C39.8859 274.178 39.8524 273.871 39.819 273.563C39.7353 272.794 39.6517 272.025 39.4661 271.281C36.2375 258.354 39.9408 247.508 49.2717 238.334C49.9215 237.693 50.5412 237.013 51.076 236.277C51.6757 235.461 52.2304 234.435 51.4658 233.549C50.6711 232.623 49.4767 232.879 48.4521 233.269C47.9223 233.469 47.4226 233.84 47.0127 234.24C39.4611 241.607 34.0634 250.02 34.1834 261.066ZM58.4355 229.974C58.3226 230.01 58.2116 230.046 58.1029 230.081C57.0034 230.116 56.4636 229.971 56.1987 229.34C55.8839 228.569 56.0738 227.804 56.6035 227.268C57.9529 225.897 59.5423 224.841 61.3615 224.205C62.1861 223.915 63.0807 224.09 63.5605 224.906C64.0503 225.742 64.1252 226.743 63.3856 227.448C61.895 228.871 59.9833 229.481 58.4355 229.974Z" fill="#202124"/>
<path fill-rule="evenodd" clip-rule="evenodd" d="M220.971 87.5671C220.821 87.1737 220.874 86.8025 221.126 86.4627C221.475 85.8784 221.563 85.2235 221.651 84.5659C221.746 83.8595 221.842 83.1501 222.261 82.5218C222.807 81.697 222.744 80.8163 221.923 80.1193C219.323 75.4095 215.598 75.4018 210.745 76.4758C194.719 80.0174 178.885 78.2233 163.296 73.5369C163.166 73.4979 163.036 73.4572 162.905 73.4162C161.958 73.1191 160.977 72.8114 159.696 73.0933C167.775 77.218 175.919 80.3606 184.664 81.8165C186.464 82.1169 188.265 82.4186 190.066 82.7203C191.868 83.0221 193.669 83.3238 195.469 83.6241C195.448 83.7879 195.433 83.9475 195.427 84.1136C194.251 84.631 193.209 85.2354 193.607 86.8121L193.508 86.799C192.158 86.6198 190.813 86.4411 189.463 86.257C190.525 84.4104 189.193 84.2247 187.992 84.4193C187.167 84.5542 186.375 84.9001 185.584 85.2456L185.584 85.2456L185.584 85.2457C185.245 85.3939 184.906 85.5421 184.564 85.6734C171.355 83.2827 158.929 79.0518 148.431 70.2866C147.81 69.768 147.001 69.5386 146.361 69.8372C145.823 70.0922 145.921 70.6691 146.017 71.2411C146.039 71.3669 146.06 71.4924 146.075 71.6143C146.149 72.2446 146.142 72.884 146.136 73.5244L146.136 73.5245L146.136 73.5246L146.136 73.5246L146.136 73.5247C146.131 74.0373 146.125 74.5505 146.162 75.0603C146.905 85.8343 144.843 95.85 138.213 104.631C137.656 105.368 137.5 106.092 137.74 106.945C137.047 108.025 136.307 109.057 134.989 109.451C134.563 102.585 134.495 95.7247 135.501 88.8979C135.614 88.1161 135.657 87.3381 134.727 87.0694C133.686 86.7679 133.24 87.411 132.98 88.3215C132.455 90.1621 132.091 92.013 131.895 93.9257C131.235 100.453 131.507 106.955 132.259 113.453L130.578 116.877C124.885 123.64 117.747 126.038 110.955 123.438C105.704 121.432 102.702 117.277 101.079 112.215C97.3157 100.467 98.4241 88.9941 104.278 78.1767C108.1 71.1126 117.135 67.6736 124.939 69.6993C127.773 70.4368 129.864 72.0336 131.195 74.6287C131.455 75.1404 131.708 75.6562 132.015 76.2826L132.015 76.2832L132.016 76.2844L132.016 76.2848C132.228 76.716 132.465 77.1996 132.747 77.7702C132.928 77.1296 133.085 76.5452 133.231 75.9997C133.517 74.9358 133.763 74.02 134.065 73.1242C136.457 66.112 140.177 59.7861 145.028 54.2822C149.415 49.3072 155.641 47.3318 161.91 45.8493C169.573 44.0357 177.076 44.9304 184.418 47.6019C185.662 48.0571 186.933 48.4406 188.204 48.8191C189.011 49.0634 189.968 49.2554 190.379 48.3232C190.898 47.155 189.834 46.617 189.047 46.3101C188.536 46.1129 188.026 45.9136 187.516 45.7142L187.515 45.714L187.515 45.7138L187.514 45.7136C183.316 44.073 179.111 42.43 174.557 41.975C174.48 41.9675 174.402 41.9676 174.324 41.9677C174.235 41.9678 174.146 41.9679 174.059 41.9568C170.601 41.5104 160.146 31.7699 159.428 28.3454C159.28 27.6487 159.262 26.9929 159.917 26.5651C160.533 26.1615 161.225 26.3014 161.82 26.5982C162.796 27.0862 163.493 27.9006 164.187 28.711L164.187 28.7112L164.187 28.7113C164.304 28.8481 164.421 28.9847 164.54 29.1196C166.997 31.9489 169.624 34.6026 172.585 36.9091C172.717 37.0124 172.844 37.1278 172.972 37.244C173.379 37.6141 173.795 37.9929 174.434 38.0171C171.66 28.2073 180.225 17.5357 190.892 18.2939C204.149 19.2342 214.952 25.2735 222.104 36.6575C228.015 46.068 223.925 56.2283 213.342 59.7309C212.938 59.8664 212.54 60.0204 212.08 60.198C211.841 60.2907 211.584 60.3899 211.302 60.4962C216.458 65.2766 220.701 70.5756 224.438 76.2906C225.338 77.7883 226.106 77.0027 226.733 76.3623C226.876 76.2157 227.012 76.0767 227.141 75.9745C230.663 73.2013 235.347 75.1076 236.358 79.0797C237.48 83.5046 237.795 87.9081 237.495 92.3609C237.341 94.64 236.466 96.8706 235.429 98.9488C235.096 99.61 234.509 100.281 233.651 99.943C232.903 99.6474 232.996 98.8674 233.118 98.1981C233.199 97.7397 233.267 97.2769 233.335 96.8141C233.497 95.7061 233.659 94.5982 234.011 93.5506C235.631 88.7196 234.654 84.0543 233.228 79.4395C232.829 78.1562 231.802 77.0671 230.138 77.73C228.155 78.5195 226.35 79.5295 226.14 82.0022L225.601 82.7217C225.155 82.8231 224.982 83.1451 224.788 83.5396C224.002 85.1343 223.754 86.8438 223.506 88.5554L223.506 88.5557L223.506 88.5559L223.506 88.5562C223.413 89.1979 223.32 89.8399 223.198 90.4763C223.185 90.5468 223.174 90.6218 223.163 90.6982L223.163 90.6984L223.163 90.6986C223.101 91.1222 223.034 91.5888 222.481 91.5828C222.079 91.5772 221.934 91.2447 221.789 90.9093C221.731 90.7774 221.674 90.6451 221.6 90.532C221.335 90.1308 221.394 89.6668 221.453 89.2055C221.528 88.6071 221.604 88.0132 220.971 87.5671ZM104.958 93.1926C104.904 93.9647 104.832 94.7437 104.76 95.5279C104.471 98.6851 104.173 101.928 104.991 105.16C105.037 105.342 105.08 105.536 105.124 105.736L105.124 105.737C105.415 107.051 105.759 108.604 107.373 108.372C108.829 108.165 108.658 106.935 108.499 105.793C108.451 105.445 108.403 105.105 108.404 104.805C108.387 97.1731 108.777 89.6616 113.763 83.2729C114.602 82.1958 114.876 80.8776 113.75 79.8994C112.469 78.7852 111.205 79.5114 110.273 80.5686C107.124 84.1197 105.917 88.51 104.958 93.1926ZM210.6 31.3373C215.289 32.6673 220.013 39.8901 219.215 44.8969C218.786 46.5148 218.256 48.4254 217.002 50.0442C216.372 50.8606 215.497 51.2031 214.589 50.8619C213.615 50.4949 213.368 49.5598 213.569 48.5791C213.586 48.4959 213.602 48.4122 213.618 48.3283C213.746 47.6744 213.876 47.0049 214.181 46.4386C216.053 42.9989 215.165 40.069 212.659 37.3839C211.473 36.1128 210.294 34.8326 209.121 33.5482C208.638 33.0161 208.414 32.3833 208.815 31.7381C209.243 31.0466 209.931 31.1454 210.6 31.3373ZM118.877 79.0155L118.998 79.0203C120.247 79.071 121.728 79.1311 122.136 77.4208C122.552 75.6945 121.369 74.8845 119.84 74.5663C118.306 74.2474 116.905 74.5571 116.564 76.2648C116.266 77.792 117.197 78.7241 118.877 79.0155ZM209.266 54.2661C209.585 52.9244 210.716 52.6227 211.984 52.707C213.244 52.9672 213.885 53.7726 213.615 55.0004C213.308 56.3945 212.104 56.7101 210.913 56.5569C209.693 56.3991 208.975 55.4957 209.266 54.2661Z" fill="#202124"/>
<path d="M311.56 392.048C298.454 391.297 280.661 389.589 263.827 382.608C261.312 381.566 258.881 380.309 256.446 379.082C255.557 378.637 254.559 377.981 255.208 376.774C255.782 375.707 256.785 376.208 257.643 376.508C265.314 379.178 272.94 382.012 280.911 383.7C294.925 386.665 309.079 388.427 323.413 387.471C336.384 386.604 348.263 382.247 358.499 374.205C366.25 368.115 370.013 359.421 372.214 349.971C375.957 333.906 373.731 318.201 369.494 302.606C367.128 293.897 363.934 285.483 360.505 277.15C360.266 276.564 359.327 275.678 360.116 275.227C361.184 274.616 361.349 275.968 361.713 276.584C370.632 291.683 376.805 307.794 378.537 325.347C380.04 340.586 378.078 355.244 369.773 368.571C366.764 373.398 362.931 377.305 358.15 380.369C345.403 388.532 331.488 392.419 311.56 392.048Z" fill="#202124"/>
<path d="M170.862 358.67C181.7 358.246 191.716 356.002 201.812 354.342C203.977 353.983 206.133 354.088 208.293 354.078C208.734 354.078 209.406 353.844 209.527 354.517C209.657 355.235 209.01 355.384 208.474 355.653C204.94 357.408 201.1 358.161 197.295 359.004C188.753 360.893 180.116 362.209 171.388 362.922C168.641 363.147 165.904 363.182 163.177 362.583C160.866 362.08 159.157 360.943 158.625 358.555C158.074 356.097 159.412 354.367 161.252 353.061C164.024 351.097 167.333 350.439 170.576 349.696C188.327 345.647 206.128 341.873 224.084 338.822C227.277 338.279 230.465 337.701 233.664 337.192C234.531 337.052 235.704 336.813 235.97 337.98C236.185 338.912 235.208 339.301 234.441 339.655C229.383 341.958 223.894 342.566 218.515 343.568C201.922 346.665 185.414 350.159 169.017 354.143C167.162 354.592 165.323 355.18 163.734 356.297C163.292 356.606 162.661 356.955 162.821 357.638C162.977 358.306 163.638 358.381 164.21 358.49C166.606 358.959 169.012 359.019 170.862 358.67Z" fill="#202124"/>
<path d="M205.63 125.265C206.325 123.786 207.495 122.858 209.035 122.367C210.06 122.864 210.71 123.716 211.152 124.728C214.012 131.22 215.643 137.923 214.726 145.087C214.196 149.236 212.515 152.72 209.125 155.267C208.556 155.693 207.905 156.546 207.204 156.051C206.38 155.465 207.234 154.678 207.52 154.086C210.532 147.886 211.177 141.382 210.144 134.642C210.058 134.066 209.952 133.488 209.776 132.938C209.592 132.342 209.677 131.424 208.821 131.395C207.839 131.361 207.761 132.331 207.603 133.009C206.326 138.517 203.8 143.438 200.641 148.071C199.282 150.068 197.836 152.005 195.931 153.521C194.877 154.356 193.581 155.285 192.41 153.981C191.383 152.831 192.245 151.57 193.084 150.655C197.415 145.94 200.715 140.605 202.797 134.557C203.849 131.493 204.694 128.362 205.63 125.265Z" fill="#202124"/>
<path d="M44.4628 381.333C46.2322 380.091 47.6618 381.152 48.9863 382.137C56.104 387.441 64.2514 389.075 72.8286 388.507C85.0746 387.693 96.011 383.002 106.158 376.23C107.232 375.511 108.192 373.666 109.976 375.109C110.251 377.713 108.057 378.799 106.558 379.945C92.3972 390.774 76.6923 395.546 58.9031 391.82C53.6898 390.729 49.5012 387.733 45.2625 384.807C44.0529 383.977 43.5631 382.761 44.4628 381.333Z" fill="#202124"/>
<path d="M184.729 224.072C180.709 224.062 177.473 223.488 174.417 222.052C173.054 221.409 171.761 220.627 170.827 219.453C169.978 218.389 168.74 217.107 170.118 215.78C171.341 214.601 172.34 215.948 173.319 216.626C178.282 220.082 183.76 220.102 189.298 218.686C199.065 216.196 207.3 210.839 215.06 204.675C217.067 203.081 219.034 201.432 221.092 199.898C221.946 199.259 223.139 198.635 224.048 199.487C225.032 200.413 224.193 201.546 223.579 202.353C222.575 203.655 221.451 204.888 220.243 206.002C211.11 214.408 200.948 221.037 188.534 223.632C187.071 223.939 185.563 223.983 184.729 224.072Z" fill="#202124"/>
<path d="M232.5 359.376C230.278 361 227.806 362.149 225.253 363.033C216.973 365.911 208.508 368.039 199.767 368.984C198.944 369.074 198.087 369.118 197.274 369.004C196.186 368.854 195.063 368.549 195.002 367.14C194.942 365.696 196.045 365.371 197.144 365.186C203.067 364.202 208.849 362.603 214.712 361.369C219.747 360.31 224.636 358.407 229.897 358.616C230.76 358.651 231.778 358.242 232.5 359.376Z" fill="#202124"/>
<path d="M174.319 136.965C174.65 135.195 175.446 133.62 176.775 132.454C177.921 131.451 177.945 130.503 177.502 129.172C176.767 126.975 176.188 124.717 175.654 122.461C175.431 121.504 175.358 120.272 176.641 120.005C177.756 119.771 178.139 120.87 178.473 121.702C179.689 124.699 180.861 127.72 182.044 130.732C182.733 132.486 182.333 133.769 180.509 134.574C178.79 135.329 178.051 136.767 178.235 138.608C178.516 141.371 180.451 142.356 182.915 141.121C184.18 140.486 185.745 139.074 186.88 140.762C188.158 142.665 186.238 143.728 184.968 144.711C182.834 146.363 180.548 146.922 178.056 145.363C175.348 143.669 173.781 140.201 174.319 136.965Z" fill="#202124"/>
<path d="M208.923 377.572C207.036 377.484 205.847 377.68 204.861 376.861C204.254 376.357 203.881 375.754 204.035 374.945C204.184 374.146 204.672 373.621 205.498 373.494C213.657 372.2 221.571 369.729 229.784 368.714C230.929 368.572 232.099 368.601 233.253 368.596C233.711 368.592 234.344 368.42 234.483 369.067C234.602 369.631 234.07 369.891 233.657 370.15C233.174 370.459 232.701 370.797 232.188 371.047C224.612 374.749 216.414 376.2 208.923 377.572Z" fill="#202124"/>
<path d="M38.5 25.5113C38.4653 27.4128 36.2915 29.0728 33.7803 28.4324C30.4899 27.5901 27.4774 26.0039 24.9612 23.7331C22.4549 21.4721 23.3284 18.6397 26.3955 17.2013C29.0457 15.9599 30.8869 16.6446 32.7728 18.4771C34.0582 19.7283 35.5223 20.7972 36.897 21.9597C37.8846 22.7873 38.5 23.807 38.5 25.5113Z" fill="#20BEFF"/>
<path d="M226.128 82.0146C226.342 79.5427 228.147 78.5376 230.126 77.7424C231.79 77.0796 232.818 78.1637 233.216 79.4519C234.642 84.0668 235.624 88.7328 233.998 93.563C233.501 95.0434 233.382 96.6547 233.105 98.2105C232.984 98.8798 232.891 99.6598 233.639 99.9555C234.497 100.294 235.09 99.6183 235.416 98.9613C236.459 96.8838 237.329 94.6524 237.482 92.3734C237.783 87.9205 237.468 83.517 236.346 79.0921C235.336 75.1151 230.651 73.2137 227.128 75.9869C226.435 76.5301 225.531 78.1436 224.426 76.303C225.542 76.9253 226.08 75.8614 226.791 75.4323C231.36 72.663 235.49 74.0107 237.038 79.0701C238.91 85.1831 239.025 91.3572 236.873 97.4658C236.653 98.089 236.331 98.6859 235.969 99.2412C235.368 100.163 234.674 101.122 233.373 100.642C232.139 100.189 231.96 99.0821 232.171 97.941C232.441 96.4905 232.358 95.6773 230.465 96.1825C228.885 96.6055 228.162 95.6051 228.193 94.071C228.2 93.5761 228.3 93.0755 228.402 92.5905C228.665 91.311 228.68 89.5566 230.516 89.7868C232.572 90.0415 232.192 91.8341 232.174 93.35C232.165 94.2699 230.895 95.6735 232.028 95.9389C233.443 96.2695 233.032 94.4224 233.319 93.5364C234.62 89.5104 234.02 85.4667 233.178 81.4506C232.931 80.2623 232.776 78.8102 231.326 78.4438C229.777 78.0567 228.626 79.059 227.612 80.0627C227.041 80.6304 226.622 81.3588 226.128 82.0146Z" fill="#202124"/>
<path d="M334 5.82325C333.99 8.58223 326.375 14.6246 323.655 14.0316C320.469 13.3357 319.693 11.8754 321.341 9.09679C323.039 6.22999 325.629 4.10808 328.53 2.52032C331.034 1.15308 334.01 3.10347 334 5.82325Z" fill="#20BEFF"/>
<path d="M15.9975 193.392C15.8429 195.058 14.8702 196.184 13.5035 196.921C11.0992 198.224 8.67 199.491 6.1959 200.647C4.49994 201.44 2.8389 201.177 1.89615 199.41C1.00327 197.739 1.7066 196.219 3.13819 195.255C5.61728 193.584 8.13129 191.938 10.78 190.575C13.4287 189.212 16.0923 190.777 15.9975 193.392Z" fill="#20BEFF"/>
<path d="M376.176 103.043C373.85 103.142 371.589 102.989 369.551 101.672C367.571 100.39 367.472 98.5012 369.338 97.1104C371.718 95.335 378.111 95.0243 380.658 96.558C382.08 97.4112 382.741 98.6886 382.42 100.286C382.104 101.879 381.033 102.886 379.365 103.029C378.308 103.117 377.237 103.043 376.176 103.043Z" fill="#20BEFF"/>
<path d="M10.1666 117.061C8.3971 116.784 6.32003 116.537 4.27825 116.113C1.82308 115.604 0.164446 113.639 0.557677 111.906C1.02149 109.876 3.15906 108.726 5.72514 109.165C7.69634 109.501 9.67258 109.852 11.6337 110.257C13.741 110.696 15.1829 111.802 14.9812 114.128C14.8148 116.024 12.9193 117.204 10.1666 117.061Z" fill="#20BEFF"/>
<path d="M329.857 132.572C326.905 131.498 323.359 130.389 319.998 128.894C318.601 128.274 318.097 126.628 318.846 125.07C319.609 123.482 321.035 122.657 322.716 123.282C325.873 124.454 328.97 125.807 332.007 127.263C333.289 127.878 333.817 129.192 333.308 130.604C332.85 131.864 331.852 132.533 329.857 132.572Z" fill="#FAE041"/>
<path d="M310.5 64.7514C310.379 66.3242 309.624 67.4008 308.355 68.0309C306.114 69.1423 303.828 70.1693 301.547 71.1963C299.971 71.9058 298.546 71.628 297.55 70.2189C296.598 68.8744 296.97 67.4951 297.993 66.3589C300.238 63.8634 303.214 62.499 306.396 61.6853C308.586 61.1147 310.525 62.7917 310.5 64.7514Z" fill="#FAE041"/>
<path d="M108.553 3.0546C108.71 1.93538 108.979 0.844034 110.234 0.52647C111.837 0.122253 113.315 0.695602 114.263 1.90373C115.902 3.99077 117.223 6.32616 118.035 8.86952C118.499 10.315 118.128 11.7343 116.802 12.6229C115.579 13.4417 114.081 13.4727 113.131 12.3756C111.122 10.0679 109.383 7.52956 108.511 4.53129C108.379 4.08517 108.529 3.55211 108.553 3.0546Z" fill="#FAE041"/>
<path d="M212 223.126C216.501 218.054 220.826 213.171 225.166 208.297C225.858 207.524 226.787 207.365 227.675 207.841C228.673 208.376 228.618 209.388 228.277 210.241C227.885 211.227 227.379 212.214 226.721 213.042C223.149 217.509 218.628 220.82 213.51 223.369C213.3 223.473 213.059 223.562 212.828 223.572C212.687 223.582 212.542 223.428 212 223.126Z" fill="#202124"/>
<path d="M258.625 25.8167C259.958 23.0209 262.196 20.3329 265.426 18.6423C266.524 18.067 267.952 18.2273 268.839 19.3348C269.756 20.4823 269.757 21.8847 268.983 23.0632C267.427 25.439 265.406 27.4274 262.985 28.9068C261.701 29.6907 260.208 29.4035 258.955 28.6837C258.096 28.1933 258.471 27.2047 258.625 25.8167Z" fill="#FAE041"/>
<path d="M49.7637 144.572C48.5733 144.354 47.1283 144.161 45.7175 143.812C44.5517 143.527 43.6014 142.815 43.5083 141.537C43.4103 140.186 44.1892 139.242 45.4383 138.773C47.3438 138.056 49.3375 137.567 51.3655 137.572C53.3494 137.577 55.108 138.24 55.4607 140.53C55.7546 142.447 54.383 143.924 51.9631 144.379C51.3312 144.5 50.6748 144.5 49.7637 144.572Z" fill="#FAE041"/>
<path d="M61.4803 80.0723C58.8056 79.7117 56.2652 78.786 54.1523 76.9784C53.0834 76.0624 52.6211 74.8103 53.3618 73.4704C54.0976 72.1354 55.2957 71.8187 56.7524 72.2572C58.9548 72.9247 61.3361 73.0953 63.3098 74.3913C64.5477 75.2049 65.3531 76.3255 64.846 77.9041C64.3439 79.4486 63.0712 79.9358 61.4803 80.0723Z" fill="#FAE041"/>
<path d="M239.5 377.839C236.767 380.073 234.018 381.07 231.315 382.083C228.761 383.034 226.108 383.665 223.404 384.021C222.197 384.179 220.945 384.037 220.576 382.622C220.167 381.045 221.484 380.592 222.566 380.282C227.494 378.877 232.557 378.206 237.62 377.585C238.059 377.524 238.522 377.697 239.5 377.839Z" fill="#202124"/>
<path d="M59.8445 192.572C58.4727 192.513 57.1565 192.321 56.6401 190.987C56.139 189.692 57.0704 188.835 58.0373 188.131C59.4395 187.102 60.8063 185.994 62.325 185.147C64.0563 184.187 65.8483 184.379 66.962 186.107C68.1213 187.909 67.286 189.436 65.6104 190.475C63.8386 191.568 61.9403 192.444 59.8445 192.572Z" fill="#FAE041"/>
<path d="M222.56 116.688C222.134 118.003 221.299 118.898 219.858 118.629C218.752 118.424 217.865 117.696 218.059 116.375C218.267 114.965 219.13 114.12 220.598 114.276C221.937 114.423 222.563 115.327 222.56 116.688Z" fill="#202124"/>
<path d="M223.442 123.936C223.016 125.251 222.181 126.146 220.74 125.877C219.634 125.672 218.747 124.944 218.941 123.623C219.149 122.213 220.012 121.368 221.48 121.524C222.819 121.671 223.445 122.58 223.442 123.936Z" fill="#202124"/>
<path d="M205.977 86.7666C202.608 85.2813 199.217 83.9038 195.422 84.1128C195.428 83.9467 195.443 83.7871 195.464 83.6233C200.247 83.7886 205.043 83.8395 210.159 84.908C208.824 86.4987 207.215 86.2083 205.977 86.7666Z" fill="#202124"/>
<path d="M217.113 120.235C216.773 121.71 215.956 122.299 214.713 122.122C213.475 121.947 212.732 121.176 213.003 119.882C213.268 118.623 214.162 117.773 215.485 117.982C216.755 118.183 217.004 119.326 217.113 120.235Z" fill="#202124"/>
<path d="M220.971 87.5656C222.092 88.3556 220.991 89.6139 221.594 90.5396C221.854 90.9403 221.91 91.5818 222.475 91.5904C223.126 91.6024 223.104 90.9458 223.192 90.4839C223.632 88.1541 223.701 85.7401 224.782 83.5472C224.976 83.1527 225.144 82.83 225.595 82.7293C224.641 85.3979 223.892 88.1092 223.784 90.9675C223.756 91.7174 223.806 92.6163 222.851 92.7637C221.804 92.9218 221.406 92.0133 221.207 91.2225C220.905 90.0306 220.582 88.81 220.971 87.5656Z" fill="#202124"/>
<path d="M221.918 80.1181C222.738 80.8201 222.801 81.7008 222.256 82.5207C221.452 83.7347 221.849 85.2506 221.121 86.4615C220.432 84.2263 222.418 82.3286 221.918 80.1181Z" fill="#202124"/>
<path d="M305.281 151.59C307.979 152.054 311.01 152.837 313.932 154.009C327.858 159.591 340.987 166.495 351.857 177.096C357.775 182.868 362.293 189.712 366.581 196.716C367.374 198.013 368.211 199.525 366.501 200.647C364.895 201.705 363.594 200.607 362.716 199.345C360.647 196.357 358.748 193.244 356.718 190.226C348.875 178.558 338.005 170.466 325.759 163.976C319.252 160.529 312.661 157.282 305.67 154.917C305.126 154.732 304.608 154.473 304.079 154.238C303.321 153.904 302.818 153.361 303.062 152.493C303.312 151.605 304.084 151.525 305.281 151.59Z" fill="white"/>
<path d="M367.556 209.842C367.377 208.247 367.571 207.239 368.953 207.083C370.475 206.912 371.871 208.859 371.992 211.138C372.079 212.743 371.484 214.23 369.88 214.059C367.184 213.77 367.894 211.197 367.556 209.842Z" fill="white"/>
<path d="M34.0215 261.109C33.9028 250.103 39.2464 241.729 46.7226 234.391C47.1283 233.993 47.6231 233.624 48.1475 233.424C49.1618 233.036 50.3444 232.781 51.1311 233.703C51.8881 234.586 51.3389 235.608 50.7451 236.42C50.2157 237.153 49.6022 237.831 48.959 238.469C39.7214 247.605 36.0551 258.407 39.2514 271.282C39.5086 272.319 39.568 273.406 39.7066 274.472C39.8154 275.31 39.9292 276.242 38.8803 276.521C37.9154 276.775 37.3563 276.042 36.9754 275.285C35.1991 271.771 34.2738 268.017 34.0314 264.094C33.9671 263.102 34.0215 262.106 34.0215 261.109Z" fill="white"/>
<path d="M51.579 309.427C61.8928 301.517 73.0693 299.916 84.5701 300.784C85.1935 300.828 85.8468 300.973 86.3506 301.257C87.338 301.806 88.3006 302.589 87.9116 303.881C87.5375 305.123 86.2408 305.402 85.1087 305.497C84.0913 305.582 83.0739 305.567 82.0814 305.497C67.8077 304.474 55.3743 309.163 45.1703 320.903C44.3474 321.851 43.3599 322.669 42.4373 323.536C41.7141 324.22 40.9012 324.978 39.9985 324.319C39.1706 323.716 39.5197 322.743 39.9985 321.891C42.2278 317.95 45.2052 314.534 48.7612 311.552C49.6639 310.803 50.6414 310.135 51.579 309.427Z" fill="#202124"/>
<path d="M58.0854 230.067C56.9656 230.102 56.4183 229.958 56.1548 229.323C55.8356 228.55 56.0282 227.791 56.5653 227.256C57.9283 225.888 59.5446 224.835 61.389 224.201C62.2251 223.916 63.1321 224.086 63.6185 224.9C64.1201 225.733 64.1911 226.732 63.4411 227.436C61.8197 228.964 59.7119 229.553 58.0854 230.067Z" fill="white"/>
<path d="M101.409 296.572C96.9211 294.136 94.2065 290.063 91.716 285.794C90.3462 283.448 89.1508 280.991 87.3825 278.68C84.8073 282.702 82.3169 286.589 79.8264 290.481C79.7118 285.517 81.6893 281.132 83.7165 276.812C84.4089 275.342 84.4039 274.532 83.2234 273.434C80.3444 270.766 77.3508 268.294 73.8243 266.537C72.9377 266.099 72.061 265.611 71.2591 265.037C70.6265 264.584 70.2828 263.914 70.6514 263.068C71.005 262.258 71.5978 262.006 72.4396 262.087C74.1182 262.248 75.6473 262.867 77.1466 263.577C82.277 265.998 86.5557 269.558 89.9079 274.104C94.5103 280.341 98.1962 287.163 101.519 294.186C101.877 294.961 102.445 295.817 101.409 296.572Z" fill="#202124"/>
<path d="M104.958 93.1927C105.917 88.5101 107.124 84.1198 110.263 80.5672C111.195 79.51 112.459 78.7838 113.741 79.898C114.872 80.8769 114.597 82.1952 113.753 83.2714C108.767 89.6601 108.377 97.1716 108.394 104.803C108.398 106.09 109.264 108.1 107.363 108.371C105.508 108.639 105.33 106.535 104.981 105.159C103.97 101.126 104.687 97.0732 104.958 93.1927Z" fill="white"/>
<path d="M219.215 44.8963C218.787 46.5143 218.256 48.4248 217.003 50.0387C216.374 50.8502 215.499 51.1926 214.591 50.8563C213.616 50.4894 213.369 49.5542 213.57 48.5736C213.716 47.8474 213.838 47.0721 214.183 46.433C216.054 42.9934 215.166 40.0635 212.66 37.3784C211.475 36.1073 210.295 34.827 209.122 33.5426C208.638 33.0155 208.415 32.3827 208.816 31.7326C209.244 31.046 209.932 31.1448 210.601 31.3318C215.29 32.6667 220.013 39.8895 219.215 44.8963Z" fill="white"/>
<path d="M134.979 109.454C134.325 110.96 133.374 112.268 132.249 113.456C131.496 106.959 131.224 100.461 131.889 93.9298C132.081 92.0162 132.45 90.1661 132.974 88.3255C133.236 87.4101 133.681 86.7719 134.722 87.0734C135.651 87.3421 135.61 88.1152 135.495 88.9019C134.49 95.7287 134.553 102.588 134.979 109.454Z" fill="white"/>
<path d="M118.877 79.0137C117.192 78.7215 116.267 77.7902 116.568 76.2687C116.905 74.5603 118.311 74.2464 119.844 74.5703C121.368 74.8876 122.556 75.6984 122.141 77.4247C121.715 79.1848 120.149 79.0684 118.877 79.0137Z" fill="white"/>
<path d="M211.984 52.7071C213.244 52.9673 213.882 53.7669 213.615 55.0005C213.314 56.3905 212.104 56.7101 210.914 56.557C209.693 56.3992 208.976 55.4958 209.267 54.2662C209.585 52.9295 210.722 52.6235 211.984 52.7071Z" fill="white"/>
<path d="M138.534 111.166C140.509 118.166 142.767 125.069 145.699 131.74C147.433 135.685 149.191 139.613 151.347 143.352C147.75 144.554 144.748 143.273 142.327 140.759C139.254 137.564 136.814 133.887 135.487 129.576C135.36 124.782 136.723 119.981 135.38 115.197C136.144 113.633 136.743 111.93 138.534 111.166Z" fill="#202124"/>
<path d="M135.379 115.203C136.722 119.987 135.365 124.789 135.486 129.582C133.338 124.802 132.84 120.015 135.379 115.203Z" fill="white"/>
<path d="M148.335 128.138C149.015 124.514 153.143 121.817 156.903 122.367C157.982 122.523 158.861 122.885 159.017 124.074C159.166 125.216 158.517 126.181 157.529 126.374C154.791 126.912 152.606 127.989 151.318 130.655C150.97 131.38 149.91 131.429 149.092 130.9C147.939 130.161 148.251 129.051 148.335 128.138Z" fill="#202124"/>
<path d="M196.763 106.68C194.224 105.999 193.026 106.655 191.899 109.139C191.419 110.187 191.119 111.891 189.507 111.358C187.824 110.797 187.703 109.199 188.123 107.6C189.386 102.793 193.282 100.601 198.028 102.117C199.57 102.609 201.193 103.352 200.629 105.384C200.046 107.494 198.316 107.042 196.763 106.68Z" fill="#202124"/>
<path d="M29.8221 330.572C31.5484 330.803 33.2947 330.698 35.026 331.099C40.6702 332.398 42.6067 336.135 40.4751 341.573C39.8096 343.268 37.5629 344.738 38.1283 346.173C38.5887 347.332 41.2857 346.9 42.8869 347.678C47.065 349.709 48.2559 353.07 45.9642 357.399C45.1036 359.024 44.9485 359.626 46.995 360.379C53.635 362.817 55.3463 368.575 51.4133 374.444C50.5427 375.744 49.4168 376.546 47.8356 375.764C46.3945 375.051 46.2244 373.747 46.6297 372.333C46.7898 371.776 47.055 371.249 47.2652 370.702C48.5261 367.392 47.7155 365.756 44.2179 364.818C40.1999 363.745 36.5171 365.004 32.9144 366.639C29.8772 367.903 26.8399 369.162 23.8126 370.431C22.8819 370.823 21.8461 371.339 21.1706 370.241C20.4901 369.137 21.4608 368.395 22.1764 367.758C24.7233 365.48 27.8456 364.116 30.7328 362.375C34.3405 360.529 39.1791 360.865 41.0105 355.869C41.9712 353.246 42.0413 352.478 39.2892 351.831C35.4714 350.928 31.7135 351.555 27.9707 352.378C24.5882 352.739 21.4158 353.928 18.1884 354.896C17.1776 355.197 16.0918 355.954 15.4213 354.545C14.8409 353.331 15.6665 352.458 16.5672 351.836C19.6145 349.744 23.1421 348.811 26.6197 347.763C26.9299 347.668 27.2302 347.542 27.5354 347.427C28.4561 347.221 29.617 347.607 30.1674 346.459C30.983 344.753 32.4591 343.625 33.705 342.29C34.6207 341.312 35.4563 340.279 35.8867 338.985C36.392 337.46 36.0518 336.296 34.3305 335.995C32.389 335.654 30.4476 335.032 28.4511 335.709C23.8526 335.684 19.3793 336.517 14.971 337.73C13.8702 338.031 12.7743 338.418 12.1789 337.118C11.5934 335.844 12.5542 335.027 13.4849 334.495C16.9325 332.519 20.8104 331.927 24.6432 331.239C26.3495 330.923 28.0958 330.783 29.8221 330.572Z" fill="#202124"/>
<circle cx="93.25" cy="305.322" r="2.25" fill="#202124"/>
<path d="M134.979 109.453C136.301 109.065 137.036 108.033 137.729 106.948C139.319 106.465 140.52 105.182 142.193 104.845C142.972 104.69 143.776 104.539 144.21 105.281C144.775 106.251 143.792 106.48 143.219 106.906C141.515 108.17 139.431 109.019 138.53 111.165C136.738 111.929 136.135 113.625 135.37 115.195C132.836 120.008 133.333 124.795 135.477 129.574C136.804 133.885 139.245 137.557 142.317 140.757C144.738 143.271 147.735 144.551 151.337 143.35C153.75 143.813 155.784 142.763 157.598 141.471C166.444 135.162 166.959 124.02 161.86 115.68C159.335 111.554 155.57 109.211 150.823 108.272C149.63 108.038 147.8 107.606 148.145 105.975C148.447 104.55 150.156 104.466 151.526 104.541C155.847 104.78 159.557 106.345 162.608 109.491C164.448 111.392 165.959 113.52 167.394 115.903C169.822 112.588 172.93 110.802 177.101 110.738C175.522 106.135 175.24 101.716 176.342 97.2486C177.559 92.3132 180.856 88.8514 184.554 85.6757C185.696 85.239 186.802 84.6144 187.982 84.4215C189.182 84.2269 190.515 84.4126 189.453 86.2592C184.092 88.8121 178.128 95.0813 179.369 103.484C180.288 109.699 183.21 114.936 187.161 119.652C190.005 123.044 193.752 123.936 197.98 123.097C203.76 121.952 206.98 118.245 209.154 112.894C213.288 102.705 208.05 91.2246 197.556 88.216C196.215 87.8314 194.786 87.6457 193.591 86.8185C193.198 85.2426 194.24 84.6382 195.411 84.1199C199.205 83.9109 202.597 85.2835 205.965 86.7737C209.94 90.638 213.352 94.8234 214.554 100.466C215.532 105.035 215.635 109.653 214.268 114.033C213.693 115.876 212.732 117.597 211.58 119.211C210.448 120.799 208.956 122.066 207.362 123.18C207.169 123.317 206.988 123.465 206.817 123.621C205.417 124.918 203.766 125.911 201.987 126.597C200.65 127.109 199.295 127.578 197.827 127.735C190.674 128.505 185.412 125.708 181.723 119.656C179.734 116.395 176.988 114.998 174.313 115.876C171.062 116.935 169.163 120.168 169.566 123.922C170.638 133.867 165.358 144.325 155.805 147.424C155.352 147.57 153.493 147.928 152.911 148.018C145.932 149.125 140.576 146.637 136.698 140.758C136.028 139.745 135.615 138.485 134.41 137.879C133.566 134.931 131.783 132.38 131.014 129.368C130.085 125.743 129.92 122.184 130.687 118.554C130.752 118.24 130.832 117.929 130.824 117.624C131.256 116.371 131.822 114.714 132.254 113.456C133.374 112.267 134.325 110.959 134.979 109.453Z" fill="#202124"/>
<path d="M350.5 265.072C350.5 265.072 318.442 187.235 269.5 212.685C295.119 213.329 319.118 225.325 334.981 245.416L350.5 265.072Z" fill="#202124"/>
<path d="M275.703 345.988C275.811 343.728 275.487 341.684 274.948 339.747C273.438 334.368 269.449 331.678 264.489 330.064C264.273 329.956 263.95 329.956 263.734 329.849C263.087 329.741 262.548 329.956 262.333 330.602C262.117 331.247 262.44 331.785 262.979 332.108C264.381 332.861 265.675 333.722 266.969 334.475C269.665 335.982 270.959 338.349 271.713 341.254C272.792 345.665 272.037 349.969 270.312 354.057C267.939 359.868 264.597 365.032 260.5 369.659C259.637 370.735 258.667 371.703 258.02 372.994C257.696 373.64 257.588 374.285 258.127 374.931C258.667 375.469 259.421 375.361 260.068 375.146C260.823 374.823 261.47 374.178 262.009 373.532C267.508 367.614 271.821 360.943 274.409 353.197C275.379 350.722 275.918 348.355 275.703 345.988Z" fill="#202124"/>
</g>
<defs>
<clipPath id="clip0_225_77832">
<rect width="386" height="394" fill="white"/>
</clipPath>
</defs>
</svg>
