<svg width="415" height="303" viewBox="0 0 415 303" fill="none" xmlns="http://www.w3.org/2000/svg">
<g clip-path="url(#clip0_225_78830)">
<path fill-rule="evenodd" clip-rule="evenodd" d="M392.237 62.05C388.45 57.325 383.8 53.6125 378.85 50.2375C374.05 48.3625 369.55 45.85 365.05 43.3375C360.775 40.825 356.987 37.7125 353.35 34.3375C351.7 32.8 350.575 30.925 349.562 28.9375C349.319 28.9375 349.066 28.9469 348.812 28.9563C348.559 28.9656 348.306 28.975 348.062 28.975C344.612 28.8625 341.387 29.575 338.612 31.7125L338.505 31.7935C337.584 32.4902 336.475 33.3284 338.387 34.375C338.65 34.525 339.137 34.975 338.762 35.4625C338.452 35.8762 338.231 35.6659 338.013 35.4586C337.915 35.3652 337.817 35.2724 337.712 35.2375C337.587 35.1956 337.473 35.107 337.357 35.0172C337.266 34.9463 337.174 34.8747 337.075 34.825C336.652 34.5911 336.229 34.3538 335.807 34.1165L335.807 34.1165L335.807 34.1162C331.965 31.9577 328.125 29.7997 323.462 30.1375C308.237 31.225 300.137 44.6875 306.887 58.45C308.687 62.125 311.162 65.425 314.35 68.2C312.96 68.0503 311.595 67.8397 310.24 67.6307L310.24 67.6307L310.24 67.6307L310.24 67.6307L310.24 67.6307L310.24 67.6306L310.239 67.6306L310.239 67.6306L310.239 67.6306L310.239 67.6306L310.239 67.6306C309.218 67.473 308.203 67.3164 307.187 67.1875C305.312 66.9625 304 66.2125 303.025 64.4125C301 60.7 294.812 57.8125 289.75 61.4125C287.912 62.725 286.487 64.45 285.25 66.3625C282.475 70.6375 282.475 79.4125 287.2 82.5625C288.812 83.65 288.962 84.5875 287.95 86.1625C287.479 86.8687 287.262 87.7364 287.046 88.6027C286.986 88.8406 286.927 89.0783 286.862 89.3125C285.737 93.2875 287.087 95.575 291.1 96.2875C292.075 96.475 292.112 96.625 291.925 97.525C290.837 102.363 289.862 107.237 290.162 112.262C290.575 119.5 294.4 123.812 301.562 124.637C302.912 124.787 303.137 125.2 302.8 126.363C302.687 126.7 302.612 127.075 302.575 127.45C302.125 132.137 302.125 132.138 297.512 131.425C295.3 131.088 293.087 130.75 290.875 130.45C290.012 130.3 289.037 130.375 288.775 131.463C288.518 132.675 289.449 133.024 290.333 133.355L290.387 133.375C290.5 133.412 290.621 133.45 290.743 133.487L290.744 133.488C290.866 133.525 290.987 133.562 291.1 133.6C296.125 135.1 301.225 135.812 306.437 135.475C308.65 135.325 310.187 135.475 310.787 137.95C310.958 138.667 311.323 139.313 311.698 139.979C312.147 140.775 312.611 141.599 312.775 142.6C311.746 142.368 311.216 141.665 310.744 141.039C310.683 140.957 310.623 140.877 310.562 140.8C310.112 140.2 309.812 140.238 309.175 140.463C300.325 143.95 293.462 155.088 297.212 165.438C298.15 167.988 299.462 170.275 300.962 172.45C301.012 172.519 301.064 172.589 301.117 172.659C301.467 173.123 301.836 173.612 301.412 174.1C301.065 174.474 300.717 174.219 300.383 173.974C300.249 173.876 300.116 173.779 299.987 173.725C298.751 173.163 297.551 172.526 296.352 171.889L296.352 171.889L296.352 171.889L296.352 171.888L296.352 171.888L296.351 171.888L296.351 171.888L296.35 171.888L296.35 171.887C295.6 171.475 294.962 171.438 294.175 172.038C289.675 175.525 285.887 179.612 283.6 184.9C281.237 190.412 282.812 195.475 285.962 200.125C287.486 202.395 289.556 204.189 291.625 205.982L291.625 205.982L291.625 205.982L291.625 205.982C292.153 206.44 292.681 206.897 293.2 207.363C293.5 207.588 293.912 207.925 293.687 208.262C293.392 208.779 292.916 208.461 292.579 208.236L292.562 208.225C291.325 207.363 290.05 206.688 288.662 206.125C285.85 212.613 286.825 219.663 292.637 224.312C301.412 231.25 311.687 231.925 320.05 222.175C321.04 220.987 321.667 219.672 322.301 218.341C322.508 217.907 322.716 217.471 322.937 217.038L322.954 217.004C323.176 216.56 323.44 216.031 324.025 216.25C324.592 216.45 324.447 216.887 324.303 217.324C324.285 217.379 324.267 217.433 324.25 217.488C323.95 218.425 323.678 219.372 323.406 220.319C323.134 221.266 322.862 222.212 322.562 223.15C322.3 223.938 322.262 224.425 323.125 224.95C330.1 229.037 337.637 231.888 345.625 231.85C353.237 231.812 359.612 228.137 364.112 221.575C366.887 217.525 369.212 213.212 371.387 208.825C371.405 208.786 371.424 208.745 371.442 208.705C371.652 208.235 371.898 207.687 372.587 207.962C373.272 208.256 372.993 208.804 372.786 209.213L372.786 209.213C372.767 209.25 372.749 209.285 372.732 209.319L372.715 209.356L372.7 209.387C371.875 211.188 371.312 213.1 370.75 215.387C382.487 212.875 390.362 206.65 392.95 194.462C393.776 195.713 394.603 196.946 395.425 198.171L395.426 198.173L395.427 198.173C398.67 203.008 401.822 207.706 404.425 212.762C407.05 217.9 409.337 223.262 410.012 228.962C412.187 247.15 407.162 263.05 393.925 276.025C390.887 278.987 387.587 281.65 384.212 284.238C382.562 285.475 381.062 286.9 379.787 288.513C379.15 289.3 378.812 290.237 379.6 291.062C380.306 291.804 381.111 291.415 381.86 291.055C381.907 291.032 381.954 291.01 382 290.987C382.231 290.872 382.418 290.734 382.611 290.591C382.669 290.549 382.727 290.506 382.787 290.462L383.029 290.275L383.03 290.275C387.26 287.001 391.452 283.757 395.462 280.225C413.237 264.475 420.1 236.613 409.412 214.225C405.587 206.163 400.6 198.85 395.312 191.762C392.8 188.35 391.6 184.675 390.812 180.663C390.587 179.425 390.85 178.562 391.712 177.663C397.187 171.963 400.937 165.25 402.775 157.562C404.425 150.7 404.237 143.988 400.187 137.8C398.504 135.185 396.893 132.516 395.279 129.843L395.278 129.842L395.277 129.84L395.277 129.84L395.277 129.84L395.277 129.84L395.277 129.84L395.277 129.84L395.277 129.839L395.277 129.839L395.277 129.839L395.277 129.839C394.554 128.642 393.83 127.444 393.1 126.25C393.049 126.178 392.986 126.101 392.921 126.022C392.647 125.69 392.331 125.308 392.725 124.975C393.222 124.544 393.632 124.934 394.005 125.289C394.054 125.335 394.102 125.382 394.15 125.425C394.318 125.593 394.493 125.758 394.668 125.923L394.668 125.923C395.08 126.311 395.496 126.703 395.837 127.15C396.887 128.537 397.525 128.012 398.237 126.85C401.012 122.35 402.512 117.438 403.112 112.225C403.225 111.175 403.075 110.125 402.85 109.075C401.8 103.938 398.237 100.562 394.675 97.1875C394.387 97.425 394.104 97.6667 393.821 97.9083C393.254 98.3917 392.687 98.875 392.087 99.325L392.057 99.3502C391.611 99.7227 391.025 100.212 390.475 99.625C390.119 99.2092 390.374 98.8169 390.626 98.4296L390.626 98.4295C390.692 98.3278 390.758 98.2264 390.812 98.125C391.289 97.3148 391.758 96.497 392.228 95.6776L392.228 95.6767L392.229 95.6758L392.229 95.6749L392.23 95.6739L392.231 95.673L392.231 95.6721L392.232 95.6712L392.232 95.6703L392.233 95.6694L392.233 95.6684L392.233 95.6684C393.24 93.9121 394.252 92.1487 395.35 90.4375C398.162 86.0875 398.65 81.175 398.425 76.3C398.162 70.9375 395.612 66.25 392.237 62.05ZM291.587 63.6625C295.112 62.0125 297.625 62.5 300.662 65.725C299.399 65.4092 298.174 65.2032 296.99 65.0041L296.99 65.0041L296.99 65.0041L296.99 65.0041L296.99 65.0041C295.081 64.6832 293.277 64.3799 291.587 63.6625ZM297.536 68.0002L297.536 68.0001C294.776 67.4603 291.768 66.872 289.712 66.25C288.925 66.025 288.625 66.25 288.175 66.8125C284.65 71.4625 286.112 78.55 290.05 81.5875C290.687 82.075 293.494 83.2765 293.981 82.639C294.41 82.0385 295.071 80.806 295.758 79.5234C296.572 78.0028 297.425 76.4118 297.974 75.7201C298.163 75.4831 302.014 68.8466 301.78 68.8703C300.592 68.5977 299.104 68.3068 297.536 68.0002ZM391.245 143.734C391.449 145.555 391.652 147.368 391.6 149.2C391.45 154.712 390.1 159.887 387.212 164.612C387.157 164.701 387.098 164.794 387.038 164.889C386.36 165.953 385.469 167.352 386.95 168.212C388.359 169.064 389.11 167.768 389.727 166.702C389.816 166.548 389.902 166.399 389.987 166.262C393.55 160.375 395.125 154 394.6 147.137C394.412 144.325 393.925 141.587 393.287 138.85C393.259 138.737 393.235 138.617 393.211 138.496L393.211 138.496L393.211 138.495C393.074 137.81 392.925 137.067 391.937 137.162C391.003 137.287 390.974 138.033 390.948 138.712C390.943 138.85 390.938 138.986 390.925 139.112C390.85 139.862 390.925 140.612 391 141.362C391.068 142.156 391.156 142.946 391.245 143.734ZM319.309 37.6069L319.401 37.6142L319.401 37.6142C320.226 37.679 320.932 37.7344 321.212 38.5751C321.475 39.4376 320.987 40.0751 320.275 40.4126L319.969 40.5547C317.409 41.7431 314.864 42.9248 312.7 44.8001C312.325 45.1001 311.875 45.0251 311.5 44.7251C310.975 44.3501 310.862 43.8251 311.012 43.2251C311.2 42.4001 311.725 41.8001 312.362 41.2376C314.387 39.4751 316.6 38.0126 319.225 37.6001L319.309 37.6069ZM378.054 53.9735C377.526 53.5829 376.954 53.1599 376.187 53.1251C375.812 53.0876 375.475 53.1626 375.325 53.5376C375.14 54.3131 375.683 54.6886 376.165 55.0222L376.187 55.0376C380.087 57.6251 383.387 60.8876 386.612 64.2626C386.648 64.3013 386.685 64.3415 386.723 64.3824C387.231 64.9357 387.867 65.6282 388.6 64.8251C389.293 64.0592 388.673 63.3997 388.121 62.8121L388.075 62.7626C385.075 59.5376 381.7 56.7251 378.175 54.0626C378.135 54.0333 378.095 54.0037 378.054 53.9739L378.054 53.9735ZM321.212 43.0376C321.31 43.0444 321.41 43.0499 321.511 43.0555L321.511 43.0555C322.527 43.1119 323.626 43.1729 323.762 44.5376C323.875 46.0001 322.637 46.3001 321.512 46.5251C320.05 46.8626 318.587 47.2001 317.125 47.4626C316.3 47.6126 315.4 47.6876 315.025 46.7501C314.612 45.7376 315.25 45.0626 316.037 44.6126C317.612 43.7126 319.3 43.1501 321.212 43.0376ZM381.625 175.525C381.587 176.125 381.775 176.5 382.412 176.538C383.387 176.575 385.45 174.55 385.487 173.613C385.487 172.863 385.037 172.825 384.512 172.788C383.35 172.75 381.7 174.363 381.625 175.525ZM393.325 69.7375C393.4 70.4125 392.95 70.6375 392.425 70.7125C391.637 70.7875 390.025 69.1 389.987 68.1625C389.95 67.4875 390.287 67.1125 391 67.1125C391.675 67.1125 393.287 68.9125 393.325 69.7375Z" fill="#202124"/>
<path d="M323.575 127.226C322.112 124.751 320.762 122.726 319.637 120.588C316.825 115.263 318.062 110.988 322.375 107.426C323.65 106.338 325.112 105.326 326.237 107.726C326.312 107.876 326.5 107.988 326.612 108.138C326.8 108.326 327.062 108.476 327.25 108.288C327.4 108.138 327.475 107.801 327.4 107.613C327.25 107.276 326.95 107.013 326.762 106.713C325 104.051 323.762 101.051 323.875 97.9382C324.1 93.0632 326.762 89.3132 330.512 86.3132C331.15 85.8257 331.825 85.6007 331.187 84.4382C330.55 83.2382 331.6 83.0882 332.462 83.3507C334.675 83.9507 336.85 84.0632 339.1 83.6882C343.262 83.0132 346.262 78.6632 345.287 74.5382C344.575 71.5757 341.05 69.4007 338.125 70.1507C334.862 70.9757 332.425 74.1257 332.35 77.6507C332.312 78.6257 332.05 79.4132 330.962 79.5257C329.987 79.6007 329.275 78.8507 329.425 78.0257C329.912 75.3257 328.262 74.9507 326.275 74.8382C325.675 74.8007 325.037 74.7257 324.437 74.5382C317.094 72.4194 309.256 70.6287 301.789 68.9903C301.837 68.899 295.562 79.7132 294.287 82.1132C293.012 84.5132 291.1 86.5757 290.125 89.1257C289.3 91.2632 290.275 92.6132 292.487 92.4257C293.35 92.3507 294.212 92.2007 295.075 92.0882C295.6 92.0132 296.2 91.7132 296.65 92.1257C297.212 92.6882 296.762 93.3632 296.5 93.8132C295.637 95.5007 295.262 97.3007 294.887 99.1382C294.362 101.838 293.65 104.538 293.687 107.463C295.562 106.826 296.837 105.626 298.187 104.538C298.9 103.976 299.725 103.526 300.512 104.426C301.225 105.251 300.662 105.963 300.062 106.563C298.525 108.176 296.687 109.338 294.662 110.201C294.1 110.426 293.537 110.576 293.387 111.363C292.937 113.688 294.737 118.263 296.762 119.276C299.237 120.513 301.937 121.001 304.712 120.663C308.35 120.213 311.462 118.338 314.8 117.063C315.587 116.763 316.562 116.126 317.087 117.176C317.5 118.038 317.237 119.051 316.187 119.688C314.087 121.001 312.137 122.801 309.85 123.588C307.3 124.488 306.475 126.213 305.687 128.388C304.412 131.913 304.375 131.801 308.162 131.726C309.662 131.688 310.3 131.163 310.825 129.813C312.062 126.588 314.237 124.263 317.725 123.326C318.775 123.026 319.262 123.326 319.862 124.076C320.8 125.163 321.362 126.776 323.575 127.226Z" fill="#DADCE0"/>
<path d="M337.862 97.5256C341.275 97.6006 344.425 94.7881 344.575 91.6006C344.687 88.9381 342.1 86.3506 339.212 86.2756C336.325 86.2006 332.687 89.6506 332.65 92.5381C332.575 95.1256 335.05 97.4506 337.862 97.5256Z" fill="#202124"/>
<path d="M99.0248 152.425C98.5748 153.175 98.1248 153.925 97.6373 154.6C97.3373 155.013 96.9248 155.388 96.3623 155.05C95.8748 154.75 95.6873 154.338 95.8748 153.775C96.0998 152.988 96.3623 152.238 96.5873 151.45C98.1248 148.113 99.0623 144.55 100.3 141.063C101.687 137.875 103.037 134.688 105.212 131.875C108.587 127.488 112.787 126.363 117.962 128.463C120.55 129.513 122.762 131.088 124.787 132.963C126.475 134.538 128.162 136.113 130.187 137.275C133.975 139.45 137.987 139.225 140.987 136.113C144.775 132.175 148.15 127.825 151.337 123.363C152.35 122.125 153.4 120.925 154.375 119.65C156.85 116.538 159.887 114.738 164.012 115.413C166.937 116.125 168.85 118.188 170.612 120.363C173.912 124.45 177.55 123.775 181.637 121.675C183.7 120.625 185.275 118.863 186.887 117.213C188.95 115.038 191.087 112.938 193.225 110.838C193.787 110.275 194.537 109.45 195.287 110.05C196.075 110.688 195.25 111.513 194.837 112.15C191.95 116.425 188.8 120.475 184.975 124C180.025 128.5 172.9 128.388 168.287 123.55C166.937 122.125 165.962 120.288 164.012 119.463C162.362 118.675 160.825 118.75 159.212 120.063C160.562 120.588 161.387 121.488 162.212 122.35C162.212 122.613 162.212 122.875 162.25 123.138L162.212 123.213H162.325C162.512 126.063 162.812 128.913 162.887 131.763C163.112 141.325 163.637 150.85 164.875 160.338C167.087 177.55 170.65 194.425 177.737 210.438C178.225 211.525 179.65 213.063 178.112 213.85C176.8 214.488 176.35 212.463 175.75 211.525C173.237 207.363 171.587 202.825 169.975 198.175C158.275 212.425 149.387 227.875 147.25 246.438C146.35 254.125 145.787 261.888 147.25 269.575C149.162 279.438 154.262 287.35 162.85 292.563C170.687 297.325 179.275 297.138 187.862 294.813C197.387 292.263 205.45 286.975 213.137 280.975C220.3 275.35 227.35 269.613 234.025 263.388C234.4 263.013 234.812 262.188 235.525 262.788C236.162 263.313 235.825 264.1 235.487 264.663C234.925 265.563 234.325 266.463 233.612 267.213C223.337 277.938 212.237 287.688 198.887 294.475C191.2 298.375 183.062 300.438 174.325 299.65C169 299.163 163.975 297.813 159.662 294.55C149.537 286.938 144.025 276.775 143.425 264.1C142.825 251.388 144.175 238.9 148.75 226.938C152.837 216.175 158.8 206.5 166.337 197.8C167.125 196.9 167.912 196 169.3 196.038C168.775 194.313 168.325 192.7 167.837 191.088C167.8 190.975 167.725 190.9 167.687 190.863C157.525 197.425 150.025 206.5 143.5 216.475C141.062 220.225 138.662 224.05 136.187 227.8C135.775 228.4 135.25 229.525 134.5 229.188C133.562 228.775 134.012 227.613 134.162 226.788C134.312 225.963 134.687 225.138 135.1 224.35C140.2 214.3 146.537 205.15 154.525 197.2C158.087 193.638 161.987 190.45 166.525 188.163C167.462 187.675 166.75 187.15 166.675 186.813C164.837 179.313 163.562 171.7 162.475 164.05C161.312 155.875 160.75 147.663 160.375 139.45C160.15 134.838 160.075 130.225 159.962 125.613C159.925 124.338 159.775 123.063 158.237 123.025C156.737 122.95 156.25 124.263 156.212 125.463C156.062 128.763 155.912 132.063 155.987 135.4C156.137 141.963 156.962 148.45 157.862 154.938C158.425 159.138 158.95 163.375 158.8 167.613C158.762 168.475 158.8 169.375 158.05 170.575C155.425 163.563 154.937 156.475 153.962 149.5C152.987 142.375 152.425 135.213 153.287 127.45C151.225 129.963 149.5 132.025 147.812 134.125C146.425 135.888 145.075 137.688 143.35 139.15C139.225 142.75 133.937 143.35 129.062 140.8C126.475 139.45 124.337 137.538 122.275 135.55C120.625 134.013 118.787 132.7 116.725 131.763C113.312 130.225 110.537 130.825 108.212 133.713C104.95 137.725 101.05 147.7 101.125 148C100.375 149.5 99.6998 150.963 99.0248 152.425Z" fill="#202124"/>
<path fill-rule="evenodd" clip-rule="evenodd" d="M372.7 1.71324C362.5 4.56324 356.238 15.1007 356.575 23.8382C358.127 25.1214 359.348 26.6901 360.566 28.2544C361.554 29.5245 362.541 30.7917 363.7 31.9007C369.1 37.0007 375.1 41.2007 381.475 44.9132C381.692 45.0479 381.916 45.1739 382.139 45.3001C382.725 45.6307 383.311 45.9621 383.8 46.4507C383.909 46.458 384.019 46.4666 384.13 46.4753L384.13 46.4753L384.13 46.4753C384.592 46.5116 385.064 46.5487 385.488 46.4882C397.562 44.4632 406.075 32.6132 404.312 21.9257C402.662 11.8382 395.2 4.30074 386.538 1.56324C382 0.100737 377.463 0.400737 372.7 1.71324ZM395.762 21.6257C396.512 21.8507 396.737 22.5257 396.7 23.3132C395.687 26.8757 394.225 30.2132 391.487 32.8007C390.887 33.3632 390.062 33.5132 389.425 32.9132C388.787 32.3507 389.087 31.6382 389.462 31.0382C389.656 30.7358 389.85 30.4335 390.045 30.1307C391.59 27.7293 393.155 25.2981 394.187 22.6007C394.412 21.9257 394.975 21.3632 395.762 21.6257ZM400.45 28.3008C400.487 27.2508 400.45 26.6133 399.7 26.3508C399.062 26.1258 398.462 26.3133 398.087 26.9133L398.087 26.9134C396.737 28.9384 395.387 30.9634 394.112 33.0258L394.081 33.0769C393.783 33.5597 393.383 34.2064 393.962 34.7133C394.6 35.3133 395.387 35.1633 396.062 34.7508C398.575 33.1758 399.737 30.6633 400.45 28.3008ZM391.45 36.8132C392.35 36.7007 393.025 37.0757 393.1 38.2007C392.875 39.2132 392.425 40.1507 391.113 40.2632C390.175 40.3007 389.538 39.8882 389.5 38.8757C389.463 37.6007 390.288 36.9632 391.45 36.8132Z" fill="#202124"/>
<path d="M294.175 143.238C295.15 143.238 295.975 143.351 296.275 144.176C296.612 145.113 295.975 145.751 295.262 146.163C294.175 146.726 293.012 147.251 291.85 147.663C268.375 155.988 248.125 169.301 231.025 187.376C217.862 201.251 205.937 216.176 194.537 231.513C191.2 236.013 187.9 240.588 184.562 245.088C184.225 245.538 183.925 246.026 183.512 246.401C183.025 246.926 182.387 247.263 181.675 246.851C180.925 246.401 180.737 245.688 181 244.901C181.525 243.401 182.35 242.088 183.25 240.813C189.7 231.401 196.375 222.138 203.462 213.138C213.925 199.901 224.65 186.888 237.175 175.488C252.025 161.988 268.825 151.638 287.725 144.851C289.862 144.138 292.075 143.576 294.175 143.238Z" fill="#202124"/>
<path d="M83.8747 247.825C69.8122 247.113 56.2372 247.188 42.6247 247.863C41.4997 247.9 40.3747 247.863 39.2497 247.75C38.4247 247.638 37.6372 247.263 37.6372 246.25C37.6747 245.125 38.4622 244.825 39.4372 244.788C47.8372 244.338 56.2372 243.438 64.6747 243.588C82.6372 243.888 100.637 244.188 118.6 244.525C120.55 244.563 122.462 244.713 124.375 244.938C125.725 245.088 126.025 244.713 125.987 243.325C125.575 227.238 125.237 211.113 125.462 194.988C125.5 191.538 125.65 188.125 125.8 184.675C125.8 184.188 125.912 183.7 126.062 183.213C126.287 182.425 126.812 181.863 127.675 181.9C128.575 181.975 129.137 182.575 129.212 183.513C129.325 185.2 129.437 186.888 129.4 188.575C128.875 204.325 129.287 220.038 129.55 235.788C129.587 239.013 129.512 242.275 129.287 245.538C129.1 248.313 128.537 248.763 125.762 248.688C113.462 248.425 101.162 248.125 88.8622 247.863C87.0622 247.788 85.2622 247.825 83.8747 247.825Z" fill="#202124"/>
<path d="M232.75 53.2005C241.187 53.0505 249.587 52.3755 258.025 52.5255C258.887 52.5255 259.75 52.488 260.612 52.788C262.375 53.3505 263.2 54.363 263.162 56.3505C262.862 65.9505 263.35 75.588 262.637 85.1505C262.6 85.4505 262.637 85.788 262.562 86.088C262.375 86.8755 262 87.513 261.1 87.513C260.2 87.513 259.75 86.838 259.675 86.0505C259.487 84.363 259.375 82.6755 259.337 81.0255C259.225 73.338 259.075 65.688 259.487 58.0005C259.562 56.613 259.225 56.2005 257.762 56.238C247.525 56.5005 237.287 56.613 227.087 56.8755C220.337 57.063 213.625 56.8755 206.875 56.3505C205.487 56.238 205.187 56.5755 205.3 57.9255C206.012 66.4755 205.562 75.0255 205.825 83.5755C205.825 84.063 205.787 84.588 205.787 85.0755C205.712 86.238 205.6 87.6255 204.175 87.6255C202.6 87.6255 202.562 86.1255 202.525 84.963C202.45 83.388 202.45 81.8505 202.45 80.2755C202.375 72.288 202.3 64.3005 202.187 56.313C202.15 54.4755 202.712 53.6505 204.737 53.538C213.175 53.0505 221.575 53.5755 230.012 53.238C230.875 53.163 231.812 53.2005 232.75 53.2005Z" fill="#202124"/>
<path d="M144.85 100.714C127.45 100.301 110.05 101.351 92.6124 101.314C91.1124 101.314 89.6124 101.501 88.1499 101.614C87.3999 101.651 86.6499 101.464 86.5374 100.676C86.4249 99.9261 87.0624 99.5136 87.8124 99.3261C91.6749 98.4261 95.6124 98.4636 99.5124 98.3511C130.525 97.4136 161.537 97.4511 192.55 98.2011C194.537 98.2386 196.525 98.1636 198.55 98.1261C199.6 98.1261 200.95 97.9761 200.95 99.4386C200.95 100.826 199.637 100.864 198.55 100.864C187.112 101.051 175.712 100.826 164.275 100.714C157.825 100.676 151.337 100.714 144.85 100.714Z" fill="#202124"/>
<path fill-rule="evenodd" clip-rule="evenodd" d="M239.95 62.9133C246.288 62.9508 250.6 67.0008 250.563 72.9633C250.525 79.0383 244.975 84.4383 238.75 84.3633C233.2 84.3258 229.113 79.6008 229.188 73.3758C229.3 67.3008 233.8 62.8758 239.95 62.9133ZM234.025 71.2383C234.033 71.3178 234.031 71.409 234.029 71.505C234.02 71.8616 234.01 72.2826 234.513 72.4008C235.075 72.5133 235.413 72.0258 235.638 71.5758C236.688 69.7758 237.813 68.0883 239.913 67.3008C240.02 67.2626 240.144 67.2337 240.271 67.204C240.77 67.0881 241.322 66.9598 241.113 66.2133C240.888 65.3883 240.138 65.1633 239.275 65.2758C236.838 65.6133 234.1 68.6508 234.025 71.2383ZM232.75 75.5509C232.788 74.8384 233.275 74.3134 234.138 74.2759C234.963 74.3884 235.075 75.1384 235.113 75.8134C235.113 76.5259 234.775 77.2384 233.95 77.1634C233.088 77.0884 232.675 76.3384 232.75 75.5509Z" fill="#FAE041"/>
<path fill-rule="evenodd" clip-rule="evenodd" d="M98.7617 229.114C98.7711 227.398 98.7781 225.683 98.7852 223.967C98.8063 218.82 98.8273 213.673 98.9117 208.526C98.9367 206.701 99.0284 204.876 99.1201 203.051C99.1659 202.139 99.2117 201.226 99.2492 200.314C99.2867 199.301 99.5117 198.664 100.749 198.701C103.749 198.776 106.749 198.814 109.712 198.364C110.687 198.214 111.062 198.551 111.249 199.601C112.139 204.812 111.979 210.023 111.818 215.256C111.789 216.2 111.76 217.144 111.737 218.089C111.722 218.842 111.705 219.596 111.688 220.349C111.623 223.344 111.557 226.335 111.587 229.301C111.27 229.307 110.955 229.313 110.639 229.318L110.634 229.318H110.634C106.649 229.39 102.722 229.461 98.7617 229.114ZM103.678 213.615V213.614C103.685 212.284 103.695 210.566 103.637 208.826C103.599 207.926 103.524 206.689 102.362 206.651C101.182 206.578 101.09 207.736 101.015 208.666L101.012 208.714C100.766 212.119 100.973 215.525 101.179 218.931C101.225 219.688 101.271 220.444 101.312 221.201C101.333 221.611 101.333 222.026 101.334 222.443C101.335 223.516 101.336 224.6 101.687 225.626L101.7 225.67C101.884 226.259 102.083 226.898 102.924 226.751C103.599 226.601 103.712 226.039 103.712 225.439C103.731 224.578 103.773 223.722 103.815 222.854C103.937 220.358 104.064 217.765 103.674 214.676C103.674 214.362 103.676 214.005 103.678 213.615ZM103.524 202.414C103.487 203.201 103.149 203.839 102.249 203.951C101.424 203.689 101.049 203.126 101.087 202.301C101.087 201.551 101.424 200.951 102.249 200.951C103.149 200.951 103.524 201.626 103.524 202.414Z" fill="#FAE041"/>
<path d="M237.85 295.975C238.975 276.55 240.475 257.163 244.337 238C245.65 231.513 246.737 224.988 247.975 218.5C248.162 217.525 248.462 216.588 248.8 215.613C249.025 214.975 249.437 214.525 250.225 214.713C250.937 214.9 251.012 215.463 250.975 216.025C250.562 219.625 250.262 223.225 249.737 226.788C248.05 238.375 245.762 249.888 244.412 261.55C243.437 269.913 242.95 278.35 242.425 286.75C242.237 289.6 241.975 292.488 241.787 295.338C241.712 296.763 241 297.963 240.4 299.163C239.837 300.288 238.937 300.25 238.3 299.2C237.7 298.225 237.737 297.1 237.85 295.975Z" fill="#202124"/>
<path fill-rule="evenodd" clip-rule="evenodd" d="M53.0867 230.462C53.0042 229.27 52.9202 228.077 52.8362 226.885C52.5002 222.115 52.1642 217.345 51.9242 212.575C51.7367 209.162 52.1492 208.675 55.5617 208.262C57.6925 207.984 59.8376 207.821 61.9882 207.657C63.3197 207.556 64.6532 207.454 65.9867 207.325C67.7117 207.175 68.3867 207.85 68.4992 209.65C68.7992 215.912 69.2117 222.212 69.6242 228.475C69.6492 228.75 69.7409 229.025 69.8326 229.3C69.8784 229.437 69.9242 229.575 69.9617 229.712C67.1962 229.841 64.4485 229.96 61.7057 230.079C58.8325 230.204 55.9645 230.328 53.0867 230.462ZM58.3763 220.872V220.872C58.4039 219.547 58.432 218.201 57.8867 216.887C57.6992 216.4 57.4367 215.762 56.7617 215.762C56.0867 215.8 55.8617 216.437 55.7492 216.925C55.0367 220.525 55.4117 224.087 56.0492 227.612C56.1617 228.25 56.6117 228.812 57.3242 228.737C58.1492 228.625 58.3742 227.95 58.3742 227.2C58.4117 225.85 58.4117 224.425 58.4117 222.887V222.887C58.3481 222.226 58.3622 221.552 58.3763 220.872ZM57.2867 211.863C57.3617 212.538 57.1742 213.1 56.4242 213.25C55.6367 213.175 55.3367 212.763 55.2992 212.05C55.2992 211.375 55.4492 210.738 56.1992 210.663C56.9867 210.588 57.2117 211.225 57.2867 211.863Z" fill="#FAE041"/>
<path d="M79.5246 183.775C70.4871 183.888 61.4121 183.85 52.3746 183.475C47.0496 183.25 41.7621 183.738 36.4746 183.963C35.1621 184 33.8496 184.038 32.5371 184.038C32.1246 184.038 31.4871 184.075 31.4496 183.588C31.4121 183.138 31.7496 182.65 32.2371 182.425C32.4996 182.313 32.8371 182.275 33.1371 182.2C37.5621 181.15 42.0621 180.4 46.5621 180.438C69.0246 180.738 91.5246 179.65 113.987 179.988C116.237 180.025 118.487 180.213 120.737 180.363C121.037 180.363 121.375 180.4 121.675 180.475C122.762 180.813 124.262 180.888 124.037 182.538C123.812 184.038 122.462 183.888 121.337 183.85C120.287 183.85 119.2 183.775 118.15 183.7C105.25 182.913 92.3871 183.738 79.5246 183.775Z" fill="#202124"/>
<path d="M374.95 301.001C375.025 302.013 374.987 302.613 374.237 302.876C373.487 303.101 372.85 302.876 372.4 302.276C371.725 301.376 371.425 300.251 371.162 299.163C369.287 291.213 368.125 283.113 367.112 275.013C365.237 259.901 364.262 244.713 364.375 229.488C364.375 228.438 364.45 227.351 364.6 226.338C364.712 225.551 364.9 224.613 366.025 224.763C366.962 224.913 367.037 225.701 367.075 226.488C367.225 230.238 367.412 233.951 367.525 237.701C368.275 257.913 370.375 277.976 374.35 297.851C374.65 299.013 374.8 300.176 374.95 301.001Z" fill="#202124"/>
<path fill-rule="evenodd" clip-rule="evenodd" d="M356.574 23.8379C358.123 25.1178 359.341 26.6819 360.562 28.2485C361.559 29.5277 362.557 30.8085 363.737 31.9379C369.099 37.0379 375.137 41.2379 381.512 44.9504C381.651 45.0302 381.794 45.1089 381.937 45.1881C382.599 45.5551 383.282 45.9327 383.837 46.4879C383.574 49.0754 382.674 49.7879 378.887 50.2754C374.087 48.4004 369.587 45.8879 365.124 43.3004C360.849 40.7879 357.062 37.6754 353.424 34.3004C351.737 32.7629 350.649 30.8504 349.637 28.9004C349.787 25.3379 351.737 23.6504 355.337 23.9879C355.55 23.9879 355.775 23.9516 356.012 23.9134C356.192 23.8843 356.38 23.8541 356.574 23.8379ZM359.912 32.5379C359.912 31.7504 356.837 27.7004 356.162 27.4754C355.149 27.1379 354.099 27.8879 354.062 28.9754C353.987 30.4379 356.837 33.7379 358.262 33.8129C359.199 33.8504 359.799 33.4004 359.912 32.5379ZM361.674 33.963C362.799 33.813 363.324 34.6005 363.549 35.5755C363.474 36.663 362.912 37.413 361.824 37.488C360.737 37.5255 360.099 36.7755 360.062 35.7255C360.062 34.713 360.737 34.0755 361.674 33.963Z" fill="white"/>
<path d="M53.087 230.463C58.6745 230.201 64.2995 229.976 69.887 229.713C72.3995 229.788 74.912 229.676 77.4245 229.451C82.2995 229.376 87.137 229.301 92.012 229.263C94.262 229.338 96.512 229.413 98.7245 229.113C103 229.488 107.237 229.376 111.512 229.301C111.775 229.338 112 229.376 112.262 229.451C113.275 229.751 114.212 230.276 114.062 231.476C113.875 232.713 112.9 233.126 111.7 233.088C109.637 233.051 107.575 233.051 105.512 233.088C92.162 233.238 78.812 233.351 65.462 233.613C59.537 233.726 53.612 234.138 47.687 234.401C47.1245 234.438 46.562 234.476 45.9995 234.438C44.987 234.401 43.8245 234.251 43.7495 232.976C43.6745 231.663 44.837 231.438 45.8495 231.326C48.287 231.026 50.687 230.763 53.087 230.463Z" fill="#202124"/>
<path fill-rule="evenodd" clip-rule="evenodd" d="M155.687 82.3754C155.762 80.0129 153.625 78.4379 150.325 78.3629C146.462 78.2879 138.737 78.1379 138.737 77.9879C137.811 77.9879 136.882 77.9856 135.952 77.9832C133.153 77.9762 130.339 77.9691 127.525 78.0254C124.975 78.0629 122.425 78.3629 120.025 79.3379C116.725 80.6879 116.2 84.1754 118.937 86.4629C120.587 87.8504 122.575 88.1129 124.562 88.0754C130.637 88.0191 136.712 87.8996 142.787 87.7801C144.812 87.7402 146.837 87.7004 148.862 87.6629C149.189 87.6629 149.517 87.6072 149.85 87.5504C150.128 87.503 150.41 87.4549 150.7 87.4379C154.187 87.2504 155.612 84.5504 155.687 82.3754ZM150.072 81.3322C150.985 81.3625 151.915 81.3934 152.65 82.3378C150.395 83.5005 148.073 83.637 145.748 83.7736C145.599 83.7824 145.449 83.7912 145.3 83.8003C144.409 83.8514 143.519 83.905 142.628 83.9585C135.681 84.3763 128.734 84.794 121.787 84.0628C121.646 84.0461 121.493 84.048 121.339 84.0498C120.802 84.0563 120.254 84.0629 120.137 83.2753C119.995 82.2786 120.799 82.059 121.458 81.8789C121.493 81.8693 121.528 81.8598 121.562 81.8503C125.073 80.7777 128.695 80.8038 132.309 80.8298C132.865 80.8338 133.42 80.8378 133.975 80.8378C137.783 80.811 141.572 80.9759 145.356 81.1407C146.863 81.2063 148.369 81.2719 149.875 81.3253C149.94 81.3278 150.006 81.33 150.072 81.3322Z" fill="#202124"/>
<path fill-rule="evenodd" clip-rule="evenodd" d="M19.8133 265.248C19.0046 265.293 18.1957 265.338 17.3868 265.376C13.5243 265.376 9.66185 265.376 5.87435 265.413C4.86185 265.413 3.84935 265.563 2.94935 265.976C1.48685 266.613 0.361848 267.701 0.399348 269.351C0.399348 270.926 0.999348 272.313 2.49935 273.213C4.11185 274.188 5.83685 274.751 7.74935 274.751C13.8618 274.713 19.9368 274.863 26.0493 275.163C28.5993 275.276 31.1493 275.351 33.6993 274.901C36.8118 274.338 38.7993 272.576 38.8743 270.401C38.9493 267.926 37.4493 266.501 33.9618 265.751C29.2848 264.726 24.553 264.987 19.8133 265.248ZM6.09939 270.288C5.16189 270.101 4.26189 269.913 3.43689 269.426C3.96286 268.444 4.78392 268.413 5.59348 268.382C5.64971 268.38 5.70588 268.378 5.76189 268.376C7.8679 268.316 9.97129 268.231 12.0735 268.146C17.9442 267.907 23.8054 267.669 29.6869 268.001C31.3744 268.113 33.0244 268.413 34.6369 268.901L34.6496 268.904C35.2848 269.091 36.0609 269.319 35.9119 270.251C35.8213 270.976 35.3168 270.995 34.8105 271.014C34.6883 271.019 34.566 271.024 34.4494 271.038C29.2369 271.713 23.9869 271.488 18.7744 271.226C17.8674 271.186 16.9604 271.156 16.0538 271.126C12.7247 271.017 9.40044 270.907 6.09939 270.288Z" fill="#202124"/>
<path fill-rule="evenodd" clip-rule="evenodd" d="M92.05 229.263L91.8324 229.266C87.031 229.34 82.265 229.414 77.4625 229.451C76.9 225.513 76.375 221.538 76.3 217.563C76.2625 214.976 77.125 213.888 79.5625 213.326C82.675 212.576 85.825 212.351 89.0125 212.238C90.625 212.201 91.3 212.763 91.375 214.526C91.45 216.151 91.4625 217.786 91.475 219.424C91.5 222.698 91.5251 225.989 92.05 229.263ZM79.3 224.688C79.225 225.588 79.45 226.413 79.7125 227.238C79.8625 227.763 80.125 228.213 80.6875 228.176C81.2875 228.138 81.5125 227.688 81.55 227.163C81.581 226.947 81.6176 226.727 81.6544 226.507C81.7515 225.925 81.85 225.334 81.85 224.763L81.8516 224.71C81.8893 223.476 81.9417 221.763 80.5 221.763C79.3699 221.795 79.3435 223.035 79.3209 224.098V224.098C79.3165 224.305 79.3122 224.505 79.3 224.688ZM81.7375 217.038C81.85 217.826 81.5125 218.388 80.6875 218.538C79.825 218.501 79.45 217.901 79.4125 217.151C79.4125 216.476 79.675 215.688 80.5 215.651C81.325 215.613 81.625 216.363 81.7375 217.038Z" fill="#FAE041"/>
<path d="M202.787 134.163C203.312 123.363 203.2 112.6 202.337 101.838C202.262 100.825 202.337 99.6253 203.575 99.4753C204.812 99.3253 204.962 100.563 205.075 101.463C205.825 106.638 206.2 111.888 206.275 117.1C206.5 130.825 206.425 144.55 205.562 158.238C205.525 158.538 205.562 158.875 205.487 159.175C205.3 160.038 205.075 161.013 203.95 160.975C202.862 160.9 202.562 160.038 202.562 159.1C202.6 156.963 202.712 154.863 202.712 152.725C202.787 146.538 202.787 140.35 202.787 134.163Z" fill="#202124"/>
<path d="M106.712 165.551C113.2 165.813 119.687 165.288 126.175 165.438C128.35 165.476 130.562 165.438 132.587 166.451C133.112 166.713 133.975 166.788 133.937 167.538C133.9 168.288 133.037 168.213 132.475 168.401C129.325 169.413 126.062 169.263 122.837 169.376C110.35 169.901 97.8624 169.038 85.3749 169.076C84.0999 169.076 82.3374 169.113 82.2999 167.388C82.2624 165.551 84.0624 165.776 85.3374 165.776C92.4999 165.588 99.5874 165.138 106.712 165.551Z" fill="#202124"/>
<path d="M30.9995 216.626C30.9995 207.964 30.9995 199.264 30.9995 190.601C30.9995 189.964 30.962 189.364 31.262 188.764C31.5995 188.089 32.087 187.639 32.837 187.676C33.587 187.714 34.112 188.126 34.412 188.839C34.712 189.626 34.6745 190.451 34.6745 191.239C34.637 200.839 34.487 210.476 34.562 220.076C34.5995 228.214 33.962 236.389 33.6245 244.526C33.6245 244.789 33.662 245.051 33.5495 245.276C33.3245 245.764 33.5495 246.551 32.8745 246.664C31.9745 246.814 31.9745 245.914 31.8245 245.426C31.262 243.551 31.262 241.639 31.2245 239.689C31.187 232.001 31.2245 224.351 31.2245 216.664C31.112 216.626 31.037 216.626 30.9995 216.626Z" fill="#202124"/>
<path d="M80.3497 131.913C80.3497 121.976 80.8372 112.076 81.5122 102.176C81.5497 101.613 81.6247 101.051 81.9247 100.563C82.2247 100.038 82.6372 99.6631 83.2747 99.7381C83.9122 99.8131 84.2872 100.301 84.3997 100.826C84.5122 101.351 84.5497 101.951 84.5122 102.476C83.3497 121.751 83.3872 141.026 83.1997 160.301C83.1997 160.376 83.1997 160.413 83.1997 160.488C83.0122 161.388 83.4247 162.851 82.0372 162.851C80.8372 162.851 80.7997 161.501 80.7622 160.488C80.1997 151.001 80.3497 141.476 80.3497 131.913Z" fill="#202124"/>
<path d="M215.012 93.1753C216.137 91.9753 217.637 91.7128 219.062 91.5628C229.712 90.2878 240.437 90.6628 251.125 91.0753C253.112 91.1503 255.1 91.1128 257.012 91.8253C257.462 92.0128 258.025 92.0878 258.025 92.7253C258.025 93.4753 257.35 93.4003 256.937 93.4378C255.1 93.7003 253.262 93.9253 251.387 94.0753C245.875 94.5253 240.325 94.6003 234.775 94.5253C229.412 94.4503 224.05 94.4503 218.687 94.4128C217.375 94.4128 215.95 94.5253 215.012 93.1753Z" fill="#202124"/>
<path d="M181.9 166.488C178.112 166.488 174.287 166.488 170.5 166.488C169.9 166.488 169.225 166.488 168.662 166.263C167.95 166 167.275 165.55 167.387 164.65C167.5 163.788 168.1 163.413 168.962 163.338C171.4 163.188 173.8 162.925 176.237 162.85C184.337 162.625 192.4 161.838 200.5 161.875C201.475 161.875 202.487 161.8 203.462 162.138C204.062 162.363 204.7 162.663 204.7 163.375C204.7 164.05 204.1 164.388 203.462 164.613C201.887 165.138 200.275 165.138 198.662 165.25C193.075 165.663 187.487 165.925 181.862 166.225C181.9 166.338 181.9 166.413 181.9 166.488Z" fill="#202124"/>
<path fill-rule="evenodd" clip-rule="evenodd" d="M127.09 74.2413C127.683 74.2801 128.277 74.319 128.875 74.3516C128.875 74.3328 128.875 74.3235 128.88 74.3188C128.884 74.3141 128.894 74.3141 128.912 74.3141C129.439 74.3141 129.961 74.3099 130.482 74.3057C131.519 74.2974 132.551 74.2891 133.6 74.3141C136.712 74.3891 138.437 72.4391 139.75 69.9641C140.35 68.8016 139.975 67.8266 139 67.0016C138.362 66.4766 137.612 66.1766 136.787 66.0641C133.56 65.5641 130.374 65.8905 127.188 66.2169C125.117 66.4291 123.045 66.6414 120.962 66.6266C119.987 66.5891 119.087 67.1891 118.412 68.0141C117.325 69.3266 117.25 71.0516 118.45 72.0266C118.509 72.0732 118.568 72.1199 118.627 72.1667C119.807 73.0995 121.011 74.0516 122.725 74.0516C124.19 74.0516 125.636 74.1462 127.09 74.2413ZM129.6 70.6709C128.242 70.7921 126.858 70.9157 125.425 71.0515C125.33 71.0477 125.233 71.0439 125.133 71.04C124.253 71.0056 123.215 70.9651 122.237 70.864C122.215 70.8614 122.193 70.8588 122.17 70.8562C121.544 70.7831 120.771 70.6932 120.662 70.114C120.55 69.5498 121.031 69.3888 121.5 69.2319C121.654 69.1803 121.807 69.129 121.937 69.064C122.917 68.5876 123.97 68.5595 125.02 68.5315C125.458 68.5198 125.894 68.5081 126.325 68.464C126.739 68.4235 127.155 68.3804 127.571 68.3371C130.239 68.0597 132.932 67.7797 135.625 68.2015C135.769 68.2255 135.931 68.2359 136.095 68.2464C136.701 68.2852 137.35 68.3268 137.35 69.064C137.312 69.8515 136.262 70.039 135.55 70.114C133.577 70.3157 131.618 70.4907 129.6 70.6709Z" fill="#202124"/>
<path d="M163.975 115.488C159.85 114.813 156.813 116.576 154.338 119.726C153.363 120.963 152.313 122.201 151.3 123.438C150.438 122.126 150.025 120.588 149.8 119.088C149.238 114.888 152.65 111.213 157.15 111.026C161.275 110.838 163 111.963 163.975 115.488Z" fill="#20BEFF"/>
<path d="M147.062 147.438C147.099 146.426 146.799 145.001 147.399 143.613C147.662 143.013 148.149 142.526 148.824 142.638C149.499 142.751 149.762 143.276 149.762 144.026C149.724 150.963 151.449 157.563 153.212 164.201C153.362 164.726 153.437 165.288 153.587 165.851C153.812 166.826 154.149 168.176 153.099 168.476C152.124 168.738 151.599 167.388 151.224 166.488C148.787 160.526 147.137 154.376 147.062 147.438Z" fill="#202124"/>
<path d="M45.9619 177.737C41.9869 177.737 39.0994 177.737 36.2494 177.737C35.5744 177.737 34.8244 177.775 34.7119 176.837C34.5619 175.787 35.3494 175.6 36.0619 175.487C41.8369 174.437 47.6494 174.025 53.4994 173.65C54.7369 173.575 55.8619 174.062 55.8994 175.45C55.9369 176.912 54.8494 177.4 53.4994 177.437C50.6119 177.512 47.7619 177.662 45.9619 177.737Z" fill="#202124"/>
<path d="M142.637 153.663C143.612 153.738 143.987 154.263 144.175 154.976C145.487 160.376 147.7 165.438 149.762 170.576C150.062 171.326 150.437 172.226 149.575 172.751C148.637 173.276 147.925 172.601 147.362 171.888C146.312 170.613 145.787 169.076 145.187 167.576C143.687 163.826 142.225 160.038 141.662 156.026C141.475 154.976 141.587 154.076 142.637 153.663Z" fill="#202124"/>
<path d="M216.475 99.5883C219.325 97.7883 222.55 98.2383 225.55 97.9758C228.7 97.7133 231.887 97.9008 235.075 97.9008C235.862 97.9008 236.912 97.7508 236.987 98.8758C237.062 100.076 236.162 100.638 235.075 100.676C231.212 100.901 227.35 100.901 223.525 100.751C221.912 100.713 220.3 100.601 218.687 100.563C217.825 100.526 217.075 100.413 216.475 99.5883Z" fill="#202124"/>
<path fill-rule="evenodd" clip-rule="evenodd" d="M213.588 75.1753C213.625 77.5003 215.575 79.1503 218.313 79.1128C220.45 79.1128 222.1 77.4628 222.1 75.3628C222.138 73.0753 220 71.2753 217.413 71.3878C215.275 71.4628 213.55 73.1503 213.588 75.1753ZM217.887 74.2126C217.915 74.3127 217.943 74.4103 217.975 74.5002C217.863 75.3627 217.563 76.0002 216.738 75.9627C215.988 75.9252 215.575 75.3627 215.65 74.5377C215.725 73.7877 216.025 73.1877 216.85 73.1877C217.596 73.1877 217.749 73.7285 217.887 74.2126Z" fill="#FAE041"/>
<path d="M145.75 177.25C145.675 177.738 145.75 178.188 145.262 178.488C144.737 178.825 144.287 178.6 143.875 178.375C143.162 177.963 142.75 177.213 142.337 176.5C140.912 173.95 139.862 171.213 138.962 168.438C138.737 167.763 138.437 166.863 139.3 166.45C140.312 165.963 140.762 166.825 141.1 167.538C142.525 170.425 143.95 173.313 145.375 176.238C145.6 176.613 145.675 176.988 145.75 177.25Z" fill="#202124"/>
<path d="M100.3 141.101C99.0996 144.551 98.1246 148.113 96.5871 151.488C94.8996 149.726 93.6621 147.776 94.5621 145.301C95.4621 142.601 97.6746 141.513 100.3 141.101Z" fill="#20BEFF"/>
<path d="M39.212 170.201C37.9745 170.126 36.062 170.463 35.987 168.963C35.912 167.613 37.787 167.651 39.0245 167.463C39.212 167.426 39.3995 167.388 39.587 167.388C40.787 167.313 42.0995 167.388 42.137 168.888C42.1745 170.351 40.8995 170.313 39.812 170.238C39.587 170.201 39.3995 170.201 39.212 170.201Z" fill="#202124"/>
<path d="M218.762 105.138C220.3 103.638 222.062 104.275 223.75 104.238C224.237 104.238 224.387 104.538 224.35 104.988C224.275 105.738 223.9 106.338 223.187 106.488C221.5 106.9 219.962 106.713 218.762 105.138Z" fill="#202124"/>
<path d="M162.175 122.388C161.312 121.525 160.487 120.588 159.175 120.1C160.787 118.788 162.325 118.713 163.975 119.5C163.487 120.513 163.262 121.713 162.175 122.388Z" fill="#20BEFF"/>
<path d="M162.249 123.25H162.137L162.174 123.175H162.287L162.249 123.25Z" fill="#20BEFF"/>
<path d="M337.862 97.5256C335.049 97.4506 332.612 95.1256 332.649 92.5381C332.687 89.6506 336.324 86.2006 339.212 86.2756C342.099 86.3506 344.687 88.9381 344.574 91.6006C344.424 94.7881 341.237 97.6006 337.862 97.5256Z" fill="white"/>
<path d="M359.912 32.5377C359.799 33.4002 359.237 33.8877 358.262 33.8127C356.837 33.7002 353.987 30.4377 354.062 28.9752C354.099 27.8877 355.149 27.1377 356.162 27.4752C356.837 27.7002 359.912 31.7502 359.912 32.5377Z" fill="white"/>
<path d="M363.55 35.5758C363.475 36.6633 362.912 37.4133 361.825 37.4508C360.737 37.4883 360.1 36.7383 360.062 35.6883C360.025 34.6758 360.7 34.0383 361.675 33.9258C362.8 33.8133 363.325 34.6008 363.55 35.5758Z" fill="white"/>
<path d="M25.1498 255.138C28.0748 255.363 30.5498 255.475 33.0248 255.813C33.9248 255.925 35.4248 256.113 35.3873 257.125C35.3498 258.025 33.9248 257.95 32.9873 257.988C28.6748 258.175 24.4373 257.575 20.1623 257.088C19.5623 257.013 18.5873 256.825 18.6623 256C18.6998 255.325 19.5623 255.363 20.1623 255.288C21.9998 255.063 23.7998 254.875 25.1498 255.138Z" fill="#202124"/>
<path d="M307.15 77.8003C305.35 77.3878 303.962 78.4378 302.575 79.3753C301.937 79.8253 301.225 80.3128 300.625 79.5253C300.137 78.8878 300.4 78.1378 300.887 77.4628C302.65 75.1003 306.437 74.0128 309.137 75.0628C309.887 75.3628 310.15 75.9253 310.037 76.6753C309.925 77.3878 309.55 77.8003 308.837 77.8378C308.275 77.9128 307.712 77.8378 307.15 77.8003Z" fill="#202124"/>
<path d="M343.712 75.8126C343.6 77.3876 343.037 78.6626 342.25 79.7876C341.762 80.4626 340.975 80.6126 340.225 80.2001C339.475 79.7876 339.25 79.0751 339.587 78.2876C340.075 77.2001 340.562 76.1501 341.125 75.1001C341.462 74.5001 342.1 74.3876 342.775 74.5751C343.525 74.7626 343.712 75.2876 343.712 75.8126Z" fill="#202124"/>
<path d="M322.412 92.8004C322.262 93.8504 321.775 94.7504 320.5 94.8254C319.337 94.9004 318.587 94.1879 318.55 93.0254C318.55 91.8629 319.037 91.0004 320.425 90.9629C321.587 90.9629 322.3 91.4504 322.412 92.8004Z" fill="#202124"/>
<path d="M315.925 87.625C316.937 87.7375 317.387 88.4125 317.387 89.275C317.387 90.25 316.787 90.9625 315.775 90.925C314.837 90.925 314.312 90.175 314.312 89.3125C314.312 88.3375 314.95 87.775 315.925 87.625Z" fill="#202124"/>
<path d="M315.212 95.9875C314.125 95.8375 313.525 95.2 313.637 94.225C313.712 93.4 314.2 92.6875 315.212 92.725C316.262 92.7625 316.787 93.25 316.787 94.3375C316.787 95.4625 316.075 95.8 315.212 95.9875Z" fill="#202124"/>
<path fill-rule="evenodd" clip-rule="evenodd" d="M307.429 59.4385C305.98 60.8683 303.59 64.2137 303.59 65.3459C304.668 66.604 305.309 67.0606 308.962 67.4762C312.388 68.1836 314.312 68.1885 314.312 68.1885C314.312 68.1885 310.019 64.3825 307.429 59.4385Z" fill="#DADCE0"/>
<path d="M154.479 197.178C158.086 193.616 162.035 190.428 166.63 188.141C167.579 187.653 166.857 187.128 166.781 186.791C164.921 179.291 163.63 171.678 162.529 164.028C161.351 155.853 160.782 147.641 160.402 139.428C160.174 134.816 160.098 130.203 159.984 125.591C159.947 124.316 159.795 123.041 158.238 123.003C156.719 122.928 156.225 124.241 156.187 125.441C156.035 128.741 155.884 132.041 155.959 135.378C156.111 141.941 156.947 148.428 157.858 154.916C158.428 159.116 158.959 163.353 158.807 167.591C158.769 168.453 158.807 169.353 158.048 170.553C155.39 163.541 154.896 156.453 153.909 149.478C153.605 147.282 153.236 141.385 152.901 141.1C152.187 141.455 149.518 140.987 149.901 144.342C148.477 149.093 154.85 167.842 153.359 168.508C152.082 170.085 147.792 159.723 147.02 149.478C143.527 150.438 144.761 151.638 143.709 154.05C144.767 158.417 146.74 163.052 148.18 166.487C149.804 170.364 150.751 172.784 148.997 172.937C148.855 173.111 147.061 172.011 145.75 168.997C144.069 165.134 142.353 158.839 142.236 159.564C140.895 161.033 139.936 163.665 140.175 166.487C140.797 166.392 144.094 173.448 145.75 177.25C146.167 178.854 144.765 178.665 143.709 178.66C147.02 188.141 150.994 200.603 154.479 197.178Z" fill="#DADCE0"/>
</g>
<defs>
<clipPath id="clip0_225_78830">
<rect width="415" height="303" fill="white"/>
</clipPath>
</defs>
</svg>
