<svg width="72" height="72" viewBox="0 0 72 72" fill="none" xmlns="http://www.w3.org/2000/svg">
<g clip-path="url(#clip0_2609_29205)">
<rect width="72" height="72" fill="none"/>
<path d="M57.5264 27.7009C56.4208 15.3756 42.9326 8.38087 32.5236 14.8882L12.1701 27.6109C6.43682 31.1955 3.93228 37.3872 4.46461 43.3217C4.97148 48.9725 8.23206 54.3916 14.0891 57.1001L35.9671 67.2351C47.2795 72.4735 59.9279 63.5737 59.0877 50.9691L57.5582 28.1119C57.5509 27.9746 57.5387 27.8377 57.5264 27.7009Z" fill="#FAE041"/>
<ellipse cx="34.8865" cy="34.3881" rx="23.2015" ry="25.1412" transform="rotate(134.367 34.8865 34.3881)" fill="white"/>
<path fill-rule="evenodd" clip-rule="evenodd" d="M40.1997 58.8401C50.1535 56.7807 57.8675 47.7529 60.5173 41.1279C63.1672 34.5029 56.8391 15.3151 45.7685 9.70374C35.968 4.88102 25.0283 6.65138 18.333 13.0324C5.39861 25.56 13.4281 46.898 20.5506 53.8649C27.673 60.8317 35.5075 59.6946 40.1997 58.8401ZM39.5618 55.6426C48.2816 53.8385 55.0392 45.93 57.3605 40.1264C59.6818 34.3227 54.1383 17.5139 44.4403 12.5982C35.8548 8.37345 26.2714 9.92432 20.4063 15.5142C9.07549 26.4886 16.1095 45.1811 22.3489 51.2842C28.5883 57.3873 35.4514 56.3912 39.5618 55.6426Z" fill="#202124"/>
<path d="M44.5393 25.5133C44.0209 25.0403 43.0314 24.7424 42.3523 24.8561L42.289 24.8608C41.5971 24.9754 41.0017 24.4953 40.9631 23.7954C40.9236 23.0829 40.3245 22.5519 39.6289 22.6157L29.5302 23.446C28.8338 23.4971 28.2778 24.0745 28.2855 24.6999C28.2931 25.3254 27.7662 25.9518 27.1006 26.0772C26.4351 26.2027 25.4917 26.7063 24.9934 27.2028L24.2469 27.9603C23.7613 28.4558 23.4679 29.1417 23.5826 29.491C23.6974 29.8403 24.2054 30.5185 24.6878 31.0197L28.7207 35.1444C29.2157 35.6447 30.084 36.3731 30.6602 36.7652L33.4869 38.6787C34.0631 39.0708 34.5743 39.9659 34.6256 40.6649L34.7319 42.1135C34.7578 42.8143 34.229 43.4153 33.5307 43.4409L30.9165 43.5561C30.2191 43.5945 29.7137 44.1681 29.7894 44.8525C29.865 45.5368 30.5012 46.0523 31.1986 46.0139L41.3005 45.4006C41.997 45.3495 42.5384 44.7476 42.4998 44.0478L42.4933 43.9588C42.4547 43.259 41.8546 42.7153 41.1582 42.7664L38.7114 42.9075C38.0149 42.9586 37.4022 42.4159 37.3509 41.717L37.2661 40.5606C37.2148 39.8616 37.5628 38.8779 38.0474 38.3696L40.3625 35.9129C40.8472 35.4046 41.5854 34.5328 42.0166 33.9901L45.5431 29.4769C45.9734 28.9216 46.34 28.192 46.3519 27.8334C46.3638 27.4748 45.9579 26.8019 45.4394 26.3289L44.552 25.5124L44.5393 25.5133ZM27.1374 30.9167C26.7029 30.3736 26.2661 29.6263 26.1884 29.2615C26.1107 28.8967 26.6085 28.5664 27.3059 28.528L27.3819 28.5224C28.0793 28.484 28.7047 29.0258 28.7686 29.7238L28.9936 32.0964C29.0575 32.7944 28.7611 32.9184 28.3139 32.3763L27.1374 30.9167ZM36.4189 35.7806C35.9614 36.3124 35.1392 36.3855 34.5972 35.9398L32.4313 34.1823C31.8893 33.7365 31.4015 32.8141 31.3629 32.1143L31.0261 27.003C30.9749 26.3041 31.5154 25.6895 32.211 25.6257L37.4118 25.193C38.1083 25.1419 38.7065 25.6602 38.7324 26.361L38.9617 31.5696C38.9877 32.2703 38.6416 33.2795 38.1832 33.7986L36.4451 35.7914L36.4189 35.7806ZM43.801 27.9439C43.7657 28.3297 43.4445 29.1582 43.0939 29.7588L42.1908 31.3327C41.8412 31.946 41.5171 31.8676 41.4785 31.1677L41.3314 28.815C41.2801 28.116 41.8188 27.476 42.5134 27.3995L42.6274 27.3912C43.321 27.3019 43.8617 27.5561 43.8146 27.9556L43.801 27.9439Z" fill="black"/>
<path d="M44.5918 21.4897C44.1947 21.5793 43.9265 21.4607 43.7211 21.2282C43.5156 20.9956 43.4635 20.6951 43.5585 20.4104C43.6177 20.2763 43.6735 20.1222 43.7598 20.0247C44.556 19.1437 45.3557 18.2827 46.1755 17.4182C46.2983 17.2937 46.5117 17.2154 46.6885 17.1641C47.0656 17.078 47.3573 17.2131 47.5932 17.5023C47.8021 17.7549 47.8577 18.0754 47.6956 18.3305C46.8915 19.5224 45.9358 20.5549 44.7852 21.4149C44.7355 21.4854 44.6319 21.4827 44.5918 21.4897Z" fill="#202124"/>
<path d="M22.8589 44.7783C22.1317 44.9871 21.4657 44.3599 21.5722 43.7843C21.601 43.5936 21.6698 43.3959 21.7857 43.2314C22.4714 42.3077 23.164 41.424 23.8531 40.5203C23.9359 40.4028 24.0892 40.3349 24.1989 40.2539C24.475 40.0616 24.7694 40.093 25.0279 40.2751C25.2865 40.4572 25.4519 40.6967 25.3673 41.0416C25.3054 41.2793 25.247 41.537 25.1381 41.7416C24.5656 42.6044 23.9732 43.4707 23.3772 44.317C23.2117 44.552 22.9991 44.754 22.8589 44.7783Z" fill="#202124"/>
<path d="M19.9214 20.4295C20.2019 20.3808 20.4866 20.4758 20.7086 20.6849C21.405 21.3687 22.1015 22.0525 22.7448 22.7869C23.0747 23.1423 22.9944 23.6308 22.686 23.9938C22.3741 24.3368 21.8934 24.4203 21.4903 24.1188C20.5701 23.4532 19.8589 22.5656 19.2444 21.6406C18.9171 21.1815 19.3371 20.5102 19.9214 20.4295Z" fill="#202124"/>
<path d="M46.8465 37.4678C47.0869 37.4261 47.3411 37.4645 47.5492 37.5935C48.3276 38.0361 49.0363 38.5528 49.6788 39.1634C50.1297 39.6216 50.1469 40.1964 49.7854 40.6099C49.5101 40.9259 49.1068 41.0991 48.7446 40.9144C47.7251 40.3898 46.878 39.6702 46.2565 38.7051C45.9258 38.226 46.2822 37.5452 46.8465 37.4678Z" fill="#202124"/>
<path d="M37.3907 50.3749C37.3247 49.9943 37.2351 49.5972 37.1891 49.2131C37.1492 48.7455 37.3574 48.3998 37.7241 48.2536C38.0707 48.1109 38.446 48.2521 38.7062 48.6815C39.2337 49.5804 39.4711 50.5915 39.7085 51.6027C39.8189 52.12 39.4512 52.6171 39.001 52.7572C38.5672 52.8737 38.0039 52.6001 37.8134 52.0967C37.6159 51.5532 37.4915 50.9558 37.3507 50.3818C37.3507 50.3818 37.3707 50.3784 37.3907 50.3749Z" fill="#202124"/>
<path d="M33.2126 15.5832C33.2194 16.0979 33.2417 16.94 33.2441 17.7855C33.2484 17.9292 33.2126 18.0799 33.1734 18.2105C33.0714 18.4552 32.8955 18.6301 32.6351 18.6753C32.3181 18.751 32.0499 18.6325 31.861 18.3764C31.7531 18.23 31.6582 18.0402 31.6234 17.8399C31.4678 17.0622 31.3357 16.301 31.2201 15.5163C31.1889 15.3361 31.2142 15.1253 31.243 14.9346C31.3206 14.5497 31.6961 14.2163 32.0366 14.1572C32.4807 14.1008 32.9239 14.3953 33.0604 14.8255C33.1248 14.9588 33.1326 15.1225 33.2126 15.5832Z" fill="#202124"/>
</g>
<defs>
<clipPath id="clip0_2609_29205">
<rect width="72" height="72" fill="none"/>
</clipPath>
</defs>
</svg>
