<svg width="72" height="72" viewBox="0 0 72 72" fill="none" xmlns="http://www.w3.org/2000/svg">
<g clip-path="url(#clip0_3317_14190)">
<rect width="72" height="72" fill="none"/>
<path d="M67.3288 42.73C67.2819 44.2868 66.8317 45.8047 66.0223 47.1354L57.5264 61.1041C53.9751 66.9429 45.468 66.8491 42.0463 60.9334L20.7559 24.1247C18.059 19.4621 20.0341 13.4906 24.9793 11.3557L41.6772 4.14684C44.4712 2.94062 47.6855 3.22804 50.2211 4.91082L63.9413 14.0163C66.5345 15.7372 68.0544 18.6757 67.9606 21.7865L67.3288 42.73Z" fill="#20BEFF"/>
<ellipse cx="30.9044" cy="41.924" rx="20.6871" ry="22.4166" transform="rotate(55.0487 30.9044 41.924)" fill="white"/>
<path fill-rule="evenodd" clip-rule="evenodd" d="M53.2069 41.3096C53.0475 32.2479 46.4125 23.9972 41.0457 20.5806C35.6789 17.1639 17.8212 19.5374 11.075 28.3099C5.22982 36.0999 4.97303 45.9776 9.45745 52.8984C18.2963 66.3016 38.3192 62.7927 45.6005 57.7035C52.8818 52.6143 53.1802 45.5621 53.2069 41.3096ZM50.2999 41.3403C50.1602 33.402 44.3478 26.1742 39.6464 23.1812C34.945 20.1882 19.3013 22.2674 13.3915 29.9522C8.27102 36.7764 8.04608 45.4295 11.9745 51.4922C19.7175 63.2337 37.258 60.1598 43.6365 55.7016C50.015 51.2434 50.2765 45.0654 50.2999 41.3403Z" fill="#202124"/>
<path d="M31.8343 25.7249C31.6182 25.5963 31.4401 25.6493 31.2747 25.763C31.1092 25.8766 31.0432 26.0567 31.0411 26.2574C31.0274 27.0979 31.1584 27.9482 31.468 28.7725C31.5774 29.0731 31.8365 29.3458 32.2119 29.344C32.6046 29.3381 32.7899 29.0466 32.7612 28.7353C32.6744 27.774 32.4146 26.8282 31.9879 25.9144C31.9519 25.8414 31.8931 25.7832 31.8343 25.7249Z" fill="#202124" stroke="#202124" stroke-width="0.25"/>
<path d="M16.6464 52.0589C16.5085 52.0481 16.3586 52.0032 16.3106 51.8751C16.2751 51.7473 16.3646 51.6555 16.516 51.6072C16.9325 51.4786 17.3365 51.3413 17.7773 51.2555C21.9717 50.4278 25.9841 49.2322 30.1418 48.3445C31.8301 47.9831 33.4936 47.6042 35.1333 47.1487C35.2721 47.1086 35.3982 47.0769 35.5613 47.0796C35.7747 47.0832 35.962 47.1373 36.0348 47.2912C36.1075 47.4451 36.0176 47.5623 35.828 47.6354C35.7017 47.6842 35.5631 47.7157 35.4243 47.7558C33.4191 48.2984 31.3524 48.7637 29.2984 49.2207C27.1434 49.7099 25.0007 50.2163 22.8699 50.7653C21.8864 51.02 20.8782 51.2488 19.8707 51.4352C19.027 51.5905 18.1953 51.7799 17.3638 51.9524C17.1494 52.0081 16.9227 52.0552 16.6464 52.0589Z" fill="#202124" stroke="#202124" stroke-width="1.5"/>
<path d="M16.2647 51.7151C16.2819 51.3349 16.4145 51.0158 16.6162 50.682C18.7104 47.3476 20.6599 43.9127 22.7787 40.5845C23.8997 38.8318 24.9837 37.0697 26.2124 35.4082C26.3142 35.2737 26.879 34.6502 27.1151 34.8342C27.3513 35.0183 27.1517 35.4683 26.9576 35.772C26.0819 37.1218 25.2185 38.4747 24.3512 39.8427C22.3394 43.0055 20.4023 46.2353 18.4529 49.4619C18.0732 50.0874 17.6605 50.6885 17.26 51.2927C16.8596 51.8969 16.8066 51.8996 16.2647 51.7151Z" fill="#202124" stroke="#202124" stroke-width="1.5"/>
<path d="M34.912 44.763C34.987 44.9961 34.9195 45.1802 34.7057 45.3031C34.5062 45.4214 34.3272 45.3571 34.1794 45.2422C34.0983 45.1871 34.042 45.1104 33.9857 45.0337C33.2471 44.0663 32.5085 43.099 31.7843 42.127C31.6678 41.9614 31.5616 41.7789 31.4841 41.5872C31.4145 41.4201 31.4716 41.2528 31.6711 41.1345C31.8705 41.0162 32.0521 41.0391 32.2038 41.1663C32.2849 41.2214 32.3412 41.2981 32.3975 41.3747C33.1806 42.382 33.978 43.3846 34.7076 44.4226C34.7901 44.5314 34.9052 44.6433 34.912 44.763Z" fill="#202124" stroke="#202124"/>
<path d="M36.4801 46.9617C36.5551 47.1948 36.4876 47.379 36.2738 47.5019C36.0743 47.6202 35.8953 47.5559 35.7475 47.4409C35.6664 47.3858 35.6101 47.3091 35.5538 47.2325C34.8152 46.2651 34.0767 45.2977 33.3524 44.3257C33.2359 44.1601 33.1297 43.9776 33.0522 43.7859C32.9826 43.6188 33.0397 43.4515 33.2392 43.3332C33.4387 43.2149 33.6202 43.2378 33.7719 43.365C33.853 43.4202 33.9093 43.4968 33.9656 43.5735C34.7487 44.5807 35.5461 45.5833 36.2757 46.6213C36.3582 46.7302 36.4733 46.842 36.4801 46.9617Z" fill="#202124" stroke="#202124"/>
<path d="M30.0482 38.2818C30.1232 38.5149 30.0557 38.699 29.8419 38.8219C29.6424 38.9402 29.4634 38.8759 29.3156 38.761C29.2346 38.7059 29.1782 38.6292 29.1219 38.5525C28.3833 37.5851 27.6448 36.6178 26.9206 35.6458C26.804 35.4802 26.6978 35.2977 26.6203 35.106C26.5508 34.9388 26.6078 34.7716 26.8073 34.6533C27.0068 34.535 27.1883 34.5579 27.34 34.6851C27.4211 34.7402 27.4774 34.8169 27.5337 34.8935C28.3168 35.9008 29.1142 36.9034 29.8438 37.9414C29.9263 38.0502 30.0414 38.1621 30.0482 38.2818Z" fill="#202124" stroke="#202124"/>
<path d="M32.5084 41.6116C32.5834 41.8447 32.5159 42.0289 32.3021 42.1518C32.1026 42.2701 31.9236 42.2058 31.7758 42.0908C31.6948 42.0357 31.6384 41.959 31.5821 41.8824C30.8436 40.915 30.105 39.9476 29.3808 38.9756C29.2642 38.81 29.158 38.6275 29.0805 38.4358C29.011 38.2687 29.068 38.1014 29.2675 37.9831C29.467 37.8648 29.6485 37.8877 29.8002 38.0149C29.8813 38.0701 29.9376 38.1467 29.9939 38.2234C30.777 39.2306 31.5744 40.2332 32.304 41.2712C32.3865 41.3801 32.5016 41.4919 32.5084 41.6116Z" fill="#202124" stroke="#202124"/>
<path d="M27.0758 44.0357C27.1603 44.3163 27.0808 44.5391 26.833 44.6893C26.6017 44.8337 26.3956 44.7577 26.226 44.6203C26.1329 44.5544 26.0686 44.4624 26.0042 44.3704C25.1601 43.2094 24.3159 42.0484 23.4884 40.8818C23.3552 40.683 23.2343 40.4637 23.1465 40.233C23.0676 40.0319 23.1349 39.8296 23.3662 39.6852C23.5974 39.5407 23.8068 39.5667 23.9808 39.7189C24.0739 39.7848 24.1383 39.8768 24.2026 39.9688C25.0978 41.1775 26.0095 42.3805 26.8427 43.6267C26.937 43.7573 27.0689 43.8913 27.0758 44.0357Z" fill="#202124" stroke="#202124" stroke-width="0.5"/>
<path d="M29.8866 48.0325C29.9711 48.3131 29.8916 48.5359 29.6437 48.6861C29.4125 48.8305 29.2064 48.7545 29.0368 48.6171C28.9437 48.5512 28.8794 48.4592 28.815 48.3672C27.9709 47.2062 27.1267 46.0452 26.2992 44.8786C26.166 44.6798 26.0451 44.4605 25.9573 44.2299C25.8784 44.0288 25.9457 43.8264 26.177 43.682C26.4082 43.5375 26.6176 43.5635 26.7916 43.7157C26.8847 43.7816 26.9491 43.8736 27.0134 43.9656C27.9086 45.1743 28.8203 46.3773 29.6535 47.6235C29.7478 47.7541 29.8797 47.8882 29.8866 48.0325Z" fill="#202124" stroke="#202124" stroke-width="0.5"/>
<path d="M24.1212 49.4717C24.2057 49.7524 24.1262 49.9751 23.8784 50.1253C23.6471 50.2697 23.441 50.1937 23.2714 50.0563C23.1783 49.9904 23.114 49.8984 23.0496 49.8064C22.2055 48.6454 21.3613 47.4845 20.5338 46.3178C20.4006 46.119 20.2797 45.8997 20.1919 45.6691C20.113 45.468 20.1803 45.2656 20.4116 45.1212C20.6429 44.9767 20.8522 45.0028 21.0262 45.1549C21.1193 45.2208 21.1837 45.3128 21.248 45.4048C22.1432 46.6135 23.0549 47.8165 23.8881 49.0627C23.9824 49.1933 24.1144 49.3274 24.1212 49.4717Z" fill="#202124" stroke="#202124" stroke-width="0.5"/>
<path d="M35.4436 33.2792C35.3459 33.163 35.2512 33.0444 35.1531 32.9336C35.0444 32.8165 35.007 32.6751 34.9928 32.5192C34.9879 32.4166 35.025 32.3397 35.1049 32.2776C35.1934 32.2134 35.2863 32.1607 35.3918 32.1229C35.5968 32.0522 35.7998 31.9731 36.0057 31.8915C36.4838 31.6981 36.8192 31.1112 36.6423 30.5379C36.5928 30.3761 36.5144 30.2284 36.3953 30.1049C36.2511 29.9515 36.104 29.8006 35.935 29.6783C35.8155 29.5906 35.7314 29.4783 35.7113 29.3274C35.6923 29.1959 35.7242 29.0827 35.8344 28.99C35.9476 28.8949 36.0815 28.8485 36.2199 28.8135C36.4459 28.7557 36.6723 28.6925 36.8952 28.6068C37.1639 28.503 37.3719 28.3332 37.5409 28.1047C37.6345 27.9802 37.6907 27.8415 37.715 27.6889C37.7481 27.4984 37.711 27.3211 37.5862 27.1667C37.4965 27.054 37.3945 26.9567 37.2805 26.8695C37.1405 26.7635 36.9975 26.6599 36.8913 26.5154C36.8617 26.4741 36.8291 26.4354 36.8055 26.3891C36.6995 26.1783 36.7462 26.0221 36.9449 25.8957C37.0558 25.828 37.1768 25.8025 37.3007 25.7746C37.4979 25.7309 37.6925 25.6842 37.877 25.5952C38.0933 25.4897 38.2746 25.3424 38.4233 25.1564C38.5933 24.9474 38.6416 24.7085 38.5429 24.4458C38.5222 24.397 38.4981 24.3563 38.4477 24.3326C38.3733 24.2985 38.2818 24.3348 38.2696 24.4111C38.2599 24.4599 38.2636 24.5127 38.2678 24.5601C38.2761 24.7514 38.1999 24.8967 38.059 25.0254C37.8912 25.1766 37.7032 25.2736 37.4857 25.3293C37.3871 25.3512 37.2885 25.373 37.1904 25.3894C37.05 25.4159 36.9162 25.4623 36.7889 25.5286C36.3354 25.7573 36.28 26.2055 36.4799 26.5764C36.5944 26.7852 36.7655 26.9464 36.9486 27.0976C37.0261 27.1596 37.1091 27.222 37.1836 27.2865C37.3602 27.4482 37.3832 27.5966 37.2605 27.8014C37.1541 27.9773 37.0072 28.111 36.8122 28.1935C36.6197 28.2791 36.4182 28.3417 36.2171 28.3989C36.0643 28.4409 35.916 28.4944 35.7713 28.5702C35.1672 28.8798 35.2492 29.6548 35.6526 29.9411C35.8215 30.0635 35.9747 30.2093 36.1158 30.3652C36.5374 30.8243 36.2603 31.4081 35.8379 31.5648C35.6494 31.6369 35.4608 31.709 35.2727 31.7755C35.1274 31.8265 34.9967 31.9008 34.878 31.9955C34.7176 32.1252 34.6341 32.292 34.63 32.4988C34.6242 32.7884 34.7071 33.0442 34.9361 33.238C35.1472 33.4165 35.3096 33.6461 35.5023 33.8451C35.5428 33.8873 35.5804 33.932 35.6239 33.9716C35.6884 34.0242 35.7796 34.0238 35.8333 33.9787C35.8869 33.9336 35.9089 33.8389 35.8762 33.7697C35.8476 33.7175 35.813 33.6703 35.7754 33.6257C35.6757 33.501 35.5701 33.3814 35.4674 33.2592C35.4525 33.2717 35.4495 33.2742 35.4436 33.2792Z" fill="#202124" stroke="#202124" stroke-width="0.7"/>
<path d="M45.3583 35.1955C45.3308 35.3818 45.2985 35.5673 45.2764 35.7495C45.257 35.9467 45.1566 36.0978 45.0235 36.2391C44.9323 36.3281 44.8304 36.357 44.707 36.3338C44.5747 36.3045 44.4492 36.2616 44.3274 36.1948C44.0932 36.0626 43.8528 35.9392 43.6076 35.8151C43.0348 35.5304 42.2141 35.7018 41.8273 36.3376C41.7179 36.5166 41.6453 36.7108 41.6286 36.9231C41.6048 37.1831 41.5857 37.4438 41.6111 37.7013C41.628 37.8843 41.593 38.0548 41.4694 38.1976C41.363 38.3234 41.2316 38.3869 41.0549 38.3608C40.8735 38.3339 40.7203 38.2479 40.574 38.1482C40.3345 37.9859 40.0895 37.8277 39.8266 37.6912C39.5093 37.5272 39.1805 37.4737 38.8294 37.5048C38.6368 37.5202 38.4618 37.5822 38.3001 37.6852C38.0961 37.8112 37.9621 37.9914 37.9213 38.2343C37.8904 38.4103 37.8841 38.585 37.8969 38.7626C37.9136 38.9797 37.9351 39.1976 37.8883 39.4152C37.8743 39.4766 37.8651 39.5386 37.8416 39.5986C37.7331 39.8705 37.5498 39.9556 37.2689 39.875C37.1148 39.8279 36.9917 39.7365 36.8638 39.6444C36.6611 39.4973 36.4576 39.355 36.2233 39.2569C35.9473 39.1429 35.6615 39.0958 35.3665 39.1107C35.0326 39.1248 34.7711 39.2765 34.6085 39.5843C34.5802 39.6435 34.5622 39.6994 34.5816 39.7657C34.6112 39.8628 34.7202 39.918 34.801 39.8665C34.8544 39.8353 34.9003 39.7884 34.9408 39.7456C35.1116 39.5806 35.3092 39.5317 35.5446 39.5567C35.823 39.5881 36.0676 39.6828 36.2983 39.8389C36.3996 39.9125 36.501 39.986 36.5969 40.0636C36.737 40.1722 36.8902 40.2582 37.0564 40.3219C37.6417 40.5548 38.1034 40.2375 38.2833 39.7468C38.383 39.4688 38.3919 39.1773 38.3817 38.883C38.3755 38.7601 38.3652 38.6317 38.3637 38.5095C38.3686 38.2126 38.4874 38.0691 38.7785 38.0145C39.0292 37.9686 39.2742 37.9951 39.5112 38.1082C39.749 38.2165 39.9729 38.3521 40.1914 38.4917C40.3561 38.599 40.5277 38.6927 40.7171 38.7646C41.5014 39.0709 42.1534 38.3572 42.0874 37.7473C42.062 37.4898 42.0715 37.2277 42.1001 36.9684C42.1796 36.1994 42.9494 35.9764 43.4424 36.2396C43.6644 36.3554 43.8864 36.4712 44.1029 36.591C44.2697 36.684 44.4462 36.7442 44.6318 36.7765C44.8841 36.8187 45.1077 36.759 45.3031 36.5927C45.5766 36.3599 45.7459 36.0726 45.7375 35.7005C45.7296 35.3578 45.8091 35.0182 45.8353 34.6756C45.8411 34.6032 45.8517 34.5316 45.8527 34.4586C45.8485 34.3555 45.7731 34.2711 45.6871 34.2584C45.6012 34.2457 45.4951 34.3032 45.4578 34.3904C45.4329 34.4599 45.4175 34.5309 45.4069 34.6025C45.3732 34.7976 45.349 34.9941 45.3201 35.1899C45.344 35.1934 45.3488 35.1941 45.3583 35.1955Z" fill="#202124" stroke="#202124" stroke-width="0.7"/>
<path fill-rule="evenodd" clip-rule="evenodd" d="M32.6924 35.4516C32.7158 35.4485 32.7388 35.4455 32.7613 35.4424C33.0675 35.4484 33.3976 35.5684 33.5237 35.7365C33.7818 36.1087 33.8658 36.5228 33.6977 36.949C33.3856 37.7233 32.3292 37.9094 31.7649 37.3032C31.7109 37.2491 31.6689 37.1771 31.6329 37.1111C31.4108 36.7089 31.5248 35.8446 32.1851 35.5684C32.3576 35.4953 32.5346 35.4722 32.6924 35.4516ZM33.1815 36.1085C33.0615 35.9705 32.8874 35.9525 32.7613 35.9585C32.3412 35.9825 32.071 36.1986 31.993 36.5527C31.915 36.8529 32.071 37.129 32.3652 37.219C32.7553 37.3331 33.0254 37.243 33.2475 36.9309C33.4036 36.7148 33.4156 36.3727 33.1815 36.1085Z" fill="#202124"/>
<path d="M32.7613 35.4424L32.7272 35.1947L32.7466 35.192L32.7662 35.1924L32.7613 35.4424ZM32.6924 35.4516L32.66 35.2037L32.66 35.2037L32.6924 35.4516ZM33.5237 35.7365L33.7238 35.5864L33.7291 35.594L33.5237 35.7365ZM33.6977 36.949L33.9303 37.0407L33.9296 37.0425L33.6977 36.949ZM31.7649 37.3032L31.9418 37.1263L31.9479 37.1329L31.7649 37.3032ZM31.6329 37.1111L31.8517 36.9902L31.8523 36.9914L31.6329 37.1111ZM32.1851 35.5684L32.2827 35.7986L32.2815 35.7991L32.1851 35.5684ZM32.7613 35.9585L32.7471 35.7089L32.7494 35.7088L32.7613 35.9585ZM33.1815 36.1085L32.9944 36.2744L32.9929 36.2726L33.1815 36.1085ZM31.993 36.5527L32.2373 36.6066L32.235 36.6156L31.993 36.5527ZM32.3652 37.219L32.295 37.459L32.292 37.4581L32.3652 37.219ZM33.2475 36.9309L33.0438 36.786L33.0449 36.7845L33.2475 36.9309ZM32.7955 35.69C32.7719 35.6933 32.748 35.6964 32.7248 35.6994L32.66 35.2037C32.6836 35.2006 32.7057 35.1977 32.7272 35.1947L32.7955 35.69ZM33.3237 35.8865C33.3011 35.8565 33.2372 35.8064 33.1214 35.7624C33.0115 35.7208 32.8807 35.6948 32.7564 35.6923L32.7662 35.1924C32.9481 35.196 33.1355 35.233 33.2987 35.2949C33.4559 35.3545 33.6201 35.4485 33.7237 35.5865L33.3237 35.8865ZM33.4652 36.8573C33.597 36.523 33.5381 36.1961 33.3182 35.879L33.7291 35.594C34.0254 36.0213 34.1346 36.5227 33.9303 37.0407L33.4652 36.8573ZM31.9479 37.1329C32.3893 37.6071 33.2232 37.4576 33.4659 36.8556L33.9296 37.0425C33.548 37.9891 32.269 38.2118 31.5819 37.4735L31.9479 37.1329ZM31.8523 36.9914C31.8885 37.0577 31.9158 37.1005 31.9417 37.1264L31.5881 37.4799C31.506 37.3978 31.4492 37.2965 31.4134 37.2308L31.8523 36.9914ZM32.2815 35.7991C32.0389 35.9005 31.8872 36.1128 31.819 36.3592C31.7486 36.6137 31.7797 36.8599 31.8517 36.9902L31.414 37.2319C31.2639 36.9601 31.241 36.5731 31.3371 36.2258C31.4355 35.8705 31.671 35.5124 32.0886 35.3378L32.2815 35.7991ZM32.7248 35.6994C32.5632 35.7205 32.4192 35.7407 32.2827 35.7986L32.0875 35.3383C32.2959 35.2499 32.506 35.2238 32.66 35.2037L32.7248 35.6994ZM32.7494 35.7088C32.8984 35.7017 33.173 35.7177 33.3702 35.9445L32.9929 36.2726C32.95 36.2233 32.8764 36.2033 32.7732 36.2082L32.7494 35.7088ZM31.7489 36.4989C31.7992 36.2706 31.9151 36.0752 32.0951 35.9347C32.2732 35.7957 32.4978 35.7231 32.7471 35.7089L32.7756 36.2081C32.6047 36.2178 32.4841 36.2653 32.4027 36.3289C32.3231 36.391 32.2649 36.4807 32.2371 36.6065L31.7489 36.4989ZM32.292 37.4581C31.8703 37.329 31.6392 36.9201 31.751 36.4898L32.235 36.6156C32.1908 36.7856 32.2717 36.929 32.4383 36.98L32.292 37.4581ZM33.4512 37.0758C33.3188 37.2619 33.1559 37.4039 32.9473 37.4723C32.7404 37.5402 32.5209 37.525 32.295 37.459L32.4353 36.9791C32.5996 37.0271 32.7103 37.0239 32.7914 36.9972C32.871 36.9711 32.9542 36.912 33.0438 36.786L33.4512 37.0758ZM33.3686 35.9427C33.6813 36.2955 33.6739 36.7675 33.4502 37.0773L33.0449 36.7845C33.1333 36.6621 33.1499 36.4498 32.9944 36.2744L33.3686 35.9427Z" fill="#202124"/>
<path d="M39.4468 31.3448C39.4473 31.6158 39.5838 31.7522 39.7658 31.8438C39.9477 31.9353 40.1356 31.8983 40.3085 31.7906C41.0349 31.344 41.6956 30.7578 42.2428 30.0199C42.444 29.754 42.5449 29.3644 42.3513 29.0166C42.1453 28.6552 41.801 28.6423 41.5492 28.8391C40.7708 29.4449 40.0942 30.203 39.5304 31.0986C39.4864 31.1719 39.4666 31.2584 39.4468 31.3448Z" fill="#202124" stroke="#202124" stroke-width="0.25"/>
<path d="M38.4404 44.6502C38.5732 44.4596 38.7025 44.2664 38.7962 44.0561C38.8637 43.9072 38.9657 43.7907 39.124 43.7347C39.2617 43.6842 39.3912 43.6929 39.5164 43.7908C39.6449 43.8914 39.7255 44.0253 39.7947 44.1667C39.9086 44.3976 40.0284 44.6277 40.1717 44.8488C40.3449 45.1152 40.5756 45.3012 40.8607 45.4316C41.0165 45.5044 41.1791 45.5335 41.3494 45.525C41.5626 45.5173 41.7455 45.4368 41.8838 45.267C41.9851 45.1445 42.0669 45.0122 42.1351 44.8692C42.2177 44.694 42.297 44.516 42.4288 44.3684C42.4666 44.3271 42.501 44.2831 42.5456 44.2471C42.7491 44.0846 42.9283 44.0994 43.1101 44.2852C43.2084 44.3895 43.2635 44.5143 43.3218 44.6418C43.4139 44.8447 43.5086 45.0442 43.6467 45.2232C43.8099 45.4327 44.0102 45.5949 44.2449 45.7131C44.5093 45.849 44.7782 45.8468 45.0394 45.6803C45.0873 45.647 45.1258 45.6117 45.1399 45.5518C45.1598 45.4637 45.0998 45.3732 45.0146 45.3774C44.9596 45.378 44.9035 45.3941 44.8533 45.4094C44.6487 45.4619 44.4744 45.4128 44.3034 45.2899C44.1019 45.1431 43.9544 44.9623 43.8447 44.7401C43.7987 44.6387 43.7527 44.5372 43.7127 44.435C43.6521 44.2895 43.5715 44.1555 43.4709 44.0332C43.1207 43.5956 42.6242 43.6379 42.2693 43.9382C42.0699 44.1093 41.9348 44.3308 41.8132 44.5628C41.7639 44.6606 41.7154 44.7644 41.6628 44.8596C41.5284 45.0871 41.3735 45.1457 41.1244 45.0599C40.9103 44.9851 40.7325 44.8569 40.5989 44.6651C40.4628 44.4768 40.3492 44.2734 40.2417 44.0694C40.1616 43.9139 40.0701 43.766 39.9553 43.6271C39.4835 43.0453 38.6654 43.3103 38.4481 43.811C38.3545 44.0213 38.2319 44.2198 38.0957 44.4077C37.7256 44.926 38.0951 45.1594 38.4404 44.6502Z" fill="#202124" stroke="#202124" stroke-width="0.7"/>
<path d="M47.0901 41.4116C47.2943 41.2713 47.326 41.0969 47.3001 40.9111C47.2742 40.7253 47.1481 40.6014 46.9766 40.5254C46.2604 40.203 45.4731 40.0028 44.6305 39.9673C44.3248 39.9514 43.9782 40.0759 43.8168 40.4029C43.6516 40.7465 43.8216 41.0152 44.1016 41.1053C44.9651 41.385 45.8904 41.5085 46.8606 41.4752C46.9389 41.4709 47.0145 41.4412 47.0901 41.4116Z" fill="#202124" stroke="#202124" stroke-width="0.25"/>
</g>
<defs>
<clipPath id="clip0_3317_14190">
<rect width="72" height="72" fill="none"/>
</clipPath>
</defs>
</svg>
