<svg width="72" height="72" fill="none" xmlns="http://www.w3.org/2000/svg"><path d="M63.017 49.121l.895-28.065a8.643 8.643 0 00-3.248-7.03l-9.666-7.714a8.644 8.644 0 00-9.628-.778L14.29 20.76a8.642 8.642 0 00-3.91 10.423l10.326 29.093a8.641 8.641 0 008.195 5.752l14.488-.083a8.646 8.646 0 005.207-1.782l11.039-8.457a8.641 8.641 0 003.382-6.585z" fill="#F6E061"/><ellipse cx="28.091" cy="29.441" rx="21.918" ry="23.75" fill="#fff"/><path fill-rule="evenodd" clip-rule="evenodd" d="M47.223 44.892c5.635-7.79 5.259-19.016 2.88-25.332-2.377-6.316-15.872-15.996-27.182-12.848C13 9.599 3.324 18.139 2.722 26.867c-1.035 17 13.856 26.472 23.274 26.79 9.42.319 18.496-5.173 21.227-8.764zm-2.486-1.825c4.936-6.825 4.873-16.252 2.79-21.786-2.083-5.533-13.403-14.736-23.311-11.979-8.69 2.53-17.935 10.328-18.463 17.974-.906 14.893 11.183 23.189 19.434 23.468 8.251.279 17.158-4.532 19.55-7.677z" fill="#202124"/><path d="M26.634 34.595c.04.868.05 1.753.075 2.637a1.49 1.49 0 00-.44.104l-.434-.011c-2.678-.069-5.343-.137-8.008-.192-.274-.007-.549 0-.807.054-.334.055-.54.336-.56.657-.036.367.172.696.525.793.185.056.384.08.567.09 1.696.09 3.393.194 5.088.253 1.19.027 2.395-.007 3.584-.025.199.01.314.006.637.025.4.133 1.352.053 1.484-.52.191-.829.128-1.124.164-1.124.029 0-.077-1.03-.09-2.197v-.014l-.036-4.485c.408-.15.791-.084 1.173-.08 1.006-.013 2 .066 3.003-.1.258-.038.53-.091.772-.19a.623.623 0 00.378-.651.64.64 0 00-.474-.597c-.185-.056-.383-.05-.567-.09-1.289-.239-2.602-.278-3.915-.332-.443-.018-.475-.063-.501-.443v-7.035c.029-.389-.092-1.137-.808-1.02-.717.116-1.011.389-1.07.51-.212.037-.348.071-.5.076-1.464.026-2.928.067-4.392.079-1.693.002-3.388-.042-5.077.113-.228.022-.473.014-.684.08-.394.118-.564.566-.4.943.113.24.314.357.544.38.49.048.994.08 1.497.065 2.363-.067 4.709-.195 7.058-.185 2.503.02 1.895-.435 2.043 2.093.027.427-.047.49-.444.486-1.938-.022-3.86-.028-5.784-.08-1.435-.036-2.85.096-4.264.273-.441.043-.632.323-.621.705.01.365.262.633.675.652.488.016.991.002 1.493-.043 2.619-.211 5.231-.072 7.856-.04.336-.01.688.042 1.055.077.157.697.116 1.385.119 2.041-.12.064-.195.112-.256.114-2.807.004-5.629.023-8.436.026-.305-.007-.61-.013-.915.026a.859.859 0 00-.725.783c-.02.367.25.756.635.867.246.07.52.077.796.1 2.524.218 5.071.207 7.62.241.412.004.836-.085 1.238.072.145.27.107.546.114.805.013.457.01.915.023 1.342-.435.256-.82.16-1.201.156-2.427-.038-4.854-.091-7.281-.144a4.768 4.768 0 00-.808.023c-.41.072-.706.416-.71.798-.004.397.25.71.694.789.287.052.602.059.902.065h.015c2.397.07 4.774-.044 7.168-.081.32-.01.625-.018.93-.011.169.01.279.13.284.297z" fill="#202124" stroke="#000" stroke-width=".5"/><ellipse cx="40.575" cy="29.886" rx="2.277" ry="2.448" fill="#202124"/></svg>