<svg width="72" height="72" fill="none" xmlns="http://www.w3.org/2000/svg"><g clip-path="url(#clip0)"><path fill-rule="evenodd" clip-rule="evenodd" d="M60.959 35.51l-40.9-21.57C7.733 7.44-4.515 23.415 5.065 33.5l30.789 32.407c4.864 5.12 13.12 4.998 18.03-.264l10.11-10.837c5.59-5.992 4.088-15.537-3.035-19.294" fill="#FAE041"/><ellipse cx="42.001" cy="27.274" rx="21.497" ry="23.294" fill="#fff"/><path fill-rule="evenodd" clip-rule="evenodd" d="M60.64 42.458c5.52-7.631 5.151-18.627 2.822-24.814-2.33-6.187-18.651-15.353-29.73-12.27-9.717 2.829-16.091 10.878-16.68 19.427-1.015 16.653 17.815 26.226 27.041 26.538 9.226.311 13.873-5.364 16.547-8.881zm-2.434-1.789c4.835-6.684 4.512-16.317 2.472-21.737-2.04-5.42-16.34-13.45-26.044-10.748-8.512 2.477-14.097 9.529-14.613 17.018-.888 14.588 15.607 22.974 23.69 23.247 8.081.273 12.152-4.698 14.495-7.78z" fill="#202124"/><path d="M27.639 31.698c.844-.62 1.83-.898 2.687-1.497.633-.444 1.2-.907 1.752-1.445.949-.923 1.99-1.742 2.925-2.678.526-.525 1.17-1.425 1.868-1.709.962-.392.77-.73 1.515.282.328.446 1.462 5.683 1.786 5.55 1.14-.47 2.625-2.546 3.517-3.557.892-1.01 1.288-1.766 2.502-2.636 1.002-.718 2.03-1.641 2.942-2.458.232-.207.883-.516.987-.828.05-.152-2.547-.096-2.978 0-.333.074-2.483.089-1.303-.088.902-.136 1.997-.352 2.889-.352.32 0 1.079-.437 1.392-.124.1.1-.117 1.78-.123 2.026-.024.85-.277 1.55 0 2.379" stroke="#000" stroke-width="2" stroke-linecap="round" stroke-linejoin="round"/></g><defs><clipPath id="clip0"><path fill="#fff" transform="translate(-.001)" d="M0 0h72v72H0z"/></clipPath></defs></svg>