<svg width="424" height="315" viewBox="0 0 424 315" fill="none" xmlns="http://www.w3.org/2000/svg">
<g clip-path="url(#clip0_225_78586)">
<path fill-rule="evenodd" clip-rule="evenodd" d="M99.0051 260.334L87.6597 203.13H105.668V178.886V173.448L84.7797 168.408L78.6978 137.084L125.838 136.818L159.465 125.529L165.227 127.718L159.465 136.164L136.944 153.993L134.065 168.426L132.297 178.909V203.811L135.539 254.508L99.0051 260.334Z" fill="#BDC1C6"/>
<path fill-rule="evenodd" clip-rule="evenodd" d="M366.616 314.434L321.101 218.652L301.089 213.295L289.948 201.027L282.567 188.748L269.604 178.886L259.595 168.426L262.739 166.14L275.597 168.408L289.948 173.448L305.834 180.999V159.965L321.101 166.167L353.301 194.802L398.086 246.744L423.325 272.76C423.325 272.76 412.297 297.952 401.91 305.585C391.522 313.218 366.616 314.434 366.616 314.434Z" fill="#DADCE0"/>
<path fill-rule="evenodd" clip-rule="evenodd" d="M331.879 44.2005L315.604 29.0877C315.604 29.0877 281.604 10.6584 257.836 29.0877C234.068 47.5171 241.812 92.7617 241.812 92.7617C241.812 92.7617 247.748 96.2148 252.792 92.7617C257.836 89.3086 252.792 89.3086 252.792 89.3086C252.792 89.3086 260.179 99.3119 266.172 90.0436C269.021 85.6362 267.783 84.776 267.732 86.4069C267.711 87.0624 269.604 89.3086 269.604 89.3086C269.604 89.3086 279.216 98.721 282.555 90.0436C279.791 81.523 276.883 57.7181 276.883 57.7181L282.567 47.5171L302.141 47.2494L331.879 44.2005Z" fill="#DADCE0"/>
<rect x="40.5" y="47.248" width="189.594" height="15.84" fill="#202124"/>
<path d="M240.642 47.2496C238.212 45.9176 245.07 44.2976 242.352 44.2076C234.702 43.9556 189.648 44.0996 182.016 43.9016C171.936 43.6316 161.856 43.1816 151.776 43.1816C125.946 43.1816 100.116 43.3616 74.2684 43.5236C64.8184 43.5776 55.3684 43.8296 45.9184 43.9736C44.2984 43.9916 42.6964 44.1896 41.1124 44.5856C38.9704 45.1256 38.3404 45.9176 38.3044 48.2036C38.2684 50.7236 38.2504 53.2436 38.2324 55.7636C38.2144 57.3476 37.4764 89.6036 37.4404 91.1876L43.4344 76.4456C43.4344 76.3916 43.5784 64.6916 43.5784 64.6376C43.5964 61.0376 43.6504 53.2076 43.7044 49.6076C43.7044 49.3556 43.7404 49.0676 44.5144 48.8336C44.4244 48.8336 44.7664 48.8336 45.1084 48.8336C68.9584 49.3016 92.8084 49.4816 116.658 49.4276C147.078 49.3556 177.516 49.2296 207.936 49.1216C208.746 49.1216 209.556 49.0496 210.366 48.9956C211.284 48.9236 233.928 51.9116 234.666 51.3536C235.242 50.8856 241.272 47.5916 240.642 47.2496Z" fill="#202124"/>
<path d="M295.614 224.135C295.29 223.199 294.57 222.587 293.58 222.317C292.536 222.029 291.456 221.831 290.376 221.741C282.78 221.129 275.202 220.463 267.552 220.517C262.494 220.553 257.454 220.355 252.396 220.283C217.836 219.815 183.276 219.347 148.698 218.879C145.332 218.825 141.966 218.771 138.6 218.699C138.006 218.681 135.342 218.681 134.748 218.645C134.838 220.769 133.992 222.947 134.19 225.053C135.36 224.891 139.662 224.981 140.832 224.999C162.918 225.305 185.004 225.629 207.09 225.971C225.108 226.241 243.144 226.511 261.162 226.871C271.458 227.087 281.754 227.051 292.05 226.511C292.842 226.475 293.634 226.439 294.408 226.277C295.416 226.061 295.92 225.053 295.614 224.135Z" fill="#202124"/>
<path d="M91.53 217.942C91.026 217.96 87.858 217.834 87.372 217.834C77.292 217.708 67.23 217.546 57.15 217.438C52.02 217.384 46.89 217.348 41.778 217.636C40.698 217.69 40.59 217.546 40.644 216.376C41.544 200.122 41.652 183.832 41.886 167.56C42.084 154.078 42.246 140.578 42.426 127.096C42.426 126.736 42.462 126.376 42.48 126.016C40.86 125.314 39.186 125.512 37.512 125.728C37.512 126.988 37.548 128.248 37.53 129.508C37.278 151.738 37.008 173.95 36.738 196.18C36.666 202.75 36.72 209.32 36.99 215.89C37.044 217.06 37.116 218.23 37.332 219.382C37.818 221.956 38.466 222.55 41.022 222.856C42.534 223.036 44.064 223.18 45.594 223.234C52.344 223.468 59.094 223.684 65.844 223.846C73.584 224.026 81.324 224.152 89.064 224.296C89.226 224.296 93.186 224.296 93.348 224.314C93.024 222.154 91.62 220.084 91.53 217.942Z" fill="#202124"/>
<path d="M345.366 137.141C345.528 144.665 345.672 152.189 345.852 159.731C345.96 163.691 345.816 167.651 345.492 171.593C345.438 172.313 345.222 172.997 344.862 173.663C344.61 174.113 344.214 174.473 343.512 174.455C342.774 174.419 342.072 174.185 341.73 173.681C341.46 173.267 341.262 172.817 341.154 172.385C340.938 171.485 340.848 170.585 340.632 169.685C339.768 166.067 339.75 162.431 339.66 158.813C339.3 144.863 339.57 130.913 339.696 116.981C339.732 112.373 339.732 107.765 339.732 103.157C339.732 101.789 339.912 100.439 340.47 99.143C340.578 98.891 340.668 98.639 340.848 98.423C341.478 97.703 342.846 97.685 343.566 98.369C343.962 98.747 344.196 99.179 344.25 99.629C344.412 100.727 344.646 101.825 344.682 102.923C344.826 109.151 344.916 115.379 345.042 121.607C345.15 126.791 345.276 131.993 345.384 137.177C345.384 137.141 345.366 137.141 345.366 137.141Z" fill="#202124"/>
<path d="M22.0322 217.762C23.1122 217.762 24.1922 217.744 25.2722 217.762C25.9022 217.78 26.5322 217.834 27.1442 217.96C27.9542 218.122 28.4582 218.716 28.5302 219.4C28.5842 220.084 28.1522 220.66 27.2702 220.912C26.8382 221.038 26.3882 221.11 25.9562 221.164C23.9042 221.452 21.8702 221.758 19.8182 222.01C18.9362 222.118 18.0182 222.1 17.1362 222.046C16.5242 222.01 15.8942 221.848 15.3002 221.65C14.5442 221.398 13.9862 220.678 14.0402 220.066C14.1302 219.256 14.6522 218.716 15.3722 218.536C16.4162 218.266 17.4782 218.068 18.5582 217.996C19.7102 217.906 20.8982 217.978 22.0682 217.978C22.0322 217.924 22.0322 217.834 22.0322 217.762Z" fill="#202124"/>
<path d="M37.9442 232.901C37.9082 231.749 37.6922 230.687 37.9262 229.625C38.1242 228.779 38.5922 228.257 39.2942 228.167C40.1222 228.059 40.6442 228.491 41.0582 229.139C41.2022 229.355 41.3102 229.607 41.4002 229.859C42.3362 232.667 42.8582 235.565 43.0022 238.517C43.0202 238.949 42.9482 239.417 42.7862 239.831C42.2822 241.163 40.7522 241.469 39.7262 240.515C39.1142 239.939 38.8442 239.201 38.5922 238.427C38.0342 236.573 38.0882 234.701 37.9442 232.901Z" fill="#202124"/>
<path d="M32.9039 227.878C32.8319 228.058 32.7419 228.508 32.5259 228.886C31.4819 230.758 30.4019 232.612 29.3219 234.466C28.8179 235.33 28.2419 236.122 27.3779 236.644C26.7119 237.04 25.9739 237.094 25.3439 236.626C24.8219 236.248 24.5699 235.618 24.6779 234.952C24.7859 234.34 24.9119 233.71 25.1639 233.152C26.0819 231.208 27.2159 229.372 28.6379 227.752C29.3039 226.996 30.0599 226.384 31.0499 226.132C31.9499 225.934 32.9219 226.726 32.9039 227.878Z" fill="#202124"/>
<path fill-rule="evenodd" clip-rule="evenodd" d="M305.658 157.178V157.178C305.633 157.639 305.609 158.099 305.586 158.56C305.523 158.611 305.457 158.663 305.389 158.715L305.389 158.715C305.245 158.826 305.097 158.941 304.974 159.064C303.822 160.252 303.804 161.17 304.956 162.25C305.118 162.4 305.324 162.513 305.531 162.626C305.647 162.69 305.764 162.754 305.874 162.826C305.589 163.622 305.617 164.444 305.644 165.248C305.65 165.408 305.655 165.566 305.658 165.724C305.767 169.891 305.43 174.031 305.092 178.18L305.091 178.188C305.04 178.821 304.988 179.454 304.938 180.088C302.22 179.098 299.808 177.568 297.396 176.002C294.138 173.896 290.7 172.15 287.1 170.746C282.582 168.982 278.046 167.308 273.492 165.652C271.8 165.04 270.072 164.536 268.344 164.086C266.058 163.492 263.7 163.474 261.396 163.906C258.588 164.428 257.346 166.498 258.012 169.27C258.516 171.34 259.65 173.05 261.054 174.598C262.872 176.614 264.996 178.27 267.174 179.854C268.594 180.878 270.009 181.906 271.424 182.935L271.425 182.936L271.426 182.937L271.427 182.937L271.428 182.938L271.429 182.939L271.43 182.94L271.431 182.94C272.849 183.971 274.266 185.001 275.688 186.028C281.61 190.348 286.326 195.658 289.35 202.39C289.14 202.427 288.929 202.47 288.718 202.513C288.227 202.612 287.736 202.712 287.244 202.75C280.897 203.242 274.534 203.206 268.17 203.17L267.012 203.164C265.605 203.157 264.198 203.16 262.79 203.163H262.79C260.327 203.168 257.865 203.173 255.402 203.128C252.845 203.087 250.287 203.019 247.733 202.951L247.733 202.951L247.731 202.951C245.702 202.897 243.674 202.843 241.65 202.804C239.011 202.756 236.372 202.722 233.732 202.688L233.73 202.688C230.43 202.646 227.13 202.604 223.83 202.534C217.553 202.414 211.283 202.279 205.011 202.143C201.841 202.075 198.671 202.006 195.498 201.94C194.142 201.909 192.787 201.868 191.432 201.827C189.64 201.772 187.85 201.718 186.066 201.688C185.112 201.67 184.518 201.256 184.302 200.374C184.261 200.19 184.216 200.005 184.172 199.819L184.172 199.819C183.985 199.039 183.795 198.242 183.78 197.458C183.727 194.65 183.595 191.848 183.462 189.047C183.233 184.215 183.004 179.386 183.186 174.544C183.361 169.711 183.648 164.879 183.936 160.035L183.936 160.034L183.936 160.033L183.936 160.033L183.936 160.033L183.936 160.033L183.936 160.033L183.936 160.033C183.974 159.392 184.012 158.751 184.05 158.11C184.087 157.497 184.112 156.883 184.137 156.268C184.221 154.191 184.305 152.109 184.86 150.082C186.246 151 187.794 151.414 189.45 151.414C189.99 151.414 190.53 151.436 191.07 151.459C191.61 151.481 192.15 151.504 192.69 151.504C201.116 151.443 209.541 151.367 217.961 151.291C222.133 151.253 226.304 151.215 230.472 151.18C231.99 151.168 233.508 151.144 235.025 151.12C238.278 151.068 241.53 151.016 244.782 151.09C249.102 151.18 253.404 151.18 257.724 151.018C266.096 150.719 274.474 150.774 282.855 150.828C289.141 150.869 295.429 150.91 301.716 150.802C303.21 150.82 304.578 150.748 305.712 149.686C305.925 152.192 305.791 154.686 305.658 157.178ZM240.12 174.724V174.76L239.764 174.748C235.834 174.626 231.92 174.504 227.988 174.4C226.728 174.364 225.468 174.328 224.226 174.598C223.29 174.814 222.696 175.408 222.606 176.164C222.498 177.046 223.038 177.856 224.064 178.162C224.58 178.311 225.117 178.368 225.658 178.426L225.658 178.426C225.835 178.445 226.011 178.463 226.188 178.486C229.009 178.826 231.839 178.919 234.665 179.012H234.666L234.666 179.012L234.666 179.012C235.879 179.052 237.091 179.092 238.302 179.152C242.236 179.343 246.178 179.502 250.117 179.662L250.118 179.662L250.118 179.662L250.118 179.662L250.119 179.662L250.119 179.662L250.12 179.662L250.12 179.662C252.11 179.742 254.099 179.823 256.086 179.908C256.536 179.926 256.986 179.926 257.436 179.89C257.796 179.854 258.138 179.764 258.48 179.62C259.74 179.116 259.974 177.64 258.966 176.812C258.336 176.29 257.598 175.93 256.806 175.768C255.744 175.552 254.682 175.336 253.62 175.282C250.276 175.122 246.941 174.991 243.617 174.861C242.45 174.816 241.285 174.77 240.12 174.724ZM192.6 166.768C193.788 162.448 197.208 159.892 201.852 159.964C201.919 159.968 201.993 159.973 202.073 159.978L202.073 159.978L202.073 159.978C202.294 159.992 202.555 160.009 202.806 160.036C207.81 160.198 209.862 164.842 208.314 168.91C207.9 170.008 207.198 170.944 206.352 171.772C205.735 172.36 205.14 172.972 204.541 173.588L204.541 173.588L204.541 173.588L204.54 173.589C204.389 173.745 204.237 173.901 204.084 174.058C202.968 175.21 202.824 176.578 203.382 178.036C203.466 178.248 203.571 178.454 203.677 178.659L203.677 178.659C203.821 178.94 203.965 179.22 204.048 179.512C204.192 180.016 204.282 180.574 204.264 181.096C204.228 181.888 203.796 182.446 203.04 182.698C202.284 182.932 201.618 182.734 201.078 182.158C200.552 181.601 200.277 180.906 200.001 180.21C199.947 180.073 199.892 179.936 199.836 179.8C198.558 176.668 198.954 173.824 201.42 171.394C201.834 170.98 202.253 170.575 202.671 170.17C203.09 169.765 203.508 169.36 203.922 168.946C204.624 168.226 205.164 167.416 205.236 166.372C205.344 165.022 204.732 164.122 203.454 163.744C200.718 162.934 198.252 163.762 196.542 166.048C195.756 167.09 195.327 168.295 194.9 169.493L194.832 169.684C194.616 170.278 194.274 170.854 193.5 170.8C192.978 170.764 192.51 170.188 192.42 169.432C192.312 168.532 192.348 167.65 192.6 166.768ZM238.518 163.906H226.908C225.828 163.906 224.748 163.942 223.704 164.266C222.516 164.626 221.994 165.166 222.012 166.048C222.048 166.894 222.57 167.398 223.812 167.74C225.036 168.082 226.296 168.154 227.556 168.172C234.648 168.262 241.758 168.352 248.85 168.424C249.48 168.424 250.11 168.424 250.74 168.334C251.964 168.154 252.774 167.254 252.792 166.21C252.792 165.13 252 164.428 250.632 164.302C250.272 164.266 249.912 164.266 249.552 164.266C246.923 164.168 244.303 164.087 241.854 164.011C240.698 163.975 239.58 163.94 238.518 163.906ZM258.696 185.488V185.38C262.116 185.56 265.518 185.74 268.938 185.956C269.658 185.992 270.378 186.028 271.044 186.352C271.962 186.802 272.448 187.414 272.394 188.17C272.322 189.322 271.53 190.312 270.504 190.492C270.144 190.546 269.784 190.546 269.424 190.528C264.852 190.222 260.28 189.898 255.708 189.556C255.078 189.511 254.453 189.452 253.827 189.394C253.202 189.335 252.576 189.277 251.946 189.232C251.046 189.16 250.164 188.98 249.372 188.53C248.778 188.206 248.472 187.666 248.526 186.964C248.58 186.262 248.958 185.776 249.588 185.524C250.524 185.128 251.514 185.092 252.504 185.146C253.539 185.2 254.57 185.258 255.601 185.317C256.631 185.375 257.661 185.434 258.696 185.488ZM233.676 184.894V184.822C232.783 184.822 231.889 184.82 230.995 184.818H230.995H230.994H230.994C229.204 184.814 227.412 184.81 225.612 184.822C224.892 184.822 224.172 184.876 223.47 185.002C222.75 185.146 222.174 185.902 222.174 186.514C222.174 187.126 222.75 187.864 223.488 188.044C224.01 188.17 224.55 188.206 225.09 188.242H225.09C229.107 188.621 233.124 188.645 237.141 188.669H237.141C238.848 188.68 240.555 188.69 242.262 188.728C242.622 188.728 242.982 188.71 243.324 188.638C244.152 188.458 244.728 187.774 244.782 186.946C244.854 186.01 244.26 185.164 243.324 184.984C242.78 184.872 242.222 184.873 241.662 184.875C241.592 184.875 241.522 184.876 241.452 184.876C240.156 184.876 238.86 184.88 237.564 184.885C236.268 184.889 234.972 184.894 233.676 184.894ZM293.372 154.302C293.723 154.307 294.075 154.312 294.426 154.312C294.949 154.274 295.475 154.226 296.003 154.179C296.729 154.113 297.459 154.047 298.188 154.006C298.728 153.97 299.286 153.988 299.772 154.168C301.248 154.708 301.554 156.67 300.33 157.66C299.682 158.182 298.908 158.362 298.098 158.488C295.352 158.92 292.592 158.955 289.83 158.99L289.83 158.99C289.37 158.996 288.91 159.002 288.45 159.01C287.46 159.028 286.722 158.596 286.344 157.642C285.786 156.238 286.29 155.086 287.748 154.744C288.792 154.492 289.872 154.402 290.934 154.33C291.74 154.279 292.555 154.291 293.372 154.302ZM280.278 154.15C279.306 154.15 278.532 154.276 277.83 154.744C277.038 155.284 276.678 156.256 277.002 157.066C277.416 158.146 278.478 158.596 280.17 158.434C281.448 158.308 282.33 157.624 282.528 156.616C282.744 155.5 282.042 154.438 280.944 154.222C280.656 154.15 280.386 154.15 280.278 154.15ZM200.79 188.115C200.826 187.125 201.672 186.297 202.734 186.261C203.868 186.225 204.858 187.107 204.912 188.205C204.966 189.339 204.12 190.275 202.968 190.329C201.744 190.383 200.754 189.375 200.79 188.115Z" fill="#FAE041"/>
<path d="M361.224 188.297C363.564 187.703 365.436 188.531 367.02 190.241C368.802 192.131 370.008 194.309 370.188 196.919C370.422 200.339 370.584 203.777 369.918 207.143C369.594 208.781 370.062 209.807 371.106 210.977C376.542 217.097 381.96 223.253 387.306 229.445C398.052 241.919 408.762 254.429 419.472 266.939C420.408 268.037 421.236 269.207 422.082 270.377C422.73 271.259 423.126 272.267 423.306 273.347C423.468 274.301 422.586 275.147 421.65 274.949C420.57 274.715 419.598 274.247 418.788 273.509C417.654 272.483 416.52 271.457 415.512 270.305C409.662 263.591 403.794 256.877 398.016 250.091C388.746 239.183 379.494 228.275 370.008 217.565C369.414 216.899 368.784 216.251 368.172 215.603C367.92 215.333 367.506 215.495 367.38 215.873C366.462 218.879 365.58 221.903 364.626 224.891C363.132 229.625 360.99 234.089 358.758 238.499C357.246 241.469 355.68 244.403 354.042 247.301C352.008 250.919 349.488 254.195 346.878 257.417C344.988 259.739 345.114 258.947 346.302 261.593C352.116 274.445 357.948 287.297 363.762 300.149C365.292 303.515 366.642 306.935 367.506 310.535C367.668 311.237 367.794 311.939 367.848 312.659C367.902 313.307 367.704 313.919 367.11 314.297C366.66 314.603 365.796 314.387 365.184 313.703C364.644 313.109 364.176 312.425 363.798 311.723C362.754 309.743 361.692 307.745 360.774 305.693C355.554 293.849 350.388 281.987 345.204 270.125C344.34 268.145 343.422 266.201 342.54 264.221C342.36 263.807 342.198 263.375 341.658 263.159C339.948 264.707 337.932 265.895 335.988 267.191C334.458 268.217 332.766 268.775 330.984 269.063C328.284 269.495 326.016 268.667 324.198 266.615C323.19 265.445 322.362 264.167 321.948 262.655C318.996 254.249 324.648 256.715 325.458 256.589C326.304 256.445 326.07 258.209 326.916 261.593C327.114 261.989 327.294 262.403 327.528 262.763C328.212 263.753 329.184 264.059 330.336 263.753C330.93 263.591 331.524 263.393 332.082 263.105C333.756 262.277 335.358 261.305 336.69 259.973C339.75 256.895 339.714 258.119 337.59 254.141C331.074 246.077 336.942 246.905 337.968 245.933C338.094 245.807 340.722 250.811 340.848 250.685C341.586 251.459 341.622 252.701 342.72 253.457C343.386 252.629 344.07 251.837 344.664 250.973C346.644 248.093 348.624 245.213 350.55 242.279C351.486 240.857 352.314 239.363 353.106 237.851C354.276 235.637 355.392 233.387 356.454 231.119C357.516 228.851 359.658 223.613 359.784 223.289C360.828 220.535 361.854 217.763 362.952 215.009C363.888 212.687 364.824 210.347 365.418 207.917C366.444 203.795 366.966 199.637 366.192 195.407C365.67 192.275 364.338 189.647 361.224 188.297Z" fill="#202124"/>
<path d="M289.35 202.425C286.308 195.711 281.61 190.383 275.688 186.063C272.862 183.993 270.018 181.941 267.174 179.889C264.978 178.305 262.872 176.631 261.054 174.633C259.65 173.085 258.516 171.375 258.012 169.305C257.346 166.515 258.588 164.463 261.396 163.941C263.718 163.509 266.058 163.509 268.344 164.121C270.072 164.571 271.8 165.075 273.492 165.687C278.046 167.343 282.6 169.017 287.1 170.781C290.7 172.185 294.156 173.913 297.396 176.037C299.808 177.603 302.22 179.133 304.938 180.123C306.45 181.473 308.43 181.887 310.176 182.769C311.13 183.255 312.138 183.651 313.056 184.209C314.046 184.803 314.478 185.685 314.136 186.135C313.578 186.873 312.768 186.945 311.94 186.855C311.31 186.783 310.698 186.621 310.104 186.441C309.42 186.243 308.736 185.991 308.07 185.739C303.408 184.029 299.052 181.689 294.804 179.187C291.618 177.315 288.306 175.713 284.85 174.417C280.062 172.617 275.256 170.853 270.432 169.107C269.082 168.621 267.696 168.207 266.31 167.883C264.636 167.487 263.232 167.631 261.666 168.171C262.206 170.133 262.494 170.691 263.808 172.077C265.482 173.859 267.426 175.317 269.442 176.667C272.142 178.449 274.842 180.249 277.506 182.067C283.77 186.351 288.864 191.697 292.392 198.483C294.102 201.777 296.352 204.693 299.106 207.213C304.092 211.785 309.762 214.809 316.746 214.863C318.366 214.881 319.968 215.097 321.588 215.205C322.308 215.259 323.028 215.349 323.676 215.709C324.666 216.249 324.918 217.401 324.144 218.193C323.586 218.769 322.92 219.201 322.254 219.741C323.388 221.307 324.522 222.819 325.584 224.367C329.616 230.217 333.234 236.337 336.636 242.565C337.104 243.429 337.644 244.257 338.148 245.085C337.356 246.003 336.564 246.921 335.772 247.839C335.466 248.199 335.646 248.775 335.196 248.739C333.864 246.309 331.956 243.429 330.624 240.999C330.408 240.603 330.228 240.207 329.616 240.297C327.87 245.103 327.276 250.179 326.52 255.219C326.502 255.363 326.484 255.885 326.412 256.083C324.738 256.731 323.028 257.217 321.228 256.623C321.12 253.923 321.696 251.295 322.182 248.649C322.992 244.149 324.288 239.739 325.638 235.401C326.07 234.033 326.25 233.547 325.278 232.125C324.45 230.217 323.298 228.525 321.966 226.941C320.76 225.051 319.554 223.161 318.366 221.253C317.934 220.551 317.34 220.389 316.548 220.407C309.51 220.641 303.606 217.869 298.368 213.423C295.326 210.849 292.806 207.807 290.61 204.495C290.214 203.793 289.782 203.109 289.35 202.425Z" fill="#202124"/>
<path d="M333.594 245.5C334.386 244.582 335.178 243.664 335.97 242.746C337.068 241.81 338.04 240.766 338.904 239.614C340.722 237.166 342.612 234.772 344.376 232.288C345.528 230.686 346.572 229.012 347.562 227.302C349.578 223.81 351.504 220.282 353.304 216.646C355.14 212.92 356.4 209.014 357.48 205.036C357.588 204.622 357.48 204.154 357.462 203.704C357.642 203.416 357.93 203.164 358.002 202.858C358.416 201.166 358.794 199.474 359.172 197.782C359.928 195.928 359.424 194.092 359.082 192.256C359.046 192.04 358.254 190.726 357.75 190.456C356.562 189.826 355.824 189.736 354.078 190.132C352.53 190.798 351.432 191.806 350.694 191.302C349.974 190.798 350.442 189.142 349.848 188.476C349.308 187.882 348.102 187.468 347.598 186.838C349.938 186.118 355.392 184.498 358.992 185.974C362.106 187.324 363.456 189.952 364.032 193.102C364.806 197.332 364.266 201.49 363.258 205.612C357.3 224.098 353.7 228.418 351.666 231.514C347.742 237.454 343.44 243.106 338.688 248.38C337.554 249.478 336.276 250.468 335.43 251.836C334.926 252.196 334.422 252.538 333.918 252.898C330.966 255.166 328.104 257.56 324.756 259.27C323.1 259.612 321.84 260.332 319.788 260.332C318.996 260.152 318.204 259.99 317.412 259.81C314.532 259.18 312.858 257.398 312.462 254.482C311.94 250.648 311.724 246.814 312.426 242.962C313.056 239.488 314.226 236.194 315.522 232.954C316.692 230.056 319.194 225.664 320.886 223C322.218 224.584 323.424 226.06 324.252 227.968C324.072 228.166 322.686 230.146 322.56 230.362C319.356 236.518 317.556 243.052 317.196 249.982C317.106 251.674 317.574 253.186 319.032 254.23C320.85 254.842 322.542 254.356 324.216 253.69C324.342 253.546 325.098 253.33 325.296 253.204C328.032 251.584 330.21 249.334 332.226 246.922C332.442 246.724 333.288 245.842 333.594 245.5Z" fill="#202124"/>
<path d="M305.712 149.686C304.578 150.748 303.192 150.82 301.716 150.856C287.046 151.108 272.376 150.568 257.724 151.072C253.404 151.216 249.102 151.216 244.782 151.144C240.012 151.054 235.242 151.198 230.472 151.234C217.872 151.342 205.272 151.45 192.69 151.558C191.61 151.558 190.53 151.486 189.45 151.468C187.794 151.468 186.246 151.054 184.86 150.136C184.086 147.652 184.626 146.572 186.966 145.906C188.73 145.402 190.53 145.456 192.33 145.438C197.82 145.402 203.31 145.402 208.8 145.42C220.41 145.492 232.02 145.636 243.612 145.636C249.822 145.636 256.014 145.636 262.224 145.834C268.704 146.05 275.184 145.924 281.664 145.87C287.694 145.816 293.724 145.618 299.754 145.906C300.834 145.96 301.914 145.852 302.994 145.87C305.226 145.924 305.946 146.788 305.82 149.128C305.802 149.326 305.748 149.506 305.712 149.686Z" fill="#202124"/>
<path d="M350.568 188.927C351.054 189.557 351.522 190.205 352.062 190.799C352.656 191.465 353.25 192.149 353.97 192.671C354.132 192.743 357.426 190.871 360.144 192.617C360.666 192.887 361.368 193.967 361.314 194.597C359.838 194.597 357.84 194.057 356.454 195.065C358.146 196.865 359.604 198.647 361.404 200.123C382.482 222.083 371.394 216.971 370.98 218.645C370.908 218.951 359.874 205.757 359.676 206.045C358.992 205.343 358.29 204.659 357.606 203.939C347.616 193.391 337.194 183.275 326.178 173.771C323.928 171.845 321.606 170.009 319.176 168.317C315.144 165.491 310.662 163.817 305.874 162.827C305.568 162.647 305.226 162.503 304.956 162.251C303.804 161.171 303.822 160.253 304.974 159.065C305.154 158.885 305.388 158.723 305.586 158.561C311.67 158.633 317.214 160.343 322.182 163.889C324.882 165.815 327.492 167.867 330.012 170.009C336.438 175.463 342.54 181.277 348.552 187.163C349.2 187.793 349.74 188.531 350.568 188.927Z" fill="#202124"/>
<path d="M240.12 174.724C244.62 174.904 249.102 175.066 253.602 175.3C254.664 175.354 255.744 175.57 256.788 175.786C257.58 175.948 258.318 176.308 258.948 176.83C259.974 177.676 259.722 179.152 258.462 179.638C258.138 179.764 257.778 179.872 257.418 179.908C256.968 179.962 256.518 179.944 256.068 179.926C250.146 179.674 244.206 179.458 238.284 179.17C234.252 178.972 230.184 178.99 226.17 178.504C225.468 178.414 224.73 178.378 224.046 178.18C223.02 177.874 222.48 177.064 222.588 176.182C222.678 175.408 223.272 174.832 224.208 174.616C225.45 174.328 226.71 174.382 227.97 174.418C232.02 174.526 236.052 174.652 240.102 174.778C240.12 174.76 240.12 174.742 240.12 174.724Z" fill="#202124"/>
<path d="M201.852 159.963C202.104 159.981 202.464 159.999 202.824 160.017C207.81 160.161 209.88 164.805 208.332 168.891C207.918 169.989 207.216 170.925 206.37 171.753C205.596 172.509 204.84 173.265 204.102 174.039C202.968 175.209 202.842 176.559 203.4 178.017C203.598 178.521 203.904 178.971 204.066 179.493C204.21 179.997 204.3 180.555 204.282 181.077C204.264 181.869 203.814 182.427 203.058 182.679C202.302 182.931 201.636 182.715 201.096 182.139C200.466 181.473 200.178 180.591 199.854 179.781C198.576 176.649 198.972 173.823 201.438 171.375C202.266 170.565 203.13 169.755 203.94 168.927C204.642 168.207 205.182 167.397 205.254 166.353C205.344 165.003 204.75 164.103 203.472 163.725C200.736 162.915 198.288 163.761 196.56 166.029C195.732 167.127 195.318 168.405 194.85 169.665C194.634 170.259 194.292 170.835 193.518 170.781C192.978 170.745 192.528 170.169 192.438 169.413C192.33 168.513 192.384 167.631 192.618 166.749C193.788 162.429 197.208 159.873 201.852 159.963Z" fill="#202124"/>
<path d="M238.518 163.907C241.83 164.015 245.682 164.123 249.552 164.249C249.912 164.267 250.272 164.267 250.632 164.285C252 164.411 252.792 165.113 252.792 166.193C252.792 167.255 251.964 168.137 250.74 168.317C250.128 168.407 249.48 168.407 248.85 168.407C241.758 168.335 234.648 168.245 227.556 168.155C226.296 168.137 225.036 168.065 223.812 167.723C222.57 167.381 222.048 166.877 222.012 166.031C221.976 165.149 222.516 164.609 223.704 164.249C224.748 163.943 225.828 163.907 226.908 163.889C230.598 163.889 234.27 163.907 238.518 163.907Z" fill="#202124"/>
<path d="M258.696 185.38C262.116 185.56 265.518 185.758 268.938 185.938C269.658 185.974 270.36 186.028 271.044 186.334C271.962 186.766 272.448 187.378 272.394 188.152C272.322 189.286 271.512 190.294 270.504 190.474C270.162 190.528 269.784 190.546 269.424 190.51C264.852 190.186 260.28 189.862 255.708 189.538C254.448 189.448 253.206 189.322 251.946 189.214C251.046 189.142 250.164 188.962 249.372 188.512C248.778 188.17 248.472 187.648 248.526 186.946C248.58 186.262 248.958 185.758 249.588 185.506C250.524 185.128 251.514 185.092 252.504 185.128C254.574 185.236 256.626 185.344 258.696 185.47C258.696 185.434 258.696 185.398 258.696 185.38Z" fill="#202124"/>
<path d="M233.676 184.894C236.268 184.894 238.878 184.894 241.47 184.894C242.1 184.894 242.73 184.894 243.342 185.002C244.278 185.182 244.854 186.028 244.8 186.964C244.746 187.792 244.17 188.476 243.342 188.656C243 188.728 242.622 188.746 242.28 188.746C236.556 188.62 230.814 188.8 225.108 188.26C224.568 188.206 224.028 188.188 223.506 188.062C222.768 187.882 222.21 187.162 222.192 186.532C222.192 185.902 222.768 185.146 223.488 185.02C224.19 184.894 224.91 184.84 225.63 184.84C228.312 184.822 230.994 184.84 233.694 184.84C233.676 184.84 233.676 184.858 233.676 184.894Z" fill="#202124"/>
<path d="M294.426 154.312C295.668 154.204 296.91 154.078 298.17 154.006C298.692 153.988 299.268 154.006 299.754 154.168C301.248 154.69 301.536 156.67 300.312 157.66C299.664 158.182 298.872 158.362 298.08 158.488C294.876 158.992 291.654 158.938 288.432 159.01C287.442 159.028 286.704 158.596 286.326 157.642C285.768 156.238 286.29 155.086 287.73 154.744C288.774 154.492 289.854 154.384 290.916 154.33C292.086 154.258 293.256 154.312 294.426 154.312Z" fill="white"/>
<path d="M280.278 154.15C280.404 154.168 280.674 154.15 280.926 154.204C282.042 154.42 282.744 155.482 282.51 156.598C282.312 157.606 281.43 158.29 280.152 158.416C278.46 158.596 277.398 158.128 276.984 157.048C276.678 156.238 277.038 155.248 277.812 154.726C278.532 154.276 279.306 154.15 280.278 154.15Z" fill="white"/>
<path d="M202.734 186.263C203.868 186.227 204.858 187.109 204.912 188.189C204.966 189.341 204.12 190.259 202.968 190.313C201.744 190.367 200.754 189.377 200.79 188.099C200.826 187.127 201.69 186.299 202.734 186.263Z" fill="#202124"/>
<path fill-rule="evenodd" clip-rule="evenodd" d="M363.942 43.3611C365.058 43.4151 366.012 44.2611 366.084 45.3591V45.3771C366.136 46.17 366.191 46.963 366.247 47.7561L366.247 47.7565C366.441 50.5461 366.636 53.3382 366.678 56.1411C366.768 62.6931 367.074 69.2451 367.416 75.7971C367.516 77.7842 367.677 79.7712 367.838 81.7643L367.838 81.765C367.909 82.6424 367.98 83.5209 368.046 84.4011C368.058 84.5826 368.081 84.7641 368.103 84.9449C368.147 85.3021 368.19 85.6566 368.154 86.0031C367.902 88.9011 367.272 89.4771 364.338 89.6931C361.89 89.8731 359.442 90.0171 356.994 90.0711C352.296 90.1611 347.58 90.3051 342.882 90.7011C338.929 91.0216 334.976 91.1143 331.023 91.2069H331.023C329.648 91.2391 328.273 91.2713 326.898 91.3131C315.488 91.6498 304.096 92.0213 292.686 92.3933L292.14 92.4111C289.98 92.4831 287.838 92.5911 285.678 92.7531C284.652 92.8251 283.95 92.4291 283.446 91.6011C283.608 90.5751 283.518 89.5671 283.284 88.5411C282.978 87.2811 282.726 86.0211 282.564 84.7431C282.386 83.4361 282.201 82.1292 282.016 80.8219L282.016 80.8218L282.016 80.8215L282.016 80.8214C281.493 77.1236 280.97 73.4233 280.584 69.7131C280.552 69.3885 280.518 69.0636 280.485 68.7385C280.118 65.1339 279.747 61.5015 279.846 57.8691L279.853 57.6423C279.886 56.4561 279.919 55.2588 280.206 54.1251C281.052 50.7591 284.112 47.2131 287.928 46.7271C290.178 46.4031 351.432 42.6951 363.942 43.3611ZM340.56 56.627C340.95 56.627 341.34 56.629 341.73 56.631H341.73C342.51 56.635 343.29 56.639 344.07 56.627C344.556 56.609 344.97 56.339 345.132 55.907C345.33 55.349 345.132 54.863 344.682 54.467C344.052 53.909 343.296 53.639 342.522 53.405C336.87 51.695 329.256 54.107 326.124 59.759C324.414 62.855 323.676 66.005 324.054 69.587C324.666 75.365 328.158 79.001 333.36 80.567C337.374 81.791 341.37 81.611 345.24 80.009C350.316 77.885 352.854 73.889 353.268 68.507C353.574 64.457 351.738 61.199 349.182 58.265C348.804 57.833 348.318 57.617 347.778 57.563C346.734 57.437 345.816 58.427 346.068 59.435C346.194 59.939 346.464 60.443 346.734 60.893C346.95 61.2503 347.182 61.596 347.412 61.9409C347.682 62.3432 347.95 62.7443 348.192 63.161C348.966 64.493 349.506 65.915 349.542 67.499C349.614 71.279 347.796 74.015 344.772 76.049C342.414 77.615 339.75 77.975 337.014 77.651C329.04 76.715 326.376 69.929 328.032 64.241C329.058 60.713 331.236 58.013 334.98 56.933C336.798 56.357 338.67 56.339 340.56 56.627ZM312.516 61.4872C308.214 61.8112 303.912 62.1352 300.438 62.3872L298.726 62.4309C295.989 62.5008 293.741 62.5582 291.492 62.6032C290.952 62.6032 290.412 62.5672 289.89 62.4772C289.314 62.3692 288.972 61.9372 288.9 61.3612C288.828 60.7852 289.08 60.2452 289.62 60.0472C290.466 59.7412 291.33 59.4712 292.212 59.3632C297.756 58.7152 303.318 58.2292 308.898 58.2472H312.408C312.498 58.2472 312.588 58.2465 312.678 58.2458C313.038 58.2429 313.398 58.24 313.758 58.2832C314.82 58.3912 315.486 58.8772 315.594 59.5792C315.684 60.2812 315.144 60.9112 314.1 61.2172C313.596 61.3612 313.056 61.4512 312.516 61.4872ZM302.346 67.031V67.103C301.357 67.148 300.372 67.1975 299.388 67.2469L299.387 67.247L299.385 67.247L299.385 67.2471C298.4 67.2966 297.414 67.346 296.424 67.391L296.169 67.4017H296.169C294.545 67.4693 292.922 67.5367 291.348 67.913C290.826 68.039 290.304 68.165 289.818 68.381C289.296 68.615 289.008 69.083 289.026 69.677C289.044 70.289 289.476 70.901 290.124 71.063C290.736 71.207 291.366 71.279 291.978 71.279C293.868 71.279 295.758 71.261 297.63 71.207C302.022 71.063 306.414 70.721 310.788 70.199C310.844 70.1921 310.899 70.1854 310.954 70.1788C311.616 70.0984 312.257 70.0205 312.822 69.605C313.542 69.101 313.524 68.003 312.768 67.589C311.868 67.085 310.896 67.049 309.888 67.049C308.64 67.049 307.387 67.0446 306.132 67.0401H306.132H306.131H306.131L306.13 67.0401C304.87 67.0356 303.608 67.031 302.346 67.031ZM294.066 75.5271C298.53 74.9691 302.994 74.4471 307.494 74.3391C308.844 74.3391 310.194 74.3391 311.526 74.3571C312.048 74.3571 312.606 74.3571 313.128 74.4291C313.812 74.5371 314.316 75.1131 314.334 75.6891C314.334 76.2291 313.848 76.8951 313.2 77.0211C312.254 77.1964 311.291 77.3034 310.343 77.4086L310.343 77.4086L310.343 77.4086L310.266 77.4171C304.65 78.0471 298.998 78.5151 293.346 78.6771C293.261 78.6787 293.176 78.6806 293.091 78.6826C292.187 78.7032 291.287 78.7238 290.448 78.2631C289.89 77.9571 289.764 77.0391 290.25 76.6611C290.52 76.4451 290.844 76.2291 291.168 76.1391C292.122 75.8871 293.094 75.6531 294.066 75.5271ZM338.04 71.5851C337.854 71.5851 337.676 71.582 337.504 71.579C337.093 71.5717 336.716 71.5651 336.348 71.6031C335.79 71.6571 335.322 71.9091 335.142 72.5031C334.962 73.0971 335.25 73.5471 335.646 73.9251C335.898 74.1591 336.204 74.3751 336.528 74.5191C339.822 76.0851 344.592 74.3031 346.068 70.9731C346.176 70.7391 346.248 70.4691 346.302 70.2171C346.464 69.3531 346.086 68.5251 345.384 68.1651C344.664 67.8051 343.746 67.8951 343.152 68.4891C342.912 68.7166 342.72 68.9838 342.527 69.2538C342.461 69.3471 342.394 69.4407 342.324 69.5331C341.208 70.9551 339.822 71.8191 338.04 71.5851ZM333.684 70.073C333.72 71.063 332.82 71.999 331.83 71.981C330.768 71.963 329.976 71.081 330.084 70.019C330.156 69.083 330.966 68.381 331.902 68.381C332.82 68.399 333.648 69.173 333.684 70.073Z" fill="#20BEFF"/>
<path d="M241.65 44.1879C241.884 43.5219 242.352 41.7219 243.252 40.2819C255.762 20.0679 272.43 19.0599 277.146 18.7359C279.576 18.5559 281.988 18.3759 284.418 18.3399C296.226 18.1419 306.9 21.6879 316.674 28.1499C317.862 28.9419 318.978 29.8779 320.022 30.8679C321.3 32.0919 321.822 33.7659 321.156 34.1439C319.968 34.8099 318.924 34.0179 317.898 33.5319C317.502 33.3339 317.142 33.0639 316.764 32.7939C310.626 28.5639 303.93 25.5759 296.64 23.9919C292.842 23.1639 289.008 22.7319 285.12 22.8939C280.89 23.0559 276.678 23.1819 272.52 24.1539C270.756 24.5679 269.028 25.0539 267.408 25.8459C264.834 27.1059 262.242 28.3659 259.74 29.7879C257.13 31.2639 254.952 33.2979 253.026 35.5659C249.966 39.1479 247.536 43.1259 246.006 47.6079C244.674 51.5139 243.342 55.4379 242.82 59.5599C241.83 67.2639 241.632 74.9859 242.352 82.7079C242.604 85.4799 243.09 88.2339 243.468 90.9879C243.522 91.3479 243.576 91.7079 243.594 92.0499C243.63 93.5979 242.874 94.1919 241.164 93.9759C240.984 93.9579 240.822 93.8859 240.642 93.8499C239.238 91.9419 238.392 89.7819 237.942 87.4599C237.582 85.6059 237.276 83.7519 237.132 81.8799C236.628 75.7779 236.79 69.6759 237.312 63.5919C237.672 59.3979 238.14 55.2039 239.238 51.0999C239.382 50.5419 241.65 44.1879 241.65 44.1879Z" fill="#202124"/>
<path d="M241.812 43.5938C240.714 47.6797 237.654 59.4157 237.294 63.6097C236.772 69.6937 236.61 75.7957 237.114 81.8978C237.276 83.7878 237.564 85.6418 237.924 87.4778C238.374 89.7998 239.238 91.9417 240.624 93.8677C236.952 93.8857 233.262 93.9398 229.59 93.9217C227.34 93.9038 226.854 93.3278 226.782 90.9697C226.62 85.3178 226.476 79.6657 226.35 74.0138C226.206 68.3438 226.692 55.7618 226.764 47.8958C226.782 45.7538 228.492 44.0078 230.652 43.9358L241.812 43.5938Z" fill="#20BEFF"/>
<path d="M249.372 72.8441C249.534 68.4701 249.552 64.2581 250.128 60.0641C250.722 55.7621 251.712 51.6041 254.088 47.8781C254.916 46.5821 255.888 45.4121 257.13 44.4941C257.436 44.2601 257.778 44.0801 258.084 44.2961C258.228 44.3861 258.282 44.8001 258.228 45.0341C257.922 46.3481 257.598 47.6441 257.256 48.9401C256.374 52.1441 255.258 55.2761 254.844 58.5881C253.872 66.4721 253.674 74.3381 254.7 82.2401C255.114 85.4441 255.348 88.6661 255.942 91.8521C256.032 92.2841 256.032 92.7521 255.978 93.1841C255.816 94.4441 254.322 95.0561 253.296 94.2821C252.54 93.7241 252.144 92.9141 251.784 92.0861C250.92 90.0881 250.488 87.9821 250.128 85.8581C249.372 81.5021 249.336 77.1101 249.372 72.8441Z" fill="#202124"/>
<path d="M267.462 62.0439C267.696 70.5759 268.11 79.0899 269.424 87.5499C269.586 88.6119 269.586 89.6919 269.604 90.7719C269.622 91.3659 269.226 91.7619 268.704 91.9959C268.11 92.2659 267.624 91.9599 267.246 91.5999C266.508 90.9159 266.112 89.9979 265.77 89.0619C264.978 86.9559 264.51 84.7599 264.204 82.5279C263.88 80.2239 263.52 77.9019 263.394 75.5799C263.052 69.2259 262.296 62.8539 263.088 56.4819C263.25 55.2399 263.448 53.9979 263.754 52.7739C264.132 51.2799 264.762 49.8939 265.752 48.6879C266.148 48.2199 266.58 47.3739 267.12 47.5359C267.948 47.7879 267.534 48.7419 267.552 49.3719C267.588 51.2619 267.498 53.1339 267.498 55.0239C267.444 57.3639 267.462 59.7039 267.462 62.0439Z" fill="#202124"/>
<path d="M228.6 100.311C226.998 100.149 225.306 100.059 223.614 99.7894C221.238 99.4114 220.212 98.2774 219.888 95.8834C219.726 94.7314 219.564 93.5794 219.438 92.4274C219.348 91.7074 219.276 90.9874 219.546 90.3034C219.762 89.7814 220.14 89.3674 220.716 89.3134C221.274 89.2594 221.742 89.5294 222.066 90.0334C222.57 90.8074 222.678 91.7074 222.894 92.5714C223.038 93.1834 223.11 93.8134 223.128 94.4254C223.2 96.2974 223.038 96.6754 225.684 97.0354C227.016 97.2154 228.366 97.1254 229.716 97.1614C230.436 97.1794 231.156 97.1794 231.858 97.2874C232.506 97.3954 232.956 98.0074 232.992 98.6194C233.028 99.2494 232.632 99.8254 231.912 99.9514C230.85 100.131 229.77 100.203 228.6 100.311Z" fill="#202124"/>
<path d="M380.232 29.9858C380.142 30.6518 379.782 31.2818 379.17 31.6958C376.794 33.2978 374.4 34.8638 372.006 36.4478C371.862 36.5378 371.682 36.5918 371.502 36.6458C370.692 36.9158 369.882 36.7358 369.54 36.2498C369.162 35.6918 369.252 34.9538 369.828 34.2878C370.116 33.9458 370.44 33.6218 370.782 33.3518C372.744 31.7858 374.706 30.2198 376.686 28.6898C377.1 28.3838 377.622 28.1498 378.126 28.0418C379.242 27.8078 380.322 28.8158 380.232 29.9858Z" fill="#202124"/>
<path d="M376.956 45.3574C375.696 45.3574 374.454 45.4114 373.194 45.3394C372.438 45.3034 371.844 44.8714 371.646 44.0794C371.448 43.3594 371.736 42.6214 372.366 42.2074C372.906 41.8474 373.482 41.6134 374.13 41.6134C376.542 41.5774 378.972 41.5234 381.384 41.5234C381.924 41.5234 382.428 41.6674 382.878 42.0274C383.706 42.6934 383.778 43.9174 382.95 44.6014C382.32 45.1414 381.546 45.4114 380.718 45.4294C379.458 45.4474 378.216 45.4294 376.956 45.4294C376.956 45.3934 376.956 45.3754 376.956 45.3574Z" fill="#202124"/>
<path d="M360.702 29.771C360.756 28.979 360.792 28.169 360.864 27.377C360.918 26.855 360.954 26.297 361.098 25.793C361.404 24.731 362.34 24.083 363.276 24.227C364.104 24.353 364.77 25.127 364.716 26.207C364.59 28.619 364.122 30.977 363.06 33.173C362.826 33.659 362.394 34.001 361.782 33.965C361.206 33.929 360.648 33.407 360.612 32.705C360.558 31.733 360.594 30.743 360.594 29.771C360.63 29.771 360.666 29.771 360.702 29.771Z" fill="#202124"/>
<path d="M391.698 1.49231C390.96 1.29431 390.834 0.592312 390.492 0.0703125C391.068 0.412312 391.5 0.862312 391.662 1.54631C391.662 1.52831 391.698 1.49231 391.698 1.49231Z" fill="#9AA0A6"/>
<path d="M392.328 2.10436C392.562 2.26636 392.778 2.51836 392.562 2.75236C392.31 3.00436 392.094 2.73436 391.932 2.53636C391.824 2.39236 391.77 2.23036 391.698 2.06836C391.896 2.06836 392.112 2.08636 392.328 2.10436Z" fill="white"/>
<path d="M392.328 2.10419C392.112 2.08619 391.896 2.06819 391.68 2.05019C391.68 1.87019 391.698 1.67219 391.698 1.49219L391.662 1.52819C391.878 1.72619 392.112 1.90619 392.328 2.10419Z" fill="#9AA0A6"/>
<path d="M340.56 56.6264C338.67 56.3384 336.78 56.3564 334.944 56.8964C331.2 57.9764 329.04 60.6764 327.996 64.2044C326.322 69.9104 329.004 76.6784 336.978 77.6144C339.732 77.9384 342.378 77.5784 344.736 76.0124C347.778 73.9964 349.578 71.2424 349.506 67.4624C349.47 65.8784 348.93 64.4744 348.156 63.1244C347.706 62.3504 347.166 61.6304 346.698 60.8564C346.428 60.4064 346.158 59.9024 346.032 59.3984C345.78 58.3904 346.698 57.4004 347.742 57.5264C348.3 57.5984 348.768 57.8144 349.146 58.2284C351.72 61.1624 353.556 64.4204 353.232 68.4704C352.818 73.8344 350.298 77.8484 345.204 79.9724C341.334 81.5924 337.338 81.7544 333.324 80.5304C328.122 78.9644 324.63 75.3284 324.018 69.5504C323.64 65.9684 324.378 62.8184 326.088 59.7224C329.22 54.0884 336.834 51.6584 342.486 53.3684C343.26 53.6024 344.016 53.8724 344.646 54.4304C345.096 54.8264 345.294 55.3124 345.096 55.8704C344.934 56.3024 344.52 56.5724 344.034 56.5904C342.9 56.6444 341.73 56.6264 340.56 56.6264Z" fill="#202124"/>
<path d="M300.438 62.387C296.892 62.477 294.192 62.549 291.492 62.603C290.952 62.621 290.412 62.585 289.89 62.477C289.296 62.369 288.954 61.937 288.9 61.361C288.828 60.785 289.08 60.245 289.62 60.047C290.466 59.741 291.33 59.471 292.212 59.363C297.756 58.715 303.318 58.229 308.898 58.247C310.068 58.247 311.238 58.247 312.408 58.247C312.858 58.247 313.308 58.229 313.758 58.283C314.82 58.391 315.486 58.877 315.594 59.579C315.702 60.281 315.144 60.911 314.1 61.217C313.578 61.361 313.038 61.451 312.516 61.487C308.214 61.811 303.912 62.135 300.438 62.387Z" fill="#202124"/>
<path d="M302.346 67.0312C304.866 67.0312 307.386 67.0312 309.888 67.0312C310.878 67.0312 311.868 67.0853 312.768 67.5713C313.524 67.9852 313.542 69.0833 312.822 69.5872C312.21 70.0192 311.49 70.0912 310.788 70.1812C306.414 70.7032 302.022 71.0452 297.63 71.1892C295.74 71.2612 293.85 71.2793 291.978 71.2613C291.348 71.2613 290.718 71.1892 290.124 71.0452C289.476 70.9012 289.044 70.2892 289.026 69.6592C289.008 69.0652 289.314 68.5972 289.818 68.3632C290.304 68.1472 290.826 68.0213 291.348 67.8953C293.022 67.4992 294.732 67.4453 296.424 67.3733C298.404 67.3013 300.366 67.1933 302.346 67.0853C302.346 67.0853 302.346 67.0492 302.346 67.0312Z" fill="#202124"/>
<path d="M307.494 74.3379C308.844 74.3379 310.194 74.3379 311.526 74.3379C312.066 74.3379 312.606 74.3379 313.128 74.4099C313.812 74.5179 314.316 75.0939 314.334 75.6699C314.352 76.2099 313.848 76.8759 313.2 77.0019C312.228 77.1819 311.256 77.2899 310.266 77.3979C304.65 78.0459 298.998 78.4959 293.346 78.6579C292.356 78.6939 291.366 78.7479 290.448 78.2439C289.89 77.9379 289.764 77.0199 290.25 76.6419C290.52 76.4259 290.844 76.2099 291.168 76.1199C292.122 75.8679 293.094 75.6339 294.066 75.5079C298.53 74.9679 302.994 74.4459 307.494 74.3379Z" fill="#202124"/>
<path d="M338.04 71.5851C339.84 71.8011 341.208 70.9551 342.306 69.5151C342.576 69.1551 342.81 68.7771 343.134 68.4711C343.728 67.8951 344.664 67.7871 345.366 68.1471C346.068 68.5071 346.446 69.3351 346.284 70.1991C346.23 70.4511 346.158 70.7211 346.05 70.9551C344.592 74.3031 339.822 76.0851 336.51 74.5011C336.186 74.3571 335.88 74.1411 335.628 73.9071C335.232 73.5291 334.944 73.0611 335.124 72.4851C335.304 71.8911 335.754 71.6391 336.33 71.5851C336.87 71.5491 337.41 71.5851 338.04 71.5851Z" fill="white"/>
<path d="M331.83 71.9809C330.768 71.9629 329.994 71.0809 330.084 70.0189C330.174 69.1009 330.966 68.3809 331.902 68.3809C332.82 68.3809 333.648 69.1729 333.684 70.0729C333.72 71.0629 332.82 71.9989 331.83 71.9809Z" fill="white"/>
<path fill-rule="evenodd" clip-rule="evenodd" d="M171.027 78.7894L171.028 78.7976C171.192 80.3529 171.356 81.9082 171.54 83.4635C171.673 84.5756 171.813 85.6858 171.954 86.7953L171.954 86.7962L171.954 86.797L171.954 86.7978L171.954 86.7985L171.954 86.7992C172.423 90.5015 172.89 94.1972 173.07 97.9355C173.34 103.137 173.718 108.34 174.096 113.542C174.258 115.863 174.474 118.203 174.798 120.525C175.057 122.304 175.113 124.09 175.169 125.879V125.88V125.88V125.88V125.881V125.881C175.195 126.699 175.221 127.518 175.266 128.337C175.41 131.091 174.312 132.748 170.856 133.45C169.348 133.746 167.806 133.839 166.259 133.932L166.259 133.932C165.553 133.975 164.847 134.017 164.142 134.079C164.253 133.624 164.378 133.171 164.503 132.717C164.782 131.701 165.062 130.685 165.186 129.652C165.546 126.537 163.512 124.269 160.362 124.143C159.282 124.09 158.22 124.287 157.176 124.521C149.652 126.213 142.362 128.643 135.162 131.379C133.302 132.093 131.482 132.953 129.667 133.81C129.374 133.948 129.082 134.086 128.79 134.223C127.566 134.799 126.468 135.591 125.838 136.851L119.664 136.986L113.49 137.121C108.163 137.247 102.84 137.369 97.5168 137.49L97.5162 137.49L97.5155 137.49L97.5149 137.49L97.5142 137.491L97.5136 137.491C92.1906 137.612 86.8676 137.734 81.5401 137.86C79.9381 136.851 79.9381 136.852 78.5521 137.95C77.5842 137.994 76.6163 138.032 75.6488 138.07C73.1257 138.169 70.6052 138.268 68.0941 138.489C61.3801 139.065 54.6841 139.083 47.9521 138.903C46.9353 138.871 45.912 138.858 44.8861 138.845H44.8858L44.8848 138.845C44.204 138.836 43.522 138.828 42.8401 138.813C41.2201 138.111 39.5461 138.31 37.8721 138.526C35.8921 138.417 33.9301 138.49 31.9501 138.633C28.1859 138.901 24.4217 139.073 20.6575 139.244C20.1197 139.268 19.5819 139.293 19.0441 139.318C17.4961 139.389 16.0021 139.065 14.5621 138.543C14.0221 138.346 13.6621 137.967 13.6441 137.355L13.5901 135.736C13.2668 130.089 13.1953 124.442 13.1238 118.796C13.0839 115.64 13.044 112.485 12.9601 109.329C12.8444 104.886 12.6617 100.443 12.479 95.9992C12.3776 93.5306 12.2761 91.0621 12.1861 88.5935C12.1212 86.8084 12.0758 85.0299 12.0303 83.25C12.0002 82.0685 11.97 80.8864 11.9341 79.7015C13.4174 80.0682 14.9161 80.049 16.4159 80.0299C16.536 80.0284 16.656 80.0268 16.7761 80.0255C24.2461 79.9535 31.6981 79.8815 39.1681 79.6295C49.193 79.2737 59.2179 79.0256 69.2429 78.7775C73.4199 78.6741 77.597 78.5707 81.7741 78.4595L91.2151 78.2165L100.656 77.9735L100.657 77.9735C114.948 77.5955 129.24 77.2175 143.532 76.8575L144.098 76.8433C151.829 76.6501 159.543 76.4572 167.274 76.2815C168.462 76.2635 169.596 76.1195 170.694 75.6875C170.809 76.7215 170.918 77.7555 171.027 78.7894ZM30.7981 108.466H30.6361C30.5766 107.246 30.521 106.028 30.4655 104.811L30.4654 104.809C30.3529 102.345 30.2406 99.8832 30.0961 97.4136C30.0823 97.184 30.067 96.9749 30.053 96.7845L30.053 96.7842L30.053 96.784C29.9217 94.9904 29.9122 94.8611 32.4181 94.8936C32.8757 94.8996 33.3334 94.906 33.7911 94.9124C38.8233 94.9825 43.8542 95.0526 48.8701 94.6236C49.2301 94.5876 49.5901 94.5696 49.9501 94.6056C50.3281 94.6416 50.5981 94.8936 50.6881 95.2716C50.7601 95.6136 50.8141 95.9736 50.8321 96.3336C50.9038 97.4352 50.9944 98.5368 51.085 99.6392L51.085 99.6395L51.0851 99.6398L51.0851 99.6401L51.0851 99.6404L51.0851 99.6407L51.0852 99.6409C51.2448 101.582 51.4047 103.526 51.4621 105.478C51.5567 109.06 51.7731 112.631 51.9894 116.201L51.9894 116.201L51.9895 116.202C52.0612 117.385 52.1329 118.569 52.2001 119.752C52.2361 120.382 52.3261 121.012 52.4341 121.624C52.4881 121.966 52.5961 122.326 52.7581 122.65C53.3701 123.802 54.7741 123.982 55.7101 123.046C56.0341 122.722 56.3041 122.344 56.3221 121.876C56.359 121.255 56.4596 120.641 56.5603 120.025C56.7052 119.14 56.8505 118.253 56.8081 117.34C56.5921 112.858 56.4121 108.358 56.3221 103.858C56.2501 100.42 55.7281 97.0536 55.1521 93.6876C54.7381 91.1856 53.7301 90.3756 51.1381 90.1596C51.0031 90.1506 50.8681 90.1461 50.7332 90.1416L50.7331 90.1416L50.733 90.1416C50.598 90.1371 50.463 90.1326 50.3281 90.1236C46.3629 89.9386 42.4074 90.103 38.4473 90.2675H38.4473H38.4473H38.4473H38.4473H38.4472C37.0143 90.327 35.5808 90.3866 34.1461 90.4296C32.0761 90.5016 30.0061 90.6996 27.9721 90.9516C25.9201 91.2216 25.1641 91.9776 24.7861 94.0296C24.5881 95.1636 24.4801 96.3516 24.5161 97.5216C24.6781 103.912 24.8761 110.284 25.1101 116.674C25.1742 118.196 25.3524 119.704 25.5305 121.211C25.5524 121.397 25.5744 121.582 25.5961 121.768C25.6501 122.308 25.7941 122.83 25.9381 123.352C26.2081 124.378 26.8201 125.026 27.8461 125.44C29.0521 125.926 30.2941 125.998 31.5541 125.98C32.5055 125.964 33.4569 125.946 34.4083 125.927C36.7869 125.882 39.1655 125.836 41.5441 125.836C43.3441 125.836 45.1261 125.638 46.9081 125.422C46.9967 125.41 47.0854 125.402 47.1735 125.394C47.3535 125.378 47.5308 125.362 47.7001 125.314C48.6901 125.062 49.3741 124.36 49.4641 123.496C49.5721 122.542 48.9421 121.624 47.8621 121.282C47.3581 121.12 46.8001 121.03 46.2781 121.03C42.5881 121.066 38.8981 121.12 35.2261 121.21C34.6328 121.229 34.0449 121.309 33.4566 121.389L33.4564 121.389H33.4563H33.4563H33.4562H33.4562C32.9736 121.454 32.4907 121.519 32.0041 121.552C30.9601 121.642 30.8161 121.462 30.8161 120.328C30.7891 117.372 30.7924 114.406 30.7958 111.438V111.437V111.437V111.437V111.436V111.436C30.7969 110.446 30.7981 109.456 30.7981 108.466ZM114.552 114.262V114.154C114.754 114.154 114.956 114.155 115.159 114.156H115.159H115.159H115.159H115.159C115.768 114.159 116.379 114.163 117 114.136C123.828 114.001 130.66 113.857 137.492 113.713L137.492 113.713L137.493 113.713L137.493 113.713L137.502 113.713C144.337 113.569 151.173 113.425 158.004 113.29C158.724 113.272 159.444 113.326 160.146 113.47C161.1 113.668 161.676 114.46 161.748 115.396C161.82 116.422 161.208 117.376 160.218 117.682C159.696 117.844 159.156 117.88 158.616 117.898C158.098 117.919 157.58 117.942 157.06 117.965C155.43 118.037 153.792 118.109 152.154 118.15C141.102 118.42 130.032 118.672 118.98 118.906C106.038 119.176 93.078 119.446 80.136 119.698C77.166 119.752 74.196 119.77 71.226 119.752C70.254 119.752 69.264 119.608 68.292 119.41C67.5 119.266 67.05 118.636 66.996 117.88C66.942 117.106 67.284 116.476 67.986 116.116C68.634 115.774 69.354 115.702 70.074 115.666C70.9613 115.62 71.8462 115.564 72.7304 115.508L72.7307 115.508H72.7308H72.7308H72.7309H72.731C74.2682 115.412 75.8035 115.315 77.346 115.27C82.017 115.144 86.6925 115.022 91.368 114.901C96.0435 114.779 100.719 114.658 105.39 114.532C108.432 114.442 111.492 114.352 114.552 114.262ZM114.426 99.1597V99.0877C114.651 99.0787 114.876 99.0652 115.101 99.0517L115.101 99.0517L115.101 99.0516C115.326 99.0381 115.551 99.0247 115.776 99.0157C122.298 98.7998 128.816 98.5793 135.334 98.3589L135.342 98.3587L135.35 98.3584C141.868 98.138 148.386 97.9176 154.908 97.7017C155.548 97.6777 156.188 97.6679 156.828 97.6581C157.628 97.6459 158.428 97.6337 159.228 97.5937C159.93 97.5577 160.668 97.4677 161.334 97.2337C162.162 96.9457 162.612 96.2437 162.666 95.3797C162.72 94.4977 162.27 93.8497 161.496 93.4177C160.83 93.0397 160.128 93.0037 159.408 93.0577C158.864 93.094 158.321 93.1363 157.78 93.1787L157.779 93.1787C156.709 93.2624 155.641 93.3458 154.566 93.3817C150.848 93.4981 147.13 93.6012 143.415 93.7042L143.413 93.7043L143.413 93.7043L143.412 93.7043C139.663 93.8083 135.916 93.9121 132.174 94.0297C125.372 94.2445 118.577 94.4751 111.78 94.7058L111.779 94.7059L111.778 94.7059L111.778 94.7059C108.324 94.8232 104.869 94.9404 101.412 95.0557C98.861 95.1387 96.3099 95.2198 93.7595 95.3009L93.7544 95.3011L93.7536 95.3011L93.7527 95.3011L93.7518 95.3012C88.5667 95.466 83.3843 95.6307 78.21 95.8117C76.5672 95.8683 74.9244 95.9606 73.2861 96.0527C72.3215 96.1069 71.3586 96.161 70.398 96.2077C69.3 96.2617 68.238 96.4057 67.266 96.8917C66.69 97.1977 66.312 97.7377 66.348 98.4397C66.384 99.1057 66.69 99.6817 67.32 99.9337C67.896 100.168 68.508 100.348 69.138 100.402C70.038 100.492 70.938 100.474 71.838 100.456L85.0348 100.051L98.28 99.6457C103.644 99.5017 109.044 99.3397 114.426 99.1597ZM93.5101 109.244C93.3001 109.242 93.0901 109.24 92.8801 109.24C87.3683 109.67 81.8566 109.72 76.3449 109.77C75.3946 109.778 74.4443 109.787 73.4941 109.798C72.5041 109.798 71.5141 109.78 70.5241 109.744C69.9841 109.726 69.4261 109.672 68.9221 109.528C68.0221 109.258 67.5001 108.574 67.5181 107.782C67.5541 106.954 68.0581 106.486 68.7601 106.18C69.0841 106.036 69.4441 105.982 69.8041 105.928C70.111 105.888 70.4179 105.844 70.725 105.801C71.6609 105.669 72.5994 105.536 73.5481 105.496C78.8581 105.244 84.1501 105.046 89.4421 104.866C94.5182 104.681 99.6008 104.516 104.686 104.352C108.04 104.243 111.395 104.134 114.75 104.02L114.754 104.02C115.473 104.002 116.173 103.984 116.874 104.218C117.81 104.524 118.404 105.262 118.44 106.18C118.476 107.098 117.954 107.872 117.072 108.304C116.489 108.603 115.865 108.613 115.235 108.623L115.235 108.623L115.234 108.623C115.145 108.624 115.056 108.625 114.966 108.628C108.236 108.844 101.505 109.042 94.7744 109.24L94.7701 109.24C94.3501 109.252 93.9301 109.248 93.5101 109.244ZM141.858 106.882V106.954C143.205 106.905 144.552 106.858 145.898 106.81L145.899 106.81L145.899 106.81C150.036 106.664 154.168 106.518 158.31 106.342C159.012 106.306 159.75 106.198 160.434 106C161.406 105.712 161.892 104.902 161.802 103.948C161.712 103.03 161.064 102.274 160.056 102.184C159.174 102.094 158.256 102.112 157.356 102.166L157.355 102.166C147.833 102.58 138.312 102.994 128.772 103.426C127.877 103.461 126.989 103.545 126.099 103.628L126.099 103.628C125.647 103.671 125.195 103.713 124.74 103.75C124.092 103.804 123.516 103.966 122.976 104.326C121.914 105.046 121.95 106.36 123.066 106.936C123.804 107.314 124.578 107.476 125.406 107.458C125.676 107.453 125.946 107.45 126.216 107.446C127.026 107.436 127.836 107.426 128.646 107.386C130.799 107.306 132.956 107.223 135.115 107.139L135.116 107.139C137.362 107.052 139.61 106.964 141.858 106.882ZM41.7686 113.025C41.4948 112.679 41.2177 112.33 40.9321 111.976C40.261 112.721 39.916 113.553 39.5771 114.369C39.4252 114.735 39.2744 115.098 39.0961 115.45C39.0352 115.569 38.9757 115.689 38.9163 115.808C38.536 116.574 38.1586 117.335 37.4581 117.88C37.0261 118.222 36.5221 118.42 35.9821 118.096C35.4781 117.79 35.1721 117.34 35.2441 116.764C35.2981 116.242 35.4421 115.72 35.6221 115.216C35.7455 114.866 35.8669 114.517 35.9882 114.167C36.4861 112.732 36.9832 111.299 37.6201 109.924C38.2321 108.592 38.0521 107.584 37.2601 106.432C36.4819 105.326 35.7969 104.147 35.1109 102.967C34.8924 102.592 34.6738 102.216 34.4521 101.842C34.2791 101.539 34.1177 101.213 33.9586 100.892C33.919 100.812 33.8795 100.732 33.8401 100.654C33.5521 100.096 33.6601 99.5916 34.1281 99.2136C34.6141 98.8176 35.1361 98.9976 35.6221 99.3036C36.4412 99.8264 37.0409 100.585 37.6337 101.336C37.6532 101.36 37.6726 101.385 37.6921 101.41C38.0251 101.833 38.3446 102.265 38.6641 102.697C38.9836 103.129 39.3031 103.561 39.6361 103.984C39.8881 104.29 40.3021 104.344 40.5181 103.948C40.8977 103.267 41.2487 102.567 41.5989 101.869C41.7303 101.607 41.8615 101.346 41.9941 101.086C42.0794 100.908 42.1576 100.726 42.2356 100.544C42.3714 100.228 42.5066 99.9134 42.6781 99.6276C43.0921 98.9616 43.8121 98.6916 44.5321 98.8536C45.1621 98.9976 45.7201 99.6816 45.7921 100.438C45.8821 101.266 45.6121 102.058 45.2701 102.778C44.5681 104.236 43.8121 105.658 43.0021 107.062C42.5341 107.872 42.5161 108.538 43.1101 109.276C43.8391 110.153 44.5377 111.061 45.2364 111.969C45.4692 112.272 45.7021 112.574 45.9361 112.876C46.0075 112.963 46.0794 113.05 46.1513 113.137C46.4784 113.533 46.8045 113.927 47.0701 114.37C47.4661 115.036 47.3041 115.9 46.8181 116.368C46.3321 116.836 45.4501 116.944 44.8381 116.458C44.2801 116.026 43.7941 115.486 43.3261 114.946C42.7955 114.321 42.2882 113.68 41.7686 113.025Z" fill="#20BEFF"/>
<path d="M169.236 70.8646C168.516 70.7746 167.796 70.7746 167.076 70.7926C164.376 70.8466 161.676 70.9186 158.976 71.0086C142.236 71.4946 125.514 71.9986 108.774 72.4666C93.5641 72.8806 78.3541 73.2406 63.1621 73.6366C61.9021 73.6726 60.6421 73.7626 59.3821 73.8166C54.7741 73.9606 37.9441 74.4826 37.9441 74.4826C37.8541 74.5006 37.7821 74.5366 37.6741 74.5366C37.1341 74.5726 36.5941 74.5726 36.0541 74.5906C29.8441 74.8066 23.6341 75.0226 17.4421 75.2566C16.0921 75.3106 14.7601 75.4906 13.4101 75.6346C12.9601 75.6886 12.5101 75.7606 12.0961 75.9226C10.3501 76.5886 10.0981 78.0466 11.4841 79.4326C11.6101 79.5586 11.7901 79.6126 11.9521 79.7026C13.5541 80.0986 15.1741 80.0446 16.7941 80.0266C24.2641 79.9546 31.7161 79.8826 39.1861 79.6306C53.3881 79.1266 67.5901 78.8386 81.7921 78.4606C88.0921 78.2986 94.3741 78.1366 100.674 77.9746C114.966 77.5966 129.258 77.2186 143.55 76.8586C151.47 76.6606 159.372 76.4626 167.292 76.2826C168.48 76.2646 169.614 76.1206 170.712 75.6886C170.892 75.4906 171.072 75.2746 171.234 75.0766C172.548 73.3846 171.306 71.1166 169.236 70.8646Z" fill="#202124"/>
<path d="M135.792 230.759C135.756 230.633 135.738 230.507 135.72 230.363C135.72 230.183 135.702 230.003 135.684 229.823C134.964 220.949 134.658 212.039 134.622 203.129C134.424 200.177 134.604 197.225 134.208 194.273C133.902 191.951 134.46 189.629 134.532 187.307C134.586 185.435 134.55 183.545 134.55 181.655L134.496 181.547C133.956 181.205 133.884 180.809 134.388 180.377C134.64 178.415 134.892 176.471 135.144 174.509C135.918 168.605 137.43 162.935 140.004 157.535C142.056 153.233 144.918 149.669 148.932 147.023C151.614 145.241 154.188 143.297 156.852 141.479C159.786 139.481 162.216 137.015 164.142 134.045C164.502 132.569 165.006 131.111 165.186 129.617C165.546 126.503 163.512 124.235 160.362 124.109C159.282 124.055 158.22 124.253 157.176 124.487C149.652 126.179 142.362 128.609 135.162 131.345C133.002 132.173 130.896 133.199 128.79 134.189C127.566 134.765 126.468 135.557 125.838 136.817C125.892 137.177 125.892 137.537 126 137.879C126.198 138.563 126.738 138.941 127.422 138.869C128.034 138.815 128.646 138.617 129.222 138.401C136.998 135.611 144.738 132.785 152.532 130.013C154.638 129.257 156.816 128.681 158.958 128.033C159.39 127.907 159.822 127.799 160.272 127.745C161.19 127.619 161.856 128.213 161.856 129.113C161.838 130.319 161.46 131.417 160.614 132.299C159.066 133.937 157.518 135.539 155.61 136.781C152.73 138.635 149.922 140.561 147.078 142.451C146.934 142.559 146.772 142.649 146.628 142.739C137.916 148.301 133.146 156.491 131.094 166.391C130.518 169.199 130.41 172.097 130.374 174.977C130.338 176.957 130.266 178.937 130.212 180.899C130.194 181.349 130.176 181.799 129.834 182.141C129.852 185.867 129.978 189.611 129.852 193.337C129.744 196.811 130.374 200.249 130.248 203.723C130.464 207.143 130.626 210.545 130.878 213.965C131.274 219.347 131.688 224.729 132.138 230.111C132.606 235.673 133.128 241.217 133.632 246.779C133.776 248.309 133.92 249.821 134.136 251.333C134.244 252.125 134.478 252.917 134.766 253.673C134.964 254.195 135.432 254.555 136.026 254.501C136.512 254.465 136.8 254.123 136.998 253.691C137.376 252.917 137.304 252.107 137.268 251.297C137.106 248.363 135.846 233.495 135.792 230.759Z" fill="#202124"/>
<path d="M107.208 190.763C106.848 187.397 107.064 183.977 107.028 180.575C106.902 180.053 106.704 179.531 106.686 179.009C106.668 178.055 106.074 177.569 105.354 177.155C104.436 177.533 103.932 178.181 103.914 179.207C103.842 183.869 103.554 188.531 104.148 193.193C104.418 195.407 104.364 197.675 104.382 199.925C104.382 201.257 104.094 201.491 102.816 201.563C98.5683 201.797 94.3923 201.275 90.2883 200.195C87.5163 199.457 84.8163 198.503 82.1343 197.441C81.1083 197.027 80.5323 196.379 80.3163 195.317C80.0103 193.715 79.9923 192.113 79.9383 190.493C79.8123 186.011 79.6503 181.529 79.5243 177.029C79.4883 175.751 79.3263 174.527 78.5523 173.447C77.8143 173.591 77.4903 174.095 77.4723 174.779C77.4543 176.039 77.4723 177.299 77.4903 178.559C77.5803 182.699 77.7063 186.821 77.7963 190.961C77.8323 193.031 77.9583 195.083 78.4803 197.117C78.9663 198.989 80.0283 200.321 81.8643 201.005C83.0343 201.437 84.1863 201.959 85.3923 202.355C86.2023 202.625 86.4543 203.111 86.5623 203.921C87.6423 212.021 88.8303 220.121 90.2343 228.185C90.3603 228.887 91.8723 237.563 91.9803 238.193C92.6643 241.901 93.3843 245.609 94.1043 249.317C94.6803 252.233 95.3103 255.131 96.1743 257.975C96.4623 258.929 96.8043 259.847 97.4343 260.639C97.9023 261.233 98.4783 261.665 99.2883 261.467C100.098 261.269 100.404 260.603 100.584 259.901C100.836 258.929 100.764 257.939 100.692 256.949C100.458 253.979 99.9183 251.063 99.3243 248.165C96.8403 236.195 94.5903 224.171 92.6823 212.093C92.2683 209.537 91.9443 206.981 91.5663 204.443C92.5743 203.939 93.4743 204.245 94.3383 204.317C97.4883 204.533 100.638 204.371 103.788 204.173C105.48 204.065 106.704 203.363 107.262 201.689C107.352 201.437 107.496 201.203 107.622 200.969C107.604 197.549 107.568 194.165 107.208 190.763Z" fill="#202124"/>
<path fill-rule="evenodd" clip-rule="evenodd" d="M107.604 200.932C107.586 197.53 107.568 194.164 107.208 190.762C106.958 188.421 106.986 186.053 107.014 183.684C107.027 182.647 107.039 181.61 107.028 180.574C107.298 180.61 107.568 180.646 107.82 180.7C113.202 181.87 118.656 182.446 124.146 182.482C125.496 182.495 126.855 182.387 128.216 182.278C128.743 182.236 129.271 182.193 129.798 182.158C129.803 183.253 129.816 184.349 129.829 185.446C129.861 188.083 129.892 190.723 129.816 193.354C129.763 195.07 129.889 196.778 130.016 198.485C130.146 200.234 130.276 201.982 130.212 203.74C128.926 203.677 127.64 203.718 126.351 203.758H126.351C125.061 203.799 123.769 203.839 122.472 203.776C117.99 203.56 113.652 202.678 109.386 201.4C108.964 201.295 108.532 201.179 108.09 201.062L108.09 201.062C107.929 201.019 107.767 200.975 107.604 200.932ZM111.006 194.938H110.934C110.957 194.709 110.985 194.478 111.012 194.246L111.012 194.246C111.069 193.768 111.126 193.287 111.15 192.814C111.168 192.292 111.096 191.752 110.988 191.248C110.88 190.78 110.538 190.474 110.07 190.384C109.674 190.312 108.972 190.852 108.972 191.374C109.026 193.858 109.134 196.324 109.26 198.808C109.278 199.096 109.584 199.222 109.854 199.222C110.016 199.222 110.196 199.15 110.322 199.042C110.682 198.754 110.862 198.34 110.898 197.872C110.916 196.9 110.952 195.91 111.006 194.938ZM110.393 186.377C110.399 186.473 110.405 186.566 110.412 186.658C110.39 186.81 110.372 186.958 110.355 187.103C110.318 187.423 110.283 187.729 110.196 188.026C110.106 188.404 109.818 188.62 109.422 188.638C109.008 188.656 108.738 188.44 108.576 188.098C108.144 187.18 108.09 186.208 108.18 185.236C108.234 184.696 108.828 184.246 109.314 184.318C109.8 184.39 110.16 184.66 110.25 185.128C110.338 185.537 110.366 185.969 110.393 186.377Z" fill="#202124"/>
<path d="M9.95414 132.947C10.0621 134.657 10.1701 136.349 10.2601 138.059C10.2961 138.779 10.3141 139.499 10.0261 140.183C9.79214 140.723 9.45014 141.083 8.87414 141.191C8.19014 141.317 7.59614 141.101 7.21814 140.543C6.93014 140.093 6.67814 139.589 6.55214 139.085C6.19214 137.519 5.81414 135.935 5.59814 134.333C5.18414 131.129 4.87814 127.907 4.53614 124.685C4.42814 123.695 4.42814 122.705 4.91414 121.787C5.76014 120.221 7.61414 120.077 8.65814 121.517C9.16214 122.201 9.28814 122.975 9.39614 123.803C9.81014 126.845 9.82814 129.905 9.95414 132.947Z" fill="#202124"/>
<path d="M134.64 203.128C134.442 200.176 134.622 197.224 134.226 194.272C133.92 191.95 134.478 189.628 134.55 187.306C134.604 185.434 134.568 183.544 134.568 181.654C135.666 181.816 136.368 182.428 136.548 183.526C136.71 184.498 136.944 185.47 136.944 186.442C136.944 190.726 136.89 195.01 136.818 199.276C136.8 199.978 136.656 200.698 136.458 201.364C136.206 202.3 135.648 202.984 134.64 203.128Z" fill="#202124"/>
<path d="M4.50014 138.31C4.46414 139.192 4.48214 140.074 3.96014 140.884C3.24014 141.964 1.69214 141.982 1.13414 140.83C0.468142 139.48 0.0721423 138.004 0.144142 136.474C0.198142 135.466 0.828142 134.71 1.67414 134.512C2.68214 134.278 3.52814 134.728 4.08614 135.718C4.51814 136.528 4.50014 137.41 4.50014 138.31Z" fill="#202124"/>
<path d="M134.514 181.582C133.974 181.24 133.902 180.844 134.406 180.412C134.442 180.79 134.478 181.186 134.514 181.582Z" fill="#9AA0A6"/>
<path d="M30.7981 108.467C30.7981 112.427 30.7981 116.387 30.7981 120.329C30.7981 121.481 30.9421 121.643 31.9861 121.553C33.0661 121.463 34.1281 121.229 35.2081 121.211C38.8981 121.121 42.5881 121.067 46.2601 121.031C46.7821 121.031 47.3401 121.121 47.8441 121.283C48.9241 121.643 49.5541 122.561 49.4461 123.497C49.3561 124.361 48.6721 125.063 47.6821 125.315C47.4301 125.387 47.1421 125.387 46.8901 125.423C45.1081 125.639 43.3261 125.837 41.5261 125.837C38.1961 125.837 34.8661 125.927 31.5361 125.981C30.2761 125.999 29.0341 125.927 27.8281 125.441C26.8021 125.027 26.1901 124.379 25.9201 123.353C25.7761 122.831 25.6501 122.309 25.5781 121.769C25.3981 120.077 25.1641 118.367 25.0921 116.675C24.8581 110.303 24.6601 103.913 24.4981 97.5227C24.4621 96.3707 24.5701 95.1827 24.7681 94.0307C25.1281 91.9787 25.9021 91.2227 27.9541 90.9527C30.0061 90.6827 32.0761 90.4847 34.1281 90.4307C39.5101 90.2507 44.9101 89.8547 50.3101 90.1247C50.5801 90.1427 50.8501 90.1247 51.1201 90.1607C53.6941 90.3767 54.7021 91.1867 55.1341 93.6887C55.6921 97.0547 56.2321 100.421 56.3041 103.859C56.3941 108.359 56.5741 112.841 56.7901 117.341C56.8621 118.889 56.3941 120.365 56.3041 121.877C56.2681 122.345 56.0161 122.723 55.6921 123.047C54.7741 123.983 53.3701 123.821 52.7401 122.651C52.5781 122.345 52.4701 121.985 52.4161 121.625C52.3081 121.013 52.2181 120.383 52.1821 119.753C51.9121 115.001 51.5881 110.231 51.4441 105.479C51.3541 102.419 51.0121 99.3767 50.8141 96.3347C50.7961 95.9747 50.7421 95.6147 50.6701 95.2727C50.5801 94.8947 50.3101 94.6427 49.9321 94.6067C49.5721 94.5707 49.2121 94.6067 48.8521 94.6247C43.3801 95.0927 37.8901 94.9667 32.4001 94.8947C29.6281 94.8587 29.9521 95.0027 30.0781 97.4147C30.2941 101.087 30.4381 104.777 30.6181 108.467C30.6901 108.467 30.7441 108.467 30.7981 108.467Z" fill="#202124"/>
<path d="M114.552 114.154C115.362 114.154 116.172 114.172 116.982 114.154C130.644 113.866 144.324 113.578 157.986 113.308C158.706 113.29 159.426 113.344 160.128 113.488C161.082 113.686 161.658 114.478 161.73 115.414C161.802 116.44 161.208 117.394 160.2 117.7C159.696 117.862 159.138 117.898 158.598 117.916C156.438 118.024 154.278 118.114 152.136 118.168C141.084 118.42 130.014 118.69 118.962 118.924C106.02 119.194 93.0603 119.464 80.1183 119.716C77.1483 119.77 74.1783 119.806 71.2083 119.77C70.2183 119.77 69.2283 119.626 68.2743 119.428C67.4823 119.266 67.0503 118.654 66.9783 117.898C66.9063 117.124 67.2663 116.512 67.9683 116.134C68.6163 115.792 69.3363 115.72 70.0563 115.684C72.4863 115.558 74.8983 115.36 77.3283 115.288C86.6703 115.018 96.0303 114.784 105.372 114.55C108.432 114.46 111.492 114.37 114.534 114.28C114.552 114.226 114.552 114.19 114.552 114.154Z" fill="#202124"/>
<path d="M114.426 99.1601C109.026 99.3401 103.626 99.5021 98.2439 99.6821C89.4239 99.9521 80.6219 100.222 71.8019 100.492C70.9019 100.51 70.0019 100.528 69.1019 100.438C68.4899 100.384 67.8779 100.186 67.2839 99.9701C66.6359 99.7181 66.3299 99.1421 66.3119 98.4761C66.2759 97.7921 66.6539 97.2341 67.2299 96.9281C68.2019 96.4241 69.2819 96.2801 70.3619 96.2441C72.9719 96.1181 75.5819 95.9381 78.1739 95.8481C85.9139 95.5781 93.6359 95.3441 101.376 95.0921C111.636 94.7501 121.878 94.3901 132.138 94.0661C139.608 93.8321 147.078 93.6521 154.53 93.4181C156.15 93.3641 157.77 93.2021 159.372 93.0941C160.092 93.0401 160.812 93.0761 161.46 93.4541C162.234 93.8861 162.684 94.5341 162.63 95.4161C162.576 96.2981 162.126 97.0001 161.298 97.2701C160.632 97.4861 159.894 97.5941 159.192 97.6301C157.752 97.7021 156.312 97.6841 154.872 97.7381C141.822 98.1701 128.79 98.6021 115.74 99.0521C115.29 99.0701 114.84 99.1061 114.39 99.1241C114.426 99.1061 114.426 99.1421 114.426 99.1601Z" fill="#202124"/>
<path d="M92.8803 109.24C86.4183 109.744 79.9563 109.726 73.4943 109.78C72.5043 109.78 71.5143 109.78 70.5243 109.726C69.9843 109.708 69.4443 109.654 68.9223 109.51C68.0043 109.258 67.4823 108.556 67.5183 107.764C67.5543 106.936 68.0583 106.468 68.7603 106.162C69.0843 106.018 69.4443 105.946 69.8043 105.91C71.0463 105.748 72.2883 105.532 73.5483 105.478C78.8403 105.244 84.1323 105.046 89.4423 104.848C97.8843 104.56 106.326 104.29 114.75 104.002C115.47 103.984 116.19 103.966 116.874 104.2C117.81 104.524 118.404 105.262 118.44 106.162C118.476 107.08 117.972 107.872 117.072 108.286C116.388 108.61 115.668 108.574 114.966 108.61C108.234 108.808 101.502 109.024 94.7703 109.222C94.1403 109.258 93.5103 109.24 92.8803 109.24Z" fill="#202124"/>
<path d="M81.5402 137.843C82.7822 140.669 83.2322 143.693 83.7542 146.681C84.8702 153.035 85.9322 159.407 86.6522 165.833C86.6882 166.103 86.7602 166.373 86.7602 166.625C86.8142 167.849 87.3362 168.461 88.6322 168.785C93.5102 169.973 98.3882 171.179 103.392 171.737C103.752 171.773 104.112 171.773 104.472 171.845C105.714 172.079 105.966 172.763 105.336 174.221C104.544 174.491 103.752 174.365 102.942 174.293C99.0002 173.969 95.1482 173.087 91.3142 172.187C86.9582 171.161 82.6382 169.955 78.7142 167.669C78.9482 166.355 79.1642 166.085 80.0102 166.121C80.5322 166.139 81.0182 166.499 81.6842 166.247C81.9902 165.329 81.7022 164.357 81.5762 163.439C80.8202 157.859 79.9742 152.297 79.2182 146.717C78.8222 143.801 78.1922 140.903 78.5342 137.915C79.9382 136.817 79.9382 136.817 81.5402 137.843Z" fill="#202124"/>
<path d="M141.858 106.882C137.448 107.044 133.056 107.224 128.646 107.386C127.566 107.422 126.486 107.422 125.406 107.458C124.578 107.476 123.786 107.314 123.066 106.936C121.95 106.36 121.914 105.046 122.976 104.326C123.516 103.966 124.11 103.804 124.74 103.75C126.09 103.642 127.422 103.498 128.772 103.426C138.294 102.994 147.816 102.58 157.356 102.166C158.256 102.13 159.156 102.112 160.056 102.184C161.046 102.292 161.712 103.03 161.802 103.948C161.892 104.92 161.406 105.712 160.434 106C159.75 106.198 159.03 106.324 158.31 106.342C152.82 106.558 147.348 106.756 141.858 106.954C141.858 106.918 141.858 106.9 141.858 106.882Z" fill="#202124"/>
<path d="M40.9321 111.977C39.9421 113.057 39.6721 114.317 39.1141 115.415C38.6641 116.297 38.2861 117.215 37.4761 117.845C37.0261 118.187 36.5401 118.385 36.0001 118.061C35.4961 117.755 35.1901 117.305 35.2621 116.729C35.3161 116.207 35.4601 115.685 35.6401 115.181C36.2701 113.399 36.8461 111.599 37.6381 109.889C38.2501 108.575 38.0701 107.549 37.2781 106.397C36.2521 104.921 35.3881 103.337 34.4701 101.807C34.2361 101.429 34.0561 101.015 33.8581 100.619C33.5701 100.061 33.6781 99.5572 34.1461 99.1792C34.6321 98.8012 35.1541 98.9632 35.6401 99.2692C36.4861 99.8092 37.0981 100.601 37.7101 101.375C38.3761 102.221 38.9881 103.121 39.6541 103.949C39.9061 104.255 40.3201 104.309 40.5361 103.913C41.0581 102.977 41.5261 102.005 42.0121 101.051C42.2461 100.565 42.4261 100.043 42.6961 99.5932C43.1101 98.9272 43.8301 98.6572 44.5501 98.8192C45.1801 98.9632 45.7381 99.6472 45.8101 100.403C45.9001 101.231 45.6301 102.023 45.2881 102.743C44.5861 104.201 43.8301 105.623 43.0201 107.027C42.5521 107.837 42.5521 108.503 43.1281 109.241C44.0821 110.429 45.0181 111.635 45.9541 112.841C46.3321 113.345 46.7641 113.813 47.0881 114.335C47.4841 114.983 47.3221 115.847 46.8361 116.333C46.3501 116.801 45.4681 116.909 44.8561 116.423C44.2981 115.991 43.7941 115.451 43.3441 114.911C42.5161 113.993 41.7601 113.003 40.9321 111.977Z" fill="#202124"/>
<path fill-rule="evenodd" clip-rule="evenodd" d="M87.3363 185.577H87.1563C87.1563 186.3 87.1609 187.017 87.1654 187.733C87.1699 188.444 87.1743 189.153 87.1743 189.861C87.1736 189.892 87.1728 189.922 87.1721 189.953C87.1556 190.644 87.1388 191.346 86.7423 191.949C86.5443 192.291 86.2203 192.417 85.8423 192.417C85.4463 192.417 85.1403 192.183 85.0503 191.823C84.9063 191.301 84.7983 190.761 84.7983 190.239C84.7983 187.885 84.8288 185.521 84.8593 183.162C84.8693 182.382 84.8794 181.603 84.8883 180.825C84.8883 180.465 84.9423 180.105 85.0143 179.763C85.1043 179.295 85.4283 178.971 85.9143 178.899C86.4003 178.809 86.7783 179.097 87.0483 179.457C87.3183 179.835 87.3543 180.267 87.3543 180.735C87.3274 181.95 87.3307 183.154 87.3341 184.364C87.3352 184.767 87.3363 185.172 87.3363 185.577ZM94.3848 190.632C94.091 190.939 93.7685 191.276 93.4023 191.661C93.7389 191.703 94.0463 191.741 94.3318 191.775C95.1458 191.874 95.782 191.951 96.4083 192.057C97.0203 192.147 97.6503 192.273 98.2263 192.489C98.7843 192.687 99.0363 193.191 98.9463 193.785C98.8743 194.289 98.4603 194.577 97.9923 194.559C96.0303 194.487 94.0503 194.361 92.0883 194.217C91.6563 194.181 91.2063 194.037 90.7923 193.857C89.8203 193.425 89.4063 192.255 89.9643 191.373C90.2754 190.87 90.6839 190.439 91.0896 190.012C91.177 189.92 91.2642 189.828 91.3503 189.735C91.6539 189.418 91.9599 189.106 92.2656 188.795C92.7758 188.275 93.2851 187.756 93.7803 187.215C94.7343 186.171 95.0943 184.893 95.2383 183.525C95.2563 183.291 95.1663 182.967 95.0043 182.805C94.7343 182.517 94.3383 182.607 94.0143 182.751C93.3346 183.055 92.9571 183.697 92.5991 184.306L92.5923 184.317C92.4517 184.566 92.3339 184.833 92.2161 185.1C92.0777 185.414 91.9394 185.727 91.7643 186.009C91.5843 186.297 91.2603 186.513 90.8463 186.423C90.4503 186.333 90.2523 186.063 90.1083 185.721C90.1028 185.709 90.0971 185.696 90.0913 185.683C90.0231 185.532 89.9491 185.367 89.9823 185.217C90.3243 183.381 91.0803 181.797 92.8083 180.879C95.2023 179.601 97.7223 181.023 97.7763 183.723C97.8303 185.775 97.1643 187.611 95.7783 189.159C95.35 189.622 94.9142 190.078 94.3848 190.632Z" fill="#20BEFF"/>
<path d="M111.006 194.939C110.952 195.911 110.916 196.901 110.862 197.873C110.826 198.341 110.664 198.737 110.286 199.043C110.16 199.151 109.98 199.223 109.818 199.223C109.548 199.223 109.242 199.097 109.224 198.809C109.098 196.325 108.99 193.859 108.936 191.375C108.918 190.871 109.62 190.313 110.034 190.385C110.502 190.475 110.862 190.781 110.952 191.249C111.06 191.753 111.132 192.293 111.114 192.815C111.096 193.517 110.988 194.237 110.898 194.939C110.952 194.939 110.97 194.939 111.006 194.939Z" fill="white"/>
<path d="M110.412 186.659C110.34 187.145 110.322 187.595 110.196 188.009C110.106 188.369 109.818 188.585 109.422 188.621C109.026 188.639 108.738 188.423 108.576 188.081C108.162 187.181 108.09 186.209 108.18 185.219C108.234 184.697 108.81 184.247 109.314 184.301C109.8 184.355 110.142 184.643 110.25 185.111C110.358 185.633 110.376 186.173 110.412 186.659Z" fill="white"/>
<path d="M93.4022 191.663C94.6982 191.825 95.5802 191.915 96.4442 192.059C97.0562 192.167 97.6862 192.275 98.2622 192.491C98.8202 192.689 99.0902 193.193 98.9822 193.787C98.8922 194.291 98.4782 194.579 98.0282 194.561C96.0662 194.489 94.0862 194.363 92.1242 194.219C91.6922 194.183 91.2422 194.039 90.8282 193.859C89.8562 193.427 89.4242 192.275 90.0002 191.375C90.3782 190.781 90.9002 190.259 91.3862 189.737C92.1782 188.891 93.0242 188.063 93.8162 187.217C94.7702 186.173 95.1302 184.895 95.2742 183.527C95.2922 183.293 95.2022 182.969 95.0402 182.807C94.7702 182.519 94.3742 182.609 94.0502 182.753C93.3482 183.059 92.9882 183.707 92.6282 184.319C92.3042 184.859 92.1242 185.471 91.8002 186.011C91.6202 186.299 91.2962 186.515 90.8822 186.425C90.4862 186.335 90.2702 186.065 90.1442 185.723C90.0722 185.561 89.9822 185.363 90.0182 185.219C90.3602 183.383 91.1162 181.799 92.8442 180.881C95.2382 179.603 97.7582 181.025 97.8122 183.725C97.8482 185.759 97.2002 187.613 95.8142 189.161C95.1122 189.881 94.4282 190.583 93.4022 191.663Z" fill="#202124"/>
<path d="M87.1563 185.578C87.1563 187.018 87.1743 188.458 87.1563 189.88C87.1383 190.6 87.1383 191.32 86.7243 191.968C86.5083 192.292 86.1843 192.436 85.8243 192.436C85.4283 192.418 85.1223 192.184 85.0323 191.842C84.8883 191.32 84.7803 190.78 84.7803 190.258C84.7803 187.126 84.8343 183.976 84.8703 180.844C84.8703 180.484 84.9243 180.124 84.9963 179.782C85.1043 179.314 85.4283 178.99 85.8963 178.918C86.4003 178.846 86.7603 179.116 87.0303 179.476C87.3183 179.854 87.3543 180.286 87.3363 180.754C87.3183 182.374 87.3183 183.976 87.3183 185.596C87.2823 185.578 87.2103 185.578 87.1563 185.578Z" fill="#202124"/>
<path d="M71.73 54.6651C71.73 52.0371 73.62 51.1191 75.312 51.0471C77.004 50.9751 78.624 52.7211 78.696 54.1971C78.768 55.6731 76.914 57.5811 75.222 57.7071C73.206 57.8691 71.73 56.1591 71.73 54.6651Z" fill="white"/>
<path d="M60.5703 54.6651C60.5703 52.0371 62.4603 51.1191 64.1523 51.0471C65.8443 50.9751 67.4643 52.7211 67.5363 54.1971C67.6083 55.6731 65.7543 57.5811 64.0623 57.7071C62.0463 57.8691 60.5703 56.1591 60.5703 54.6651Z" fill="white"/>
<path d="M49.0322 54.6651C49.0322 52.0371 50.9222 51.1191 52.6142 51.0471C54.3062 50.9751 55.9262 52.7211 55.9982 54.1971C56.0702 55.6731 54.2162 57.5811 52.5242 57.7071C50.5262 57.8691 49.0322 56.1591 49.0322 54.6651Z" fill="white"/>
<path d="M366.264 45.5035C365.49 46.0075 364.662 46.2595 363.726 46.3135C362.196 46.3855 360.666 46.5295 359.154 46.6015C354.564 46.7815 349.992 46.9435 345.402 47.1055C337.752 47.3575 330.12 47.5915 322.47 47.8615C316.35 48.0955 310.248 48.4015 304.128 48.6535C300.888 48.7795 297.648 48.9055 294.408 48.8875C291.96 48.8875 289.584 49.3735 287.19 49.6795C283.374 50.1655 281.628 52.6675 280.782 56.0335C280.476 57.2395 280.458 58.5355 280.422 59.7775C280.314 63.7375 280.746 67.6975 281.16 71.6215C281.664 76.5355 282.42 81.4315 283.104 86.3275C283.302 87.7495 283.59 89.1715 283.896 90.5575C284.112 91.5475 284.184 92.5015 284.04 93.4915C283.158 94.1575 282.348 94.0315 281.682 93.2215C280.566 91.8895 279.882 90.3235 279.342 88.7035C278.532 86.3095 277.92 83.8795 277.47 81.3955C276.354 75.1855 275.562 68.9575 275.598 62.6215C275.616 59.7235 276.048 56.8795 276.75 54.0895C276.966 53.2255 277.344 52.3975 277.686 51.5695C279.036 48.3655 281.358 46.3315 284.796 45.5395C287.172 44.9815 289.62 44.9275 292.014 44.5675C297.018 43.7935 302.058 43.8475 307.098 43.6315C318.888 43.1275 330.66 42.7675 342.45 42.3355C349.02 42.0835 355.59 41.8135 362.142 41.5615C362.862 41.5255 363.582 41.4535 364.302 41.5435C366.228 41.7775 366.966 43.0015 366.462 44.9995C366.408 45.1795 366.318 45.3415 366.264 45.5035Z" fill="#202124"/>
</g>
<defs>
<clipPath id="clip0_225_78586">
<rect width="424" height="315" fill="white"/>
</clipPath>
</defs>
</svg>
