<svg width="72" height="72" fill="none" xmlns="http://www.w3.org/2000/svg"><g clip-path="url(#clip0)"><path fill-rule="evenodd" clip-rule="evenodd" d="M32.599 62.508l32.022-36.4c9.65-10.97-3.629-27.374-16.258-20.082L7.772 29.46C1.361 33.162-.54 41.608 3.62 47.905l8.566 12.964c4.736 7.168 14.835 7.978 20.413 1.639" fill="#20BEFF"/><ellipse cx="43.657" cy="36.409" rx="22.658" ry="24.552" fill="#fff"/><path fill-rule="evenodd" clip-rule="evenodd" d="M51.156 36.968l-.13-.003c-1.647-.043-3.274-.085-4.9-.106-.396 0-.9.834-.747 1.23.044.087.088.175.154.241.45.384.905.763 1.36 1.141l.001.001c.456.38.912.758 1.362 1.143.308.263.572.33.923.11.813-.506 1.691-.462 2.57-.264 1.164.264 2.262 1.867 1.625 3.295-.483 1.054-1.274 1.757-2.394 2.02-1.691.418-3.25-.768-3.207-2.504.022-.636-.198-.988-.615-1.383a73.423 73.423 0 01-2.702-2.526c-.285-.286-.549-.352-.922-.176-.747.33-1.538.395-2.307.11-.395-.132-.637-.044-.9.263-.94 1.14-1.548 1.885-2.11 2.575-.739.905-1.4 1.715-2.634 3.199-.241.307-.483.615-.724.944-.198.264-.264.505-.044.79.241.308.395.682.505 1.055.263.835.33 1.648-.242 2.394-.575 1.138-2.493 1.233-2.788 1.247-.048.003-.053.003-.001.005-.835.066-1.494-.57-1.846-1.295-.892-.664-.635-2.327-.395-3.076.396-1.164 1.34-1.67 2.548-1.581.373.022.637 0 .879-.352 1.987-2.786 2.85-3.703 4.86-5.837l.828-.88c.073-.074.127-.147.18-.22l.083-.11c.078-.278-.063-.437-.198-.59a1.139 1.139 0 01-.153-.2c-.462-.857-.615-1.78-.33-2.724.11-.352 0-.571-.22-.791a371.569 371.569 0 00-2.943-2.965c-.096.034-.192.073-.289.111-.212.086-.429.173-.655.218-1.45.286-2.702-.527-3.01-1.933-.351-1.494.703-3.25 2.131-3.822 1.384-.55 3.559.857 3.207 2.592-.017.077-.027.154-.038.23a1.57 1.57 0 01-.072.341c-.307.79-.088 1.362.571 1.911.495.412.955.876 1.413 1.337.274.276.548.552.828.816.395.373 1.384.285 1.713-.154.088-.11.088-.286.088-.417a30.337 30.337 0 01-.022-3.998c.022-.308-.044-.571-.307-.79a6.78 6.78 0 00-.12-.101c-.113-.092-.222-.182-.32-.295-1.56-1.845-.527-3.844 1.186-4.613.22-.088.484-.132.725-.132 1.099-.044 2.329.923 2.768 2.13.373 1.055.044 2.154-.923 2.9a9.32 9.32 0 01-.78.488c-.183.106-.375.218-.582.347-.043 1.274-.087 2.658-.131 4.042l-.002.076c-.005.16-.011.337.178.45.207.125.356-.025.483-.153l.022-.022.724-.725c1.23-1.274 2.483-2.548 3.91-3.624.33-.264.528-.527.484-.989-.088-1.12.46-1.998 1.23-2.745 1.361-1.318 4.107-.703 4.7 1.032.55 1.67-.725 3.778-2.482 4.042a3.812 3.812 0 01-2.043-.22c-.241-.11-.46-.132-.68.066-.714.681-1.434 1.356-2.153 2.032-.72.675-1.439 1.35-2.153 2.032l-.028.027c-.17.17-.36.359-.235.588.032.06.062.123.092.188.135.289.277.593.654.646a.626.626 0 00.286 0c1.538-.11 3.053-.087 4.59 0 .44.022.748-.087.967-.527.198-.417.505-.725.9-.944 2.33-1.296 4.218.505 4.328 2.306.066 1.23-.835 2.372-2.24 2.79-1.23.373-2.505.066-3.076-1.077-.022-.175-.131-.395-.263-.637zm-7.38-.527c-.066.703-.835 1.23-1.868 1.252-.351.022-.659-.154-.834-.571-.038-.103-.084-.199-.128-.293-.06-.126-.12-.25-.158-.388-.33-.966.352-1.757 1.384-1.625.018.005.034.011.049.017.04.015.073.027.105.027.9.175 1.515.878 1.45 1.581zm8.106-10.675c-.44.022-.835.176-1.165.374-.373.241-.483.615-.417 1.032a.933.933 0 00.769.79c.725.11 1.362-.043 1.823-.68.264-.352.286-.725.11-1.12-.142-.285-.416-.325-.682-.364l-.065-.01c-.132 0-.286 0-.373-.022zm-20.115 22.11c.153-.197.35-.329.922-.329.373 0 1.01.747 1.01 1.516-.021.483-.658 1.054-1.23 1.076-.197.022-.373-.066-.527-.22-.505-.549-.593-1.471-.175-2.043zm23.256-11.633c-.022-.702-.593-1.296-1.186-1.23-.66.066-1.296.77-1.252 1.384.044.44.527.857 1.032.857.703.022 1.428-.505 1.406-1.01zm-3.23 6.876c-.021.527-.615.988-1.274 1.01-.637.022-1.274-.483-1.23-.988.044-.571.615-1.099 1.186-1.12.725-.022 1.34.505 1.318 1.098zM35.385 28.95c-.022-.461-.176-.857-.55-1.142-.175-.132-.373-.154-.549-.066-.549.286-.856 1.01-.68 1.625.021.132.131.264.24.352.309.22.638.176.967.022.308-.176.55-.396.572-.79zm6.436-3.449c-.066-.483.286-1.01.747-1.076.417-.066 1.01.44 1.142.966.066.44-.395.857-1.076.967-.396.044-.725-.286-.813-.857z" fill="#202124"/><path fill-rule="evenodd" clip-rule="evenodd" d="M27.942 56.879c8.108 5.457 19.5 4.69 25.835 2.057 6.336-2.633 15.706-16.676 12.12-28.058-3.274-9.98-12.283-19.517-21.17-19.829-17.308-.467-26.419 14.986-26.419 24.566 0 9.58 5.892 18.613 9.634 21.264zm1.77-2.589c7.103 4.781 16.68 4.393 22.23 2.087 5.55-2.307 14.51-14.123 11.369-24.094-2.868-8.742-11.109-17.867-18.895-18.14-15.161-.41-23.174 12.157-23.174 20.55 0 8.392 5.192 17.275 8.47 19.597z" fill="#202124"/></g><defs><clipPath id="clip0"><path fill="#fff" transform="translate(-.001)" d="M0 0h72v72H0z"/></clipPath></defs></svg>