<svg width="72" height="72" fill="none" xmlns="http://www.w3.org/2000/svg"><g clip-path="url(#clip0)"><path d="M16.702 52.35l27.691 4.655a8.643 8.643 0 007.402-2.275l8.941-8.543A8.644 8.644 0 0062.8 36.75L51.347 7.872a8.642 8.642 0 00-9.805-5.273L11.327 8.925a8.642 8.642 0 00-6.8 7.349L2.665 30.642a8.646 8.646 0 001.067 5.399l6.899 12.074a8.64 8.64 0 006.07 4.236z" fill="#20BEFF"/><ellipse cx="42.057" cy="41.074" rx="20.687" ry="22.417" fill="#fff"/><path d="M43.999 38.304c1.675 1.111 2.118 4.026 1.172 5.623-.886 1.494-2.594 1.88-3.107 3.978-.035.143-.086.204-.173.347-.088.142-.251.135-.446.141-.856.03-1.955-.043-1.955-.488 0-.684-.068-.912.145-2.051.17-.912 1.774-1.747 2.128-2.051.604-.362 1.504-1.332 1.388-2.392.022.198.021.02-.026-.157-.194-.808-.825-1.253-1.797-1.293-.784-.02-1.758.496-1.669 1.918 0 0 0 .076-.042.175-.052.071-.186.053-.186.053h-2.304s-.098-.043-.15-.093c-.051-.05-.063-.135-.061-.236a4.442 4.442 0 01.407-1.979c.995-2.182 4.467-2.97 6.676-1.495z" fill="#000"/><path fill-rule="evenodd" clip-rule="evenodd" d="M38.844 51.725c.082.362.237.688.451.977.483.778 1.187.913 2.02.687.702-.2 1.086-.935.978-1.75-.107-.815-.971-1.697-1.766-1.808-1.05-.15-1.922.839-1.683 1.894z" fill="#000"/><path d="M35.702 26.357c1.225.365 2.11 2.167 1.83 3.314-.262 1.073-1.229 1.625-1.151 2.996.005.094.034.162-.044.259s-.125.113-.242.154c-.515.176-1.197.336-1.28.065-.127-.416-.21-.542-.293-1.274-.066-.586.755-1.392.914-1.643.3-.332.668-1.09.4-1.713.05.116.017.009-.045-.09-.268-.456-.707-.588-1.305-.433-.481.134-1.005.608-.687 1.456a.023.023 0 010 .014l.007.1c-.018.053-.104.067-.104.067l-1.4.428s-.069-.008-.11-.028c-.04-.021-.063-.071-.08-.133a2.827 2.827 0 01-.12-1.28c.2-1.512 2.092-2.746 3.71-2.26z" fill="#000"/><path fill-rule="evenodd" clip-rule="evenodd" d="M35.428 33.796a1.217 1.217 0 00-.378.334c-.285.322-.25.656-.037 1 .184.288.566.362.917.204.352-.158.632-.664.575-1.036-.073-.492-.635-.751-1.077-.502z" fill="#000"/><path d="M55.693 30.853c1.087 1.251.802 3.837-.302 4.897-1.032.992-2.474.923-3.342 2.477-.06.107-.075.2-.228.252-.152.052-.215.038-.372 0-.686-.165-1.543-.464-1.445-.818.15-.543.146-.739.566-1.597.335-.687 1.793-.998 2.142-1.162.56-.154 1.487-.727 1.628-1.595-.026.162.012.021.014-.13.023-.685-.365-1.135-1.128-1.38-.62-.188-1.52-.035-1.763 1.114a.03.03 0 01-.009.016l-.063.114c-.057.045-.16.001-.16.001l-1.83-.506s-.068-.056-.098-.107c-.03-.05-.02-.121.003-.2a3.66 3.66 0 01.758-1.484c1.27-1.515 4.199-1.55 5.63.108z" fill="#000"/><path fill-rule="evenodd" clip-rule="evenodd" d="M50.222 38.799a1.574 1.574 0 00-.646.102c-.535.154-.73.544-.736 1.068 0 .444.367.79.861.862.495.071 1.154-.288 1.35-.734.262-.59-.172-1.264-.83-1.298z" fill="#000"/><path fill-rule="evenodd" clip-rule="evenodd" d="M54.33 22.442c-7.518-5.06-18.082-4.349-23.957-1.907s-14.16 18.438-10.834 28.993c3.036 9.254 10.985 15.123 19.227 15.412 16.05.434 24.644-17.988 24.644-26.871 0-8.884-5.61-13.169-9.08-15.627zm-1.64 2.4c-6.587-4.432-15.84-3.81-20.987-1.67-5.147 2.139-12.404 16.152-9.491 25.398 2.66 8.107 9.623 13.248 16.843 13.502 14.06.38 21.589-15.758 21.589-23.54 0-7.783-4.914-11.536-7.954-13.69z" fill="#202124"/></g><defs><clipPath id="clip0"><path fill="#fff" transform="translate(-.001)" d="M0 0h72v72H0z"/></clipPath></defs></svg>