<svg width="64" height="63" viewBox="0 0 64 63" fill="none" xmlns="http://www.w3.org/2000/svg">
<path d="M33.5661 5.71875C31.2472 5.71875 28.8761 6.40242 26.6738 7.9027L11.2737 18.378C7.09415 21.2191 5.00436 25.9858 4.98828 30.7525V30.8588C5.00436 35.7205 7.17853 40.5745 11.4907 43.3852L28.0764 54.1872C30.2385 55.5963 32.5333 56.2344 34.7597 56.2344C41.9333 56.2344 48.4598 49.6218 47.9615 40.7151L46.7759 19.4377C46.3258 11.2945 40.177 5.71875 33.5661 5.71875Z" fill="#FAE041"/>
<path d="M17.9883 33.5H16.4883C15.6549 34 13.5883 35.3 11.9883 36.5C9.98828 38 4.48828 44 4.48828 45.5C4.48828 47 5.98828 48 8.48828 48C10.4883 48 17.6549 44.6667 20.9883 43V36L17.9883 33.5Z" fill="white"/>
<path d="M28.4883 41L21.9883 44.5V53C21.9883 57 26.9883 61.5 27.9883 61.5C28.9883 61.5 29.9883 59 30.9883 58C31.9883 57 34.4883 47 34.4883 46C34.4883 45 33.9883 44 32.9883 42.5C32.1883 41.3 29.6549 41 28.4883 41Z" fill="white"/>
<path d="M40.4883 33L35.4883 36.5C35.1549 38.3333 34.6883 42.4 35.4883 44C36.2883 45.6 45.8216 48 50.4883 49C52.1549 49 55.3883 48.4 54.9883 46C54.4883 43 47.9883 38 45.9883 36.5C44.3883 35.3 41.6549 33.6667 40.4883 33Z" fill="white"/>
<path d="M14.8319 32.1708C13.5124 31.1779 12.4233 30.2999 11.2744 29.5037C8.90468 27.8599 6.98379 25.7468 5.09581 23.5943C4.99707 23.4823 4.89534 23.3673 4.81157 23.2431C4.01269 22.0746 3.49507 20.8394 4.13537 19.4287C4.75771 18.0633 5.98146 17.6789 7.33386 17.582C9.64671 17.4155 11.9147 17.7303 14.1408 18.3388C16.2083 18.9019 18.2608 19.5165 20.2774 20.2521C21.7944 20.8061 21.7944 20.7849 22.0188 19.0896C22.5155 15.3387 23.2007 11.6241 24.203 7.97616C24.3616 7.3949 24.5531 6.81668 24.8044 6.27175C26.2645 3.1354 29.9806 2.67525 32.1379 5.37565C33.6579 7.27684 34.2622 9.58066 34.741 11.9087C35.2077 14.1822 35.5069 16.48 35.6296 18.805C35.6895 19.9585 35.8331 20.0705 36.8952 19.6436C39.6808 18.5235 42.5023 17.5305 45.4824 17.0976C47.3135 16.8312 49.1566 16.704 50.9549 17.3458C53.7913 18.36 54.668 20.6729 53.2408 23.3673C52.6663 24.4511 51.8435 25.3199 50.916 26.101C48.3488 28.2565 45.7906 30.4271 43.02 32.4615C43.3311 33.0457 43.8398 33.2728 44.2587 33.5725C46.5775 35.2406 48.8425 36.9722 50.886 38.9854C51.1703 39.2639 51.4605 39.5515 51.6819 39.8785C51.8973 40.1964 51.8854 40.5808 51.5652 40.8291C51.3049 41.0319 51.0057 41.2892 50.6257 41.0289C50.2547 40.7746 49.8717 40.5354 49.5097 40.269C47.0502 38.4587 44.5998 36.6392 42.1403 34.8289C40.9405 33.9449 40.9345 33.9479 39.6838 34.85C38.873 35.4343 38.0741 36.0398 37.2663 36.6301C36.3627 37.2901 35.8809 38.159 35.7792 39.2972C35.4232 43.2782 35.4232 42.5032 38.1579 43.9382C41.9009 45.8999 45.8684 47.2138 50.0572 47.8041C51.1673 47.9585 52.2474 47.9858 53.2677 47.4439C54.1922 46.9504 54.294 46.5145 53.7105 45.6426C53.3485 45.1007 52.9565 44.577 52.5915 44.0381C52.3372 43.6597 52.3342 43.2813 52.6663 42.9422C53.0463 42.5547 53.4801 42.5668 53.8811 42.8695C54.9851 43.7081 55.8498 44.7435 56.179 46.127C56.4153 47.123 55.9546 47.898 55.2155 48.5095C53.6926 49.7719 51.9213 50.0716 50.0124 49.8718C45.3388 49.3844 40.9854 47.8677 36.8354 45.6941C35.4441 44.9645 35.4411 44.9614 35.1988 46.5448C34.9684 48.0403 34.7499 49.5358 34.5196 51.0283C34.4747 51.328 34.3939 51.6186 34.3281 51.9153C34.2174 52.4057 33.972 52.766 33.4155 52.7145C32.7932 52.657 32.5837 52.2211 32.5927 51.658C32.6017 51.104 32.6406 50.5499 32.6914 49.999C32.841 48.4429 32.9547 46.8838 33.1761 45.3368C33.3347 44.2288 32.9039 43.5144 32.0422 42.921C30.3157 41.7343 28.5355 41.48 26.7373 42.6697C25.8546 43.254 24.954 43.7687 23.9666 44.1319C22.9433 44.5073 22.4556 45.2521 22.5304 46.3449C22.7608 49.8173 23.0241 53.2867 24.2778 56.5835C24.7386 57.7975 25.4447 58.8025 26.5936 59.4474C27.6319 60.0286 28.1974 59.9469 28.9364 59.0266C29.5079 58.3182 29.8669 57.4796 30.232 56.6501C30.4324 56.1899 30.6419 55.7267 30.9171 55.312C31.1894 54.9003 31.6143 54.7428 32.099 54.9336C32.6226 55.1394 32.9757 55.5512 32.832 56.1021C32.2247 58.4302 31.357 60.622 29.1758 61.9389C28.2512 62.4959 27.2668 62.4656 26.3004 62.0327C24.3945 61.179 23.0092 59.7985 22.1983 57.8398C21.0314 55.0153 20.5078 52.0515 20.3253 49.012C20.2864 48.3581 20.2445 47.7012 20.2625 47.0473C20.2834 46.2814 19.9393 46.2208 19.3349 46.4358C17.1717 47.2047 15.0084 47.9676 12.8362 48.7063C10.9273 49.3541 8.9735 49.672 6.95088 49.4026C5.09282 49.1543 3.82419 48.1281 3.15996 46.3934C2.53761 44.7707 3.68357 42.9937 5.36809 42.8544C5.67028 42.8302 5.97846 42.812 6.16995 43.1087C6.33751 43.369 6.13704 43.5719 6.02933 43.7929C5.08683 45.7334 5.67328 46.7476 7.8066 46.8838C9.0124 46.9625 10.1972 46.8566 11.3522 46.4751C13.9104 45.6305 16.4327 44.689 18.943 43.7111C19.9184 43.3327 20.3552 42.7727 20.3463 41.6889C20.3313 40.1782 20.442 38.6645 20.5527 37.1569C20.6036 36.4727 20.3941 36.0095 19.8256 35.6432C18.9041 35.0499 18.0603 34.0357 17.0879 33.8995C16.1484 33.7663 15.3675 34.9439 14.5417 35.5736C12.9499 36.7876 11.415 38.0742 9.85615 39.3336C9.66167 39.491 9.48813 39.6787 9.28168 39.818C8.77004 40.16 8.24942 40.1994 7.79463 39.718C7.28 39.1701 7.57322 38.6948 7.99211 38.277C9.55096 36.7149 11.1188 35.1619 12.8482 33.7874C13.4616 33.3091 14.066 32.8005 14.8319 32.1708Z" fill="#202124"/>
<ellipse cx="44.5" cy="6.19531" rx="4.5" ry="4.28906" fill="white"/>
<ellipse cx="56.5" cy="30.9766" rx="3.5" ry="3.33594" fill="white"/>
<path d="M44.4706 12.2873C42.5685 12.1841 40.7067 11.1069 39.448 9.04969C39.2655 8.75233 39.1356 8.40945 39.0397 8.07265C38.115 4.76225 41.2541 0.881405 44.7458 1.00278C45.4324 1.02705 46.0695 1.18787 46.6231 1.58839C46.9787 1.84327 47.1519 2.20739 47.0623 2.64736C46.9633 3.13284 46.5829 3.24814 46.1437 3.28759C45.6334 3.3331 45.1169 3.36041 44.6159 3.46358C42.7541 3.83679 41.5263 5.36 41.7335 7.00458C41.9098 8.40945 43.651 9.7233 45.2314 9.64137C46.9107 9.55338 48.1942 8.20009 48.2777 6.422C48.287 6.22174 48.2684 6.01844 48.2746 5.81514C48.2993 5.19008 48.5746 4.75922 49.2488 4.64998C50.0498 4.51951 50.5756 4.77742 50.8323 5.51475C51.1446 6.40683 51.0611 7.31408 50.7797 8.19705C50.09 10.3696 47.353 12.2994 44.4706 12.2873Z" fill="#202124"/>
<path d="M52.1929 32.5782C52.2747 31.6229 52.4019 30.606 52.9987 29.7309C53.7106 28.6862 54.6951 28.1562 55.9492 28.2086C56.3672 28.2271 56.7307 28.4336 56.858 28.8927C56.9791 29.3272 56.6792 29.5583 56.3824 29.7586C55.8341 30.1315 55.3161 30.5321 55.004 31.1453C54.4921 32.1498 54.6042 33.1513 55.1646 34.0665C55.6614 34.8739 56.5035 34.9139 57.3275 34.7537C58.6331 34.501 59.345 32.8093 58.6695 31.6321C58.5695 31.4565 58.4302 31.2993 58.3423 31.1206C57.8819 30.19 58.5029 29.2163 59.5267 29.2625C60.4234 29.2995 61.1595 29.9158 61.4958 30.9049C62.6166 34.2175 59.7146 37.8259 56.24 37.4377C53.5985 37.1449 52.1081 35.3823 52.1929 32.5782Z" fill="#202124"/>
<path d="M33.9199 20.3697C34.0482 20.9267 33.8274 21.3406 33.3083 21.581C32.0432 22.1654 30.7811 22.765 29.4981 23.3098C27.5946 24.1163 26.1654 22.9019 24.6736 22.0406C24.3424 21.8489 24.3901 21.4289 24.4409 21.0636C25.0674 16.754 25.6075 12.4291 26.8815 8.24721C27.2157 7.14849 27.5946 6.05585 28.9193 5.93107C30.3007 5.80019 30.9154 6.84413 31.4823 7.89112C32.0134 8.87723 32.3237 9.94856 32.5832 11.029C33.3202 14.0878 33.6573 17.2105 33.9199 20.3697Z" fill="white"/>
<path d="M48.2305 19.2438C49.1582 19.1984 50.0797 19.2983 50.949 19.6163C51.8582 19.9494 52.0855 20.5158 51.7568 21.4183C51.4896 22.1482 51.0074 22.7388 50.4207 23.2385C47.5978 25.6523 44.6643 27.9328 41.6756 30.1437C41.1288 30.5495 40.6189 30.6252 39.9677 30.3829C36.9851 29.2775 35.4585 26.5245 36.1435 23.4868C36.3001 22.7872 36.6073 22.2239 37.2861 21.9937C40.6159 20.858 43.9056 19.5588 47.4657 19.2438C47.7176 19.2256 47.9756 19.2438 48.2305 19.2438Z" fill="white"/>
<path d="M22.9575 32.7818C23.0122 30.5043 23.8202 28.6714 25.9039 27.5083C27.368 26.6923 28.8321 26.5035 30.3994 27.1338C31.2985 27.4961 32.1095 27.9955 32.875 28.58C33.9776 29.4204 34.5 30.5043 34.1234 31.8958C33.9989 32.3586 34.0475 32.7849 34.1295 33.2355C34.3239 34.3316 33.932 35.2298 33.0967 35.9271C32.2827 36.606 31.3957 37.1906 30.451 37.6747C30.2718 37.7661 30.0805 37.8361 29.8891 37.894C27.0794 38.7648 22.9666 35.7291 22.9575 32.7818Z" fill="white"/>
<path d="M8.88653 19.8228C11.1475 19.7193 13.2922 20.3773 15.4309 20.9866C17.2415 21.5014 19.0014 22.193 20.7941 22.7779C21.4295 22.985 21.6741 23.2897 21.7546 24.0452C22.1245 27.4237 20.1976 28.8799 17.4712 30.4244C17.0596 30.659 16.7076 30.4183 16.3735 30.1899C12.9581 27.8319 9.66208 25.3338 7.08488 21.9828C6.90292 21.7451 6.70307 21.5075 6.58077 21.2364C6.28248 20.5784 6.55392 20.0452 7.25192 19.8594C7.34737 19.835 7.44879 19.8228 7.54722 19.8228C7.99465 19.8198 8.44208 19.8228 8.88653 19.8228Z" fill="white"/>
<path d="M26.4305 39.9324C25.2977 40.7122 24.268 41.2368 23.0778 41.8078C22.8942 40.4803 22.9544 39.3266 23.0376 38.0454C24.2824 38.457 25.2346 39.2165 26.4305 39.9324Z" fill="white"/>
<path d="M33.5934 27.0476C32.839 26.6257 32.0845 26.2007 31.3506 25.7907C31.3976 25.6051 31.3917 25.4615 31.4475 25.4315C32.1608 25.0365 32.9887 24.1596 33.6316 24.5337C34.3508 24.9557 33.5964 26.081 33.9369 26.88C33.8195 26.9339 33.7079 26.9908 33.5934 27.0476Z" fill="white"/>
<path d="M38.8758 32.1935C38.134 32.9127 37.3854 33.2451 36.5923 33.7044C36.0419 32.8069 36.3769 31.9698 36.3257 31.1056C37.4127 31.027 37.9733 31.7402 38.8758 32.1935Z" fill="white"/>
<path d="M20.8093 33.7044C20.0384 33.3732 19.1769 33.1752 19.1956 32.431C19.2143 31.6117 20.0696 31.3522 20.8187 31.0996C21.0216 31.9531 20.9092 32.7075 20.8093 33.7044Z" fill="white"/>
<path d="M31.9297 40.0089C32.6349 39.575 33.0398 39.0146 33.7988 38.9141C34.0452 39.6037 33.9489 40.2417 33.8611 40.94C33.122 40.917 32.6377 40.4946 31.9297 40.0089Z" fill="white"/>
<path d="M23.9812 25.8902C23.7428 25.0621 23.7991 24.4959 24.0109 23.8643C24.7525 23.9624 25.3252 24.221 25.8516 24.6792C25.4212 25.3403 24.7029 25.4713 23.9812 25.8902Z" fill="white"/>
</svg>
