<svg width="64" height="62" viewBox="0 0 64 62" fill="none" xmlns="http://www.w3.org/2000/svg">
<path d="M53.0618 43.3417C56.4812 38.5528 58.5137 34.3061 58.5137 34.3061C61.9944 27.6167 56.7018 19.7638 49.003 20.1947C43.2514 20.5154 38.4214 26.437 32.6676 26.7608C26.9081 27.0856 20.2212 21.8243 14.4585 22.147C11.1594 22.3292 8.47525 23.9814 6.81778 26.3027C4.60632 29.3999 4.22368 33.6943 6.6477 37.2932C6.6477 37.2932 21.7158 57.3711 34.9503 56.6159C42.3134 56.1998 48.7774 49.3421 53.0618 43.3417Z" fill="#20BEFF"/>
<path d="M42.7645 26.9465C43.5628 28.543 49.5495 42.6452 52.7425 49.8958L55.3368 55.4835C53.0086 56.4813 49.0706 58.876 45.5583 59.6742C41.168 60.672 24.8042 59.2751 21.6112 58.876C18.4183 58.4769 12.0795 54.7073 12.431 53.887C13.0297 52.4901 13.4293 49.6963 13.8284 48.0998C14.2275 46.5033 15.6244 43.3104 15.824 42.113C16.0235 40.9156 16.6222 35.328 17.8196 33.5319C18.7775 32.0951 21.6114 26.2813 23.0083 23.1549C22.8088 23.3544 24.0059 21.3588 26.0017 19.7623C30.1948 16.4082 32.587 15.9707 33.3852 15.9707C34.1835 15.9707 37.9753 18.9641 38.7735 19.7623C39.4121 20.4009 39.8378 22.2901 39.9709 23.1549C40.7026 23.9531 41.9663 25.35 42.7645 26.9465Z" fill="#F1F3F4"/>
<path d="M43.1631 27.7447C43.9613 29.3412 49.9481 43.4434 53.1411 50.694L55.3368 55.4834C52.1655 59.5402 47.9921 59.2519 45.5584 59.6742C45.3718 59.7066 43.5894 55.035 42.3649 50.694C41.4692 47.5191 40.683 44.1807 34.582 38.1218C33.5063 37.0535 33.5598 30.62 32.786 28.1438C31.7882 24.9509 28.1961 21.9575 26.001 19.7623C29.1939 16.3698 31.9878 15.9707 32.786 15.9707C33.5842 15.9707 37.775 18.9641 38.5732 19.7623C39.2118 20.4009 40.0367 22.0905 40.1697 22.9553C40.9014 23.7535 42.3649 26.1482 43.1631 27.7447Z" fill="white"/>
<path d="M38.0429 6.45661C38.777 7.06413 39.2833 7.38055 39.9414 7.96275C40.1186 8.11463 40.3971 8.29182 40.2452 8.59558C40.1439 8.84871 39.8655 8.8234 39.6377 8.84871C37.9164 9.00059 36.1951 9.17778 34.4738 9.32966C34.0434 9.38029 33.8156 9.55748 33.8156 10.0131C33.7903 11.6079 33.7397 13.2026 33.6637 14.7973C33.6384 15.1264 33.765 15.3036 34.0434 15.4555C36.8026 16.873 39.3845 18.4424 40.4983 21.6066C40.8527 22.5938 41.6121 23.3532 42.2196 24.1632C43.7131 26.1376 44.599 28.4411 45.5356 30.7193C47.1557 34.5163 48.6492 38.3639 50.4464 42.085C52.0411 45.3757 53.4587 48.717 54.9522 52.033C55.4584 53.1721 56.0406 54.2859 56.5469 55.425C56.7494 55.8807 56.9013 56.4375 56.3444 56.7413C55.8634 57.0197 55.4078 56.8679 55.0534 56.4122C54.9015 56.2097 54.7243 56.0325 54.5978 55.7794C53.3321 53.6278 52.4208 51.3243 51.383 49.0714C49.5098 44.9707 47.6366 40.8446 45.8141 36.7186C44.6497 34.0607 43.5359 31.3522 42.4221 28.669C41.8146 27.2514 41.1058 25.8845 40.068 24.7454C39.1314 23.7076 38.5239 22.4672 38.0429 21.1762C37.8151 20.5434 37.4607 20.0625 36.9291 19.7334C36.1698 19.2524 35.461 18.6702 34.7522 18.1387C33.0056 16.8477 31.0312 17.1008 29.2086 18.5437C28.1201 19.4043 27.1076 20.3409 26.0698 21.2522C24.475 22.6444 23.1841 24.2645 22.6272 26.3655C22.0703 28.4158 20.9059 30.1877 19.868 32.0103C18.3999 34.5922 17.4633 37.3261 17.1342 40.2624C16.9317 41.9837 16.5773 43.6544 15.8939 45.2491C14.9573 47.502 14.2991 49.8561 13.8435 52.2355C13.7169 52.8937 13.4638 53.4759 12.9322 53.9062C12.5778 54.2353 12.1222 54.3112 11.8184 54.0328C11.5147 53.7797 11.5906 53.4253 11.9956 53.0962C12.2235 52.8937 12.2741 52.4127 12.3247 52.0584C12.4766 49.9827 12.755 47.9323 13.5904 46.0338C14.527 43.9328 14.856 41.7306 15.1598 39.503C15.5648 36.4148 16.5773 33.5291 18.1974 30.8712C19.3871 28.9221 20.4249 26.897 21.1337 24.7201C21.5387 23.4544 22.2222 22.3407 23.1841 21.3787C24.9307 19.6321 26.6267 17.8602 28.6517 16.4174C29.5377 15.8098 30.5249 15.4301 31.5627 15.2783C32.0184 15.2023 32.1196 15.0504 32.0943 14.5695C31.8918 11.1775 32.0437 7.27929 32.2462 3.88732C32.2715 3.30512 32.5753 2.97605 33.2081 3.00136C35.7141 3.12793 38.1948 3.22918 40.7008 3.35575C40.9286 3.35575 41.2071 3.38106 41.283 3.58356C41.359 3.78607 40.8527 4.21639 40.7008 4.36827C40.2452 4.82391 38.5492 6.22879 38.0429 6.45661Z" fill="#202124"/>
<path d="M43.9408 55.5508C42.8523 54.766 42.4979 53.6523 42.1182 52.5132C41.4854 50.5641 40.9792 48.5643 40.2451 46.6405C39.2325 44.0332 37.3341 42.0841 35.2331 40.3122C34.3218 39.5528 33.6889 38.6668 33.3093 37.5531C32.9549 36.5152 32.8283 35.4521 32.727 34.3636C32.4486 31.6298 32.1702 28.8706 30.8792 26.3646C30.1198 24.8965 28.9048 23.8586 27.8922 22.6183C27.5885 22.2386 27.1328 21.9601 27.0822 21.4286C27.0569 21.1501 26.9809 20.7957 27.3353 20.6945C27.5885 20.6185 27.8163 20.6692 28.12 20.9223C28.9554 21.6564 29.7654 22.4158 30.5754 23.1752C32.6005 25.0483 33.3852 27.5037 33.9674 30.0857C34.3977 31.9588 34.4737 33.8826 34.7268 35.7811C34.8787 36.9455 35.3849 37.8821 36.2203 38.6668C37.8656 40.211 39.5616 41.7297 40.7766 43.6789C42.3714 46.2608 43.2573 49.0706 43.713 52.0575C43.8902 53.1966 43.6624 54.3863 43.9408 55.5508Z" fill="#202124"/>
<path d="M19.9947 40.49C19.9441 41.0975 19.9188 41.7303 19.3619 42.2113C19.0328 42.515 18.6784 42.4897 18.3493 42.3632C18.0709 42.2619 17.9443 41.9581 17.9443 41.6038C17.9696 40.9709 18.1722 40.3634 18.3747 39.7812C18.5012 39.4015 18.729 39.0471 19.2606 39.1484C19.7416 39.2243 19.8428 39.6293 19.9441 39.9837C20.02 40.1103 19.9947 40.2875 19.9947 40.49Z" fill="#202124"/>
<path d="M21.1083 36.3631C21.1083 37.5781 20.8298 37.9578 19.9945 37.8819C19.6148 37.8565 19.387 37.654 19.311 37.3503C19.1338 36.6162 19.1591 35.8568 19.5388 35.1987C19.716 34.8696 20.0198 34.6418 20.4501 34.743C20.8804 34.8443 21.1083 35.148 21.1336 35.5784C21.1083 35.8315 21.1083 36.1099 21.1083 36.3631Z" fill="#202124"/>
<path d="M31.6131 41.7047C31.5372 41.9072 31.7144 42.1856 31.3347 42.2869C30.9296 42.3881 30.5246 42.54 30.1702 42.211C29.664 41.73 29.3096 41.1478 29.1324 40.4643C29.0565 40.2112 29.0312 39.8821 29.3349 39.6796C29.5627 39.5278 29.7905 39.3759 30.1196 39.5278C30.5753 39.7809 31.6131 41.1984 31.6131 41.7047Z" fill="#202124"/>
<path d="M27.665 36.0597C27.7157 35.7053 27.5891 35.3762 27.8675 35.1231C28.2472 34.7687 28.7788 34.8193 28.9054 35.3003C29.1332 36.1356 29.437 36.9709 29.4117 37.8569C29.4117 38.2872 29.2851 38.5657 28.8548 38.6416C28.4244 38.7175 28.2726 38.4138 28.1207 38.0847C27.8675 37.4266 27.741 36.7178 27.665 36.0597Z" fill="#202124"/>
<path d="M33.2587 42.9208C33.9675 42.9208 35.1572 44.5662 34.9547 45.2496C34.8028 45.7053 34.0941 45.8825 33.6637 45.5534C33.1068 45.1484 32.7525 44.5662 32.4487 43.9587C32.1449 43.4018 32.6006 42.8955 33.2587 42.9208Z" fill="#202124"/>
<path d="M35.2077 48.7175C35.157 48.3125 35.4102 48.1606 35.7139 48.0087C36.0177 47.8568 36.2708 47.9328 36.4986 48.1606C37.0808 48.8187 37.2833 49.6541 37.3846 50.5147C37.4099 50.7425 37.2833 51.0969 36.9543 51.1729C36.6758 51.2235 36.3974 51.2235 36.1696 50.9703C35.5874 50.3375 35.4355 49.5275 35.2077 48.7175Z" fill="#202124"/>
<path d="M17.3371 49.8051C17.3625 50.5391 17.2359 51.0454 16.8309 51.501C16.6031 51.7542 16.3246 51.8554 16.0209 51.7795C15.6918 51.7036 15.5146 51.4251 15.4893 51.096C15.4133 50.3873 15.6665 49.7038 15.9196 49.071C16.0462 48.7419 16.4006 48.666 16.7043 48.7419C17.0334 48.8178 17.3625 48.9697 17.3625 49.4001C17.3371 49.5772 17.3371 49.7544 17.3371 49.8051Z" fill="#202124"/>
<path d="M18.754 44.9193C18.8299 45.5015 18.5262 46.0584 18.2224 46.514C17.944 46.9443 17.3365 46.9443 16.9568 46.6912C16.6277 46.4887 16.4252 46.0584 16.6783 45.6027C16.9061 45.1977 17.1086 44.7927 17.3618 44.413C17.6149 44.008 17.9946 43.8814 18.4249 44.008C18.8299 44.1599 18.754 44.5649 18.754 44.9193Z" fill="#202124"/>
<path d="M29.1073 54.8172C29.1326 55.2222 29.0567 55.6272 28.9554 56.0322C28.9048 56.26 28.7782 56.3866 28.5504 56.4119C28.3226 56.4372 28.1201 56.3613 28.0441 56.1335C27.7404 55.1969 27.5379 54.235 27.7657 53.2224C27.8163 52.9693 28.0441 52.868 28.2973 52.8427C28.5504 52.7921 28.7276 52.8934 28.8289 53.1465C29.0061 53.6781 29.1326 54.2096 29.1073 54.8172Z" fill="#202124"/>
<path d="M23.0577 53.9821C23.0071 54.5137 23.0577 54.9946 22.7033 55.3743C22.3996 55.6781 22.0199 55.6781 21.6908 55.5515C21.387 55.4502 21.2858 55.1212 21.2605 54.7921C21.2098 54.1593 21.463 53.5518 21.6655 52.9696C21.7414 52.7164 22.0452 52.5645 22.3742 52.6152C22.7539 52.6405 22.9311 52.8936 23.0071 53.1974C23.0577 53.4758 23.0577 53.7543 23.0577 53.9821Z" fill="#202124"/>
<path d="M24.8802 27.8835C24.8802 28.3138 24.9308 28.6682 24.627 28.972C24.3486 29.2757 24.0448 29.5289 23.6398 29.377C23.2095 29.2251 23.0576 28.7695 23.0576 28.3898C23.0576 27.9594 23.2348 27.5038 23.412 27.0988C23.6145 26.6431 23.9942 26.466 24.5005 26.5925C25.0067 26.7191 24.8295 27.1747 24.9561 27.4785C24.9814 27.6304 24.8802 27.7822 24.8802 27.8835Z" fill="#202124"/>
<path d="M21.1084 32.1625C21.1337 31.3272 21.8678 30.3906 22.4753 30.3906C22.9563 30.3906 23.26 30.6944 23.2853 31.1753C23.336 32.0613 22.5766 33.0738 21.9437 32.9726C21.4628 32.9219 20.9818 32.7701 21.1084 32.1625Z" fill="#202124"/>
<path d="M32.9047 51.324C32.8794 51.7291 32.8794 51.9316 32.8288 52.1341C32.7022 52.4884 32.601 52.8935 32.0947 52.9188C31.5631 52.9441 31.4619 52.4884 31.3606 52.1594C31.1834 51.6025 31.0062 51.0456 31.31 50.4128C31.4872 50.0584 31.6644 49.9571 31.9934 49.9318C32.3731 49.9065 32.601 50.109 32.6769 50.4381C32.7782 50.7925 32.9553 51.1468 32.9047 51.324Z" fill="#202124"/>
<path d="M33.1069 38.541C33.0816 38.8448 33.0057 39.1485 32.7019 39.2245C32.3728 39.3257 31.9678 39.3763 31.6894 39.0979C31.259 38.6422 30.9806 38.0854 30.854 37.5032C30.7528 36.9463 31.2084 36.5413 31.74 36.6678C32.1956 36.7691 33.1069 38.0347 33.1069 38.541Z" fill="#202124"/>
<path d="M26.3986 22.5182C27.0821 22.5182 27.2339 22.746 27.0567 23.4294C26.9302 23.8851 26.6517 24.2648 26.3986 24.6192C26.1708 24.9482 25.7911 25.0748 25.3608 24.8976C24.9557 24.7457 24.8545 24.4166 24.8545 24.0369C24.9051 23.3029 25.6898 22.4928 26.3986 22.5182Z" fill="#202124"/>
<path d="M28.9555 32.5932C28.9808 33.0236 28.8289 33.4033 28.3733 33.4792C27.9176 33.5551 27.5126 33.5045 27.4114 32.897C27.3101 32.3654 27.0063 31.8845 27.2342 31.2769C27.3354 30.9732 27.4367 30.7707 27.7404 30.7454C28.0442 30.7201 28.3226 30.8466 28.4745 31.0998C28.7276 31.5301 28.8795 32.0617 28.9555 32.5932Z" fill="#202124"/>
<path d="M28.9303 29.3772C28.8797 28.9975 29.0822 28.6938 29.6391 28.6685C30.196 28.6432 31.006 29.5797 30.9301 30.2885C30.9048 30.7442 30.7529 31.1745 30.1201 31.1745C29.4619 31.1239 28.9303 30.4657 28.9303 29.3772Z" fill="#202124"/>
<path d="M24.8549 43.8571C24.8802 44.2874 24.8802 44.6671 24.6524 45.0215C24.4752 45.3 24.2473 45.4265 23.8676 45.4012C23.4879 45.3759 23.3361 44.9709 23.3361 44.8443C23.3361 44.2115 23.1842 43.528 23.5386 42.9205C23.6904 42.6421 23.9436 42.4396 24.2727 42.4902C24.6017 42.5408 24.7789 42.794 24.8295 43.123C24.8802 43.3762 24.8549 43.6546 24.8549 43.8571Z" fill="#202124"/>
<path d="M23.6907 33.7064C23.5642 32.947 24.0198 32.4914 24.3236 31.9851C24.5514 31.6561 24.8805 31.732 25.1589 31.808C25.412 31.8839 25.5133 32.1877 25.4627 32.4408C25.3614 32.9724 25.3108 33.5039 25.0323 33.9849C24.8298 34.3393 24.5514 34.6937 24.0958 34.5418C23.6654 34.4152 23.5136 34.0608 23.6907 33.7064Z" fill="#202124"/>
<path d="M24.0953 48.6907C24.0953 48.8679 24.0953 48.9944 24.0953 49.1463C24.0953 49.6526 23.9435 50.1588 23.4372 50.2348C22.9309 50.3107 22.7031 49.7538 22.5765 49.3488C22.374 48.716 22.5765 48.0832 22.9309 47.5516C23.2094 47.1212 23.7409 47.2478 23.9688 47.7288C24.146 48.0578 24.0447 48.4122 24.0953 48.6907Z" fill="#202124"/>
<path d="M25.0575 51.9827C25.0322 51.527 25.1335 51.0967 25.336 50.6664C25.4879 50.3373 25.6397 50.0589 26.0447 50.1095C26.5004 50.1601 26.551 50.5398 26.5763 50.8436C26.627 51.2739 26.6523 51.7042 26.5004 52.1599C26.3485 52.6155 26.1966 53.0964 25.6144 53.0458C24.931 53.0205 25.0828 52.413 25.0575 51.9827Z" fill="#202124"/>
<path d="M38.5235 55.0711C38.5235 55.6027 37.916 55.9571 37.3844 55.7293C36.8781 55.5014 36.4225 54.1345 36.6756 53.6536C36.9541 53.1726 37.511 53.0714 37.84 53.4764C38.1944 53.932 38.4982 54.4383 38.5235 55.0711Z" fill="#202124"/>
<path d="M23.4627 37.0735C23.4627 37.4532 23.5133 37.8329 23.3108 38.2126C23.1083 38.6176 22.7539 38.7948 22.3489 38.6683C21.9945 38.5417 21.792 38.1873 21.8933 37.7823C22.0451 37.2254 22.1211 36.6432 22.4248 36.1116C22.5514 35.8838 22.6526 35.6307 22.9817 35.7319C23.2349 35.8079 23.4374 35.9851 23.4374 36.2888C23.4627 36.542 23.4627 36.7951 23.4627 37.0735Z" fill="#202124"/>
<path d="M25.3864 35.4781C25.2092 34.9971 25.4623 34.5921 25.6395 34.1871C25.7408 33.934 25.9686 33.7821 26.2217 33.8074C26.4749 33.8581 26.652 33.9846 26.7533 34.2884C26.9052 34.8453 26.9305 35.3768 26.7533 35.9591C26.6014 36.44 26.3483 36.6931 25.8673 36.5666C25.4117 36.4653 25.2345 36.1616 25.3864 35.7059C25.4117 35.6553 25.4117 35.5794 25.3864 35.4781Z" fill="#202124"/>
<path d="M31.7659 34.4909C31.8925 34.896 31.6393 35.2503 31.3356 35.4528C31.1584 35.5794 30.728 35.5794 30.4749 35.301C30.1712 34.9466 29.9433 34.5163 30.0952 34.0606C30.1458 33.9087 30.2724 33.7315 30.2471 33.5544C30.1965 33.1747 30.323 32.9468 30.7027 32.8962C31.0824 32.8456 31.3609 32.9975 31.5128 33.3518C31.6646 33.7062 31.8165 34.0606 31.7659 34.4909Z" fill="#202124"/>
<path d="M21.0071 42.5153C20.9312 41.4775 21.235 40.87 21.8172 40.8953C22.2728 40.9206 22.5766 41.6041 22.5006 42.4394C22.4753 42.7432 22.3741 42.9963 22.2475 43.2494C22.0703 43.6291 21.7665 43.781 21.4122 43.6291C21.1337 43.5279 20.8806 43.3 21.0071 42.895C21.0325 42.7938 21.0071 42.6166 21.0071 42.5153Z" fill="#202124"/>
<path d="M31.31 46.6658C31.2087 46.2608 31.31 45.8558 31.715 45.7546C32.1959 45.628 32.4744 45.9824 32.6262 46.3874C32.7528 46.7165 32.9047 47.0455 32.9553 47.3999C33.0059 47.8303 32.93 48.2606 32.4237 48.3618C31.9175 48.4631 31.5378 48.3112 31.4365 47.7037C31.4112 47.3746 31.234 47.0455 31.31 46.6658Z" fill="#202124"/>
<path d="M18.8052 50.1587C18.8052 49.8044 18.7293 49.4753 18.9065 49.1209C19.0331 48.8678 19.2356 48.7918 19.4128 48.7665C19.6659 48.7159 19.8937 48.8931 19.9696 49.1209C20.1722 49.8044 20.324 50.4878 20.0456 51.1713C19.9443 51.3991 19.995 51.956 19.5646 51.8041C19.2356 51.7028 18.8306 51.4497 18.8052 50.9434C18.7799 50.6903 18.8052 50.4372 18.8052 50.1587Z" fill="#202124"/>
<path d="M18.4258 55.0964C18.527 54.6914 18.6789 54.2358 18.7549 53.7548C18.7802 53.4764 18.9067 53.4258 19.1346 53.3498C19.413 53.2739 19.6155 53.4258 19.6914 53.6536C19.9193 54.2105 20.1218 54.7674 19.9952 55.3749C19.9193 55.7799 19.7927 56.2609 19.1599 56.1849C18.527 56.1343 18.4511 55.6786 18.4258 55.0964Z" fill="#202124"/>
<path d="M27.3861 28.5429C27.3861 29.2516 27.1076 29.7073 26.7533 30.1376C26.5761 30.3401 26.3736 30.4414 26.1204 30.3654C25.8673 30.2895 25.6901 30.087 25.6395 29.8085C25.5382 29.1504 25.7407 28.5682 26.0698 28.0113C26.247 27.6822 26.6014 27.6569 26.8798 27.7328C27.3608 27.8594 27.4367 28.2391 27.3861 28.5429Z" fill="#202124"/>
<path d="M40.2453 54.8432C40.2199 54.337 40.4224 54.0332 40.954 54.0332C41.4856 54.0332 42.2703 54.9698 42.2956 55.6532C42.3209 56.1595 42.0678 56.4633 41.5869 56.4886C40.9793 56.5392 40.2453 55.6026 40.2453 54.8432Z" fill="#202124"/>
<path d="M29.259 26.8972C29.259 27.2009 28.9299 27.53 28.4743 27.606C28.0187 27.7072 27.0568 26.5681 27.1074 25.9859C27.158 25.5809 27.3858 25.3025 27.8921 25.3278C28.5502 25.3531 29.259 26.0112 29.259 26.8972Z" fill="#202124"/>
<path d="M30.3483 45.4009C30.3483 45.7299 30.3989 46.059 30.2217 46.3881C30.0951 46.6412 29.9939 46.8437 29.6648 46.8184C29.3611 46.7931 29.2345 46.5906 29.1332 46.3628C28.9054 45.8565 28.9814 45.3249 28.9561 44.768C28.9561 44.363 29.1079 44.0593 29.5383 43.9833C30.0445 43.8821 30.247 44.2112 30.3483 44.6162C30.3989 44.8693 30.3483 45.1477 30.3483 45.4009Z" fill="#202124"/>
<path d="M27.9932 41.6796C27.9932 41.9581 27.9932 42.034 27.9932 42.11C27.892 42.5909 27.8414 43.1984 27.2085 43.1731C26.5757 43.1478 26.4238 42.6162 26.4238 42.0593C26.4238 42.0087 26.4238 41.9581 26.4238 41.9075C26.4238 41.0468 26.7276 40.5152 27.2845 40.5912C27.9932 40.7177 27.9932 41.3253 27.9932 41.6796Z" fill="#202124"/>
<path d="M25.8172 39.7303C25.8172 39.8822 25.8172 39.9835 25.8172 40.0847C25.8678 40.5404 25.6906 40.8947 25.2603 41.0972C25.0578 41.1985 24.754 41.2997 24.6274 41.0719C24.3996 40.7175 24.1212 40.3632 24.2984 39.8822C24.3237 39.8063 24.4249 39.7556 24.4249 39.6797C24.4249 39.0722 24.6781 38.5406 25.3109 38.5912C25.9944 38.6419 25.7665 39.3 25.8172 39.7303Z" fill="#202124"/>
<path d="M37.0306 45.3751C36.4484 45.3498 35.7396 44.717 35.689 44.1348C35.6383 43.6538 35.8155 43.4007 36.3218 43.3754C36.9799 43.3247 37.8659 44.1095 37.8659 44.7423C37.8406 45.0714 37.4609 45.4004 37.0306 45.3751Z" fill="#202124"/>
<path d="M29.7405 49.4006C29.7405 49.6537 29.6392 49.8562 29.5633 50.0841C29.4114 50.4891 29.2089 50.9194 28.7026 50.7169C28.2976 50.565 28.0698 50.2359 28.171 49.755C28.2217 49.5272 28.1204 49.2993 28.1457 49.0715C28.2217 48.6665 28.3482 48.2868 28.8798 48.2109C29.4114 48.1349 29.5633 48.4387 29.6392 48.869C29.6898 49.0462 29.7152 49.2234 29.7405 49.4006Z" fill="#202124"/>
<path d="M33.8916 40.7428C34.5244 40.8187 35.056 41.0971 35.4104 41.654C35.5876 41.9325 35.5117 42.2109 35.2585 42.4134C34.9801 42.6412 34.651 42.8944 34.2966 42.6412C33.9422 42.3881 33.5879 42.1097 33.3347 41.73C33.2082 41.5275 33.0816 41.2996 33.2335 41.0971C33.3854 40.8946 33.5119 40.6162 33.8916 40.7428Z" fill="#202124"/>
<path d="M37.7135 47.2745C37.6882 46.7429 37.8401 46.3379 38.4982 46.3379C39.0805 46.3379 39.4095 46.8188 39.4348 47.6795C39.4348 48.2111 39.283 48.5401 38.6754 48.5148C38.1439 48.5401 37.7389 48.0339 37.7135 47.2745Z" fill="#202124"/>
<path d="M26.0446 46.7416C25.918 46.0835 26.1964 45.6279 26.5761 45.2735C26.7027 45.1469 27.0318 45.071 27.209 45.3241C27.5127 45.7797 27.538 46.2354 27.4115 46.767C27.2849 47.2985 27.0065 47.7795 26.5002 47.7035C26.0699 47.6529 25.8674 47.1467 26.0446 46.7416Z" fill="#202124"/>
<path d="M21.4125 46.0337C21.4125 46.1097 21.4125 46.1856 21.4125 46.2615C21.3871 46.7425 21.3871 47.2994 20.6784 47.2741C20.2227 47.2741 19.8684 46.6665 20.0455 46.0843C20.1215 45.8312 20.1215 45.5274 20.2481 45.2996C20.3999 45.0465 20.5012 44.6415 20.9568 44.7681C21.3365 44.8693 21.4125 45.1478 21.4125 45.4768C21.4378 45.654 21.4125 45.8565 21.4125 46.0337Z" fill="#202124"/>
<path d="M40.5493 51.6271C40.6759 52.184 40.2203 52.3865 39.7646 52.4625C39.3343 52.5384 38.8027 51.7537 38.8027 51.1715C38.8027 50.6652 39.0306 50.4121 39.5621 50.4121C40.1696 50.4121 40.5493 50.8677 40.5493 51.6271Z" fill="#202124"/>
<path d="M33.4863 50.6906C33.4863 50.235 33.5116 49.8047 34.1445 49.8047C34.6254 49.8047 35.1064 50.5135 35.0304 51.1716C34.9798 51.5513 34.9545 52.0322 34.347 52.0069C33.8154 51.9563 33.4863 51.4754 33.4863 50.6906Z" fill="#202124"/>
<path d="M17.1851 54.0838C17.1344 54.4635 17.0585 55.0457 16.3497 55.0711C15.8688 55.0964 15.565 54.8432 15.5903 54.3117C15.6156 53.6282 16.046 53.0966 16.5776 53.0713C17.261 53.046 17.1851 53.5016 17.1851 54.0838Z" fill="#202124"/>
</svg>
