<svg width="80" height="80" viewBox="0 0 80 80" fill="none" xmlns="http://www.w3.org/2000/svg">
<g clip-path="url(#clip0_353_2611)">
<path d="M32.2593 55.9548C20.542 49.1899 10.4937 30.705 17.2516 19C24.0095 7.29492 45.042 6.75461 56.7593 13.5196C68.4765 20.2845 72.5069 35.2949 65.749 47C58.9911 58.705 43.9765 62.7198 32.2593 55.9548Z" fill="white"/>
<path d="M15 65.0001C26 72.0001 42.9112 74.9473 51.4558 74.9473C60.0003 74.9474 65.4954 72.7324 63.5 64.5C58.2126 46.6368 52.5239 33.556 43.3319 30.8903C34.1399 28.2247 18.9997 39.6057 10.9998 46.0528C3 52.5 3.99997 58.0001 15 65.0001Z" fill="white"/>
<g style="mix-blend-mode:multiply">
<path d="M32.2593 55.9548C20.542 49.1899 10.4937 30.705 17.2516 19C24.0095 7.29492 45.042 6.75461 56.7593 13.5196C68.4765 20.2845 72.5069 35.2949 65.749 47C58.9911 58.705 43.9765 62.7198 32.2593 55.9548Z" fill="#FAE041"/>
</g>
<g style="mix-blend-mode:multiply">
<path d="M15 65.0001C26 72.0001 42.9112 74.9473 51.4558 74.9473C60.0003 74.9474 65.4954 72.7324 63.5 64.5C58.2126 46.6368 52.5239 33.556 43.3319 30.8903C34.1399 28.2247 18.9997 39.6057 10.9998 46.0528C3 52.5 3.99997 58.0001 15 65.0001Z" fill="#20BEFF"/>
</g>
<path d="M37.5 33C39.1 31.8 42.5 22.5 44 18L45 16.5C45.8333 17 47.9 18.3 49.5 19.5C51.1 20.7 54.5 21 56 21L50.5 37.5C51.8333 40.1667 54.8 45.9 56 47.5C57.2 49.1 57.8333 54.1667 58 56.5L50.5 60C49.5 59.3333 46.8 57.9 44 57.5C40.5 57 36 46.5 34.5 45.5C33.3 44.7 28.3333 41.5 26 40C29.1667 38.1667 35.9 34.2 37.5 33Z" fill="white"/>
<path d="M9.67328 57C10.6171 56.5036 11.3404 56.9858 12.0486 57.5371C14.4104 59.3692 16.8588 61.0687 19.4322 62.5938C27.795 67.5539 36.8119 70.3753 46.5038 70.991C50.2828 71.2306 53.9991 70.6499 57.7064 70.0259C58.6516 69.8672 58.8007 69.6278 58.6842 68.5695C58.2669 64.7701 57.722 60.992 56.8726 57.2633C56.7505 56.7252 56.6525 56.1808 56.5117 55.6482C56.3195 54.9135 57.0063 54.5065 56.4015 54.8842C56.2074 55.0043 55.244 50.4271 54.7331 49.4116C54.2222 48.3962 52.9744 46.2833 52.4433 45.0893C51.6028 43.1969 50.5881 41.3884 49.5671 39.5947C48.8404 38.3172 48.7461 37.0657 49.299 35.7683C51.0568 31.658 52.2103 27.3501 53.5765 23.1092C53.8971 22.1106 53.7332 21.707 52.6518 21.5585C50.4943 21.2581 48.4931 20.4409 46.6315 19.3186C45.7878 18.8119 45.3621 19.0046 44.9709 19.8988C43.349 23.6013 41.7836 27.3292 40.1558 31.0297C39.1147 33.3973 37.6115 35.2227 35.3119 36.4452C32.9272 37.7136 30.5077 38.9339 28.3124 40.5324C28.0079 40.755 27.6612 40.8581 27.289 40.9006C21.4331 44.1218 16.0517 48.0287 10.9066 52.2812C10.1014 52.9475 9.27975 53.5966 8.46477 54.2532C7.92274 54.2755 7.32955 54.4253 7.03078 53.7618C6.71128 53.0511 7.04401 52.5227 7.54352 52.0513C10.2918 49.4655 13.1853 47.0569 16.2869 44.9144C21.8751 41.0531 27.4442 37.136 33.5114 34.0686C35.6737 32.9748 36.9951 31.5861 37.8343 29.3231C39.3682 25.1836 41.2972 21.1995 43.1834 17.2075C43.4604 16.6202 43.7065 16.0122 44.3883 15.7826C45.0834 15.5483 45.7524 15.5579 46.3065 16.1203C48.2959 18.129 50.8118 18.8692 53.5146 19.1692C53.7436 19.1948 53.9715 19.2318 54.1981 19.241C54.5284 19.2548 54.8831 19.226 55.0589 18.9213C55.2433 18.5987 55.0083 18.3198 54.8271 18.0471C54.2936 17.2416 53.5361 16.7532 52.6476 16.4373C50.7008 15.7463 48.7562 15.0521 46.7355 14.6007C46.3817 14.5204 46.0392 14.3827 45.692 14.2708C45.3245 14.1535 45.2017 13.8807 45.2443 13.5199C45.2888 13.1533 45.5193 12.9385 45.8595 12.8671C46.081 12.8212 46.3185 12.8092 46.5425 12.8384C49.2831 13.1887 51.9846 13.6732 54.4608 15.0056C57.0873 16.4169 57.8676 18.1811 57.0666 21.0754C55.6912 26.0437 54.22 30.984 52.2835 35.7651C51.7257 37.1442 51.8651 38.3417 52.6489 39.5524C56.2706 45.1628 58.3875 51.3533 59.7321 57.8591C60.4419 61.2951 61.0002 64.7417 61.2323 68.241C61.4067 70.8578 60.8666 71.4914 58.3573 72.0125C46.1978 74.5399 34.6379 72.4874 23.5002 67.3634C19.2007 65.3864 14.9858 63.2239 11.2772 60.2121C10.9211 59.9228 10.5813 59.6115 10.2252 59.3222C9.45332 58.6767 9.18165 57.9311 9.67328 57Z" fill="#202124"/>
<path fill-rule="evenodd" clip-rule="evenodd" d="M24.1881 41.722C24.1884 41.7221 24.1887 41.7221 24.3847 40.6513C24.5807 39.5805 24.5812 39.5806 24.5816 39.5807L24.5827 39.5809L24.5857 39.5815L24.5948 39.5832C24.6023 39.5846 24.6125 39.5865 24.6253 39.589C24.651 39.594 24.6873 39.6012 24.7337 39.6108C24.8264 39.63 24.9593 39.6586 25.1277 39.6978C25.4642 39.7761 25.9432 39.8971 26.5262 40.0697C27.6902 40.4145 29.2794 40.9686 30.9814 41.8083C34.3618 43.4761 38.3282 46.3423 40.1445 51.07C41.6434 54.9715 45.9465 57.6763 49.908 58.3024C51.8769 58.6135 53.5854 58.3801 54.7292 57.6912C55.7937 57.05 56.5119 55.9333 56.4204 54.0371L58.595 53.9322C58.7212 56.5478 57.6696 58.4617 55.8525 59.5562C54.1146 60.603 51.8295 60.8102 49.5681 60.4528C45.0689 59.7418 39.9647 56.6728 38.1121 51.8508C36.577 47.855 33.1715 45.3166 30.0181 43.7608C28.453 42.9886 26.9847 42.4762 25.908 42.1573C25.3706 41.9981 24.9334 41.888 24.6339 41.8182C24.4842 41.7833 24.3691 41.7586 24.2933 41.743C24.2554 41.7351 24.2273 41.7296 24.2097 41.7261L24.1911 41.7226L24.1881 41.722Z" fill="#202124"/>
<g style="mix-blend-mode:multiply">
<circle cx="2" cy="2" r="2" transform="matrix(-1 0 0 1 69 3)" fill="#20BEFF"/>
</g>
<g style="mix-blend-mode:multiply">
<circle cx="2" cy="2" r="2" transform="matrix(-1 0 0 1 62 9)" fill="#20BEFF"/>
</g>
<g style="mix-blend-mode:multiply">
<circle cx="2" cy="2" r="2" transform="matrix(-1 0 0 1 59 1)" fill="#20BEFF"/>
</g>
</g>
<defs>
<clipPath id="clip0_353_2611">
<rect width="80" height="80" fill="white"/>
</clipPath>
</defs>
</svg>
