<svg width="468" height="336" viewBox="0 0 468 336" fill="none" xmlns="http://www.w3.org/2000/svg">
<g clip-path="url(#clip0_225_78266)">
<path d="M334.019 123.883C338.299 118.278 344.003 114.904 350.799 113.312C355.031 112.321 359.311 112.058 363.637 112.805C367.189 113.421 370.2 115.136 373.065 117.197C376.437 119.713 379.099 122.967 382.095 125.873C382.4 126.17 382.591 126.59 383.229 126.827C384.037 124.544 383.763 122.446 382.659 120.385C382.227 119.577 381.468 118.898 381.611 117.85C384.964 115.268 388.734 114.66 392.797 115.553C396.172 116.296 398.256 118.41 399.206 121.702C399.799 123.763 399.998 125.866 399.991 128.002C399.983 130.003 399.95 132.007 399.995 134.008C400.062 137.015 400.873 137.965 403.806 138.686C404.534 138.862 405.266 139.039 405.972 139.286C413.456 141.929 417.214 149.775 414.665 157.325C413.598 160.482 411.942 163.365 410.572 166.38C409.87 167.93 409.329 169.511 409.171 171.215C408.89 174.237 410.012 176.591 412.521 178.273C413.891 179.193 415.416 179.767 417.049 179.97C420.361 180.383 423.511 181.419 426.646 182.485C428.325 183.056 429.759 184.073 431.073 185.256C435.181 188.957 438.132 193.342 439.109 198.89C439.54 201.342 439.409 203.767 438.624 206.121C437.783 208.647 437.52 211.253 437.441 213.881C437.333 217.53 439.469 219.707 443.149 219.876C444.857 219.955 446.498 219.489 448.176 219.365C454.563 218.892 459.903 220.706 463.485 226.378C465.895 230.192 467.611 234.277 467.739 238.83C467.961 246.868 464.844 253.456 458.581 258.464C453.595 262.451 447.718 264.557 441.575 266.01C440.847 266.183 440.115 266.348 439.375 266.479C438.493 266.637 438.26 267.099 438.508 267.947C438.996 269.629 439.413 271.33 439.89 273.012C440.013 273.451 440.194 273.867 439.739 274.194C439.236 274.558 438.797 274.314 438.391 273.976C437.854 273.53 437.471 272.959 437.115 272.37C435.973 270.489 435.166 268.454 434.426 266.397C432.181 260.161 429.958 253.922 427.705 247.69C423.759 236.773 418.562 226.446 412.787 216.407C408.882 209.62 404.512 203.136 399.229 197.317C396.184 193.969 392.759 191.052 388.88 188.702C384.559 186.085 379.824 185.605 375.119 186.994C370.332 188.409 367.763 192.156 366.701 196.938C366.498 197.851 366.46 198.797 366.31 199.724C366.201 200.403 365.837 200.903 365.105 200.959C364.41 201.012 363.892 200.67 363.614 200.035C363.096 198.849 363.074 197.618 363.31 196.36C363.862 193.406 365.176 190.808 367.02 188.473C367.79 187.497 368.646 186.581 369.524 185.567C368.852 185.019 368.086 185.263 367.392 185.233C360.325 184.929 353.3 184.298 346.38 182.755C345.771 182.62 345.163 182.466 344.559 182.305C342.595 181.775 342.617 181.783 341.769 183.514C341.299 184.463 340.744 185.372 340.214 186.295C339.951 186.753 339.606 187.151 339.016 186.9C338.513 186.686 338.588 186.202 338.637 185.766C338.769 184.584 339.058 183.435 339.347 182.282C339.674 180.972 339.542 180.784 338.25 180.428C337.045 180.097 335.832 179.797 334.623 179.474C333.779 179.249 333.043 178.836 333.208 177.826C333.365 176.854 334.165 176.599 335.048 176.584C336.501 176.561 337.898 176.903 339.298 177.229C340.635 177.541 340.642 177.537 340.965 176.306C341.314 174.977 341.626 173.633 342.002 172.311C342.212 171.576 342.054 171.193 341.288 170.9C331.631 167.206 326.979 159.705 325.379 149.899C325.517 149.056 325.07 147.039 325.379 146.307C325.688 145.575 325.871 146.769 325.815 146.786C328.063 147.733 328.269 147.886 329 148.743C329.83 152.693 331.161 156.525 333.429 159.904C336.993 165.216 342.043 167.683 348.298 167.957C349.609 168.013 350.923 167.934 352.2 168.351C353.221 168.681 353.762 169.338 353.735 170.427C353.709 171.527 353.093 172.169 352.076 172.409C350.604 172.758 349.094 172.871 347.607 172.604C346.237 172.356 345.632 172.953 345.392 174.2C344.589 178.378 343.537 178.153 348.362 179.193C353.69 180.341 359.09 180.874 364.527 181.096C365.465 181.134 366.397 181.182 367.32 181.359C368.634 181.61 369.085 181.1 369.04 179.733C368.931 176.366 368.683 172.983 369.378 169.642C370.238 165.513 371.405 161.507 374.139 158.158C375.168 156.897 376.245 155.669 377.864 155.125C378.979 155.065 379.452 155.966 380.087 156.623C383.458 160.122 387.728 160.114 390.889 156.721C393.243 154.194 393.24 148.371 389.308 146.562C388.501 146.19 387.495 145.92 387.262 144.82C387.255 144.099 387.577 143.476 387.975 142.924C388.843 141.734 388.967 140.405 388.873 139.009C388.768 137.469 388.201 136.216 386.721 135.562C385.152 134.872 383.804 135.457 382.565 136.422C381.968 136.884 381.577 137.541 381.089 138.104C380.458 138.832 379.715 139.17 378.769 138.738C377.901 138.344 377.515 137.567 377.77 136.745C378.254 135.179 377.492 135.037 376.23 134.939C375.123 134.849 373.981 134.913 372.889 134.601C371.946 134.29 371.421 133.494 370.805 132.803C368.571 130.303 366.141 128.129 362.544 127.904C361.102 127.814 359.698 128.024 358.297 128.309C357.509 128.471 356.728 128.745 355.924 128.396C352.019 126.399 348.557 123.808 345.696 120.475C344.821 119.454 344.093 119.401 343.012 120.159C340.973 121.586 339.366 123.519 337.286 124.889C336.046 125.04 334.826 125.145 334.019 123.883Z" fill="#202124"/>
<path fill-rule="evenodd" clip-rule="evenodd" d="M357.137 127.752C356.835 127.802 356.532 127.852 356.23 127.906C355.863 127.953 355.57 128.144 355.271 128.34C355.255 128.35 355.24 128.36 355.225 128.37C352.957 129.89 351.553 132.06 350.664 134.564C350.217 135.821 349.534 136.076 348.261 135.881C346.748 135.647 346.35 134.588 345.931 133.471C345.915 133.428 345.898 133.384 345.882 133.34C344.32 129.205 341.572 126.17 337.496 124.37C337.007 124.348 334.758 123.926 334.148 123.625C333.586 123.889 332.983 123.974 332.382 124.059C332.123 124.096 331.865 124.132 331.61 124.183C329.362 124.624 327.354 125.537 325.661 127.102C321.164 131.259 320.162 137.633 323.393 143.28C323.569 143.585 323.721 143.854 323.857 144.094C324.613 145.432 324.871 145.889 325.815 146.786C326.225 147.035 326.615 147.245 326.988 147.447C327.62 147.788 328.208 148.106 328.784 148.545C331.235 150.349 334.013 150.185 336.67 149.47C341.336 148.216 344.857 145.533 346.253 140.645C346.486 139.844 346.854 139.07 347.901 139.182C348.836 139.283 349.297 139.938 349.489 140.795C349.559 141.113 349.621 141.434 349.683 141.755C349.787 142.29 349.89 142.826 350.033 143.355C351.456 148.65 355.536 152.359 360.438 152.804C366.576 153.362 371.804 150.607 374.019 145.252C375.611 141.405 375.686 137.487 372.904 133.961C372.582 133.613 372.264 133.261 371.945 132.909C371.223 132.112 370.5 131.314 369.74 130.556C366.737 127.554 363.148 126.473 358.971 127.412C358.364 127.548 357.751 127.65 357.137 127.752ZM326.34 139.335C327.391 134.98 329.091 130.901 331.625 127.192C331.09 126.83 330.593 127.051 330.091 127.273C330.079 127.279 330.068 127.284 330.056 127.289C328.726 127.872 327.596 128.72 326.784 129.922C324.503 133.292 323.84 136.915 325.207 140.822C325.602 141.356 325.927 141.479 326.094 140.672C326.126 140.52 326.113 140.359 326.1 140.198C326.075 139.89 326.049 139.583 326.34 139.335Z" fill="#202124"/>
<path d="M337.625 190.467C337.618 191.489 336.912 191.906 336.151 192.233C333.743 193.273 331.328 194.291 328.916 195.317C328.342 195.561 327.761 195.79 327.187 196.042C324.063 197.417 321.321 199.348 318.902 201.752C309.927 210.674 302.455 220.738 296.428 231.854C292.824 238.504 289.508 245.307 285.964 251.99C284.058 255.578 281.943 259.053 279.922 262.577C279.798 262.795 279.678 263.016 279.524 263.208C279.31 263.475 279.014 263.583 278.695 263.429C278.358 263.264 278.316 262.941 278.436 262.633C278.706 261.934 279.025 261.254 279.303 260.559C283.267 250.555 287.562 240.701 292.67 231.223C297.943 221.441 304.237 212.383 311.558 204.01C315.215 199.825 319.161 196.083 324.074 193.42C327.341 191.65 330.844 190.535 334.358 189.423C335.022 189.212 335.72 189.227 336.402 189.295C337.111 189.355 337.494 189.806 337.625 190.467Z" fill="#202124"/>
<path d="M302 282.891C302.449 280.948 302.901 278.69 303.499 276.469C306.871 263.955 310.41 251.483 314.653 239.234C316.937 232.64 319.456 226.125 322.076 219.655C324.614 213.39 328.243 207.698 331.955 202.074C332.093 201.868 332.243 201.666 332.4 201.471C332.841 200.925 333.42 200.726 334.063 200.992C334.777 201.292 335.069 201.932 334.986 202.666C334.893 203.546 334.467 204.313 333.992 205.059C329.836 211.604 326.382 218.512 323.496 225.702C319.804 234.906 316.753 244.334 313.819 253.8C310.96 263.031 308.426 272.351 305.891 281.671C305.678 282.449 305.424 283.221 305.136 283.977C304.826 284.793 304.307 285.393 303.312 285.22C302.516 285.086 301.985 284.251 302 282.891Z" fill="#202124"/>
<path d="M366.5 210.717C366.549 210.011 366.579 209.256 367.43 208.884C368.296 208.505 368.877 208.993 369.398 209.549C370.47 210.694 371.347 211.982 372.086 213.372C376.138 220.987 379.815 228.798 384.123 236.278C387.616 242.347 391.061 248.438 394.529 254.521C394.776 254.953 395.069 255.373 395.234 255.839C395.563 256.763 395.301 257.551 394.604 257.983C393.899 258.423 393.044 258.332 392.407 257.615C391.912 257.059 391.53 256.402 391.129 255.768C386.218 247.994 381.742 239.977 377.435 231.855C374.155 225.67 370.938 219.451 367.415 213.398C366.939 212.579 366.567 211.731 366.5 210.717Z" fill="#202124"/>
<path d="M381.884 117.824C382.378 118.623 382.884 119.418 383.359 120.228C384.792 122.674 384.788 125.184 383.83 127.75C383.548 127.727 383.374 127.765 383.325 127.705C380.36 124.11 376.97 120.937 373.545 117.794C373.36 117.625 373.157 117.466 373.296 117.169C374.201 116.98 375.099 116.765 376.008 116.6C378.131 116.219 380.014 116.995 381.884 117.824Z" stroke="#202124" stroke-width="1.875"/>
<path d="M329 148.743C329.726 148.916 330.453 149.092 331.18 149.264C336.115 150.43 342.02 147.994 344.695 143.694C345.362 142.619 345.752 141.442 346.063 140.227C346.382 138.986 346.801 138.645 347.794 138.664C349.064 138.69 349.896 139.283 350.132 140.4C350.312 141.25 350.383 142.128 350.559 142.978C352.141 150.542 359.604 154.553 366.814 151.779C373.978 149.024 376.432 141.475 373.539 135.523C373.322 135.077 373.048 134.646 373.041 134.125C375.012 134.226 376.975 134.444 378.897 134.346C379.216 134.935 378.8 135.264 378.658 135.639C378.478 136.112 378.354 136.576 378.384 137.086C378.425 137.821 378.909 138.132 379.519 138.398C380.205 138.694 380.572 138.308 380.924 137.858C381.34 137.319 381.674 136.708 382.142 136.22C383.446 134.871 385.031 134.256 386.875 134.863C388.752 135.482 389.527 136.985 389.715 138.852C389.835 140.051 389.651 141.198 389.055 142.27C388.572 143.14 388.122 144.024 387.658 144.901C387.231 145.467 386.59 145.452 385.979 145.523C381.183 146.086 378.796 148.773 378.867 153.526C378.875 154.066 379.062 154.654 378.53 155.081C375.053 157.184 372.906 160.337 371.595 164.089C370.246 167.946 369.541 171.922 369.702 176.023C369.762 177.519 369.717 179.014 369.923 180.51C370.066 181.537 369.826 181.799 368.841 181.743C361.055 181.293 353.268 180.806 345.681 178.797C344.081 178.373 344.077 178.321 344.489 176.761C344.808 175.558 345.081 174.344 345.359 173.133C345.67 171.769 345.849 171.589 347.281 171.806C348.716 172.027 350.14 171.96 351.567 171.881C351.938 171.862 352.313 171.806 352.673 171.701C353.426 171.488 353.797 170.937 353.8 170.172C353.804 169.4 353.433 168.841 352.676 168.643C351.399 168.305 350.08 168.313 348.772 168.29C346.441 168.253 344.19 167.822 342.005 167.023C339.191 165.996 336.726 164.415 334.875 162.057C331.993 158.387 329.749 154.384 329.056 149.673C329.007 149.369 329.014 149.054 329 148.743Z" fill="#F1F3F4"/>
<path fill-rule="evenodd" clip-rule="evenodd" d="M52.293 90.1777C52.293 90.1777 39.2016 107.197 38.3163 107.83C37.8654 108.324 38.3163 108.972 38.3163 108.972C38.3163 108.972 55.1686 128.552 57.9776 129.982C58.6344 130.626 63.2229 135.559 69.8271 132.89C73.6464 130.314 78.8788 116.491 78.8788 116.491C78.8788 116.491 75.3696 117.255 74.3143 116.873C73.2591 116.491 74.4247 115.01 75.0198 114.741C75.5927 114.253 77.4751 111.913 77.7211 110.996C77.9672 110.08 78.0932 108.16 77.7211 107.83C77.349 107.5 76.583 105.898 75.0198 106.236C73.4566 106.574 69.8295 106.943 69.3832 106.59C68.7209 106.491 64.9973 105.113 63.6848 103.338C62.262 102.084 54.4994 94.5628 54.4994 94.5628C54.4994 94.5628 53.5987 92.5122 54.4623 92.1681C55.3259 91.8241 52.293 90.1777 52.293 90.1777Z" fill="#DADCE0"/>
<path fill-rule="evenodd" clip-rule="evenodd" d="M99.1016 239.952C97.8638 240.096 121.026 203.191 124.223 196.376C125.998 193.149 127.525 190.865 128.493 190.95C129.46 191.034 129.587 194.095 128.011 198.949C126.07 209.723 116.853 226.701 116.853 226.701C116.853 226.701 114.964 230.626 116.128 231.306C117.555 232.05 120.725 226.701 120.725 226.701C120.725 226.701 125.61 216.856 125.832 216.492C126.054 216.128 126.446 216.818 126.393 217.576C124.397 224.286 121.28 230.086 121.28 230.886C121.28 231.687 121.305 232.434 123.015 232.255C125.202 231.006 128.749 219.508 128.749 219.508C128.749 219.508 130.201 222.701 129.397 225.307C129.382 225.355 125.586 234.09 125.586 234.09C125.586 234.09 124.76 236.313 127.245 236.313C128.344 236.1 130.96 230.216 130.96 230.216C130.96 230.216 133.2 232.79 129.878 237.865C126.557 242.94 119.821 252.652 119.375 252.66C119.019 253.203 98.3237 240.428 99.1016 239.952Z" fill="#DADCE0"/>
<path fill-rule="evenodd" clip-rule="evenodd" d="M340.95 298.578C337.095 299.856 324.312 305.729 322.304 306.612C320.289 307.295 319.497 308.186 317.623 306.42C315.75 304.655 315.05 303.676 315.05 303.676C315.05 303.676 314.455 302.788 314.074 302.593C313.806 302.279 313.342 302.053 312.561 302.83C311.661 303.754 310.313 304.742 308.883 306.612C306.228 309.956 304.198 313.361 304.198 313.361C304.198 313.361 301.573 316.676 300.928 317.706C300.036 318.83 299.861 318.561 300.294 319.596C300.658 320.506 301.632 323.761 302.112 324.199C302.591 324.637 303.482 324.505 303.958 322.944C304.608 321.404 306.572 319.001 306.572 319.001L310.04 315.142L311.311 313.915C311.311 313.915 312.905 312.52 314.78 313.361C316.655 314.202 320.198 315.551 320.198 315.551C320.198 315.551 322.304 316.837 323.681 317.254C333.842 317.254 338.848 316.96 342.141 315.142C342.26 313.932 342.671 305.741 340.95 298.578Z" fill="#F1F3F4"/>
<path fill-rule="evenodd" clip-rule="evenodd" d="M377.042 153.781C376.565 148.502 380.168 144.377 385.552 144.009C386.336 143.957 389.197 144.599 389.844 144.937L389.985 145.012C394.53 147.506 395.668 153.622 392.302 157.62C388.826 161.745 382.953 161.793 379.048 157.766C378.353 157.048 377.117 154.584 377.042 153.781ZM390.581 156.17C393.058 153.229 392.185 148.705 388.801 146.93L388.781 146.922C388.648 146.871 388.106 146.72 387.511 146.58L387.303 146.532C386.532 146.359 385.834 146.245 385.703 146.254C381.569 146.536 378.921 149.568 379.283 153.575C379.307 153.836 380.309 155.834 380.664 156.201C383.66 159.29 387.982 159.255 390.581 156.17Z" fill="#202124"/>
<path d="M356.375 128.119C356.221 128.472 355.977 128.739 355.661 128.956C353.271 130.639 351.821 132.978 350.885 135.697C350.464 136.929 350.427 136.711 349.052 136.748C346.91 136.801 346.143 135.637 345.598 133.846C344.603 130.56 342.468 128.089 339.662 126.163C338.951 125.674 338.098 125.363 337.625 124.574C339.41 122.359 341.747 120.774 343.956 119.046C344.599 118.543 345.061 118.716 345.535 119.298C348.548 122.974 352.339 125.697 356.375 128.119Z" fill="#F1F3F4"/>
<path d="M464.738 238.93C464.805 240.736 464.572 242.158 464.347 243.58C464.236 244.282 463.911 244.802 463.164 244.746C462.403 244.689 462.17 244.108 462.207 243.403C462.237 242.841 462.24 242.268 462.344 241.717C463.053 238.005 462.118 234.645 460.3 231.469C459.838 230.661 459.306 229.892 458.8 229.107C458.534 228.696 458.112 228.293 458.597 227.791C459.14 227.225 459.609 227.587 460.016 228.006C462.229 230.281 463.8 232.928 464.376 236.116C464.565 237.164 464.65 238.228 464.738 238.93Z" fill="white"/>
<path d="M420.372 185.876C420.557 185.898 420.809 185.902 421.049 185.963C426.244 187.241 430.754 189.626 433.94 194.121C434.372 194.731 434.711 195.41 435.049 196.081C435.196 196.373 435.128 196.703 434.854 196.935C434.508 197.223 434.143 197.162 433.834 196.897C433.601 196.696 433.391 196.449 433.225 196.188C430.566 191.91 426.575 189.456 421.986 187.814C421.339 187.582 420.692 187.347 420.053 187.097C419.703 186.96 419.3 186.767 419.387 186.323C419.477 185.872 419.921 185.872 420.372 185.876Z" fill="white"/>
<path d="M411.473 153.393C411.661 156.105 410.838 158.519 409.859 160.888C409.656 161.377 409.445 162.082 408.684 161.817C407.804 161.515 408.183 160.814 408.359 160.239C408.538 159.646 408.757 159.06 408.967 158.474C410.211 154.997 410.134 151.528 408.879 148.073C408.795 147.838 408.695 147.61 408.6 147.379C408.424 146.957 408.274 146.476 408.768 146.222C409.396 145.901 409.679 146.442 409.931 146.864C410.517 147.83 410.964 148.849 411.19 149.964C411.423 151.132 411.439 152.311 411.473 153.393Z" fill="white"/>
<path d="M451.64 225.538C451.034 225.578 450.6 225.625 450.17 225.625C449.744 225.625 449.49 225.36 449.4 224.978C449.307 224.589 449.482 224.266 449.8 224.037C450.473 223.554 452.911 223.714 453.528 224.27C453.764 224.484 453.943 224.753 453.85 225.065C453.756 225.374 453.483 225.534 453.139 225.538C452.578 225.538 452.021 225.538 451.64 225.538Z" fill="white"/>
<path d="M408.12 166.558C408.048 166.876 407.975 167.536 407.741 168.129C407.593 168.504 407.17 168.722 406.722 168.583C406.323 168.458 406.257 168.093 406.25 167.726C406.244 167.069 406.319 166.422 406.588 165.812C406.784 165.369 407.142 165.187 407.566 165.269C408.051 165.358 408.151 165.776 408.12 166.558Z" fill="white"/>
<path d="M436.249 200.755C436.267 201.889 435.95 202.475 435.389 202.361C434.499 202.178 434.812 201.432 434.772 200.875C434.728 200.283 434.834 199.712 435.596 199.752C436.267 199.785 436.231 200.359 436.249 200.755Z" fill="white"/>
<path d="M368.262 132.71C369.985 134.216 371.383 135.943 371.919 138.208C372.765 141.782 370.96 146.536 367.303 148.375C365.127 149.471 362.872 150.147 360.413 149.77C355.842 149.063 352.824 145.572 352.635 140.832C352.514 137.719 353.53 134.96 355.423 132.519C356.677 130.901 358.414 130.112 360.466 130C363.235 130.437 365.769 131.514 368.262 132.71Z" fill="#F1F3F4"/>
<path d="M341.036 130.861C344.876 134.608 343.954 140.396 341.442 143.367C338.385 146.986 332.914 147.959 328.698 145.561C327.728 144.064 328.619 142.533 328.721 141.048C328.849 139.208 329.356 137.383 330.033 135.638C330.078 135.457 330.146 135.279 330.225 135.106C330.334 134.857 330.458 134.612 330.582 134.371C330.654 134.209 330.736 134.054 330.819 133.896C331.319 132.976 331.748 132.018 332.207 131.076C333.279 129.715 333.692 127.837 335.418 127C336.843 127.162 337.949 127.909 338.912 128.919C339.278 129.383 340.578 130.348 340.664 130.491L340.694 130.518C340.845 130.608 340.954 130.721 341.036 130.861Z" fill="#F1F3F4"/>
<path d="M335.375 126.906C334.42 128.306 333.47 129.707 332.515 131.108C331.734 131.968 331.357 133.034 331.002 134.11L331.013 134.084C330.724 134.274 330.776 134.613 330.658 134.878L330.673 134.844C329.159 137.672 329.163 140.853 328.564 143.897C328.453 144.456 328.712 145.313 327.617 144.884C326.481 144.281 325.708 143.439 325.748 142.049C325.512 141.162 325.678 140.276 325.737 139.389C326.651 135.641 327.85 132.013 329.929 128.727C330.329 128.098 330.68 127.435 331.453 127.192C332.889 126.023 333.751 125.959 335.375 126.906Z" fill="#202124"/>
<path d="M368.375 132.625C365.581 132.179 363.016 131.083 360.5 129.837C360.836 129.368 361.344 129.318 361.851 129.272C364.39 129.049 367.287 130.541 368.375 132.625Z" fill="#202124"/>
<path d="M344.235 150.68C343.779 152.649 346.873 151.312 347.775 151.414C348.616 151.509 348.901 152.007 348.544 152.687C347.881 153.955 345.076 154.771 343.435 154.178C341.839 153.6 341.059 151.969 341.495 150.172C341.783 148.979 342.522 148.073 343.632 147.718C345.239 147.201 345.732 146.065 345.876 144.593C345.906 144.279 345.891 143.962 345.944 143.653C346.077 142.882 346.524 142.343 347.328 142.377C348.089 142.407 348.613 142.875 348.715 143.675C348.946 145.431 348.532 147.157 348.312 148.905C348.176 149.977 347.537 149.284 346.578 149.318C345.975 149.337 344.705 149.879 344.235 150.68Z" fill="#202124"/>
<path d="M346.456 160.748C344.19 160.779 343.625 160.365 343.625 159.08C343.625 158.117 343.965 157.688 344.888 157.578C345.312 157.529 345.748 157.593 346.176 157.555C347.435 157.449 348.572 157.047 349.458 156.065C349.665 155.834 349.871 155.595 350.104 155.394C350.931 154.67 351.713 154.544 352.241 155.079C352.917 155.766 352.57 156.467 352.193 157.142C350.805 159.63 348.623 160.665 346.456 160.748Z" fill="#202124"/>
<path d="M384.499 143.5C383.789 143.477 383.266 142.956 383.395 142.264C383.598 141.162 384.285 140.336 385.342 139.881C386.322 139.461 387.181 140.097 387.122 141.121C387.064 142.156 385.545 143.529 384.499 143.5Z" fill="#202124"/>
<path d="M386.968 147.627C388.417 147.573 390.338 148.891 390.758 150.132C390.932 150.644 390.961 151.172 390.497 151.523C390.054 151.855 389.516 151.82 389.14 151.438C388.259 150.552 387.422 149.627 386.312 149.03C386.021 148.875 385.936 148.521 386.047 148.193C386.216 147.669 386.699 147.704 386.968 147.627Z" fill="white"/>
<path d="M359.75 138.675C359.739 140.201 358.28 141.647 356.777 141.625C355.657 141.61 354.879 140.867 354.875 139.806C354.868 138.317 356.337 136.776 357.792 136.75C359.017 136.729 359.761 137.46 359.75 138.675Z" fill="#202124"/>
<path d="M363.875 136.632C363.74 137.971 363.369 139.18 362.87 140.35C362.705 140.74 362.401 140.955 361.981 140.848C361.613 140.756 361.557 140.423 361.546 140.098C361.501 138.441 361.392 136.804 360.92 135.197C360.766 134.684 361.021 134.195 361.512 133.912C362.105 133.567 362.596 133.82 363.031 134.229C363.732 134.899 363.74 135.821 363.875 136.632Z" fill="#202124"/>
<path d="M337.27 129.741C338.477 129.369 339.272 129.931 339.911 130.849L339.923 130.883C340.239 131.206 339.98 131.686 340.25 132.024C340.227 133.549 340.376 135.096 339.561 136.506C339.127 137.26 338.69 137.32 338.13 136.714C336.97 135.453 336.46 131.322 337.27 129.741Z" fill="#202124"/>
<path d="M336.124 134.977C336.068 136.779 334.552 138.32 332.906 138.248C331.708 138.194 331.048 137.437 331.305 136.247C331.619 134.805 332.492 133.725 333.832 133.159C335.097 132.618 336.168 133.516 336.124 134.977Z" fill="#202124"/>
<path d="M341 298.666C340.516 298.79 340.265 298.824 340.04 298.922C333.905 301.569 327.763 304.205 321.643 306.882C319.554 307.794 318.748 307.719 317.147 306.074C316.408 305.312 315.715 304.501 315.051 303.675C313.637 301.914 313.637 301.888 311.912 303.439C309.857 305.29 308.114 307.411 306.557 309.694C304.585 312.582 302.939 315.702 300.475 318.236C300.055 318.668 300.078 319.085 300.295 319.596C300.76 320.688 301.176 321.804 301.623 322.904C301.859 323.489 302.02 324.086 302.005 324.725C301.986 325.543 301.491 325.975 300.786 326.193C300.141 326.392 299.504 326.306 299.118 325.701C298.75 325.127 298.439 324.507 298.176 323.876C295.758 318.113 293.373 312.334 290.943 306.578C285.284 293.162 278.058 280.598 270.154 268.402C268.061 265.173 265.586 262.312 262.834 259.65C261.912 258.76 260.948 258.347 259.673 258.335C241.737 258.204 223.809 257.528 205.874 257.656C197.999 257.712 190.132 258.08 182.272 258.534C179.654 258.685 177.022 258.591 174.42 259.023C174.176 259.064 173.921 259.026 173.67 259.038C172.942 259.064 172.462 258.737 172.297 258.028C172.113 257.232 172.477 256.634 173.19 256.375C174.363 255.955 175.578 255.632 176.838 255.568C184.076 255.208 191.313 254.851 198.554 254.487C200.549 254.385 202.544 254.25 204.542 254.145C205.397 254.1 206.499 254.145 207.692 254.145C208.884 254.145 253.324 254.584 253.444 255.136C254.607 255.136 255.833 255.226 257.04 255.121C261.537 254.72 264.949 256.492 267.863 259.882C273.566 266.525 277.983 274.001 282.322 281.533C288.134 291.626 293.14 302.113 297.509 312.912C297.85 313.753 298.075 314.673 298.791 315.435C300.175 313.963 301.146 312.285 302.159 310.652C304.176 307.396 306.426 304.328 309.16 301.636C310.056 300.754 311.02 299.962 312.133 299.376C313.855 298.471 315.362 298.629 316.802 299.924C317.496 300.547 318.126 301.253 318.741 301.959C319.989 303.401 320.184 303.476 321.932 302.774C325.985 301.141 330.035 299.485 334.089 297.848C335.653 297.217 337.239 296.635 338.795 295.989C340.201 295.403 340.351 295.178 340.051 293.725C339.837 292.677 339.699 291.626 339.624 290.571C339.564 289.726 339.702 288.915 340.722 288.663C341.604 288.446 342.192 288.862 342.575 290.056C342.822 290.83 342.987 291.626 343.164 292.422C343.482 293.875 343.602 293.961 345.016 293.413C346.587 292.801 348.136 292.125 349.703 291.506C358.939 287.856 368.344 284.649 377.617 281.105C385.436 278.116 393.213 275.026 401.005 271.973C402.809 271.267 404.639 270.64 406.514 270.141C406.814 270.062 407.136 269.923 407.418 269.975C407.845 270.051 408.254 270.272 408.423 270.726C408.621 271.271 408.426 271.733 407.969 272.033C407.451 272.379 406.9 272.679 406.341 272.957C401.695 275.274 396.82 277.05 392.024 279.01C378.607 284.492 364.864 289.095 351.365 294.356C349.445 295.103 347.551 295.918 345.616 296.62C344.66 296.965 344.394 297.483 344.619 298.463C345.095 300.532 345.466 302.62 345.699 304.738C346.298 310.118 345.969 315.488 345.586 320.854C345.35 324.158 345.039 327.458 344.761 330.763C344.735 331.074 344.701 331.386 344.652 331.694C344.54 332.385 344.187 332.839 343.43 332.873C342.71 332.907 342.207 332.55 341.982 331.912C341.817 331.45 341.757 330.935 341.739 330.443C341.596 326.812 341.694 323.185 341.926 319.562C342.2 315.251 342.421 310.941 342.151 306.623C341.979 303.998 341.544 301.418 341 298.666Z" fill="#202124"/>
<path d="M320.875 318.813C319.248 318.646 317.734 318.1 316.243 317.457C314.219 316.587 313.852 316.661 312.454 318.423C310.907 320.371 309.157 322.129 307.384 323.869C307.073 324.17 306.751 324.471 306.395 324.713C305.825 325.103 305.229 325.092 304.648 324.702C304.008 324.27 303.719 323.668 303.959 322.943C304.127 322.423 304.416 321.929 304.723 321.471C306.593 318.676 308.827 316.185 311.311 313.914C312.263 313.044 313.234 312.754 314.527 313.223C316.872 314.07 319.125 315.115 321.381 316.163C321.493 316.215 321.602 316.278 321.707 316.341C322.329 316.717 322.823 317.167 322.546 317.988C322.269 318.799 321.609 318.884 320.875 318.813Z" fill="#202124"/>
<path d="M73.8552 116.48C73.6754 115.561 74.4135 115.164 75.0204 114.741C76.358 113.803 77.111 112.439 77.7217 110.996C78.2125 109.838 78.0702 108.676 77.4257 107.585C76.8263 106.573 75.9608 106.067 74.7732 106.22C74.2187 106.292 73.6679 106.423 73.1209 106.532C70.1236 107.12 67.3849 106.547 65.0508 104.541C61.5402 101.531 58.2769 98.2552 55.0661 94.9304C54.6727 94.5255 54.343 94.0682 54.1482 93.5285C53.9609 93.0112 54.0246 92.5089 54.4629 92.1678C54.8301 91.8792 55.3022 91.9017 55.7068 92.1191C56.029 92.2952 56.3175 92.5464 56.5985 92.7938C59.637 95.4814 62.7466 98.1015 65.6877 100.894C67.9356 103.031 70.4721 103.822 73.4057 103.049C77.4595 101.985 82.4836 105.017 81.3035 110.932C81 112.454 81.3072 113.35 82.4012 114.339C85.0875 116.765 87.7513 119.231 90.0742 122.02C93.641 126.304 95.0385 131.166 93.9032 136.699C93.4349 138.974 92.3934 140.915 90.7973 142.576C88.8041 144.653 86.6873 146.583 84.2633 148.165C83.0082 148.982 83.0119 149.061 83.4128 150.459C84.9077 155.684 87.2156 160.508 90.7411 164.669C92.0224 166.183 92.6481 168.02 93.6222 169.681C94.0194 170.359 93.7309 171.139 93.4649 171.855C92.5357 174.377 90.7786 176.184 88.5194 177.53C87.2943 178.261 86.0092 178.887 84.7653 179.554C84.6567 180.18 85.1737 180.315 85.4847 180.551C87.7364 182.241 90.0892 183.763 92.6481 184.963C93.6073 185.412 94.5402 185.926 95.4356 186.492C96.0837 186.901 96.2898 187.557 95.9901 188.295C95.7203 188.962 95.1546 189.183 94.484 189.183C93.8508 189.183 93.2626 188.985 92.6706 188.778C89.8644 187.808 87.3954 186.241 84.9939 184.539C84.5068 184.194 83.9973 183.876 83.3528 183.445C83.3528 184.712 83.3491 185.75 83.3528 186.784C83.3641 189.157 83.4128 191.534 82.9332 193.873C82.5473 195.747 82.0828 196.14 80.1982 196.331C78.8794 196.463 77.5681 196.279 76.2905 196.024C68.9322 194.562 61.78 192.381 54.7739 189.712C54.137 189.468 53.5338 189.123 52.9306 188.797C52.3236 188.471 51.9602 187.976 52.2 187.26C52.4323 186.574 53.0242 186.301 53.6836 186.372C54.4217 186.451 55.156 186.634 55.8716 186.841C59.8842 188.006 63.8893 189.183 67.8944 190.375C71.3076 191.395 74.7994 192.092 78.2762 192.83C79.4901 193.089 79.5763 193.01 79.6999 191.852C80.0259 188.801 80.1495 185.746 79.7636 182.691C79.5763 181.222 79.5463 181.169 78.1713 181.323C71.1914 182.11 64.4925 180.869 57.9472 178.538C55.3021 177.593 52.6983 176.544 50.0794 175.528C47.0222 174.343 45.4074 172.173 45.3699 168.818C45.3175 163.807 43.8413 159.103 42.1292 154.455C41.8631 153.727 41.5372 153.54 40.7467 153.675C35.6176 154.56 30.8257 153.454 26.2961 151.032C17.7014 146.433 11.8005 139.555 8.69836 130.281C7.60061 127.001 7.6643 123.815 8.91941 120.577C10.2157 117.229 11.8118 114.088 14.1609 111.348C14.5543 110.887 15.401 110.347 14.633 109.631C13.7787 108.833 13.3029 109.778 12.8233 110.261C11.3622 111.727 10.2382 113.444 9.23787 115.25C8.94563 115.779 8.77704 116.427 8.0989 116.753C6.80633 115.831 5.87718 114.568 5.27023 113.132C1.92078 105.223 2.3404 97.6817 7.61559 90.6685C8.25626 89.8176 9.03555 89.0941 9.85231 88.4119C12.6023 86.1142 15.7569 85.297 19.2862 85.7731C20.3353 85.9155 21.3993 85.9642 22.4596 86.0242C22.9766 86.0542 23.5461 85.953 23.6285 85.3458C23.7297 84.5961 23.1227 84.4424 22.5345 84.3674C21.9875 84.2962 21.4068 84.4049 20.901 84.0788C20.9385 83.4416 21.4817 83.2879 21.8564 83.0218C26.4085 79.7644 31.3615 77.6241 37.045 77.2792C40.6942 77.0581 43.7402 75.45 46.108 72.6125C46.9435 71.608 47.7865 70.6259 48.8318 69.7975C50.1693 68.7367 51.5556 68.658 53.0355 69.2202C54.1445 69.6401 55.1635 70.2698 56.1002 71.0082C57.5239 72.1252 58.2282 73.5796 58.1645 75.4051C58.0784 77.8752 57.3665 80.203 56.516 82.4857C55.4895 85.252 54.0396 87.7972 52.2936 90.1774C48.1574 95.8187 44.0062 101.445 39.2855 106.625C39.1169 106.809 38.952 106.996 38.7909 107.191C37.7981 108.372 37.8018 108.368 38.8359 109.602C43.3243 114.969 47.8951 120.258 52.8369 125.221C55.0436 127.436 57.3703 129.517 59.7793 131.503C62.6117 133.842 65.8338 133.872 69.1758 133.078C69.9138 132.901 70.4571 132.324 70.9891 131.788C73.1846 129.577 74.7095 126.949 75.7772 124.04C76.4029 122.346 78.9206 116.592 78.9094 116.6C78.8982 116.607 78.8794 116.491 78.8794 116.491C78.8794 116.491 78.7745 116.544 78.767 116.551C78.6734 116.607 78.5797 116.648 78.4823 116.69C78.2987 116.765 74.0576 117.514 73.8552 116.48Z" fill="#202124"/>
<path d="M92.3094 240.063C90.3473 238.707 88.3476 237.415 86.3856 236.062C85.7705 235.639 85.1857 235.148 84.6612 234.62C84.0802 234.032 83.9142 233.335 84.45 232.59C84.9706 231.87 85.6536 231.713 86.6157 232.155C87.0119 232.339 87.3741 232.597 87.7439 232.833C89.7965 234.167 91.8453 235.5 93.8941 236.838C95.7014 238.018 95.8976 237.995 97.2031 236.208C102.493 228.963 106.889 221.179 111.118 213.298C114.873 206.304 118.351 199.164 122.626 192.455C123.536 191.031 124.434 189.6 125.66 188.413C128.026 186.12 130.629 186.663 131.897 189.713C132.829 191.96 132.493 194.256 132.131 196.542C131.425 201.003 129.848 205.225 128.433 209.492C126.245 216.1 123.415 222.412 119.695 228.312C119.129 229.207 118.468 230.046 117.819 230.885C117.382 231.451 116.74 231.559 116.129 231.305C115.578 231.076 115.642 230.481 115.657 229.986C115.684 229.023 116.095 228.181 116.537 227.345C118.865 222.921 121.2 218.497 123.064 213.852C125.369 208.109 127.305 202.239 128.66 196.204C129.048 194.477 129.46 192.672 128.494 190.949C127.728 190.994 127.577 191.627 127.264 192.043C124.132 196.219 121.838 200.883 119.378 205.446C114.929 213.695 110.647 222.037 105.678 230.005C103.821 232.979 101.776 235.822 99.7198 238.658C98.8067 239.917 98.8029 239.973 100.139 240.812C106.134 244.592 112.141 248.357 118.155 252.11C119.37 252.867 119.442 252.859 120.249 251.679C123.068 247.544 126.215 243.637 128.822 239.355C129.048 238.98 129.263 238.587 129.561 238.276C130.003 237.815 130.527 237.407 131.222 237.778C131.871 238.126 132.003 238.722 131.822 239.389C131.512 240.539 131.071 241.633 130.441 242.655C128.309 246.12 125.845 249.361 123.547 252.717C122.034 254.924 122.14 254.613 124.204 255.838C124.796 256.19 125.392 256.546 125.958 256.935C127.365 257.902 127.709 258.729 127.139 259.681C126.584 260.606 125.652 260.767 124.124 260.063C123.158 259.621 122.257 259.04 121.34 258.497C120.064 257.748 93.3658 240.793 92.3094 240.063Z" fill="#202124"/>
<path d="M203.192 105.765C201.65 100.22 200.116 94.6708 198.569 89.1306C198.062 87.3177 196.993 85.8968 195.181 85.3064C189.442 83.4335 184.409 80.3151 179.59 76.7999C179.283 76.5739 178.967 76.334 178.256 76.4447C178.935 79.4248 179.46 82.4417 180.31 85.3617C183.438 96.1285 186.398 106.951 190.845 117.289C191.333 118.419 191.844 119.54 192.29 120.684C194.075 125.269 196.854 129.006 201.245 131.487C202.941 132.447 203.271 133.24 202.835 134.145C202.356 135.127 201.357 135.187 199.572 134.311C195.855 132.484 193.006 129.767 191.022 126.132C187.806 120.232 185.348 114.022 183.271 107.661C180.073 97.8815 177.071 88.0419 174.883 77.9809C174.641 76.8645 174.302 75.7482 174.492 74.5718C174.864 72.2792 176.267 71.3981 178.484 72.1223C179.525 72.4637 180.436 73.0818 181.24 73.7969C186.022 78.0455 191.816 80.3658 197.727 82.5155C198.838 82.9168 199.498 82.5432 200.125 81.759C201.473 80.0752 202.802 78.3776 204.159 76.6985C204.545 76.2233 204.958 75.7482 205.441 75.3884C206.152 74.8579 206.901 74.9824 207.565 75.5452C208.183 76.0711 208.262 76.7538 207.923 77.4273C207.547 78.1792 207.063 78.885 206.622 79.6001C205.483 81.436 204.15 83.1336 202.774 84.7943C202.226 85.4586 202.142 86.0583 202.398 86.8979C207.616 104.109 212.979 121.265 220.925 137.489C221.088 137.826 221.172 138.222 221.604 138.449C222.278 138.398 222.25 137.738 222.426 137.3C223.068 135.736 223.602 134.126 224.285 132.581C224.899 131.197 225.73 130.786 226.79 131.123C227.863 131.464 228.286 132.304 227.947 133.752C227.561 135.395 227.12 137.032 226.59 138.633C225.893 140.746 225.098 142.826 224.322 144.916C223.528 147.052 222.236 147.753 220.173 146.89C214.712 144.607 209.721 141.558 205.367 137.531C204.67 136.885 203.996 136.188 204.703 135.15C205.283 134.297 206.162 134.154 207.356 134.901C209.122 136.004 210.823 137.217 212.537 138.398C213.918 139.353 215.358 140.183 217.463 141.023C215.172 135.948 213.109 131.363 211.041 126.778L211.171 126.681L211.027 126.759C210.957 126.662 210.883 126.565 210.809 126.473C209.921 126.063 209.791 125.177 209.503 124.402C207.574 119.231 205.697 114.041 203.727 108.888C203.341 107.878 202.955 106.877 203.192 105.765Z" fill="#202124"/>
<path d="M214.234 65.011C213.625 66.8315 213.031 68.6519 212.404 70.4631C212.229 70.9667 212.022 71.4796 211.731 71.9185C211.409 72.399 210.902 72.5608 210.312 72.3898C209.741 72.2235 209.317 71.8677 209.312 71.2717C209.307 70.5093 209.33 69.7192 209.524 68.9892C210.51 65.279 211.271 61.4995 212.533 57.8679C213.524 55.0171 214.432 54.5412 217.395 55.359C222.344 56.722 227.298 58.0573 232.118 59.85C234.132 60.5985 236.118 61.421 238.003 62.4605C240.404 63.7912 241.971 65.8057 242.782 68.4163C243.694 71.3595 244.266 74.372 244.519 77.4445C244.524 77.5231 244.533 77.597 244.542 77.6756C244.63 78.5812 244.533 79.4544 243.459 79.6392C242.561 79.7917 242.035 79.1864 241.782 78.3779C241.441 77.2782 241.109 76.1739 240.833 75.0558C240.63 74.238 240.501 73.3971 240.363 72.5654C239.731 68.7582 237.63 66.0275 234.095 64.6275C229.174 62.6823 224.091 61.2038 218.98 59.8408C218.86 59.8084 218.704 59.9147 218.552 59.9655C218.224 60.5107 218.616 60.9728 218.764 61.4533C223.459 76.6498 228.459 91.7401 234.063 106.627C234.496 107.778 234.906 108.946 235.473 110.028C236.741 112.453 238.731 113.839 241.529 113.918C242.671 113.368 243.593 114.094 244.556 114.482C248.045 115.882 251.33 117.711 254.731 119.287C255.787 119.777 257.197 120.738 258.081 119.744C258.819 118.913 257.524 117.836 257.003 116.954C253.602 111.21 250.243 105.449 247.344 99.4284C246.69 98.0654 245.819 96.7486 245.952 95.1176C245.266 92.849 244.575 90.5804 243.897 88.3071C243.676 87.5679 243.552 86.8101 243.644 86.0339C243.713 85.4563 243.966 85.0081 244.565 84.8464C245.243 84.6662 245.782 84.8742 246.109 85.5071C246.321 85.9137 246.505 86.3388 246.648 86.7778C249.906 96.6239 254.833 105.643 260.312 114.385C261.252 115.882 262.169 117.393 262.662 119.116C263.704 122.743 261.704 125.039 257.966 124.508C253.745 123.907 249.823 122.396 245.994 120.585C243.427 119.375 240.847 118.183 238.109 117.397C235.929 116.773 235.639 116.917 234.874 119.019C233.957 121.546 233.086 124.088 232.169 126.615C231.962 127.188 231.713 127.765 231.376 128.264C230.934 128.93 230.234 128.976 229.524 128.759C228.847 128.551 228.57 128.015 228.552 127.35C228.524 126.49 228.782 125.677 229.04 124.873C230.049 121.727 231.054 118.58 232.072 115.438C232.409 114.399 232.561 113.428 232.031 112.342C228.57 105.213 225.971 97.742 223.363 90.2754C223.211 89.8457 222.971 89.4437 222.773 89.0325C222.128 88.6444 221.902 87.9837 221.681 87.3276C220.16 82.8135 218.69 78.2808 217.178 73.7621C216.93 73.0228 216.814 72.2697 216.966 71.4934C216.754 69.7192 216.1 68.0605 215.616 66.3556C215.022 65.8889 215.685 65.0387 215.077 64.5767L215.072 64.5675C214.51 64.1793 214.45 64.7384 214.234 65.011Z" fill="#202124"/>
<path d="M246.252 95.5C249.871 103.597 254.342 111.23 258.984 118.777C259.145 119.038 259.298 119.304 259.417 119.584C259.791 120.455 259.417 120.89 258.542 120.982C257.597 121.078 256.698 120.776 255.863 120.436C254.232 119.776 252.637 119.024 251.06 118.24C248.045 116.732 245.012 115.274 241.822 114.16C241.218 111.679 241.592 109.502 243.703 107.801C244.445 107.205 244.533 106.407 244.063 105.55C243.698 104.885 243.394 104.188 243.067 103.505C242.569 102.469 242.246 101.387 242.182 100.231C242.016 97.4531 242.965 96.3528 246.252 95.5Z" fill="#20BEFF"/>
<path d="M203.415 106C206.007 113.026 208.594 120.057 211.187 127.083C210.817 127.59 210.457 128.102 210.082 128.6C208.779 130.324 207.007 130.652 205.021 130.178C203.007 129.694 201.586 128.116 201.339 126.073C201.178 124.753 201.211 123.415 201.548 122.119C202.079 120.094 201.733 118.535 199.795 117.305C197.487 115.839 196.729 113.397 196.572 110.828C196.421 108.358 197.89 106.676 200.377 106.268C201.368 106.099 202.396 106.08 203.415 106Z" fill="#20BEFF"/>
<path d="M217.155 71.5C218.72 75.2382 219.778 79.1414 221.08 82.9644C221.808 85.0998 222.488 87.2494 223.187 89.3895C220.707 91.7654 217.892 93.387 214.282 93.2409C212.166 93.156 210.428 92.3782 209.169 90.6623C207.968 89.0266 207.839 87.3343 208.944 85.6184C209.935 84.0816 211.089 82.6674 212.841 81.9226C214.536 81.2014 215.197 79.9239 215.139 78.1891C215.106 77.1709 215.072 76.1527 215.058 75.1345C215.029 73.5223 215.589 72.226 217.155 71.5Z" fill="#20BEFF"/>
<path d="M211.372 126.801L211.44 126.771L211.38 126.816L211.308 126.854L211.372 126.801Z" fill="#202124"/>
<path d="M252.435 111.173C252.453 111.885 252.328 112.42 251.668 112.663C250.976 112.918 250.488 112.578 250.121 112.1C248.829 110.412 247.946 108.557 247.291 106.622C247.133 106.157 247.082 105.683 247.676 105.387C248.239 105.112 248.745 105.278 249.136 105.642C250.846 107.258 251.756 109.238 252.435 111.173Z" fill="white"/>
<path d="M198.813 111.095C198.792 109.978 199.024 109.27 199.452 108.65C199.672 108.333 199.981 108.172 200.348 108.287C200.775 108.42 201.183 108.774 201.064 109.238C200.608 110.97 201.305 112.344 201.997 113.746C202.245 114.251 202.302 114.798 201.842 115.189C201.374 115.584 200.967 115.276 200.56 114.954C199.248 113.939 198.923 112.413 198.813 111.095Z" fill="white"/>
<path d="M215.312 84.7623C214.14 85.7779 213.072 86.8507 212.676 88.7359C212.363 90.2305 212.28 90.2045 211.187 88.9494C211.154 86.4809 212.185 84.7519 213.72 83.4812C214.627 82.7313 215.089 83.1687 215.312 84.7623Z" fill="white"/>
<path d="M173.551 19.2497C174.12 18.3775 174.955 18.3958 175.824 18.6001C177.831 19.0716 179.513 21.1511 179.612 23.2507C179.8 27.3522 176.54 30.8445 172.445 30.8967C170.159 30.9252 168.494 29.8556 167.423 27.8445C167.194 27.4129 167.045 26.9437 166.837 26.5018C166.628 26.0599 166.284 25.8896 165.793 26.0068C162.524 26.791 159.182 26.8688 155.847 27.0372C154.375 27.114 154.342 27.1322 154.253 28.6172C154.086 31.4362 153.247 34.0029 151.569 36.2704C150.003 38.3857 147.98 39.8885 145.482 40.7194C143.311 41.4442 141.173 41.2431 138.937 40.2239C137.085 45.0736 135.433 49.9124 133.363 54.5777C132.467 55.4712 131.707 55.4131 131.099 54.2513C131.623 51.1616 133.062 48.3812 134.043 45.4479C134.622 43.7191 135.276 42.012 135.986 40.3332C136.459 39.2141 136.495 38.3531 135.493 37.4314C134.419 36.444 133.699 35.1372 133.106 33.7852C130.571 28.0134 133.183 22.8319 136.321 20.0128C136.912 19.4809 137.57 19.0507 138.416 19.0539C140.003 19.388 140.252 20.0021 139.175 21.1667C138.389 22.0206 137.611 22.8722 136.937 23.8131C133.635 28.4309 135.634 34.9835 140.938 37.0483C142.701 37.7346 144.309 37.3201 145.853 36.5209C149.662 34.5497 151.551 29.3289 150.032 25.3159C149.401 23.6443 148.057 22.7565 146.706 21.7897C145.035 20.5913 145.119 19.5172 146.865 18.533C149.64 18.732 151.465 20.4252 152.639 22.7043C153.446 24.2684 154.361 24.5544 155.964 24.3001C158.827 23.8487 161.74 23.7901 164.613 23.3202C166.02 23.0908 167.089 22.647 167.646 21.149C168.109 19.9137 168.525 19.8596 170.142 20.0871C170.558 20.7399 170.303 21.3864 170.123 22.0242C169.987 22.4931 169.813 22.9511 169.74 23.4344C169.438 25.3515 170.515 27.2025 172.068 27.4434C173.927 27.7313 176.041 26.0599 176.225 24.1696C176.335 23.0331 175.643 22.3894 174.856 21.7529C174.067 21.121 173.063 20.5591 173.551 19.2497Z" fill="#202124"/>
<path d="M108.684 52.5518C109.621 51.4403 109.874 51.327 110.952 51.8383C113.114 52.8669 114.608 54.4673 115.133 56.893C115.481 58.4992 115.507 58.5065 117.153 58.7203C118.851 58.9404 120.554 59.0927 122.244 59.3467C123.178 59.4875 123.719 59.2494 124.069 58.317C124.648 56.7801 125.747 55.655 127.124 54.7671C127.976 54.2171 128.778 54.0192 129.66 54.6409C129.915 55.5679 129.35 56.1607 128.786 56.7219C127.854 57.6449 127.262 58.7845 126.768 59.9743C125.801 62.3039 126.63 64.9507 128.651 66.1149C130.714 67.3041 134.194 66.7541 135.575 65.0228C136.977 63.2612 136.679 60.6293 134.853 58.6845C133.269 56.9965 133.215 56.5812 134.388 55.1863C136.626 54.9505 138.019 56.2171 138.876 58.0441C141.875 64.4339 138.371 69.9391 132.142 70.3799C130.975 70.4628 129.821 70.3935 128.681 70.1206C125.751 69.4156 124.014 67.5397 123.375 64.6126C122.815 62.0424 123.284 62.3342 120.48 62.0406C119.325 61.9209 118.177 61.7287 117.024 61.581C115.531 61.3875 115.468 61.3728 115.057 62.7814C114.371 65.1291 112.806 66.6629 110.754 67.7934C105.967 70.4327 99.8209 67.6305 98.5842 62.2429C97.7632 58.6695 100.061 53.9579 103.35 52.5075C104.143 52.156 104.967 51.8025 105.662 52.7269C105.839 53.7491 105.118 54.3111 104.523 54.9059C103.693 55.7409 102.969 56.6273 102.442 57.695C101.164 60.2779 101.426 62.0952 103.407 64.0638C104.862 65.5092 107.047 65.848 108.838 64.9035C111.366 63.5752 112.542 61.3919 112.041 58.8762C111.736 57.3302 111.123 55.9544 109.852 54.9092C109.214 54.3837 108.457 53.8264 108.637 52.7857C108.645 52.7166 108.662 52.6488 108.678 52.5811L108.684 52.5518Z" fill="#202124"/>
<path d="M108.773 52.6962L108.848 52.7347L108.768 52.7175L108.707 52.6779L108.773 52.6962Z" fill="#202124"/>
<path d="M143.44 34.3936C142.939 34.5824 142.435 34.5187 141.944 34.3346C140.605 33.8256 139.575 32.9323 138.858 31.635C138.582 31.1384 138.559 30.6385 138.594 30.1008C138.634 29.4906 138.928 29.1374 139.476 28.9819C139.959 28.8474 140.419 28.9515 140.69 29.3899C141.368 30.4909 142.343 31.1818 143.413 31.7821C143.657 31.9193 143.891 32.1234 144.064 32.3507C144.704 33.1916 144.425 34.0848 143.44 34.3936Z" fill="#202124"/>
<path d="M104.402 59.5625C104.812 59.329 105.162 59.4353 105.4 59.736C106.106 60.6368 106.816 61.5364 107.442 62.4941C107.802 63.0407 107.503 63.4307 106.866 63.3718C105.811 63.2786 104.191 62.0073 103.853 61.0254C103.616 60.3425 103.79 59.8501 104.402 59.5625Z" fill="#202124"/>
<path d="M128.232 62.5011C128.4 62.5344 128.672 62.5267 128.861 62.6374C129.323 62.9049 129.795 63.18 130.18 63.5314C130.593 63.91 131.247 64.3204 130.813 64.9707C130.324 65.7011 129.568 65.3717 128.948 65.1662C128.147 64.8989 127.648 64.343 127.537 63.5291C127.478 63.0867 127.664 62.7405 128.232 62.5011Z" fill="#202124"/>
<path d="M172.749 25.2868C172.819 25.7221 173.215 26.2514 172.467 26.4866C171.85 26.6795 170.975 26.0672 170.806 25.3639C170.666 24.7709 170.809 24.1896 171.467 24.0604C172.394 23.8745 172.509 24.6837 172.749 25.2868Z" fill="#202124"/>
<path d="M95.6384 173.125C96.1694 173.114 96.5658 173.33 96.9061 173.584C101.173 176.779 106.098 178.755 110.84 181.067C112.123 181.693 113.379 182.383 114.61 183.107C115.75 183.781 116.655 184.725 117.302 185.884C117.519 186.272 117.616 186.708 117.283 187.096C117.007 187.417 116.595 187.402 116.24 187.338C115.881 187.275 115.53 187.118 115.197 186.954C109.924 184.3 104.576 181.794 99.408 178.934C97.7513 178.017 96.4013 176.75 95.1111 175.404C94.6997 174.975 94.4978 174.471 94.711 173.875C94.8792 173.405 95.2756 173.241 95.6384 173.125Z" fill="#202124"/>
<path d="M160.245 242.934C160.218 243.428 160.169 243.96 159.646 244.197C159.044 244.469 158.423 244.443 157.866 244.026C157.147 243.488 156.719 242.726 156.268 241.983C153.776 237.836 143.447 214.913 140.508 211.045C139.796 210.105 139.042 209.191 138.319 208.258C138.053 207.916 137.785 207.571 137.565 207.199C137.292 206.734 137.307 206.248 137.648 205.813C138.065 205.282 138.663 205.308 139.193 205.505C139.587 205.649 139.924 205.976 140.243 206.266C141.996 207.875 143.564 209.648 144.886 211.61C147.245 215.11 157.397 237.412 159.54 241.046C159.885 241.633 160.302 242.198 160.245 242.934Z" fill="#202124"/>
<path d="M128.743 219.105C128.454 221.333 127.725 223.459 126.893 225.547C126.131 227.462 125.214 229.302 124.156 231.07C123.863 231.556 123.56 232.024 123.016 232.254C122.021 232.672 121.063 231.956 121.281 230.885C121.429 230.158 121.747 229.464 122.029 228.771C123.423 225.366 125.058 222.06 126.028 218.483C126.094 218.242 126.194 218.008 126.305 217.789C126.586 217.243 127.026 216.922 127.648 217.016C128.365 217.126 128.672 217.642 128.739 218.332C128.761 218.581 128.743 218.833 128.743 219.105Z" fill="#202124"/>
<path d="M131.75 226.6C131.122 229.915 130.286 233.095 128.15 235.719C127.453 236.575 126.763 236.695 126.076 236.237C125.258 235.689 125.244 234.904 125.587 234.09C126.748 231.345 127.946 228.62 129.107 225.875C129.413 225.147 129.881 224.757 130.655 224.907C131.578 225.095 131.611 225.905 131.75 226.6Z" fill="#202124"/>
<path d="M7.19618 119.715C8.16945 121.424 7.24961 122.993 6.75725 124.573C6.63893 124.958 6.14276 125.177 5.65421 125.114C5.0359 125.036 4.6733 124.677 4.43285 124.12C4.00156 123.134 4.45193 122.207 4.57789 121.257C4.65804 121.12 4.72674 120.976 4.78399 120.827C4.85269 120.497 4.93284 120.174 5.1046 119.878C5.75726 119.318 6.47481 119.485 7.19618 119.715Z" fill="#202124"/>
<path d="M3.86814 120.657C3.54637 120.849 3.23974 121.075 2.90283 121.23C2.25173 121.528 1.64983 121.351 1.19557 120.849C0.703459 120.307 0.843523 119.7 1.17665 119.112C1.49084 118.554 1.9186 118.099 2.43343 117.737C3.69779 116.855 4.43975 117.156 5 118.762C4.77287 119.481 4.80315 120.356 3.86814 120.657Z" fill="#202124"/>
<path d="M44.0107 139.788C42.4609 140.608 40.8923 141.363 39.2598 142.021C36.1941 143.262 32.583 141.356 31.3266 138.713C30.7624 137.525 30.3712 136.258 30.1944 134.954C29.4834 129.728 34.3509 125.533 39.5457 126.879C42.017 127.518 43.9016 129.01 45.5078 130.928C47.8512 133.721 49.7583 136.815 51.7633 139.845C52.903 141.57 54.0992 143.258 55.5023 144.78C58.8689 148.438 63.0367 150.525 67.9681 151.088C71.4288 151.483 74.8518 151.22 78.2523 150.51C78.6811 150.419 79.1099 150.314 79.5425 150.254C80.1218 150.171 80.498 150.397 80.6259 151.01C80.7425 151.562 80.8967 152.103 81.0547 152.645C82.6646 158.133 85.4708 162.99 88.9653 167.475C89.0819 167.622 89.1985 167.772 89.3301 167.904C90.7708 169.347 90.7896 169.467 89.8831 171.182C89.127 172.61 87.9948 173.67 86.6105 174.467C82.0364 177.091 77.1652 178.369 71.8463 177.907C67.2008 177.505 62.6606 176.674 58.267 175.091C55.7919 174.2 53.3243 173.287 50.8191 172.494C49.1452 171.96 48.4343 170.964 48.3741 169.197C48.1747 163.246 46.8055 157.551 44.3304 152.126C43.4464 150.186 42.4082 148.325 41.2873 146.51C40.3356 144.968 40.3469 144.968 41.9756 144.265C43.1869 143.743 44.3642 143.164 45.2821 142.168C45.756 141.656 46.1548 141.104 46.4632 140.48C46.7416 139.916 46.7717 139.371 46.2789 138.935C45.8012 138.514 45.2745 138.45 44.8006 138.984C44.5561 139.273 44.2852 139.533 44.0107 139.788Z" fill="#DADCE0"/>
<path d="M12.125 124.33C12.4861 121.903 13.3237 119.677 14.6885 117.671C14.9087 117.347 15.2337 117.121 15.6092 117.332C16.0172 117.559 15.8583 117.986 15.7644 118.325C15.5153 119.213 15.2156 120.086 14.9701 120.978C14.6415 122.164 14.3419 123.357 14.0422 124.55C13.8942 125.14 13.8725 125.925 13.0746 125.873C12.208 125.813 12.1864 125.014 12.125 124.33Z" fill="#E8EAED"/>
<path d="M80.9956 130.375C80.7111 130.35 80.3967 130.346 80.0972 130.284C79.6368 130.19 79.2999 129.929 79.255 129.45C79.2101 128.975 79.4721 128.638 79.925 128.489C81.4485 127.996 82.9683 127.495 84.5105 127.063C85.0571 126.911 85.5998 127.005 85.8881 127.651C86.18 128.3 85.8619 128.692 85.3827 129.018C84.0763 129.914 82.5902 130.281 80.9956 130.375Z" fill="#E8EAED"/>
<path d="M52.3785 77.5019C52.4478 76.1791 52.2208 74.8904 51.9591 73.6017C51.8668 73.1519 51.7167 72.5435 52.3593 72.3092C52.9364 72.0975 53.302 72.4906 53.6252 72.9063C54.6025 74.161 54.8219 78.2691 53.9715 79.6069C53.756 79.9433 53.4674 80.1814 53.0365 80.1134C52.517 80.0302 52.2785 79.675 52.2862 79.1874C52.29 78.6243 52.3439 78.065 52.3785 77.5019Z" fill="white"/>
<path d="M14.75 131.088C14.7138 131.52 14.8265 132.031 14.2429 132.203C13.5588 132.402 13.2851 131.936 13.1 131.44C12.8102 130.668 12.5245 129.886 12.5004 129.057C12.4883 128.561 12.7821 128.217 13.3093 128.137C13.768 128.065 14.09 128.321 14.2429 128.691C14.5609 129.458 14.7057 130.268 14.75 131.088Z" fill="white"/>
<path d="M4.62803 121C4.63553 120.715 4.68803 120.442 4.98053 120.25C5.02553 120.554 4.99928 120.837 4.62803 121Z" fill="#202124"/>
<path d="M37.539 140.496C36.6653 140.517 35.8469 140.317 35.0728 139.935C34.4572 139.632 34.1622 139.146 34.2728 138.489C34.3834 137.832 34.8221 137.442 35.5115 137.381C36.6653 137.278 37.8192 137.185 38.973 137.128C39.8172 137.085 40.3923 137.524 40.5766 138.292C40.7609 139.067 40.4107 139.682 39.666 140.042C38.9951 140.364 38.2873 140.528 37.539 140.496Z" fill="#202124"/>
<path d="M42.609 139C41.6312 139.017 41.0258 138.546 41.0007 137.746C40.9721 136.765 41.7744 136.004 42.8383 136C43.7051 135.996 44.3641 136.595 44.3749 137.388C44.3856 138.277 43.6155 138.982 42.609 139Z" fill="#202124"/>
<path d="M117.57 330.545C118.05 330.499 193.615 330.597 194.117 330.255C193.997 329.274 193.536 328.379 193.179 327.458C188.233 314.675 182.919 302.034 177.751 289.341C175.011 282.619 172.268 275.896 169.806 269.065C169.149 267.241 168.665 265.358 168.121 263.496C168.016 263.139 167.971 262.76 167.941 262.387C167.881 261.662 168.256 261.256 168.92 260.985C169.577 260.718 170.046 260.962 170.384 261.447C170.74 261.955 171.014 262.526 171.273 263.09C173.461 267.877 175.112 272.877 177.135 277.731C183.474 292.924 189.757 308.136 195.784 323.457C196.381 324.973 196.921 326.507 197.495 328.026C198.659 331.097 198.159 330.714 201.274 330.785C209.276 330.969 217.281 331.075 225.282 331.315C241.54 331.804 257.798 331.767 274.059 331.421C291.942 331.041 422.365 330.868 440.251 330.827C440.998 330.827 441.76 330.853 442.488 330.996C443.659 331.221 444.143 331.789 444.124 332.71C444.106 333.62 443.539 334.158 442.383 334.304C441.888 334.365 441.385 334.353 440.886 334.357C415.868 334.489 278.315 334.759 253.298 335.101C242.917 335.244 232.54 334.703 222.163 334.413C214.222 334.192 206.281 334.177 198.336 334.271C197.37 334.282 121.452 334.251 120.671 334.187C114.269 333.662 113.947 330.886 117.57 330.545Z" fill="#202124"/>
<path d="M226.632 293.286C226.569 290.966 226.912 289.311 228.521 288.187C229.943 287.194 231.096 287.276 232.38 288.445C232.981 288.994 233.459 289.636 233.873 290.339C235.333 292.823 236.355 295.478 236.956 298.287C237.259 299.707 237.192 301.119 236.449 302.445C235.381 304.353 233.418 304.921 231.54 303.812C230.723 303.33 230.115 302.628 229.57 301.862C227.636 299.139 226.815 296.061 226.632 293.286Z" fill="#202124"/>
<path d="M96.125 240.625C96.125 240.625 69.6335 268.741 57.125 270.625" stroke="#202124" stroke-width="3.75" stroke-linecap="round"/>
<path d="M121.25 254.5C121.25 254.5 94.7585 302.116 82.25 304" stroke="#202124" stroke-width="3.375" stroke-linecap="round"/>
<path d="M43.25 178.375C43.25 178.375 20.8441 198.678 14.8743 217.053C10.8734 229.368 8.02476 250.689 6.2568 273.792C5.76442 280.226 5.3408 289.309 5 298.375" stroke="#202124" stroke-width="3.375" stroke-linecap="round"/>
<path fill-rule="evenodd" clip-rule="evenodd" d="M282.602 41.2832L282.602 41.283L282.602 41.283C281.509 40.451 280.5 39.6824 279.453 38.9635C276.249 36.7601 273.652 33.9278 271.099 31.0427L271.095 31.0371C270.963 30.8887 270.827 30.7363 270.715 30.572C269.635 29.0056 268.935 27.3501 269.801 25.4591C270.642 23.629 272.297 23.1137 274.125 22.9838C277.252 22.7607 280.319 23.1827 283.329 23.9983C286.124 24.7531 288.899 25.5768 291.626 26.5628C293.673 27.3041 293.677 27.2771 293.978 25.0166L293.98 25.0046C294.651 19.977 295.578 14.9981 296.933 10.1084C297.147 9.32929 297.406 8.55424 297.746 7.82384C299.72 3.61994 304.745 3.00315 307.661 6.62272C309.716 9.17103 310.534 12.259 311.181 15.3795C311.812 18.4269 312.216 21.5068 312.382 24.6232C312.463 26.1692 312.657 26.3194 314.093 25.7472C317.86 24.2458 321.674 22.9149 325.704 22.3346C328.179 21.9775 330.671 21.8071 333.103 22.6673C336.938 24.0267 338.123 27.1269 336.193 30.7383C335.416 32.191 334.304 33.3556 333.05 34.4025L332.35 34.9853L332.35 34.9854L332.35 34.9855C329.113 37.6821 325.868 40.3845 322.374 42.928C322.706 43.5448 323.203 43.8646 323.675 44.1689C323.803 44.251 323.929 44.3319 324.049 44.4172C327.184 46.6531 330.247 48.9742 333.01 51.6726C333.394 52.0459 333.786 52.4314 334.086 52.8697C334.377 53.2957 334.361 53.8111 333.928 54.1438L333.886 54.1765C333.544 54.442 333.151 54.7468 332.658 54.4116C332.478 54.2896 332.296 54.1702 332.115 54.0508L332.114 54.0502L332.113 54.05L332.113 54.0494C331.787 53.8357 331.462 53.6219 331.149 53.3931C329.489 52.1818 327.832 50.9674 326.175 49.753L326.172 49.7511L326.169 49.7491L326.167 49.7472L326.164 49.7453L326.162 49.7433L326.159 49.7414C324.502 48.527 322.845 47.3126 321.185 46.1012C319.563 44.9164 319.555 44.9204 317.864 46.1296C317.228 46.5837 316.598 47.0473 315.968 47.511C315.511 47.8471 315.054 48.1831 314.595 48.5156C313.373 49.4002 312.722 50.5648 312.585 52.0906L312.551 52.4601C312.325 54.9526 312.236 55.9393 312.672 56.5506C312.958 56.9512 313.47 57.1906 314.317 57.5868C314.728 57.7791 315.219 58.0085 315.801 58.3112C320.861 60.9407 326.225 62.7018 331.889 63.493C333.39 63.7 334.85 63.7365 336.23 63.0102C337.48 62.3487 337.617 61.7644 336.828 60.5958C336.568 60.2094 336.296 59.8299 336.024 59.4506C335.785 59.1168 335.546 58.7832 335.315 58.4451C334.972 57.9379 334.967 57.4307 335.416 56.9762C335.93 56.4568 336.517 56.473 337.059 56.8788C338.552 58.0028 339.721 59.3906 340.166 61.245C340.485 62.58 339.862 63.6188 338.863 64.4385C336.804 66.1306 334.409 66.5323 331.828 66.2645C325.509 65.6112 319.623 63.5783 314.013 60.6647L314.008 60.6623C312.131 59.6868 312.127 59.6846 311.8 61.805C311.647 62.7886 311.498 63.7722 311.349 64.7553L311.349 64.7568L311.349 64.7583L311.348 64.7598L311.348 64.7613L311.348 64.7628L311.348 64.7642L311.347 64.7657L311.347 64.7672L311.347 64.7687C311.193 65.7847 311.039 66.8002 310.881 67.8146C310.839 68.0954 310.773 68.3702 310.707 68.646C310.678 68.7648 310.649 68.8838 310.623 69.0036C310.473 69.6609 310.141 70.1438 309.389 70.0748C308.547 69.9977 308.264 69.4134 308.276 68.6586C308.288 67.9161 308.341 67.1735 308.41 66.435C308.46 65.9174 308.507 65.3996 308.554 64.8818L308.554 64.8811L308.554 64.8804L308.554 64.8797L308.555 64.8786L308.555 64.8775L308.555 64.8764L308.555 64.8754L308.555 64.8743L308.555 64.8732C308.698 63.3074 308.84 61.7421 309.065 60.1859C309.279 58.7008 308.697 57.7431 307.532 56.9478C305.198 55.3571 302.791 55.0163 300.359 56.611C299.166 57.3941 297.948 58.084 296.613 58.5709C295.23 59.0741 294.571 60.0723 294.672 61.5372C294.983 66.1915 295.339 70.8418 297.034 75.2607C297.657 76.8879 298.612 78.2351 300.165 79.0994C301.569 79.8785 302.334 79.769 303.333 78.5354C304.078 77.6197 304.556 76.5418 305.032 75.4691L305.084 75.35C305.355 74.7332 305.639 74.1124 306.011 73.5564C306.379 73.0046 306.953 72.7936 307.609 73.0492C308.317 73.3251 308.794 73.877 308.6 74.6155C307.779 77.736 306.606 80.6739 303.656 82.439C302.406 83.1856 301.076 83.1451 299.769 82.5648C297.192 81.4205 295.319 79.5701 294.223 76.9447C292.645 73.1588 291.937 69.1862 291.69 65.1121L291.683 64.9938L291.683 64.9937C291.633 64.1563 291.582 63.3156 291.605 62.4786C291.634 61.452 291.168 61.3708 290.351 61.6589C287.426 62.6896 284.502 63.7122 281.565 64.7023C278.984 65.5706 276.342 65.9967 273.608 65.6356C271.095 65.3028 269.38 63.9272 268.482 61.6021C267.641 59.4271 269.19 57.0452 271.468 56.8585C271.876 56.826 272.293 56.8017 272.552 57.1994C272.732 57.4769 272.597 57.7057 272.461 57.9367C272.426 57.9962 272.391 58.0558 272.362 58.1164C271.087 60.7175 271.88 62.0769 274.765 62.2595C276.395 62.365 277.997 62.2229 279.558 61.7117C283.017 60.5795 286.427 59.3176 289.821 58.0069C291.14 57.4996 291.731 56.749 291.719 55.2963C291.698 53.2714 291.848 51.2425 291.998 49.2217C292.067 48.3046 291.783 47.6838 291.015 47.1928C290.603 46.9303 290.204 46.6063 289.805 46.2835C288.997 45.6283 288.194 44.9778 287.313 44.8555C286.408 44.7283 285.612 45.4926 284.826 46.248C284.508 46.5531 284.192 46.8567 283.871 47.0995C282.326 48.2676 280.82 49.486 279.314 50.705C278.722 51.184 278.13 51.6631 277.536 52.1393C277.434 52.2208 277.337 52.3083 277.239 52.3959C277.085 52.5349 276.93 52.674 276.759 52.7885C276.067 53.2471 275.363 53.2998 274.748 52.6546C274.053 51.9201 274.449 51.2831 275.015 50.7231C277.123 48.6293 279.243 46.5476 281.581 44.7053C282.205 44.2227 282.823 43.7171 283.531 43.1366L283.532 43.1358C283.765 42.9454 284.007 42.7469 284.263 42.5385C283.682 42.1052 283.134 41.6882 282.606 41.2861L282.605 41.2853L282.604 41.2846L282.602 41.2832ZM276.281 26.2647C279.169 26.1323 281.916 26.9191 284.649 27.7017C284.811 27.7481 284.973 27.7944 285.134 27.8404C286.658 28.2741 288.155 28.8004 289.653 29.3269L289.653 29.3269C290.563 29.6468 291.473 29.9667 292.389 30.266C293.249 30.5465 293.58 30.959 293.688 31.982C294.189 36.5567 291.582 38.5285 287.894 40.6199C287.337 40.9376 286.861 40.6117 286.409 40.3023C281.789 37.1095 277.33 33.7269 273.844 29.1893C273.808 29.1419 273.771 29.0945 273.734 29.047C273.521 28.7718 273.303 28.4918 273.162 28.1787C272.759 27.2877 273.126 26.5658 274.07 26.3142C274.199 26.2812 274.336 26.2647 274.469 26.2647C274.873 26.2619 275.277 26.2628 275.68 26.2638H275.681H275.681H275.682H275.683H275.684H275.685H275.686C275.885 26.2642 276.083 26.2647 276.281 26.2647ZM308.869 28.1248C309.576 27.8081 309.876 27.263 309.701 26.5295C309.344 22.369 308.885 18.2566 307.882 14.2284C307.529 12.8055 307.106 11.3946 306.383 10.096C305.612 8.71713 304.775 7.34233 302.895 7.51468C301.092 7.67901 300.576 9.11795 300.121 10.5649C298.569 15.4927 297.818 20.5713 297.066 25.6515L297.066 25.6515L297.066 25.6515L297.066 25.6516L297.066 25.6516L297.066 25.6516L297.066 25.6516L297.066 25.6517L297.066 25.6517L297.065 25.6537C296.977 26.2503 296.889 26.847 296.799 27.4434C296.73 27.9244 296.665 28.4775 297.116 28.73C297.41 28.8943 297.702 29.0683 297.995 29.2425C299.723 30.2717 301.467 31.3098 303.683 30.4014C305.071 29.8309 306.442 29.2148 307.811 28.5994L307.811 28.5993C308.164 28.4408 308.516 28.2824 308.869 28.1248ZM329.102 25.5138C330.341 25.4534 331.571 25.5862 332.731 26.0088C333.945 26.4516 334.248 27.2042 333.81 28.4036C333.453 29.3736 332.809 30.1584 332.026 30.8225C328.257 34.0302 324.341 37.0609 320.351 39.9989C319.622 40.5383 318.941 40.6389 318.072 40.3169C314.09 38.8479 312.052 35.1893 312.966 31.1525C313.175 30.2228 313.586 29.4742 314.492 29.1683C315.12 28.955 315.747 28.7374 316.374 28.5198C320.185 27.1972 324 25.8732 328.081 25.5138C328.305 25.4977 328.533 25.5031 328.761 25.5084H328.761C328.875 25.5111 328.989 25.5138 329.102 25.5138ZM299.166 36.4967C296.396 38.0424 295.323 40.4782 295.25 43.5048C295.262 47.4216 300.728 51.4557 304.462 50.2985C304.716 50.2216 304.97 50.1285 305.208 50.0071C306.464 49.3638 307.642 48.5869 308.724 47.6846C309.834 46.758 310.355 45.5643 310.097 44.1077C309.988 43.5088 309.923 42.9424 310.089 42.3273C310.589 40.4782 309.895 39.0377 308.43 37.921C307.412 37.1441 306.335 36.4805 305.14 35.999C303.057 35.1614 301.111 35.4123 299.166 36.4967ZM299.75 53.1331C298.201 54.2211 296.792 54.9532 295.164 55.75C294.913 53.8975 294.996 52.2878 295.11 50.5C296.349 50.918 297.376 51.5932 298.474 52.3149L298.474 52.315C298.884 52.5849 299.305 52.8612 299.75 53.1331ZM308.1 34.6508L308.105 34.6542L308.111 34.6573L308.115 34.6602C308.58 34.9393 309.047 35.2201 309.514 35.5L309.605 35.4514C309.727 35.3859 309.849 35.3209 309.975 35.2587C309.777 34.7607 309.855 34.1747 309.928 33.621C310.024 32.8955 310.113 32.2253 309.565 31.8808C308.929 31.4842 308.158 32.0641 307.413 32.6245C307.146 32.8252 306.883 33.0234 306.63 33.1734C306.583 33.2007 306.568 33.2942 306.548 33.4271C306.537 33.5035 306.523 33.5929 306.5 33.6904C307.025 34.0048 307.559 34.3254 308.095 34.6482L308.098 34.6495L308.1 34.6508ZM316.25 42.5748C315.573 43.3952 314.891 43.866 314.183 44.355L314.183 44.3551C313.997 44.4833 313.81 44.6127 313.62 44.75C313.179 43.8504 313.232 42.9931 313.285 42.1353C313.308 41.761 313.331 41.3866 313.313 41.0086C314.191 40.9293 314.77 41.4101 315.397 41.9295L315.397 41.9296C315.664 42.1511 315.939 42.3797 316.25 42.5748ZM291.932 44.0766C292.074 44.1326 292.218 44.1894 292.359 44.25C292.371 44.1308 292.383 44.0146 292.395 43.9009C292.497 42.9202 292.579 42.1309 292.37 41.25L292.284 41.279C291.443 41.5615 290.521 41.8711 290.5 42.7834C290.482 43.5043 291.181 43.7802 291.932 44.0766ZM307.768 52.7974L307.768 52.7973C308.247 52.4218 308.678 52.0833 309.307 52C309.597 52.8135 309.501 53.5686 309.398 54.3862L309.383 54.5C308.599 54.4756 308.047 54.0869 307.353 53.5974L307.353 53.5974C307.24 53.5176 307.122 53.4351 307 53.3511C307.286 53.1748 307.533 52.9816 307.768 52.7974ZM296.479 31.75C296.217 32.5295 296.148 33.2282 296.442 34.25C296.711 34.094 296.979 33.9704 297.237 33.8513C297.835 33.576 298.379 33.3253 298.75 32.7557C298.1 32.1902 297.394 31.8712 296.479 31.75Z" fill="#202124"/>
<path d="M324.364 15.7499C321.86 15.6128 319.41 14.1813 317.753 11.4474C317.513 11.0523 317.342 10.5966 317.216 10.149C315.998 5.74975 320.13 0.592397 324.726 0.75369C325.63 0.785949 326.469 0.999662 327.197 1.53193C327.665 1.87065 327.893 2.35452 327.775 2.93921C327.645 3.58439 327.144 3.73761 326.566 3.79003C325.895 3.85052 325.215 3.88681 324.555 4.02391C322.105 4.51989 320.489 6.54412 320.761 8.72964C320.993 10.5966 323.285 12.3426 325.365 12.2337C327.576 12.1168 329.265 10.3184 329.375 7.95543C329.387 7.6893 329.363 7.41913 329.371 7.14896C329.404 6.31831 329.766 5.74571 330.653 5.60055C331.708 5.42716 332.4 5.76991 332.738 6.74976C333.149 7.93527 333.039 9.14094 332.668 10.3143C331.761 13.2015 328.158 15.7661 324.364 15.7499Z" fill="#202124"/>
<path d="M334.505 42.9023C334.616 41.613 334.789 40.2405 335.601 39.0593C336.57 37.6494 337.91 36.9341 339.618 37.0048C340.187 37.0297 340.681 37.3084 340.854 37.9281C341.019 38.5145 340.611 38.8264 340.207 39.0968C339.461 39.6 338.756 40.1407 338.331 40.9684C337.634 42.3242 337.787 43.6759 338.55 44.9111C339.226 46.0008 340.372 46.0549 341.494 45.8386C343.271 45.4976 344.24 43.2142 343.32 41.6255C343.184 41.3884 342.994 41.1763 342.875 40.9351C342.248 39.679 343.093 38.3648 344.487 38.4272C345.708 38.4771 346.71 39.3089 347.167 40.6439C348.693 45.1149 344.743 49.9852 340.013 49.4611C336.418 49.066 334.389 46.687 334.505 42.9023Z" fill="#202124"/>
<path fill-rule="evenodd" clip-rule="evenodd" d="M63.8786 106.742C61.5618 104.521 58.8528 103.113 55.5907 103.029C54.5669 102.92 53.5953 103.131 52.6387 103.411C50.6247 104.015 49.5373 105.446 49.3281 107.512C49.2085 108.694 49.1973 109.895 49.5037 111.069C51.0843 117.1 54.9517 120.804 60.8818 122.27C65.1864 123.335 68.4485 120.608 68.3737 116.141C68.3102 112.323 66.5353 109.291 63.8786 106.742ZM54.8545 105.251C53.3469 105.225 52.0482 105.671 51.2421 107.066C50.3202 108.829 52.0445 112.869 52.3953 113.442C53.6081 115.826 55.4852 117.582 57.7467 118.947C58.87 119.624 60.0866 120.074 61.4039 120.216C64.4379 120.539 66.4419 118.542 66.0836 115.533C65.8746 113.781 65.285 112.155 64.255 110.73C61.9413 107.531 59.0155 105.318 54.8545 105.251Z" fill="#202124"/>
<path d="M65.4241 87.6361C69.318 87.8066 72.3817 89.6184 74.8981 92.4565C76.8748 94.6869 78.2336 97.1878 78.1182 100.293C78.0958 100.889 78.1368 101.415 77.3513 101.489C76.5994 101.564 76.2122 101.249 76.0707 100.504C75.8846 99.5369 75.7059 98.555 75.3672 97.6399C73.8223 93.4902 70.807 90.9892 66.4851 90.0481C64.6238 89.6443 62.9077 89.8851 61.5638 91.4116C61.1953 91.8303 60.8007 92.3082 60.1641 91.8303C59.6132 91.419 59.7025 90.841 59.9147 90.3149C60.2981 89.3516 61.024 88.6884 61.9845 88.3068C63.0789 87.8659 64.2106 87.562 65.4241 87.6361Z" fill="#202124"/>
<path d="M70.7394 99.2497C69.4277 99.2724 68.0266 98.0669 68.0005 96.8917C67.9781 95.8909 68.742 95.1403 69.7892 95.1251C71.1381 95.11 72.4499 96.2548 72.4983 97.4907C72.5393 98.5294 71.835 99.2307 70.7394 99.2497Z" fill="#202124"/>
<path d="M66.4849 95.7723C66.5819 96.9777 66.2086 97.5067 65.4546 97.7032C64.7379 97.8921 64.2526 97.4878 63.9689 96.8794C63.45 95.761 63.3418 94.5934 63.7449 93.4069C63.9465 92.8099 64.3347 92.4963 64.9917 92.5C65.6263 92.5 65.8689 92.9043 65.9921 93.4145C66.2049 94.3251 66.3766 95.2471 66.4849 95.7723Z" fill="#202124"/>
<path d="M63.7888 126.998C62.6723 127.034 62.0656 126.473 62.0046 125.343C61.9436 124.21 62.4892 123.645 63.6668 123.625C64.7222 123.61 65.2966 124.116 65.3684 125.128C65.4474 126.214 64.812 126.963 63.7888 126.998Z" fill="#202124"/>
<path d="M66.3481 127.75C67.2509 127.761 68 128.55 68 129.488C68 130.453 67.2904 131.136 66.3047 131.125C65.331 131.114 64.6095 130.389 64.6253 129.447C64.645 128.561 65.4808 127.739 66.3481 127.75Z" fill="#202124"/>
<path d="M70.624 125.584C70.5924 126.388 69.817 127.025 68.8992 126.999C67.8469 126.97 67.1705 126.288 67.2575 125.341C67.3366 124.509 68.0843 123.948 69.0377 124.004C69.9278 124.055 70.6557 124.785 70.624 125.584Z" fill="#202124"/>
<path d="M60.3756 113.494C59.0049 113.483 57.7263 112.7 57.2963 111.609C56.7165 110.146 57.6687 108.854 59.2468 109.013C60.3986 109.131 61.2702 109.762 61.9152 110.686C62.3299 111.278 62.5756 111.928 62.161 112.639C61.7617 113.323 61.132 113.54 60.3756 113.494Z" fill="#202124"/>
<path d="M53.1465 112.75C51.6807 111.441 51.7127 109.788 52.1076 108.048C53.5912 107.152 54.0182 107.297 54.4771 108.911C54.655 109.541 54.8116 110.194 54.8614 110.843C54.9574 112.108 54.5625 112.511 53.1465 112.75Z" fill="#202124"/>
</g>
<defs>
<clipPath id="clip0_225_78266">
<rect width="468" height="336" fill="white"/>
</clipPath>
</defs>
</svg>
