<svg width="564" height="387" viewBox="0 0 564 387" fill="none" xmlns="http://www.w3.org/2000/svg">
<g clip-path="url(#clip0_225_79015)">
<path fill-rule="evenodd" clip-rule="evenodd" d="M194.995 178.127C190.399 172.975 188.102 168.993 188.102 166.178C187.536 164.577 187.482 162.154 187.482 162.154C187.482 162.154 186.313 163.26 185.27 163.26C184.228 163.26 182.142 162.154 182.142 162.154C182.142 162.154 172.909 156.868 172.909 146.681C172.909 136.494 182.727 141.28 182.727 142.483C182.727 143.686 188.102 125.07 188.102 125.07C188.102 125.07 209.7 131.909 219.185 129.717C228.671 127.526 240.775 112.9 240.775 112.9H243.961C243.961 112.9 248.14 121.546 250.911 123.961C253.683 126.376 259.544 126.481 259.544 126.481L261.396 130.578C261.396 130.578 261.822 141.437 259.544 144.983C257.265 148.529 254.231 156.026 254.231 156.026L251.888 166.666L252.438 176.131L250.911 176.795C250.911 176.795 250.019 185.437 246.471 190.178C242.922 194.918 240.217 197.64 240.217 197.64L237.819 201.35C237.819 201.35 237.027 201.349 237.027 202.004C237.027 202.659 240.217 210.489 240.217 210.489C240.217 210.489 242.857 221.175 243.449 223.272C244.17 225.826 245.671 226.215 245.671 227.065C246.159 228.534 251.054 237.828 248.719 248.083C247.97 251.372 240.217 255.874 240.217 255.874C240.217 255.874 227.795 255.237 220.005 250.046C212.215 244.855 199.493 228.735 199.493 228.735L192.255 219.859L186.043 213.944L194.992 181.76C194.992 181.76 197.478 180.909 194.995 178.127Z" fill="#BDC1C6"/>
<path fill-rule="evenodd" clip-rule="evenodd" d="M293.09 364.305L295.509 354.241L304.815 347.706H312.838L325.114 355.874L328.017 360.239L293.09 366.403V364.305Z" fill="#BDC1C6"/>
<path d="M189.135 218.212C191.106 216.901 192.42 218.212 193.828 219.055C196.644 220.74 198.803 223.175 200.774 225.704C205.655 232.072 210.911 238.066 217.106 243.217C221.143 246.589 225.366 249.773 230.435 251.552C242.356 255.86 248.551 250.241 247.331 237.973C246.955 233.946 245.266 230.106 244.233 226.172C243.858 224.768 243.013 223.363 243.952 221.958C245.172 221.583 245.641 222.426 245.923 223.175C248.645 229.45 250.71 235.912 250.991 242.749C251.461 254.175 244.233 260.543 233.063 258.108C218.89 255.018 207.908 247.057 200.962 234.227C197.958 228.607 195.142 223.082 189.604 219.523C189.416 219.336 189.322 218.68 189.135 218.212Z" fill="#202124"/>
<path d="M250.541 164.465C251.008 162.682 251.195 160.805 251.569 158.741C249.513 158.084 247.176 157.333 246.241 154.8C245.867 153.861 245.4 152.829 246.335 151.984C247.55 150.952 248.111 152.172 248.765 152.829C249.139 153.204 249.326 153.674 249.7 154.049C251.289 155.644 252.878 155.363 253.813 153.486C256.898 147.48 260.263 141.475 260.263 134.437C260.263 132.185 260.169 130.027 260.076 127.869L259.889 128.056C261.571 127.118 261.852 128.526 262.319 129.558C263.815 133.311 263.628 137.252 262.693 141.006C261.478 145.885 259.889 150.671 257.552 155.269C255.215 159.961 253.439 164.84 253.906 170.845C255.504 170.229 259.517 168.733 262.319 169.652C265.912 170.83 268.226 174.682 268.489 175.631C268.974 177.379 269.47 185.09 267.04 188.369C263.859 192.661 257.23 192.188 254.783 189.348C249.983 183.779 249.901 166.984 250.541 164.465Z" fill="#202124"/>
<path d="M237.085 162.15C238.485 158.865 240.726 158.208 243.34 158.677C246.234 159.147 248.381 161.681 248.754 164.684C249.128 167.97 247.727 170.41 244.46 172.006C241.566 173.414 238.579 173.038 236.525 170.879C235.778 170.128 235.218 169.19 235.965 168.251C236.618 167.406 237.552 167.688 238.205 168.345C240.259 170.316 242.406 170.504 244.46 168.533C245.954 167.031 246.14 165.248 244.927 163.464C243.153 160.836 240.913 161.775 238.579 162.619C238.485 162.432 238.112 162.244 237.085 162.15Z" fill="#202124"/>
<path d="M201.583 369.153C197.808 368.687 194.127 366.825 191.485 363.286C190.824 362.448 190.447 361.423 191.202 360.492C191.957 359.561 193.089 359.654 193.939 360.306C196.676 362.168 199.79 362.913 202.905 363.658C204.604 364.124 206.302 364.869 205.83 367.011C205.453 368.78 203.848 369.153 201.583 369.153Z" fill="#202124"/>
<path d="M230.937 150.047C227.622 155.229 222.981 156.617 219.288 153.841C218.056 152.916 217.015 151.713 216.92 150.14C216.825 148.66 217.488 147.919 219.098 148.66C224.97 151.158 224.97 151.065 230.937 150.047Z" fill="#202124"/>
<path d="M226.187 172.841C225.634 174.815 224.53 177.165 228.12 178.105C228.765 178.293 228.396 179.327 227.844 179.796C226.739 180.736 225.542 181.112 224.162 180.548C222.781 179.984 222.136 178.857 222.136 177.353C222.136 175.191 223.057 173.405 223.885 171.526C224.162 170.868 224.622 170.21 225.358 170.398C226.463 170.68 226.279 171.62 226.187 172.841Z" fill="#202124"/>
<path d="M208.66 157.861C208.373 159.164 208.086 160.467 206.269 160.467C205.216 160.467 204.642 159.908 204.547 158.978C204.451 157.489 204.929 156.279 206.651 156.093C207.799 155.907 208.469 156.745 208.66 157.861Z" fill="#202124"/>
<path d="M203.71 167.075C203.429 168.393 202.679 168.864 201.554 168.676C200.147 168.393 199.585 167.546 199.585 166.134C199.585 164.91 200.335 164.157 201.46 164.345C203.054 164.533 203.71 165.663 203.71 167.075Z" fill="#202124"/>
<path d="M211.954 165.798C212.048 167.063 211.203 167.516 210.076 167.606C209.137 167.696 208.48 167.154 208.386 166.159C208.386 165.345 208.761 164.532 209.7 164.351C210.921 164.17 211.672 164.712 211.954 165.798Z" fill="#202124"/>
<path d="M188.585 263.022C188.483 264.457 188.483 265.891 188.382 267.422C187.371 265.891 186.258 264.361 188.585 263.022Z" fill="#202124"/>
<path d="M277.689 366.1C276.744 367.437 275.798 367.643 274.664 366.409C275.609 365.792 276.649 365.689 277.689 366.1Z" fill="#202124"/>
<path d="M310.416 362.215C309.47 363.325 308.525 363.41 307.391 362.386C308.336 361.958 309.376 361.873 310.416 362.215Z" fill="#202124"/>
<path d="M302.165 363.044C301.615 364.029 300.974 364.324 300.24 363.241C300.79 362.847 301.432 362.65 302.165 363.044Z" fill="#202124"/>
<path d="M285.94 365.265C285.39 366.226 284.748 366.514 284.015 365.457C284.656 364.977 285.298 364.881 285.94 365.265Z" fill="#202124"/>
<path fill-rule="evenodd" clip-rule="evenodd" d="M336.467 285.463C333.575 279.388 330.2 273.536 326.833 267.696C324.842 264.243 322.854 260.796 320.97 257.309C320.713 256.825 320.362 256.35 320.007 255.87L320.007 255.87C319.192 254.768 318.36 253.642 318.622 252.335C318.861 251.259 319.824 250.754 320.807 250.239C321.368 249.945 321.935 249.647 322.379 249.238C330.08 242.387 329.611 234.691 320.97 229.248C320.828 229.16 320.686 229.081 320.548 229.005L320.548 229.005C319.958 228.678 319.449 228.396 319.373 227.559C318.997 222.773 315.992 220.896 311.577 221.083C311.859 211.135 311.108 209.915 302.843 206.255C301.903 205.88 301.434 205.411 301.434 204.472C301.246 197.434 296.738 193.774 290.914 191.521C289.079 190.823 289.033 189.88 288.96 188.392L288.959 188.39C288.954 188.279 288.948 188.165 288.942 188.049C288.848 182.324 285.749 178.57 280.207 177.162C277.925 176.571 275.642 176.664 273.36 176.757C273.107 176.767 272.853 176.778 272.599 176.787C272.619 177.382 272.642 177.973 272.665 178.562L272.665 178.563C272.754 180.852 272.843 183.107 272.693 185.421C272.505 189.55 271.378 193.398 267.715 195.932C266.073 197.476 260.927 199.346 256.597 197.152C253.852 195.76 251.467 192.565 249.796 190.326C248.979 189.23 248.332 188.363 247.898 188.049C247.475 188.565 247.052 189.105 246.63 189.644L246.63 189.644L246.63 189.644C246.207 190.184 245.784 190.723 245.362 191.24C241.699 196.12 237.002 198.466 230.803 198.184C225.638 197.903 220.754 196.495 215.87 194.9L213.052 193.774C212.019 193.398 210.986 193.304 210.328 194.337C209.671 195.369 210.234 196.307 210.892 197.152C212.301 199.217 214.273 200.437 216.527 201.375C221.599 203.252 226.765 203.721 232.118 202.783C232.504 202.706 232.889 202.594 233.276 202.481L233.276 202.481C234.305 202.182 235.347 201.879 236.439 202.22C236.537 202.415 236.634 202.599 236.728 202.776L236.728 202.776C236.905 203.108 237.068 203.415 237.19 203.721C241.135 216.297 251.748 223.336 264.334 223.993C266.848 224.123 269.363 224.373 271.877 224.622L271.877 224.622C274.81 224.914 277.743 225.206 280.677 225.307C290.914 225.776 298.24 231.125 303.876 239.196C305.066 240.862 306.123 242.527 307.215 244.25L307.216 244.25C307.416 244.566 307.617 244.883 307.821 245.202L308.974 247.056C317.229 260.321 325.449 273.531 332.898 287.34C333.021 287.574 333.148 287.834 333.28 288.105C334.155 289.904 335.285 292.224 337.406 291C338.946 290.078 337.899 288.147 337.006 286.498C336.809 286.135 336.62 285.785 336.467 285.463ZM290.445 204.566C289.412 204.003 288.378 203.44 287.439 202.783C286.406 202.126 285.467 201.187 286.03 199.874C286.56 198.64 287.752 198.647 288.595 198.653C288.65 198.653 288.703 198.654 288.754 198.654C290.633 198.935 292.135 199.311 293.262 200.343C294.296 201.187 295.329 202.314 294.39 203.815C293.45 205.411 292.041 205.411 290.445 204.566ZM293.826 207.945C293.826 208.602 294.296 209.071 295.047 209.165C295.809 209.249 296.037 208.647 296.212 208.184C296.231 208.134 296.249 208.085 296.268 208.039C296.268 207.288 295.986 206.631 295.329 206.537C294.389 206.443 293.826 207.006 293.826 207.945Z" fill="#202124"/>
<path d="M292.946 265.211C292.289 264.554 291.632 263.333 290.506 264.084C289.474 264.741 289.755 265.868 290.131 266.901C290.694 268.498 291.538 270 292.665 271.315C294.823 273.756 296.887 276.292 299.046 278.639C306.459 286.527 308.054 295.448 303.925 305.495C301.861 310.566 299.609 315.449 297.075 320.332C296.137 322.21 294.635 324.839 296.793 326.248C298.67 327.375 300.453 324.933 301.673 323.431C308.148 315.261 311.996 305.871 312.84 295.448C313.309 288.781 310.494 283.428 306.271 278.827C302.049 273.944 297.45 269.624 292.946 265.211Z" fill="#202124"/>
<path d="M338.365 332.584C337.914 333.226 337.824 333.867 338.004 334.509C339.086 334.05 339.446 333.409 338.365 332.584Z" fill="#202124"/>
<path d="M334.982 347.981C336.263 347.201 336.165 346.128 335.573 344.957C334.883 345.835 334.785 346.908 334.982 347.981Z" fill="#202124"/>
<path d="M333.41 355.13C333.011 355.771 332.812 356.413 333.111 357.055C334.108 356.505 334.507 355.955 333.41 355.13Z" fill="#202124"/>
<path d="M321.967 360.234C322.7 361.29 323.342 361.002 323.892 360.042C323.159 359.658 322.517 359.754 321.967 360.234Z" fill="#202124"/>
<path d="M315.641 361.334C316.466 362.433 317.108 362.066 317.566 361.059C316.925 360.784 316.283 360.876 315.641 361.334Z" fill="#202124"/>
<path d="M329.117 377.476C329.025 377.774 328.933 378.172 328.842 378.47C329.85 379.961 330.859 379.961 331.867 378.569C331.775 378.172 331.684 377.874 331.592 377.476C330.767 377.377 329.942 377.377 329.117 377.476Z" fill="#202124"/>
<path d="M334.066 369.112C334.396 368.947 334.479 368.699 334.231 368.369C334.066 368.534 333.984 368.782 334.066 369.112Z" fill="#202124"/>
<path d="M332.966 373.236C333.296 373.071 333.379 372.823 333.131 372.493C332.966 372.741 332.884 372.988 332.966 373.236Z" fill="#202124"/>
<path d="M332.047 376.576C332.377 376.376 332.625 375.976 332.46 375.477C332.377 375.777 332.212 376.176 332.047 376.576Z" fill="#202124"/>
<path d="M335.166 364.987C335.496 364.822 335.579 364.574 335.331 364.244C335.166 364.492 335.084 364.739 335.166 364.987Z" fill="#202124"/>
<path d="M335.993 360.821C336.323 360.656 336.323 360.409 336.158 360.162C336.076 360.327 335.993 360.574 335.993 360.821Z" fill="#202124"/>
<path d="M339.494 346.882C339.329 347.129 339.247 347.377 339.247 347.707C339.577 347.542 339.742 347.294 339.494 346.882Z" fill="#202124"/>
<path d="M201.817 298.641C207.734 311.134 213.276 323.72 219.099 336.212C220.039 338.185 220.978 340.251 222.199 342.036C223.608 344.008 226.144 343.539 226.238 341.285C226.426 337.715 228.022 338.655 229.995 339.218C249.061 344.384 268.128 349.55 287.383 353.965C288.134 354.153 288.792 354.341 289.355 354.434C289.825 353.307 290.2 352.086 290.576 350.865C270.007 345.042 249.155 339.97 228.304 335.273C225.204 334.616 223.42 333.301 222.105 330.201C218.066 320.433 213.84 310.758 209.143 301.271C203.414 289.624 197.966 277.883 192.331 266.236C191.579 264.733 191.392 262.385 188.668 262.761C188.574 264.17 188.574 265.579 188.48 267.082C188.386 268.678 189.231 270.087 189.795 271.402C193.74 280.607 197.591 289.718 201.817 298.641Z" fill="#202124"/>
<path d="M467.906 379.513L460.486 380.547L460.956 378.762C460.298 379.513 459.171 379.513 456.635 379.513C415.308 379.232 328.24 378.48 328.24 378.48C302.129 378.386 276.018 378.292 249.249 378.104C251.034 374.911 253.382 374.441 255.73 374.253C269.631 373.032 283.344 370.027 297.245 368.43C308.422 367.209 319.505 365.236 330.87 362.794C330.87 362.982 330.87 363.17 330.964 363.358L331.809 358.661C331.339 358.943 330.776 359.131 330.025 359.225C327.958 359.413 296.212 363.358 296.212 363.358C296.024 359.507 296.963 356.501 300.72 354.623C303.068 353.401 305.134 351.523 307.295 349.926C308.292 349.363 308.761 349.363 309.455 349.832C313.776 351.523 317.626 354.059 321.29 356.877C322.511 357.816 324.107 358.286 325.328 356.595C326.361 355.186 325.422 353.965 324.483 352.932C322.511 350.771 320.162 349.081 317.626 347.672C310.488 343.445 305.51 343.257 300.344 349.363C299.781 350.02 299.029 350.396 298.372 350.959C296.963 352.086 295.554 352.274 293.676 351.711C292.924 351.523 291.071 350.976 290.32 350.788C289.944 352.009 289.825 353.214 289.355 354.435C292.455 355.374 293.112 356.595 291.985 361.385C291.515 363.358 290.858 364.391 288.792 364.391C287.758 364.391 248.498 369.275 245.774 374.817C244.459 377.447 242.768 377.917 240.138 377.917C225.956 377.729 211.867 377.541 197.684 377.635C193.552 377.635 190.64 376.32 187.916 373.408C185.85 371.154 183.971 368.9 182.187 366.457C181.06 367.491 179.839 368.524 178.712 369.651C180.59 371.999 182.562 374.347 184.817 376.414C185.662 376.602 184.911 378.292 184.441 377.635C182.656 377.635 173.64 378.668 173.827 380.922C173.921 382.989 175.518 383.646 177.397 383.834C178.242 383.928 179.087 383.834 179.933 383.928C187.822 384.022 195.618 384.21 203.508 384.21C219.663 384.304 452.503 386.652 485.658 386.464C489.415 386.464 501.907 387.8 500.31 384.679C501.719 381.768 477.017 379.983 467.906 379.513Z" fill="#202124"/>
<path d="M182.187 366.458C178.242 361.01 174.485 354.435 171.104 348.611C158.142 325.693 148.28 301.46 138.7 277.038C135.788 269.524 132.689 261.822 132.97 253.369C133.252 245.103 135.976 238.434 143.584 234.395C145.838 233.174 148.092 232.047 150.346 230.92C158.894 226.693 168.192 224.345 177.115 220.869C180.872 219.367 184.911 218.239 188.01 215.516C194.867 209.504 197.872 201.896 197.403 192.785C197.309 190.813 196.651 188.934 197.591 186.492C199.657 188.089 201.254 189.498 203.038 190.813C203.884 191.376 205.011 191.658 205.762 190.719C206.326 189.967 206.044 189.028 205.48 188.37C204.541 187.149 203.32 186.116 202.381 184.989C197.309 179.072 191.579 173.624 188.48 166.109C190.64 164.888 192.331 163.198 193.176 160.85C193.458 160.004 193.834 159.159 192.894 158.595C192.237 158.22 191.579 158.783 191.11 159.253C190.077 160.38 189.137 161.695 187.635 162.165C187.447 168.927 184.723 174.563 180.402 179.635C179.929 180.176 175.958 184.389 172.867 186.492C171.666 187.309 163.12 190.061 159.457 188.276H159.363C153.634 187.431 150.252 183.674 149.783 177.663C149.501 173.812 150.44 170.242 152.131 166.861C154.855 161.601 158.894 157.562 163.965 154.462C164.717 153.993 165.468 153.617 166.22 153.335C167.065 152.96 167.91 153.054 168.474 153.805C169.131 154.65 168.568 155.402 167.91 155.965C167.065 156.623 166.22 157.092 165.374 157.656C161.054 160.662 158.048 164.701 156.264 169.679C153.07 178.508 156.076 183.017 165.468 183.298C168.134 183.106 169.722 182.263 171.536 181.084C172.479 180.47 174.738 178.656 176.645 176.312C178.936 173.498 180.872 170.038 181.436 168.552C182.187 166.485 182.844 164.513 182.469 162.258C177.585 159.065 176.082 154.087 175.236 148.733C174.955 146.948 175.33 145.351 176.645 144.036C177.585 143.003 178.712 142.346 180.215 143.003C181.436 143.473 182.281 144.036 182.281 145.445C182.281 146.479 182.375 147.512 182.844 148.451C183.502 149.86 183.408 152.49 185.756 151.832C187.822 151.269 186.601 149.202 186.32 147.887C184.723 140.373 187.165 133.704 190.358 126.942C200.033 132.202 209.801 134.925 220.227 132.671C230.84 130.417 238.166 123.748 242.393 114.073C243.896 114.543 243.614 115.388 243.708 115.952C245.586 125.251 249.813 128.538 259.299 127.787C259.581 127.787 259.769 127.975 260.051 128.163C261.084 123.372 259.487 119.146 256.2 115.764C253.194 112.571 249.907 109.565 245.868 107.498C234.221 101.111 222.011 98.1057 208.862 102.52C205.292 105.338 200.972 107.123 197.685 110.41C192.894 115.107 188.95 120.367 185.944 126.378C184.629 128.914 183.878 129.008 181.811 127.129C178.054 123.654 176.927 116.14 178.993 110.41C181.717 102.99 186.601 97.636 193.646 94.1607C194.303 89.0886 192.425 85.2376 188.292 82.2319C183.784 78.9444 179.087 79.0383 174.203 80.9169C172.513 81.5744 171.198 82.2319 169.225 80.6351C160.209 73.3087 150.628 73.1208 141.048 79.7897C139.075 81.1986 137.854 81.1986 135.694 80.1654C127.523 76.2205 118.412 79.7897 114.843 88.0554C114.279 89.4643 113.904 90.9672 113.34 92.3761C111.555 97.5421 111.555 97.5421 106.39 96.415C104.511 96.0393 102.726 95.7575 100.848 95.7575C96.5274 95.7575 93.334 97.73 91.2677 101.487C90.0466 103.741 89.2952 106.183 88.9195 108.72C88.7317 110.128 89.0135 111.819 87.6985 113.134C83.0023 111.631 78.5878 112.477 74.4551 115.013C70.0406 117.737 68.9135 122.433 68.35 127.317C63.1841 126.19 59.0514 127.787 55.1066 130.605C50.5982 133.892 50.5043 138.495 51.8192 143.567C46.7473 143.755 42.051 144.6 38.1062 147.606C33.6917 150.987 32.3768 155.402 33.6917 160.943C28.2441 160.943 24.1114 163.292 21.0118 167.049C17.3488 171.463 19.7908 175.972 21.7632 180.199C12.5586 188.558 10.868 194.851 15.0946 204.996C9.74086 206.405 6.07779 209.692 4.57499 215.046C2.97827 220.4 3.72967 225.096 9.08339 228.196C7.01704 229.98 5.42032 231.483 4.19929 233.362C-1.24835 241.815 -0.309101 247.545 7.48666 253.369C-0.215176 265.955 2.22687 274.502 15.0007 277.884C13.31 282.486 12.4647 287.277 14.625 291.785C16.9731 296.763 22.045 297.045 26.7413 297.515C27.3987 302.493 26.6473 307.565 30.9679 311.04C35.0067 314.328 40.0786 314.422 44.9627 314.703C45.4323 317.24 45.808 319.588 46.2776 321.936C48.4379 332.268 55.2944 336.401 65.6262 333.865C68.1621 333.301 70.1346 331.704 72.5766 330.953C74.1733 333.113 74.0794 335.555 74.9247 337.81C77.6485 345.606 83.8476 348.893 91.8312 346.827C95.4003 345.888 97.5606 343.351 100.097 341.097C102.069 343.164 103.666 345.324 105.732 347.109C112.683 352.838 119.257 351.805 124.141 344.197C124.423 343.821 124.799 343.445 125.362 342.882C128.556 345.794 131.749 348.705 136.539 347.484C141.048 346.357 143.866 342.882 146.965 339.876C154.197 345.23 155.982 345.512 161.899 342.036C163.59 344.948 165.093 348.048 166.877 350.866C170.54 356.877 174.485 364.11 178.712 369.651C179.933 368.9 180.966 367.491 182.187 366.458Z" fill="#202124"/>
<path d="M260.332 127.787C260.332 127.787 260.238 127.787 260.238 127.693C260.238 127.787 260.238 127.881 260.144 127.975L260.332 127.787Z" fill="#202124"/>
<path d="M359.423 384.774C358.86 384.774 358.202 385.243 357.639 385.525C366.468 385.995 375.39 386.089 384.219 385.713C383.656 384.961 382.811 384.774 381.965 384.774C374.451 384.68 366.937 384.68 359.423 384.774Z" fill="#202124"/>
<path d="M341.295 338.749C341.389 338.373 341.577 337.998 341.671 337.622C341.483 337.998 341.389 338.373 341.295 338.749Z" fill="#FAE041"/>
<path fill-rule="evenodd" clip-rule="evenodd" d="M349.278 284.929C349.278 284.929 354.068 281.454 401.407 280.421C410.38 280.225 417.703 280.022 423.674 279.857C449.205 279.151 450.029 279.128 449.496 283.239C449.027 288.123 361.301 289.438 354.256 289.532C354.068 289.532 353.975 289.532 353.787 289.626L332.372 378.482H328.051L330.681 363.359L331.526 358.663L349.278 284.929ZM341.295 338.75C341.389 338.374 341.483 337.999 341.67 337.623C341.623 337.811 341.553 337.999 341.483 338.186C341.412 338.374 341.342 338.562 341.295 338.75Z" fill="#202124"/>
<path d="M489.039 280.89C487.818 280.514 486.221 280.326 484.061 280.326C471.663 278.917 452.972 277.508 454.85 282.111C454.85 282.111 458.044 285.116 461.801 285.116C465.558 285.116 484.53 286.337 484.53 286.337L460.861 378.856L460.392 380.641L467.812 379.608L471.944 364.486C473.541 358.944 475.138 353.402 476.453 347.766L490.729 282.017C490.729 281.923 492.326 281.359 489.039 280.89Z" fill="#202124"/>
<path d="M22.7979 195.935C24.1058 195.842 24.9466 194.912 25.1334 193.795C25.7874 190.54 27.7492 188.028 29.5242 185.33C29.8045 184.865 29.9913 184.4 30.2716 184.028C30.6452 183.47 30.365 183.098 30.0847 182.633C29.711 182.26 29.3374 182.074 28.7768 182.26C25.7874 183.191 20.7427 190.167 20.8361 193.33C20.7427 194.633 21.3032 195.563 22.7979 195.935Z" fill="#202124"/>
<path d="M205.824 126.281C206.386 126.281 206.76 126.373 207.134 126.373C208.538 126.373 210.036 126.189 210.036 124.437C210.036 122.962 208.726 122.778 207.509 122.593C204.982 122.224 202.548 121.856 200.021 121.579C199.085 121.487 197.869 121.026 197.494 122.317C197.026 123.699 198.149 124.437 199.273 124.898C201.332 125.82 203.765 125.912 205.824 126.281Z" fill="#202124"/>
<path d="M104.371 103.003C102.473 103.19 100.195 103.844 98.1066 105.152C97.0625 105.806 96.398 106.741 96.0183 107.862C95.8285 108.516 95.8285 109.17 96.398 109.731C96.9675 110.292 97.7269 110.292 98.2015 109.731C100.005 107.582 102.663 107.488 105.131 107.021C106.555 106.741 107.979 106.274 107.694 104.498C107.504 103.19 106.08 103.003 104.371 103.003Z" fill="#202124"/>
<path d="M25.7761 201.439C25.7761 200.677 25.4925 199.725 24.5472 199.534C23.3182 199.344 22.751 200.296 22.751 201.343C22.751 202.2 23.3182 202.962 24.2636 203.057C25.398 203.248 25.6816 202.391 25.7761 201.439Z" fill="#202124"/>
<path d="M216.318 123.131C215.927 122.864 215.34 122.33 214.363 122.597C213.581 122.775 213.19 123.22 213.386 123.933C213.679 124.823 214.363 125.179 215.34 124.912C216.024 124.734 216.513 124.289 216.318 123.131Z" fill="#202124"/>
<path d="M113.769 104.828C113.866 103.642 113.379 103.094 112.405 103.003C111.723 103.003 111.139 103.459 111.041 104.189C110.944 105.102 111.528 105.741 112.405 105.741C113.184 105.832 113.671 105.376 113.769 104.828Z" fill="#202124"/>
<path fill-rule="evenodd" clip-rule="evenodd" d="M204.01 105.546L204.01 105.546C201.73 106.955 199.445 108.368 197.516 110.301C192.739 114.993 188.806 120.248 185.809 126.254C184.498 128.788 183.749 128.881 181.688 127.005C177.942 123.532 176.818 116.025 178.879 110.301C181.595 102.887 186.465 97.5382 193.489 94.0661C193.707 94.0348 193.926 94.014 194.144 93.9931C194.581 93.9514 195.018 93.9097 195.455 93.7846C202.292 92.4708 205.383 94.2538 207.724 100.635C207.895 101.036 208.102 101.402 208.3 101.754C208.427 101.979 208.551 102.198 208.66 102.418C207.196 103.577 205.604 104.56 204.01 105.546ZM196.766 98.0075C196.486 96.8814 195.643 96.1306 194.238 96.4122C192.084 96.9752 190.304 98.3828 188.806 99.9781C188.338 100.447 188.15 101.198 188.525 101.855C188.9 102.512 189.555 102.793 190.211 102.512C191.697 101.916 193.183 101.202 194.622 100.511L194.623 100.511C194.997 100.331 195.369 100.153 195.736 99.9781C196.486 99.6028 196.673 98.9459 196.766 98.0075ZM186.968 104.696C187.009 104.817 187.052 104.944 187.12 105.046C186.933 105.609 186.558 105.89 185.996 105.796C185.809 105.703 185.622 105.233 185.622 104.952C185.715 104.389 186.09 104.107 186.652 104.295C186.831 104.295 186.896 104.485 186.968 104.696Z" fill="white"/>
<path d="M483.305 171.659C483.96 172.24 483.9 173.142 484.198 173.884C477.996 176.556 471.795 179.228 465.593 181.9C461.224 183.763 456.91 185.665 452.489 187.369C445.28 190.196 438.265 193.447 431.233 196.605C426.147 198.909 420.949 200.848 415.775 202.927C415.644 202.589 415.521 202.298 415.39 201.96C414.997 200.947 415.035 200.892 416.068 200.467C418.313 199.536 420.547 198.68 422.792 197.75C423.487 197.457 424.253 197.296 424.833 196.759C428.903 194.973 433 193.207 437.034 191.355C442.714 188.728 448.508 186.345 454.292 184.037C461.578 181.099 468.75 177.917 475.985 174.819C477.57 174.248 479.183 173.695 480.637 172.785C481.511 172.413 482.412 172.059 483.305 171.659Z" fill="#202124" stroke="#202124" stroke-width="0.3355"/>
<path d="M485.958 177.493C486.576 177.476 486.848 177.953 487.224 178.339C480.435 186.706 473.421 194.876 466.398 202.999C458.576 212.034 450.53 220.87 443.176 230.274C441.943 231.862 440.538 233.291 439.196 234.804C438.719 234.388 438.081 234.146 437.832 233.522C439.951 231.245 441.838 228.724 443.815 226.306C446.736 222.711 449.732 219.126 452.789 215.626C463.83 202.918 475.061 190.343 485.958 177.493Z" fill="#202124" stroke="#202124" stroke-width="0.3355"/>
<path d="M498.599 162.448C497.873 162.022 497.06 161.78 496.65 160.961C500.435 152.4 504.109 143.761 507.525 135.024C510.683 127.006 514.025 119.076 517.708 111.303C519.378 107.807 521.177 104.362 522.921 100.877C523.558 100.669 524.028 101.284 524.633 101.298C524.248 102.257 523.891 103.234 523.433 104.182C518.769 113.355 514.862 122.853 511.064 132.428C507.384 141.717 503.658 151.015 499.692 160.186C499.516 160.554 499.181 161.383 499.074 161.594C498.956 161.88 498.764 162.154 498.599 162.448Z" fill="#202124" stroke="#202124" stroke-width="0.3355"/>
<path d="M484.308 167.639C484.539 168.54 484.175 169.353 483.858 170.158C483.094 170.076 482.323 169.946 481.587 169.883C474.724 169.187 467.886 168.22 461.049 167.254C453.718 166.23 446.403 165.3 439.053 164.303C435.74 163.874 432.411 163.351 429.137 162.866C429.016 162.863 428.897 162.739 428.787 162.662C428.919 162.18 429.146 161.681 429.204 161.188C429.259 160.816 429.413 160.595 429.67 160.405C430.555 160.49 431.478 160.52 432.352 160.68C442.943 162.384 453.603 163.521 464.197 165.104C470.894 166.095 477.616 166.816 484.308 167.639Z" fill="#202124" stroke="#202124" stroke-width="0.3355"/>
<path d="M501.544 166.963C501.321 166.52 501.099 166.077 500.904 165.654C500.692 165.137 500.78 164.952 501.308 164.666C501.836 164.38 502.519 164.284 502.967 163.819C510.957 160.602 518.94 157.337 526.762 153.715C530.726 151.859 534.681 149.956 538.689 148.212C542.067 146.724 545.505 145.442 548.927 144.067C550.12 143.591 551.361 143.107 552.601 142.623C553.025 143.248 553.357 143.767 553.662 144.268C551.333 145.547 548.887 146.581 546.398 147.502C542.322 148.993 538.432 150.86 534.515 152.708C526.907 156.316 519.236 159.839 511.405 163.005C508.134 164.281 504.853 165.632 501.544 166.963Z" fill="#202124" stroke="#202124" stroke-width="0.3355"/>
<path d="M488.192 179.254C489.033 179.107 489.739 179.683 490.521 179.74C490.411 180.072 490.302 180.404 490.165 180.717C483.776 193.943 478.024 207.492 471.765 220.767C471.209 221.972 470.598 223.138 470.061 224.315C469.35 223.981 468.505 223.839 467.901 223.294C470.321 218.08 472.815 212.878 475.179 207.625C479.439 198.141 483.719 188.63 488.192 179.254Z" fill="#202124" stroke="#202124" stroke-width="0.3355"/>
<path d="M522.268 139.29C521.922 138.843 521.622 138.389 521.276 137.943C519.742 135.725 519.82 133.086 521.521 131.01C522.649 129.635 524.039 128.649 525.765 128.184C529.283 127.217 532.606 129.584 532.919 133.192C533.063 134.926 532.603 136.523 531.727 137.95C530.897 139.37 529.514 139.994 527.916 140.1C526.674 140.169 525.414 140.145 524.187 139.899C523.528 139.723 522.987 139.262 522.268 139.29Z" fill="#20BEFF"/>
<path d="M494.634 179.572C495.31 179.306 495.986 179.04 496.643 178.802C498.368 183.048 499.735 187.454 501.028 191.849C503.064 198.858 505.034 205.904 507.548 212.755C508.54 215.421 509.467 218.122 510.394 220.824C509.745 221.109 509.088 221.347 508.439 221.632C506.71 216.809 504.888 212.002 503.253 207.162C501.956 203.298 500.857 199.326 499.7 195.436C498.304 190.722 496.88 185.989 495.211 181.372C495.051 180.726 494.852 180.135 494.634 179.572Z" fill="#202124" stroke="#202124" stroke-width="0.3355"/>
<path d="M499.276 176.839C499.959 176.155 500.204 175.165 501.086 174.663C508.774 181.289 516.337 188.035 524.247 194.402C525.166 195.129 526.028 195.94 526.928 196.694C526.703 197.657 526.047 198.36 525.584 199.196C517.971 192.871 510.233 186.666 502.881 180.027C501.683 178.939 500.447 177.907 499.276 176.839Z" fill="#202124" stroke="#202124" stroke-width="0.3355"/>
<path d="M489.923 161.571C489.297 161.997 488.806 162.641 487.951 162.577C483.835 151.302 479.878 139.974 475.349 128.822C474.395 126.508 473.647 124.134 472.806 121.776C473.351 121.581 473.869 121.367 474.394 121.2C474.623 121.69 474.861 122.226 475.071 122.743C477.839 129.701 480.607 136.658 483.356 143.643C484.342 146.144 485.13 148.753 486.097 151.281C487.291 154.71 488.607 158.14 489.923 161.571Z" fill="#202124" stroke="#202124" stroke-width="0.3355"/>
<path d="M484.659 175.347C485.267 175.65 485.514 176.234 485.827 176.782C482.018 179.703 478.054 182.435 474.064 185.148C469.276 188.412 464.489 191.677 459.694 194.894C458.244 195.852 456.767 196.79 455.317 197.748C455.122 197.324 454.974 196.891 454.741 196.523C454.471 196.087 454.711 195.803 454.943 195.473C464.559 189.178 474.091 182.825 483.482 176.208C483.829 176.122 484.121 175.998 484.223 175.618C484.375 175.518 484.526 175.419 484.659 175.347Z" fill="#202124" stroke="#202124" stroke-width="0.3355"/>
<path d="M474.643 121.134C474.097 121.325 473.578 121.535 473.051 121.698C472.407 121.616 471.79 121.553 471.185 121.416C467.942 120.743 466.443 117.932 467.662 114.895C468.144 113.677 468.967 112.737 470.028 112.047C471.696 110.962 473.4 110.886 475.128 112.013C476.912 113.18 477.638 114.794 477.355 116.849C477.161 118.187 476.651 119.386 475.557 120.3C475.263 120.544 474.957 120.862 474.643 121.134Z" fill="#20BEFF"/>
<path d="M522.385 139.32C523.107 139.294 523.653 139.758 524.306 139.888C523.847 140.425 523.408 140.935 522.921 141.453C519.496 144.982 516.155 148.57 512.878 152.244C509.639 155.863 506.042 159.108 502.508 162.439C501.803 163.09 501.071 163.722 500.347 164.401C499.813 163.863 499.24 163.38 499 162.599C499.331 162.422 499.809 161.858 500.038 161.65C500.522 161.253 501.007 160.857 501.464 160.441C506.127 156.266 510.56 151.889 514.753 147.262C517.208 144.525 519.838 141.952 522.385 139.32Z" fill="#202124" stroke="#202124" stroke-width="0.3355"/>
<path d="M553.873 144.122C553.538 143.599 553.202 143.076 552.803 142.467C551.555 142.952 550.336 143.456 549.108 143.912C550.178 143.386 551.229 142.888 552.299 142.361C552.725 142.166 552.966 141.882 552.976 141.395C552.987 141.321 552.998 141.246 552.99 141.199C553.068 140.143 553.203 139.126 554.109 138.362C555.141 137.479 556.316 136.862 557.669 136.698C559.473 136.48 560.778 137.27 561.511 138.935C561.547 139.002 561.555 139.049 561.591 139.115C562.88 142.403 561.815 143.51 559.758 145.032C557.95 146.317 555.644 145.896 553.873 144.122Z" fill="#20BEFF"/>
<path d="M525.559 198.981C526.008 198.164 526.65 197.482 526.86 196.537C527.235 196.355 527.581 196.153 527.955 195.97C529.679 195.034 532.649 195.659 533.815 198.334C535.169 201.384 533.195 204.731 529.904 204.973C527.728 205.148 526.041 203.805 525.601 201.678C525.448 200.722 525.332 199.833 525.559 198.981Z" fill="#20BEFF"/>
<path d="M486.68 163.887C486.526 164.634 486.061 165.122 485.403 165.475C480.001 161.327 475.055 156.645 470.176 151.927C468.775 150.58 467.393 149.206 465.992 147.859C465.672 147.553 465.425 147.259 465.256 146.855C465.876 146.557 466.524 146.278 467.144 145.98C471.76 150.31 476.377 154.64 481.012 158.943C482.863 160.646 484.79 162.239 486.68 163.887Z" fill="#202124" stroke="#202124" stroke-width="0.3355"/>
<path d="M522.824 171.366C523.042 171.114 523.315 170.9 523.506 170.629C524.145 169.539 525.158 169.034 526.291 168.654C527.901 168.122 529.544 168.544 530.587 169.881C531.722 171.323 532.127 172.982 531.59 174.75C530.652 177.857 526.987 178.731 524.597 176.491C523.751 175.696 523.28 174.719 522.979 173.618C522.934 172.858 523.466 172.098 522.824 171.366Z" fill="#20BEFF"/>
<path d="M524.718 101.372C524.111 101.361 523.671 100.763 523.001 100.958C522.6 100.303 522.198 99.6487 521.824 99.0135C520.889 97.3646 521.113 95.1161 522.302 93.7099C523.597 92.2118 525.797 91.7614 527.652 92.5627C529.48 93.3448 531.044 95.8492 529.721 98.3229C528.635 100.341 527.088 101.497 524.718 101.372Z" fill="#20BEFF"/>
<path d="M493.535 160.468C492.842 160.76 492.158 161.098 491.349 160.859C491.411 157.345 491.371 153.801 491.58 150.308C491.87 145.481 492.307 140.676 492.716 135.852C492.798 134.805 492.982 133.789 493.118 132.78C493.693 132.773 494.267 132.767 494.841 132.76C494.599 136.474 494.43 140.2 494.121 143.95C493.714 149.062 493.5 154.187 493.5 159.298C493.483 159.613 493.509 160.04 493.535 160.468Z" fill="#202124" stroke="#202124" stroke-width="0.3355"/>
<path d="M467.256 145.799C466.639 146.1 465.995 146.383 465.378 146.684C464.636 146.816 463.902 146.995 463.163 147.007C460.772 147.003 458.873 145.022 458.913 142.647C458.957 141.252 459.529 140.146 460.731 139.357C463.368 137.619 466.769 138.615 467.944 141.514C468.326 142.475 468.341 143.381 467.957 144.334C467.732 144.829 467.481 145.304 467.256 145.799Z" fill="#20BEFF"/>
<path d="M437.592 233.549C437.867 234.195 438.479 234.417 438.956 234.833C440.453 237.485 439.771 240.132 437.287 241.601C435.349 242.752 432.833 242.306 431.77 240.535C430.374 238.2 430.882 235.801 432.863 234.474C434.379 233.521 435.919 233.283 437.592 233.549Z" fill="#20BEFF"/>
<path d="M491.055 179.978C491.763 179.903 492.443 179.808 493.15 179.732C493.05 185.249 492.95 190.765 492.85 196.281C492.802 199.387 492.68 202.482 492.604 205.569C491.897 205.645 491.2 205.646 490.509 205.407C490.64 198.444 490.798 191.501 490.948 184.511C490.99 182.991 491.032 181.471 491.055 179.978Z" fill="#202124" stroke="#202124" stroke-width="0.3355"/>
<path d="M508.502 221.724C509.151 221.432 509.808 221.188 510.457 220.897C512.275 220.844 513.687 221.543 514.597 223.132C515.673 225.004 515.005 227.518 513.162 228.879C511.272 230.248 508.81 229.892 507.447 228.026C506.358 226.518 506.637 224.849 507.385 223.261C507.654 222.704 508.105 222.233 508.502 221.724Z" fill="#20BEFF"/>
<path d="M411.984 199.461C412.633 199.17 413.289 198.925 413.937 198.633C415.753 198.579 417.163 199.276 418.07 200.864C419.144 202.734 418.474 205.247 416.632 206.609C414.744 207.979 412.285 207.625 410.925 205.761C409.839 204.255 410.118 202.587 410.867 200.999C411.109 200.423 411.587 199.97 411.984 199.461Z" fill="#20BEFF"/>
<path d="M467.774 223.323C468.394 223.881 469.205 223.995 469.907 224.321C470.086 224.529 470.284 224.708 470.443 224.944C472.659 228.021 469.866 231.142 467.228 231.441C465.863 231.599 464.644 231.2 463.601 230.263C462.064 228.816 462.052 226.58 463.58 225.091C464.345 224.347 465.241 223.819 466.284 223.6C466.815 223.477 467.308 223.409 467.774 223.323Z" fill="#20BEFF"/>
<path d="M522.825 171.517C523.464 172.251 522.927 173.017 522.969 173.781C516.473 173.234 510.004 172.707 503.527 172.132C502.912 172.069 502.308 171.932 501.684 171.822C501.806 171.295 501.984 170.807 502.059 170.288C502.112 169.917 502.313 169.69 502.568 169.502C509.324 170.149 516.088 170.843 522.825 171.517Z" fill="#202124" stroke="#202124" stroke-width="0.3355"/>
<path d="M454.897 195.419C454.665 195.751 454.451 196.055 454.688 196.468C454.898 196.862 455.088 197.284 455.251 197.687C455.511 199.106 455.011 200.281 454.108 201.339C452.554 203.096 449.871 203.115 448.242 201.397C446.695 199.737 446.923 197.505 448.721 195.919C450.101 194.7 451.628 194.367 453.276 195.191C453.87 195.442 454.335 195.644 454.897 195.419Z" fill="#20BEFF"/>
<path d="M490.7 205.615C491.383 205.85 492.053 205.873 492.773 205.769C494.178 206.184 495.234 206.924 495.657 208.396C495.886 209.165 495.868 209.882 495.638 210.614C495.072 212.286 493.346 213.309 491.366 213.139C489.55 212.964 488.283 211.833 488.024 210.07C487.762 208.426 488.087 206.463 490.7 205.615Z" fill="#20BEFF"/>
<path d="M429.715 160.175C429.461 160.362 429.316 160.627 429.255 160.949C429.181 161.466 428.978 161.932 428.848 162.41C427.897 163.652 426.713 164.285 425.099 164.007C423.587 163.76 422.638 162.65 422.767 161.116C422.902 159.221 424.182 157.804 425.898 157.584C427.12 157.425 428.062 157.84 428.771 158.824C429.051 159.304 429.227 159.874 429.715 160.175Z" fill="#20BEFF"/>
<path d="M495.031 132.932C494.446 132.937 493.862 132.941 493.278 132.946C492.946 132.59 492.614 132.233 492.283 131.877C491.5 131.039 491.276 130.055 491.299 128.955C491.327 128.56 491.44 128.101 491.646 127.749C492.304 126.513 494.023 125.896 495.512 126.318C496.795 126.679 497.749 127.925 497.748 129.29C497.73 130.56 497.236 131.621 496.165 132.32C495.821 132.575 495.412 132.744 495.031 132.932Z" fill="#20BEFF"/>
<ellipse cx="492.75" cy="170.64" rx="9.89973" ry="9.89892" transform="rotate(35 492.75 170.64)" fill="#20BEFF"/>
<path d="M486.277 174.793C485.744 173.126 488.854 175.505 492.904 174.982C496.51 174.514 499.316 170.45 499.848 172.117C500.381 173.784 497.355 177.815 493.735 178.072C489.848 178.305 486.809 176.46 486.277 174.793Z" fill="white"/>
<path d="M530.095 135.703C529.98 135.382 529.827 134.875 529.411 134.743C529.306 134.71 529.212 134.724 529.089 134.718C527.494 136.088 526.381 137.314 526.818 137.9C527.094 138.293 528.086 138.026 529.333 137.456C530.033 137.183 530.362 136.411 530.095 135.703C530.123 135.723 530.123 135.723 530.095 135.703Z" fill="white"/>
<path d="M560.356 142.308C560.24 141.987 560.085 141.477 559.666 141.345C559.561 141.311 559.466 141.325 559.343 141.319C557.745 142.686 556.632 143.911 557.072 144.5C557.35 144.895 558.346 144.63 559.596 144.062C560.269 143.771 560.607 143.046 560.356 142.308Z" fill="white"/>
<path d="M530.11 174.207C529.993 173.885 529.837 173.374 529.417 173.241C529.312 173.207 529.217 173.221 529.093 173.214C527.494 174.581 526.379 175.805 526.822 176.396C527.101 176.792 528.099 176.528 529.352 175.961C530.044 175.645 530.353 174.898 530.11 174.207Z" fill="white"/>
<path d="M532.845 201.691C532.73 201.371 532.577 200.863 532.161 200.732C532.056 200.699 531.962 200.713 531.839 200.707C530.244 202.076 529.131 203.302 529.568 203.888C529.844 204.282 530.836 204.014 532.083 203.444C532.783 203.172 533.112 202.399 532.845 201.691Z" fill="white"/>
<path d="M494.908 209.95C494.791 209.628 494.635 209.117 494.215 208.984C494.11 208.95 494.015 208.964 493.891 208.958C492.292 210.324 491.178 211.548 491.62 212.139C491.899 212.535 492.897 212.271 494.15 211.705C494.843 211.388 495.151 210.641 494.908 209.95Z" fill="white"/>
<path d="M513.328 225.618C513.212 225.296 513.057 224.787 512.639 224.654C512.534 224.621 512.439 224.635 512.315 224.628C510.718 225.996 509.604 227.221 510.045 227.81C510.322 228.205 511.318 227.94 512.569 227.372C513.242 227.081 513.598 226.328 513.328 225.618Z" fill="white"/>
<path d="M528.729 95.5672C528.613 95.2455 528.458 94.7361 528.039 94.6033C527.935 94.5702 527.84 94.5839 527.716 94.5776C526.119 95.9451 525.005 97.1701 525.446 97.759C525.723 98.1539 526.719 97.8889 527.97 97.321C528.643 97.0302 528.999 96.2775 528.729 95.5672Z" fill="white"/>
<path d="M496.268 129.38C496.153 129.059 496.001 128.551 495.584 128.42C495.48 128.387 495.385 128.401 495.262 128.395C493.667 129.765 492.555 130.99 492.992 131.577C493.267 131.97 494.26 131.703 495.507 131.132C496.206 130.86 496.535 130.088 496.268 129.38Z" fill="white"/>
<path d="M466.306 143.413C466.19 143.091 466.033 142.58 465.614 142.447C465.509 142.413 465.413 142.427 465.29 142.42C463.691 143.787 462.576 145.011 463.019 145.602C463.298 145.998 464.296 145.734 465.548 145.167C466.222 144.877 466.531 144.131 466.306 143.413Z" fill="white"/>
<path d="M475.657 117.017C475.54 116.695 475.384 116.185 474.964 116.051C474.859 116.018 474.764 116.031 474.64 116.025C473.041 117.391 471.927 118.616 472.369 119.206C472.648 119.602 473.646 119.338 474.899 118.772C475.573 118.482 475.9 117.709 475.657 117.017Z" fill="white"/>
<path d="M453.64 198.392C453.526 198.071 453.373 197.563 452.957 197.432C452.852 197.399 452.758 197.413 452.635 197.407C451.04 198.776 449.927 200.002 450.364 200.588C450.64 200.982 451.632 200.714 452.879 200.144C453.579 199.872 453.907 199.1 453.64 198.392C453.669 198.412 453.64 198.392 453.64 198.392Z" fill="white"/>
<path d="M469.601 227.543C469.485 227.221 469.33 226.712 468.911 226.579C468.806 226.546 468.711 226.559 468.588 226.553C466.991 227.921 465.877 229.146 466.317 229.735C466.595 230.13 467.591 229.864 468.841 229.297C469.514 229.006 469.871 228.253 469.601 227.543Z" fill="white"/>
<path d="M437.965 238.534C437.85 238.213 437.697 237.706 437.281 237.574C437.177 237.541 437.082 237.555 436.959 237.55C435.364 238.919 434.252 240.145 434.688 240.731C434.964 241.124 435.956 240.857 437.204 240.287C437.903 240.014 438.213 239.269 437.965 238.534Z" fill="white"/>
<path d="M417.339 203.341C417.224 203.02 417.071 202.512 416.655 202.381C416.551 202.348 416.456 202.362 416.333 202.356C414.738 203.726 413.626 204.951 414.062 205.538C414.338 205.931 415.33 205.664 416.578 205.093C417.277 204.821 417.587 204.076 417.339 203.341C417.367 203.361 417.367 203.361 417.339 203.341Z" fill="white"/>
<path d="M428.079 160.734C427.963 160.412 427.806 159.902 427.386 159.768C427.281 159.735 427.186 159.748 427.063 159.742C425.464 161.108 424.349 162.333 424.792 162.923C425.071 163.319 426.069 163.055 427.321 162.489C427.995 162.199 428.304 161.453 428.079 160.734C428.079 160.734 428.06 160.761 428.079 160.734Z" fill="white"/>
<path d="M342.69 61.8752V96.3681" stroke="#202124" stroke-width="2.3485" stroke-linecap="round"/>
<path d="M367.344 88.2937H312.066" stroke="#202124" stroke-width="2.3485" stroke-linecap="round"/>
<path d="M318.941 109.053C318.941 109.053 328.31 101.904 337.367 101.904" stroke="#202124" stroke-width="2.3485" stroke-linecap="round"/>
<path d="M365.693 69.1853C365.693 69.1853 345.372 83.4826 318.116 69.1853" stroke="#202124" stroke-width="2.3485" stroke-linecap="round"/>
<path d="M332.967 118.401C332.967 118.401 315.366 94.4441 332.967 62.3119" stroke="#202124" stroke-width="2.3485" stroke-linecap="round"/>
<path d="M360.059 95.9922C360.254 94.9169 360.397 93.8295 360.488 92.7301C361.18 84.347 358.836 75.2613 353.456 65.4729" stroke="#202124" stroke-width="2.3485" stroke-linecap="round"/>
<ellipse cx="340.805" cy="87.1931" rx="31.7628" ry="28.7325" transform="rotate(-25 340.805 87.1931)" stroke="#202124" stroke-width="3.355" stroke-linecap="round"/>
<path d="M342.452 108.064C342.452 105.192 344.78 102.864 347.652 102.864H378.785C381.657 102.864 383.985 105.192 383.985 108.064V128.379C383.985 131.251 381.657 133.579 378.785 133.579H376.616C374.531 133.579 372.524 134.376 371.008 135.808C369.023 137.682 365.921 137.682 363.937 135.808C362.42 134.376 360.414 133.579 358.328 133.579H347.652C344.78 133.579 342.452 131.251 342.452 128.379V108.064Z" fill="white" stroke="#202124" stroke-width="3.0195"/>
<path d="M359.331 113.011C356.556 113.079 354.444 113.133 352.331 113.174C351.908 113.188 351.486 113.16 351.077 113.079C350.612 112.997 350.345 112.67 350.302 112.235C350.246 111.799 350.443 111.391 350.866 111.241C351.528 111.01 352.204 110.806 352.894 110.724C357.233 110.234 364.602 109.866 368.969 109.88C369.885 109.88 370.8 109.88 371.716 109.88C372.068 109.88 372.42 109.866 372.772 109.907C373.603 109.989 374.124 110.356 374.209 110.887C374.293 111.418 373.857 111.895 373.04 112.126C372.631 112.235 372.209 112.303 371.8 112.33C368.434 112.575 362.05 112.82 359.331 113.011Z" fill="#202124"/>
<path d="M360.585 117.026C362.532 117.026 370.437 117.026 372.37 117.026C373.135 117.026 373.9 117.065 374.595 117.412C375.18 117.707 375.193 118.491 374.637 118.851C374.164 119.16 373.608 119.211 373.066 119.275C369.686 119.648 360.335 119.892 356.941 119.995C355.481 120.046 354.021 120.059 352.574 120.046C352.088 120.046 351.601 119.995 351.142 119.892C350.641 119.789 350.307 119.352 350.294 118.902C350.28 118.478 350.516 118.144 350.905 117.977C351.281 117.823 351.684 117.733 352.088 117.643C353.381 117.36 354.702 117.322 356.009 117.271C357.539 117.219 359.055 117.142 360.585 117.065C360.585 117.065 360.585 117.039 360.585 117.026Z" fill="#202124"/>
<path d="M364.419 122.525C365.485 122.525 366.55 122.525 367.602 122.525C368.028 122.525 368.454 122.525 368.866 122.58C369.406 122.662 369.804 123.1 369.818 123.538C369.833 123.948 369.435 124.454 368.923 124.55C368.156 124.687 367.389 124.769 366.607 124.851C362.174 125.343 357.712 125.685 353.25 125.808C352.469 125.836 351.687 125.877 350.962 125.494C350.522 125.261 350.422 124.563 350.806 124.276C351.019 124.112 351.275 123.948 351.531 123.88C352.284 123.688 353.051 123.51 353.819 123.414C357.343 123.004 360.866 122.607 364.419 122.525Z" fill="#202124"/>
<path d="M470.459 28.1968C470.702 27.7559 470.591 27.3509 470.511 26.9398C469.871 23.6511 466.972 8.73604 466.327 5.41568C466.161 4.56187 465.972 4.43451 465.169 4.525C461.424 5.02315 432.375 10.4729 428.636 11.0026C427.675 11.1239 427.522 11.3505 427.649 12.3431C427.892 14.1008 430.516 27.4286 430.727 29.1924C431 31.4367 431.208 33.6934 431.417 35.95C431.446 36.4366 431.418 36.9672 431.415 37.46C431.374 38.0915 431.181 38.6212 430.491 38.7881C429.954 38.8927 429.488 38.5238 429.277 37.7771C429.147 37.2773 429.023 36.8091 428.957 36.297C428.73 34.9627 428.51 33.6601 428.346 32.3135C427.993 29.8223 425.412 15.6987 425.059 13.2075C424.95 12.4741 424.834 11.709 424.819 10.9571C424.781 9.75012 425.144 9.25293 426.34 8.98763C429.612 8.2532 458.133 2.2826 461.497 2.02251C462.756 1.90916 463.984 1.63771 465.224 1.42949C465.73 1.3311 466.198 1.20723 466.717 1.17208C467.987 1.12198 468.762 1.72631 468.982 3.02898C469.465 6.01994 472.201 20.6056 472.653 23.6027C472.891 25.1645 473.103 26.7641 473.278 28.3382C473.422 29.7542 473.135 30.1381 471.849 30.6177C471.754 30.6362 471.697 30.6801 471.602 30.6985C468.191 31.5586 439.437 37.3447 436.019 38.1731C435.456 38.3154 434.842 38.369 434.286 38.3787C433.591 38.3497 432.943 37.7208 432.896 37.1393C432.842 36.5262 433.301 35.8463 433.941 35.5907C434.093 35.5283 434.245 35.4659 434.441 35.4606C437.851 34.9291 466.38 28.6616 469.845 28.4147C470.003 28.384 470.244 28.2715 470.459 28.1968Z" fill="#202124"/>
<path d="M433.034 35.6953L442.046 17.9754L455.249 26.1622L459.376 20.0719L468.487 25.6587C469.093 26.0299 469.281 26.8203 468.907 27.424C468.542 28.014 467.775 28.2074 467.176 27.8693L467.134 27.8449L460.127 23.5483L455.993 29.6489L443.071 21.6361L435.332 36.8523C435.017 37.4709 434.269 37.7273 433.643 37.4398L433.6 37.4193C432.98 37.1069 432.723 36.3621 433.013 35.7377L433.034 35.6953Z" fill="#202124"/>
<path fill-rule="evenodd" clip-rule="evenodd" d="M455.213 17.6286C456.309 18.1603 457.45 18.3481 458.673 18.0917C458.786 18.0651 458.899 18.0397 459.012 18.0142C459.348 17.9383 459.687 17.862 460.03 17.7535C462.99 16.8988 463.345 14.3908 462.72 12.5203C462.186 10.9298 461.116 9.76001 459.643 9.02226C458.691 8.55565 457.635 8.12803 456.59 8.05178C454.876 7.90093 453.394 8.5613 452.659 10.2682C451.975 11.8534 452.047 13.4777 452.747 15.0546C453.248 16.186 454.078 17.0859 455.213 17.6286ZM456.201 15.7793C455.363 15.03 454.876 14.0635 454.726 13.2921C454.511 11.9002 454.68 10.9365 455.359 10.097C455.933 9.38965 457.142 9.0615 457.928 9.54173C459.475 10.4698 460.545 11.7328 460.734 13.5763C460.867 14.8353 460.189 15.9723 459.087 16.4659C457.967 16.9629 457.015 16.4963 456.201 15.7793Z" fill="#202124"/>
<path d="M249.347 57.5162C248.742 57.5162 248.55 57.0763 248.275 56.8013C246.625 55.2341 245.002 53.6394 243.352 52.0722C242.967 51.6873 242.472 51.3848 242.004 51.1099C241.729 50.9449 241.399 50.9999 241.152 51.2199C240.904 51.4398 240.767 51.7148 240.822 52.0447C240.932 52.7321 241.344 53.282 241.812 53.7769C243.022 55.0692 244.287 56.3614 245.525 57.6537C246.02 58.1761 246.542 58.671 247.037 59.1659C246.817 59.6608 246.487 59.5508 246.212 59.5508C244.177 59.5508 242.142 59.5233 240.107 59.4958C239.502 59.4958 238.869 59.4683 238.292 59.6883C237.934 59.8258 237.604 59.9632 237.357 60.2657C236.972 60.7056 237.054 61.3655 237.522 61.7229C237.934 62.0528 238.429 62.1078 238.924 62.1353C241.152 62.2453 243.352 62.3278 245.58 62.4378C245.937 62.4653 246.267 62.4653 246.597 62.4928C246.625 63.0702 246.24 63.2076 245.992 63.4551C245.03 64.3899 244.012 65.2972 243.077 66.2596C242.444 66.9194 241.867 67.6618 241.289 68.3767C240.767 69.0365 240.712 69.449 241.014 69.6689C241.509 70.0539 241.949 69.7239 242.362 69.504C244.177 68.5416 245.717 67.2219 247.202 65.8196C247.835 65.2148 248.44 64.6099 249.072 64.0325C249.265 63.8675 249.622 63.9775 249.622 64.1974C249.65 64.4999 249.65 64.8023 249.677 65.1323C249.76 66.9194 249.842 68.7066 249.952 70.4663C249.98 70.9612 250.062 71.4561 250.227 71.896C250.42 72.4459 251.052 72.8033 251.547 72.6934C252.07 72.5834 252.427 72.2259 252.537 71.7035C252.62 71.2911 252.647 70.8512 252.647 70.4113C252.647 68.8166 252.592 67.2219 252.592 65.5997C252.592 65.4347 252.62 65.2148 252.73 65.1048C253.005 64.8848 253.17 65.1598 253.308 65.3247C254.545 66.5345 255.755 67.7443 256.993 68.9541C257.378 69.339 257.818 69.6964 258.285 69.9714C258.808 70.3013 259.413 70.1638 259.77 69.7239C260.073 69.339 260.128 68.8166 259.798 68.3492C259.55 67.9917 259.248 67.6893 258.945 67.3869C257.845 66.3146 256.718 65.2697 255.59 64.2249C255.095 63.7575 254.6 63.2901 254.133 62.8227C253.94 62.6302 254.05 62.3003 254.27 62.2728C254.518 62.2453 254.765 62.2178 255.013 62.1903C257.35 62.1353 259.688 62.0529 262.025 61.9979C262.438 61.9704 262.878 61.9429 263.291 61.8329C263.813 61.6954 264.143 61.228 264.143 60.7331C264.143 60.2657 263.841 59.7983 263.291 59.6608C262.823 59.5508 262.328 59.4958 261.833 59.4958C259.99 59.4958 258.148 59.5233 256.278 59.4958C255.618 59.4958 254.958 59.4683 254.325 59.4408C254.16 58.9459 254.518 58.8085 254.71 58.6435C256.14 57.2962 257.598 55.9765 259.028 54.6017C259.523 54.1343 259.935 53.6119 260.348 53.062C260.568 52.7596 260.678 52.3747 260.403 52.0447C260.128 51.6873 259.77 51.7148 259.413 51.9072C259.028 52.1272 258.67 52.3472 258.313 52.5946C256.663 53.8594 254.903 55.0142 253.363 56.4714C253.198 56.6364 252.977 56.7738 252.785 56.9113C252.565 57.0488 252.4 56.8838 252.345 56.7463C252.262 56.5264 252.29 56.2514 252.29 56.004C252.18 54.0518 252.042 52.0722 251.932 50.1201C251.905 49.4327 251.822 48.7728 251.465 48.1679C251.107 47.5906 250.31 47.5906 249.952 48.1954C249.705 48.5804 249.705 49.0203 249.65 49.4327C249.402 51.4673 249.375 53.4745 249.485 55.5091C249.457 56.1964 249.595 56.8838 249.347 57.5162Z" fill="#20BEFF"/>
<path fill-rule="evenodd" clip-rule="evenodd" d="M540.505 11.4082C539.322 9.29114 537.039 8.19135 534.894 8.90621C532.364 9.73106 530.824 11.2433 530.989 13.9103C530.962 14.9551 531.154 15.9999 531.594 16.9897C532.859 19.9042 536.847 20.784 539.24 18.6669C541.082 17.0722 541.687 13.5253 540.505 11.4082ZM534.344 12.8379C534.784 11.7656 535.967 11.3257 536.957 11.9306C537.699 12.3705 538.14 13.0579 538.057 14.5151C538.057 14.4156 538.057 14.3756 538.056 14.3756C538.054 14.3755 538.048 14.5416 538.03 14.7076C537.865 15.8074 537.177 16.4673 536.077 16.5497C535.142 16.6322 534.537 16.1098 534.207 14.9825C533.987 14.2677 534.042 13.5528 534.344 12.8379Z" fill="#202124"/>
<path d="M428.177 82.4098C427.572 82.4098 427.379 81.9698 427.104 81.6949C425.454 80.1277 423.832 78.533 422.182 76.9658C421.797 76.5808 421.302 76.2784 420.834 76.0035C420.559 75.8385 420.229 75.8935 419.981 76.1134C419.734 76.3334 419.596 76.6083 419.651 76.9383C419.761 77.6256 420.174 78.1755 420.642 78.6705C421.852 79.9627 423.117 81.255 424.354 82.5472C424.849 83.0696 425.372 83.5645 425.867 84.0594C425.647 84.5544 425.317 84.4444 425.042 84.4444C423.007 84.4444 420.972 84.4169 418.936 84.3894C418.331 84.3894 417.699 84.3619 417.121 84.5818C416.764 84.7193 416.434 84.8568 416.186 85.1592C415.801 85.5992 415.884 86.259 416.351 86.6165C416.764 86.9464 417.259 87.0014 417.754 87.0289C419.981 87.1389 422.182 87.2214 424.409 87.3313C424.767 87.3588 425.097 87.3588 425.427 87.3863C425.454 87.9637 425.069 88.1012 424.822 88.3486C423.859 89.2835 422.842 90.1908 421.907 91.1531C421.274 91.813 420.697 92.5554 420.119 93.2702C419.596 93.9301 419.541 94.3425 419.844 94.5625C420.339 94.9474 420.779 94.6175 421.192 94.3975C423.007 93.4352 424.547 92.1154 426.032 90.7132C426.664 90.1083 427.269 89.5034 427.902 88.926C428.094 88.7611 428.452 88.871 428.452 89.091C428.479 89.3934 428.479 89.6959 428.507 90.0258C428.589 91.813 428.672 93.6002 428.782 95.3598C428.809 95.8547 428.892 96.3496 429.057 96.7896C429.249 97.3395 429.882 97.6969 430.377 97.5869C430.9 97.4769 431.257 97.1195 431.367 96.5971C431.45 96.1847 431.477 95.7448 431.477 95.3048C431.477 93.7101 431.422 92.1154 431.422 90.4932C431.422 90.3283 431.45 90.1083 431.56 89.9983C431.835 89.7784 432 90.0533 432.137 90.2183C433.375 91.4281 434.585 92.6378 435.822 93.8476C436.207 94.2325 436.647 94.59 437.115 94.8649C437.637 95.1949 438.242 95.0574 438.6 94.6175C438.902 94.2325 438.957 93.7101 438.627 93.2427C438.38 92.8853 438.077 92.5828 437.775 92.2804C436.675 91.2081 435.547 90.1633 434.42 89.1185C433.925 88.6511 433.43 88.1837 432.962 87.7163C432.77 87.5238 432.88 87.1939 433.1 87.1664C433.347 87.1389 433.595 87.1114 433.842 87.0839C436.18 87.0289 438.517 86.9464 440.855 86.8914C441.268 86.8639 441.708 86.8364 442.12 86.7264C442.643 86.589 442.973 86.1216 442.973 85.6267C442.973 85.1592 442.67 84.6918 442.12 84.5544C441.653 84.4444 441.158 84.3894 440.663 84.3894C438.82 84.3894 436.977 84.4169 435.107 84.3894C434.447 84.3894 433.787 84.3619 433.155 84.3344C432.99 83.8395 433.347 83.702 433.54 83.537C434.97 82.1898 436.427 80.87 437.857 79.4953C438.352 79.0279 438.765 78.5055 439.177 77.9556C439.397 77.6531 439.507 77.2682 439.232 76.9383C438.957 76.5808 438.6 76.6083 438.242 76.8008C437.857 77.0208 437.5 77.2407 437.142 77.4882C435.492 78.7529 433.732 79.9077 432.192 81.3649C432.027 81.5299 431.807 81.6674 431.615 81.8049C431.395 81.9423 431.23 81.7774 431.175 81.6399C431.092 81.4199 431.12 81.145 431.12 80.8975C431.01 78.9454 430.872 76.9658 430.762 75.0136C430.735 74.3263 430.652 73.6664 430.295 73.0615C429.937 72.4841 429.139 72.4841 428.782 73.089C428.534 73.4739 428.534 73.9138 428.479 74.3263C428.232 76.3609 428.204 78.368 428.314 80.4026C428.314 81.09 428.452 81.7774 428.177 82.4098Z" fill="#202124"/>
</g>
<defs>
<clipPath id="clip0_225_79015">
<rect width="563.999" height="386.501" fill="white" transform="translate(0 0.499023)"/>
</clipPath>
</defs>
</svg>
